<?xml version="1.0" encoding="UTF-8" standalone="no"?>
<!-- http://code.google.com/p/vector-playing-cards/ -->

<svg
   xmlns:dc="http://purl.org/dc/elements/1.1/"
   xmlns:cc="http://creativecommons.org/ns#"
   xmlns:rdf="http://www.w3.org/1999/02/22-rdf-syntax-ns#"
   xmlns:svg="http://www.w3.org/2000/svg"
   xmlns="http://www.w3.org/2000/svg"
   xmlns:xlink="http://www.w3.org/1999/xlink"
   xmlns:sodipodi="http://sodipodi.sourceforge.net/DTD/sodipodi-0.dtd"
   xmlns:inkscape="http://www.inkscape.org/namespaces/inkscape"
   width="167.0869141pt"
   height="242.6669922pt"
   viewBox="0 0 167.0869141 242.6669922"
   xml:space="preserve"
   id="svg2"
   version="1.1"
   inkscape:version="0.91 r13725"
   sodipodi:docname="jack_of_hearts.svg"
   inkscape:export-filename="/home/byron/art/cards/final/PNGs/jack_of_hearts2.png"
   inkscape:export-xdpi="215.44792"
   inkscape:export-ydpi="215.44792"><metadata
     id="metadata43"><rdf:RDF><cc:Work
         rdf:about=""><dc:format>image/svg+xml</dc:format><dc:type
           rdf:resource="http://purl.org/dc/dcmitype/StillImage" /><dc:title /></cc:Work></rdf:RDF></metadata><defs
     id="defs41"><radialGradient
       inkscape:collect="always"
       xlink:href="#linearGradient3773"
       id="radialGradient3781"
       cx="-0.15782039"
       cy="-8.8345356"
       fx="-0.15782039"
       fy="-8.8345356"
       r="7.9997029"
       gradientTransform="matrix(-1.5842693,-0.02349808,0.03071979,-2.4775745,-0.24856378,-26.713507)"
       gradientUnits="userSpaceOnUse" /><linearGradient
       id="linearGradient3773"><stop
         style="stop-color:#000000;stop-opacity:1;"
         offset="0"
         id="stop3775" /><stop
         style="stop-color:#000000;stop-opacity:0.64885497;"
         offset="1"
         id="stop3777" /></linearGradient><radialGradient
       inkscape:collect="always"
       xlink:href="#linearGradient3773"
       id="radialGradient3957"
       cx="-0.15782039"
       cy="-8.8345356"
       fx="-0.15782039"
       fy="-8.8345356"
       r="7.9997029"
       gradientTransform="matrix(-1.5842693,-0.02349808,0.03071979,-2.4775745,-0.24856378,-26.713507)"
       gradientUnits="userSpaceOnUse" /><linearGradient
       id="linearGradient3959"><stop
         style="stop-color:#000000;stop-opacity:1;"
         offset="0"
         id="stop3961" /><stop
         style="stop-color:#000000;stop-opacity:0.64885497;"
         offset="1"
         id="stop3963" /></linearGradient><radialGradient
       r="81.902771"
       fy="509.47577"
       fx="168.02475"
       cy="509.47577"
       cx="168.02475"
       gradientTransform="matrix(1.2565605,-0.77740644,0.33663816,0.5361257,-221.20213,359.24256)"
       gradientUnits="userSpaceOnUse"
       id="radialGradient3975"
       xlink:href="#linearGradient3784-4"
       inkscape:collect="always" /><linearGradient
       id="linearGradient3784-4"><stop
         style="stop-color:#ffffff;stop-opacity:0.4351145;"
         offset="0"
         id="stop3786-8" /><stop
         style="stop-color:#000000;stop-opacity:0;"
         offset="1"
         id="stop3788-6" /></linearGradient><radialGradient
       inkscape:collect="always"
       xlink:href="#linearGradient3784-4-5"
       id="radialGradient3929"
       gradientUnits="userSpaceOnUse"
       gradientTransform="matrix(1.2565605,-0.77740644,0.33663816,0.5361257,-221.20213,359.24256)"
       cx="168.02475"
       cy="509.47577"
       fx="168.02475"
       fy="509.47577"
       r="81.902771" /><linearGradient
       id="linearGradient3784-4-5"><stop
         style="stop-color:#ffffff;stop-opacity:0.48854962;"
         offset="0"
         id="stop3786-8-0" /><stop
         style="stop-color:#000000;stop-opacity:0;"
         offset="1"
         id="stop3788-6-3" /></linearGradient><radialGradient
       inkscape:collect="always"
       xlink:href="#linearGradient3784-4-1"
       id="radialGradient3927"
       gradientUnits="userSpaceOnUse"
       gradientTransform="matrix(1.2565605,-0.77740644,0.33663816,0.5361257,-221.20213,359.24256)"
       cx="168.02475"
       cy="509.47577"
       fx="168.02475"
       fy="509.47577"
       r="81.902771" /><linearGradient
       id="linearGradient3784-4-1"><stop
         style="stop-color:#ffffff;stop-opacity:0.23664123;"
         offset="0"
         id="stop3786-8-03" /><stop
         style="stop-color:#000000;stop-opacity:0;"
         offset="1"
         id="stop3788-6-6" /></linearGradient><linearGradient
       id="linearGradient3768"><stop
         style="stop-color:#df0000;stop-opacity:1;"
         offset="0"
         id="stop3770" /><stop
         style="stop-color:#df0000;stop-opacity:0.67175573;"
         offset="1"
         id="stop3772" /></linearGradient><linearGradient
       id="linearGradient3784-4-6"><stop
         style="stop-color:#ffffff;stop-opacity:0.31297711;"
         offset="0"
         id="stop3786-8-8" /><stop
         style="stop-color:#000000;stop-opacity:0;"
         offset="1"
         id="stop3788-6-8" /></linearGradient><radialGradient
       r="81.902771"
       fy="492.63205"
       fx="159.35434"
       cy="492.63205"
       cx="159.35434"
       gradientTransform="matrix(1.0894779,-0.71513803,0.44645273,0.65626582,-244.93331,290.9185)"
       gradientUnits="userSpaceOnUse"
       id="radialGradient4013-8"
       xlink:href="#linearGradient3784-4-2"
       inkscape:collect="always" /><linearGradient
       id="linearGradient3784-4-2"><stop
         style="stop-color:#ffffff;stop-opacity:0.29007635;"
         offset="0"
         id="stop3786-8-1" /><stop
         style="stop-color:#000000;stop-opacity:0;"
         offset="1"
         id="stop3788-6-5" /></linearGradient><radialGradient
       gradientUnits="userSpaceOnUse"
       gradientTransform="matrix(-1.5842693,-0.02349808,0.03071979,-2.4775745,-0.24856378,-26.713507)"
       r="7.9997029"
       fy="-8.8345356"
       fx="-0.15782039"
       cy="-8.8345356"
       cx="-0.15782039"
       id="radialGradient3781-6"
       xlink:href="#linearGradient3773"
       inkscape:collect="always" /><radialGradient
       gradientUnits="userSpaceOnUse"
       gradientTransform="matrix(-1.5842693,-0.02349808,0.03071979,-2.4775745,-0.24856378,-26.713507)"
       r="7.9997029"
       fy="-8.8345356"
       fx="-0.15782039"
       cy="-8.8345356"
       cx="-0.15782039"
       id="radialGradient3957-9"
       xlink:href="#linearGradient3773"
       inkscape:collect="always" /><radialGradient
       inkscape:collect="always"
       xlink:href="#linearGradient3784-4"
       id="radialGradient3975-0"
       gradientUnits="userSpaceOnUse"
       gradientTransform="matrix(1.2565605,-0.77740644,0.33663816,0.5361257,-221.20213,359.24256)"
       cx="168.02475"
       cy="509.47577"
       fx="168.02475"
       fy="509.47577"
       r="81.902771" /><radialGradient
       r="81.902771"
       fy="509.47577"
       fx="168.02475"
       cy="509.47577"
       cx="168.02475"
       gradientTransform="matrix(1.2565605,-0.77740644,0.33663816,0.5361257,-221.20213,359.24256)"
       gradientUnits="userSpaceOnUse"
       id="radialGradient3929-0"
       xlink:href="#linearGradient3784-4"
       inkscape:collect="always" /><radialGradient
       r="81.902771"
       fy="509.47577"
       fx="168.02475"
       cy="509.47577"
       cx="168.02475"
       gradientTransform="matrix(1.2565605,-0.77740644,0.33663816,0.5361257,-221.20213,359.24256)"
       gradientUnits="userSpaceOnUse"
       id="radialGradient3927-6"
       xlink:href="#linearGradient3784-4"
       inkscape:collect="always" /><radialGradient
       inkscape:collect="always"
       xlink:href="#linearGradient3784-4"
       id="radialGradient4013-8-6"
       gradientUnits="userSpaceOnUse"
       gradientTransform="matrix(1.0894779,-0.71513803,0.44645273,0.65626582,-244.93331,290.9185)"
       cx="159.35434"
       cy="492.63205"
       fx="159.35434"
       fy="492.63205"
       r="81.902771" /><radialGradient
       gradientUnits="userSpaceOnUse"
       gradientTransform="matrix(-1.5842693,-0.02349808,0.03071979,-2.4775745,-0.24856378,-26.713507)"
       r="7.9997029"
       fy="-8.8345356"
       fx="-0.15782039"
       cy="-8.8345356"
       cx="-0.15782039"
       id="radialGradient3781-8"
       xlink:href="#linearGradient3773"
       inkscape:collect="always" /><radialGradient
       gradientUnits="userSpaceOnUse"
       gradientTransform="matrix(-1.5842693,-0.02349808,0.03071979,-2.4775745,-0.24856378,-26.713507)"
       r="7.9997029"
       fy="-8.8345356"
       fx="-0.15782039"
       cy="-8.8345356"
       cx="-0.15782039"
       id="radialGradient3957-2"
       xlink:href="#linearGradient3773"
       inkscape:collect="always" /><radialGradient
       inkscape:collect="always"
       xlink:href="#linearGradient3784-4"
       id="radialGradient3975-5"
       gradientUnits="userSpaceOnUse"
       gradientTransform="matrix(1.2565605,-0.77740644,0.33663816,0.5361257,-221.20213,359.24256)"
       cx="168.02475"
       cy="509.47577"
       fx="168.02475"
       fy="509.47577"
       r="81.902771" /><radialGradient
       r="81.902771"
       fy="509.47577"
       fx="168.02475"
       cy="509.47577"
       cx="168.02475"
       gradientTransform="matrix(1.2565605,-0.77740644,0.33663816,0.5361257,-221.20213,359.24256)"
       gradientUnits="userSpaceOnUse"
       id="radialGradient3929-9"
       xlink:href="#linearGradient3784-4"
       inkscape:collect="always" /><radialGradient
       r="81.902771"
       fy="509.47577"
       fx="168.02475"
       cy="509.47577"
       cx="168.02475"
       gradientTransform="matrix(1.2565605,-0.77740644,0.33663816,0.5361257,-221.20213,359.24256)"
       gradientUnits="userSpaceOnUse"
       id="radialGradient3927-4"
       xlink:href="#linearGradient3784-4"
       inkscape:collect="always" /><radialGradient
       inkscape:collect="always"
       xlink:href="#linearGradient3784-4"
       id="radialGradient4013-8-4"
       gradientUnits="userSpaceOnUse"
       gradientTransform="matrix(1.0894779,-0.71513803,0.44645273,0.65626582,-244.93331,290.9185)"
       cx="159.35434"
       cy="492.63205"
       fx="159.35434"
       fy="492.63205"
       r="81.902771" /></defs><sodipodi:namedview
     pagecolor="#ffffff"
     bordercolor="#666666"
     borderopacity="1"
     objecttolerance="10"
     gridtolerance="10"
     guidetolerance="10"
     inkscape:pageopacity="0"
     inkscape:pageshadow="2"
     inkscape:window-width="1440"
     inkscape:window-height="811"
     id="namedview39"
     showgrid="false"
     inkscape:zoom="1.7208768"
     inkscape:cx="16.899798"
     inkscape:cy="149.17398"
     inkscape:window-x="0"
     inkscape:window-y="0"
     inkscape:window-maximized="1"
     inkscape:current-layer="g4461" /><g
     id="Layer_x0020_1"
     style="fill-rule:nonzero;clip-rule:nonzero;stroke:#000000;stroke-miterlimit:4;"><path
       style="fill:#FFFFFF;stroke-width:0.5;"
       d="M166.8369141,235.5478516c0,3.7773438-3.0869141,6.8691406-6.8710938,6.8691406H7.1108398c-3.7749023,0-6.8608398-3.0917969-6.8608398-6.8691406V7.1201172C0.25,3.3427734,3.3359375,0.25,7.1108398,0.25h152.8549805    c3.7841797,0,6.8710938,3.0927734,6.8710938,6.8701172v228.4277344z"
       id="path5" /><g
       style="stroke:none;"
       id="g7"><g
         id="g9" /></g><g
       id="g15" /><g
       id="g19" /><g
       style="stroke:none;"
       id="g23"><g
         id="g25" /></g><g
       style="stroke:none;"
       id="g31"><g
         id="g33" /></g></g><text
     xml:space="preserve"
     style="font-size:32px;font-style:normal;font-weight:normal;line-height:125%;letter-spacing:0px;word-spacing:0px;fill:#df0000;fill-opacity:1;stroke:none;font-family:Bitstream Vera Sans"
     x="4.3319936"
     y="28.943047"
     id="text3788"
     sodipodi:linespacing="125%"><tspan
       sodipodi:role="line"
       id="tspan3790"
       x="4.3319936"
       y="28.943047"
       style="font-style:normal;font-variant:normal;font-weight:normal;font-stretch:normal;fill:#df0000;fill-opacity:1;font-family:Arial;-inkscape-font-specification:Arial">J</tspan></text>
<g
     transform="matrix(1.1121828,0,0,1.0408972,11.308902,41.753075)"
     id="layer1-9-6-9"
     style="fill:#df0000;fill-opacity:1"><path
       style="fill:#df0000;fill-opacity:1"
       inkscape:connector-curvature="0"
       id="hl-8-17"
       d="M 3.676,-9 C 0.433,-9 0,-5.523 0,-5.523 0,-5.523 -0.433,-9 -3.676,-9 -5.946,-9 -8,-7.441 -8,-4.5 -8,-0.614 -1.4208493,3.2938141 0,9 1.35201,3.2985969 8,-0.614 8,-4.5 8,-7.441 5.946,-9 3.676,-9 z"
       sodipodi:nodetypes="scsscss" /></g><text
     xml:space="preserve"
     style="font-size:32px;font-style:normal;font-weight:normal;line-height:125%;letter-spacing:0px;word-spacing:0px;fill:#df0000;fill-opacity:1;stroke:none;font-family:Bitstream Vera Sans"
     x="-163.01303"
     y="-213.34535"
     id="text3788-9"
     sodipodi:linespacing="125%"
     transform="scale(-1,-1)"><tspan
       sodipodi:role="line"
       id="tspan3790-7"
       x="-163.01303"
       y="-213.34535"
       style="font-style:normal;font-variant:normal;font-weight:normal;font-stretch:normal;fill:#df0000;fill-opacity:1;font-family:Arial;-inkscape-font-specification:Arial">J</tspan></text>
<g
     transform="matrix(-1.1121828,0,0,-1.0408972,156.03613,200.53531)"
     id="layer1-9-6-9-7"
     style="fill:#df0000;fill-opacity:1"><path
       style="fill:#df0000;fill-opacity:1"
       inkscape:connector-curvature="0"
       id="hl-8-17-3"
       d="M 3.676,-9 C 0.433,-9 0,-5.523 0,-5.523 0,-5.523 -0.433,-9 -3.676,-9 -5.946,-9 -8,-7.441 -8,-4.5 -8,-0.614 -1.4208493,3.2938141 0,9 1.35201,3.2985969 8,-0.614 8,-4.5 8,-7.441 5.946,-9 3.676,-9 z"
       sodipodi:nodetypes="scsscss" /></g><g
     id="g4587"
     transform="matrix(0.75191328,0,0,0.75078652,-1.1117992,3.4531729)"><g
       id="g4591"><path
         id="path4593"
         d="m 192.456,36.83 -11.514,7.505 -0.16,8.753 c -6.828,-3.276 -9.796,-8.642 -10.87,-14.928 -1.932,2.436 -1.548,14.734 -1.548,14.734 -1.755,0.911 -2.396,2.099 -3.517,3.168 1.102,1.819 4.219,4.914 4.219,4.914 -0.022,-0.055 -1.429,12.805 0.273,13.317 1.556,-5.481 3.628,-10.263 11.255,-15.277 0,0 0.115,20.416 -0.373,40.14 -3.227,-2.221 -10.05,-6.211 -14.459,-10.293 5.716,-7.372 -0.112,-16.98 -8.641,-10.598 -5.528,-2.992 -6.378,-17.125 -7.745,-24.529 -0.263,-1.485 -1.55,-5.839 -1.55,-5.839 0,0 -18.217,-5.038 -26.04,-4.628 6.57,17.121 5.295,37.985 -23.783,41.894 -13.932,6.371 -30.029,13.473 -45.672,26.741 -2.882,19.755 -13.071,29.482 -20.266,34.862 0.052,8.006 -0.053,15.93 0.276,24.01 -0.007,0.049 6.567,-4.315 7.6,-3.512 5.493,35.705 25.611,42.784 23.599,43.773 -0.324,0.159 -6.592,6.602 -6.592,6.602 L 32.395,201.466 c -0.842,24.687 -0.354,49.86 0,74.589 4.335,-2.45 12.303,-8.312 12.303,-8.312 l 0.121,-8.399 c -0.037,-0.798 11.165,6.997 11.192,16.282 0.872,0.593 2.783,-13.362 1.043,-14.873 l 4.592,-4.737 -4.945,-4.761 c 0,0 1.255,-7.903 -1.308,-12.455 -1.661,10.421 -10.312,13.671 -10.312,13.671 0,0 -0.168,-38.092 -0.392,-38.125 l 15.432,9.77 c -1.149,0.236 -4.088,5.699 -1.022,10.123 1.867,2.695 8.58,2.516 9.097,-0.586 9.491,8.844 5.837,19.417 9.988,31.964 l 26.931,4.941 c -11.099,-20.592 0.945,-44.055 22.741,-42.378 4.083,-1.701 7.779,-4.156 7.779,-4.156 0,0 -2.71,-4.429 -6.132,-8.54 l -46.65,-0.77 21.746,-40.773 -14.303,-0.46 c 0,0 11.624,-24.652 9.112,-26.638 -0.882,-0.697 -0.513,-8.646 -0.513,-8.646 l 12.776,0.475 c 0.505,-5.69 -6.179,-27.371 -15.609,-41.55 l 52.434,0.47 -29.518,41.167 15.854,0.455 -9.46,19.433 1.516,15.156 -14.066,0.455 c 2.425,21.012 18.034,43.15 23.521,49.987 9.071,-2.15 26.008,-15.112 36.518,-23.171 1.362,-14.1 6.217,-26.104 18.91,-35.058 l 0.039,-23.213 c 0,0 -7.245,4.677 -7.243,4.354 0.03,-5.024 -2.59,-15.483 -7.421,-24.805 -5.184,-10.003 -13.694,-19.063 -15.651,-19.631 4.501,-6.81 6.422,-7.42 6.358,-7.528 l 24.517,15.723 z M 68.877,86.325 c 0,0 -4.768,1.815 -8.912,1.758 -7.425,0.383 -13.089,0.982 -16.101,7.072 -0.612,1.854 0.729,2.537 1.715,3.022 5.598,-6.95 20.473,2.23 23.298,-11.853 z m -32.962,31.891 c 0,0.981 1.097,2.585 1.647,0.92 0.477,-1.188 0.574,-3.115 0.039,-4.301 -1.491,-0.839 -1.668,2.42 -1.686,3.381 z m 80.411,33.625 -7.251,0.034 -0.044,8.51 7.387,0.349 z m 71.227,42.368 c -0.159,0.846 -0.941,4.648 0.828,3.986 2.088,-1.608 0.31,-8.999 -0.828,-3.986 z m -6.826,21.365 c -0.856,-1.248 -3.505,1.854 -5.679,1.97 -9.661,0.517 -16.778,-0.776 -17.982,9.331 5.571,-3.557 13.378,-1.935 18.406,-3.085 3.635,-1.207 7.806,-4.498 5.255,-8.216 z"
         inkscape:connector-curvature="0"
         style="fill:#e2cf00" /><path
         id="path4595"
         d="M 30.999,287.711 C 29.963,199.098 30.53,111.631 30.882,24.01 l 163.552,1.007 c -0.634,87.448 -0.793,175.163 0.321,263.486 z m 7.087,-170.475 c 0.142,-2.535 -0.9,-3.586 -1.806,-1.842 -0.214,0.412 -0.919,4.818 0.749,4.966 1.095,0.097 0.996,-2.035 1.057,-3.123 z m -2.648,2.973 c -0.01,-0.598 -0.379,-0.859 0.44,-6.068 -1.558,-0.602 -2.906,-3.132 -1.77,-4.73 0.443,-0.623 0.314,-0.761 0.133,-1.285 -0.446,-1.295 -0.209,-2.35 0.993,-3.175 0.768,-0.527 0.802,-0.667 0.556,-1.362 -0.633,-1.79 -0.038,-3.536 1.674,-4.13 1.186,-0.411 0.957,-0.471 1.082,-1.222 0.28,-1.683 1.211,-2.7 2.899,-2.529 1.57,0.159 1.673,0.16 1.809,-0.607 0.374,-2.122 2.948,-4.439 6.308,-6.012 1.668,-0.781 4.434,-1.334 9.732,-1.317 3.035,-0.051 6.818,-0.454 8.942,-2.318 0.35,-0.327 0.837,-1.186 1.007,-1.069 0.395,0.273 0.298,2.386 -0.478,4.312 -2.262,5.613 -5.321,7.159 -13.963,7.103 -2.577,-0.124 -6.373,0.222 -7.983,1.86 -0.479,0.508 -0.799,0.987 -0.62,1.248 3.58,0.51 7.256,2.128 9.392,9.194 6.496,-4.599 16.849,-11.644 29.687,-18.009 -1.537,-8.444 5.786,-9.743 9.891,-8.06 0,0 0.105,-0.551 -0.054,-1.19 -0.155,-0.623 -0.382,-1.436 -1.139,-2.485 -0.19,-0.382 -1.343,-1.109 -1.116,-1.683 0.373,-0.94 0.207,-1.199 -0.579,-2.065 -0.51,-0.562 -0.171,-1.764 -0.046,-2.249 0.162,-0.905 0.759,-2.195 0.233,-2.682 -0.813,-0.753 -3.582,-2.028 -5.008,-3.041 -1.577,-1.148 -1.607,-2.18 0.707,-5.95 1.054,-2.192 2.05,-4.547 2.89,-6.122 1.271,-2.382 1.403,-3.952 0.634,-5.319 -1.004,-1.785 -0.836,-3.901 -0.813,-3.846 0,0 -9.478,-13.501 -13.382,-18.808 l -44.374,-0.169 -0.492,101.452 7.915,-7.292 -2.073,-2.455 c -0.294,1.425 -0.029,2.819 -1.786,2.899 -0.599,0.019 -1.152,-0.231 -1.247,-0.821 z m 26.295,135.285 c 0.255,-4.011 -1.662,-10.58 -4.552,-15.131 0.123,3.455 0.369,7.679 -0.327,11.057 z m 70.018,10.507 c -0.349,-0.113 -3.262,-0.292 -5.091,-0.39 -6.065,-0.325 -10.001,-3.236 -12.628,-7.261 -0.646,-0.99 -0.378,-0.945 1.054,0.175 4.025,3.148 7.793,5.031 11.102,4.561 4.692,-0.666 7.222,1.055 6.571,3.059 -0.114,0.351 -0.152,0.133 -1.009,-0.144 z m -15.883,-8.958 c -0.938,-0.815 -1.008,-1.18 0.106,-0.438 3.404,2.268 7.513,5.97 12.595,3.806 1.054,-0.675 0.085,-0.586 -1.679,-0.4 -2.696,0.285 -5.98,-1.086 -10.019,-3.878 -1.972,-1.363 -1.103,-2.513 1.118,-1.444 0.686,0.33 1.381,0.573 1.824,0.601 2.187,-1.451 6.784,-1.431 6.677,-1.423 0.524,-0.45 -1.193,-1.167 -3.748,-2.134 -1.66,-0.628 -2.061,-0.885 -0.825,-0.933 1.079,-0.041 2.778,0.498 4.002,1.291 2.043,1.315 3.072,2.043 3.682,2.129 1.003,0.08 2.026,0.225 0.304,1.022 -0.782,0.362 -0.713,0.455 -0.624,1.333 0.14,1.372 0.222,1.357 0.855,2.133 1.067,1.177 1.531,3.367 0.009,1.996 -0.328,-0.152 -0.362,0.139 -1.259,0.501 -5.266,1.483 -9.188,-0.838 -13.017,-4.162 z m 9.719,0.397 c 0.294,-0.386 0.736,-1.374 0.796,-1.65 -0.101,-0.64 -0.67,-0.44 -0.958,-0.08 -0.492,0.603 -1.18,1.49 -0.615,1.793 0.267,0.144 0.528,0.264 0.777,-0.063 z m -1.798,-0.416 1.172,-2.085 c -0.289,-0.135 -4.254,0.681 -3.633,1.25 0.55,0.504 2.461,0.835 2.461,0.835 z m 4.467,-6.997 c -1.805,-0.967 -2.33,-3.049 -0.981,-4.431 1.135,-1.161 3.057,-1.061 5.356,0.356 0.809,0.499 1.306,0.752 1.86,0.548 0.928,-0.341 1.282,0.179 1.206,0.906 -0.169,1.6 -2.662,1.991 -4.233,0.163 -2.078,-2.416 -4.339,-0.732 -3.677,1.014 0.337,0.889 0.992,1.028 1.744,1.362 -0.001,0.175 -0.75,0.362 -1.275,0.081 z m -8.226,-10.763 c 2.992,-0.805 7.438,2.362 9.851,1.932 1.046,-0.223 0.898,1.283 -0.188,1.828 -1.269,0.637 -3.073,0.207 -6.898,-1.791 -3.151,-1.704 -5.703,1.117 -3.597,3.223 0.452,0.426 1.11,0.683 1.918,0.645 1.066,-0.049 1.379,0.242 0.005,0.594 -0.79,0.203 -2.259,-0.119 -2.969,-0.838 -1.696,-1.719 -1.277,-5.022 1.88,-5.594 z m -63.305,-9.276 c -0.087,-3.556 1.814,-5.53 1.862,-5.545 l -13.441,-9.128 0.18,36.431 c 6.664,-4.226 8.854,-9.555 9.24,-16.435 13.145,14.739 9.03,32.67 0.809,42.877 -0.334,-6.25 -2.196,-13.637 -9.789,-17.426 l -0.018,7.456 -12.608,8.929 0.072,8.237 29.651,0.109 14.352,-20.931 c -2.589,-9.498 -2.195,-17.401 -3.947,-21.747 -1.314,-3.573 -3.813,-8.189 -5.429,-7.474 -5.467,4.323 -10.831,-0.727 -10.935,-5.352 z m 11.312,4.21 c 4.656,3.356 5.895,8.837 6.847,13.709 0.032,0.041 2.436,16.514 2.512,16.735 0.312,0.904 0.207,1.805 -0.592,2.491 -4.304,5.896 -12.718,18.543 -12.718,18.543 l 82.406,0.53 c -4.393,-6.398 -7.824,-12.723 -11.997,-17.984 0.176,-0.28 -0.324,-3.872 -1.02,-5.034 -0.716,-1.196 -0.881,-1.823 -0.395,-2.917 1.206,-2.694 2.444,-5.615 3.56,-8.087 2.134,-4.737 2.379,-4.776 -0.532,-6.317 -3.449,-2.011 -4.064,-2.665 -3.339,-4.958 0.264,-0.835 0.298,-1.168 -0.771,-1.387 -0.495,-0.101 -1.698,-0.39 -2.506,-0.614 -2.329,-0.736 -1.655,-0.279 -2.507,0.323 -0.649,0.32 -1.207,-0.91 -1.967,-2.364 -0.873,-1.671 -1.095,-1.711 0.351,-0.85 2.679,1.595 7.435,0.978 5.76,-0.867 -0.817,-0.9 -1.574,-1.362 -1.487,-3.399 0.086,-2.021 0.118,-2.614 -1.254,-2.896 -2.746,-0.564 -5.731,-0.331 -8.287,0.306 -7.779,1.937 -14.023,8.681 -16.392,13.693 -0.533,0.874 0.691,0.83 1.219,0.833 2.549,-0.226 4.356,3.837 2.687,5.658 -0.772,0.812 -1.541,0.313 -0.717,-0.742 0.94,-1.746 -0.459,-4.056 -2.511,-3.469 -2.584,0.738 -2.658,4.078 -2.98,6.405 -0.884,6.704 2.518,15.67 3.35,17.499 0,0 0.182,0.272 0.12,0.272 -0.062,0 -0.472,0.378 -0.646,0.18 -0.597,-0.679 -2.104,-6.165 -2.92,-10.084 -1.58,-10.838 1.229,-20.802 10.249,-26.458 7.991,-5.758 12.013,-4.515 16.548,-4.779 1.548,-0.556 3.698,-1.4 5.326,-2.197 7.99,-4.359 14.465,-8.076 21.255,-11.768 6.59,-3.583 11.011,-8.702 17.036,-11.899 0.274,-0.145 0.557,-0.484 0.838,-0.622 7.496,-6.506 14.903,-12.894 19.373,-17.345 0.542,-0.544 0.99,-1.28 0.99,-1.28 l -0.737,-37.564 c 0,0 -0.753,-0.626 -0.749,-1.224 0.008,-1.304 -0.475,-1.055 -3.156,0.829 -3.369,2.368 -3.598,2.249 -3.598,2.249 -1.773,-17.235 -11.083,-34.187 -22.374,-44.103 l 0.465,-0.634 c 0,0 3.777,2.497 5.663,3.685 l 0.001,-2.403 -4.548,-2.852 c 0,0 -0.405,-0.329 0.038,-0.931 0.244,-0.331 0.866,-0.085 0.866,-0.085 l 3.644,2.69 0.001,-2.194 -2.946,-1.88 0.944,-1.189 1.578,1.025 c -0.669,-1.737 0.278,-1.675 1.25,-0.524 0.404,0.527 0.925,1.204 1.146,1.843 0.084,0.244 0.336,0.843 0.336,0.843 l 2.583,1.924 c 0,0 -0.099,-0.937 -0.007,-1.224 0.436,-1.362 3.554,3.036 3.162,3.139 l 2.645,1.909 c 0.627,-0.955 2.984,0.949 3.081,1.888 0.208,0.408 9.118,6.147 9.118,6.147 l 0.099,-3.167 0.961,-1.25 0.473,-73.167 -11.84,7.559 -0.135,8.858 c -5.59,-1.811 -10.428,-9.913 -11.134,-14.965 -0.364,-0.199 -1.989,9.962 -1.135,14.41 -1.479,1.1 -3.969,3.67 -3.95,3.684 l 4.481,4.908 c 0,0 -0.9,7.512 -0.693,11.244 0.181,1.771 0.216,1.951 0.746,1.954 0.429,0.003 0.816,-0.461 0.818,-0.867 1.056,-4.468 4.519,-11.438 10.506,-13.81 0.396,-0.012 -0.054,39.861 -0.054,39.861 L 165.627,89.533 c -0.74,-0.636 0.97,-0.594 2.016,-3.969 2.696,-8.702 -6.639,-11.783 -10.247,-6.745 -0.593,-0.004 -3.07,-3.068 -3.44,-4.348 -2.744,-5.537 -3.267,-11.811 -3.797,-16.843 -0.321,-2.288 -1.159,-6.04 -1.853,-8.299 -0.371,-1.206 -0.408,-2.077 0.395,-3.2 3.682,-4.967 7.247,-10.187 10.349,-15.279 2.831,-3.715 2.279,-3.903 2.279,-3.903 l -82.623,-0.313 13.199,17.407 1.337,0.521 c -2.286,0.293 -1.51,2.292 -0.624,4.441 1.089,2.642 0.968,3.187 -1.802,8.627 -4.062,7.975 -4.28,7.274 -0.233,9.746 2.499,1.602 2.953,1.951 2.584,4.124 -0.369,2.173 -0.471,1.501 1.593,1.679 1.104,0.095 1.983,0.295 2.48,0.521 0.564,0.256 0.984,0.612 1.71,0.375 1.223,-0.4 1.252,-0.104 1.301,0.791 0.021,0.382 0.597,1.169 0.776,1.463 0.47,0.772 0.25,0.9 -0.612,0.357 -2.656,-1.675 -7.098,-0.962 -5.465,0.858 0.672,0.749 1.348,3.242 1.405,4.481 0.102,2.216 1.541,3.002 4.564,2.548 5.806,-0.429 18.902,-7.629 21.956,-15.722 -6.706,2.28 -5.324,-5.949 -2.934,-5.688 0,0 -0.643,1.459 -0.664,2.292 -0.074,2.943 2.391,3.172 4.09,1.089 0.739,-1.094 1.638,-5.161 1.2,-9.753 -0.531,-5.561 -2.781,-11.782 -3.188,-13.326 9.577,22.895 0.765,32.955 -12.713,39.516 -5.162,2.152 -5.87,2.139 -8.911,2.279 -2.081,0.167 -3.959,1.2 -5.957,1.856 -11.532,5.496 -25.705,12.35 -38.385,22.58 -9.098,6.732 -16.325,12.784 -23.511,20.562 l -0.052,40.386 c 2.16,-0.335 5.667,-2.436 7.744,-3.645 2.37,15.086 10.118,32.558 22.961,43.011 l -0.311,0.565 c -1.829,-1.216 -3.657,-2.426 -5.43,-3.359 l -0.094,1.922 4.322,2.975 c 0.114,0.462 -0.742,1.106 -0.742,1.106 l -3.568,-2.468 -0.029,1.957 2.762,1.763 c 0.746,0.748 -0.905,1.137 -0.905,1.137 l -1.636,-1.187 c 0,0 0.117,0.951 0.067,1.119 -0.428,1.445 -2.791,-1.748 -3.217,-3.34 l -2.325,-1.379 c 0.33,0.942 -0.503,1.073 -1.162,0.837 -1.747,-0.887 -1.649,-2.376 -2.013,-3.258 l -3.094,-1.965 c -0.534,2.949 -3.678,-1.206 -3.18,-2.2 l -3.968,-2.704 c 0.219,0.082 -1.514,0.44 -2.1,0.056 -0.675,-0.441 -0.911,-2.241 -0.911,-2.241 l -2.379,-1.475 -0.001,2.579 24.47,17.105 -0.353,0.664 -25.526,-17.484 0.993,75.824 12.454,-8.605 c -0.237,-2.838 0.288,-5.372 0.055,-8.605 6.395,3.985 8.546,6.694 11.362,15.057 1.828,-4.758 1.51,-9.325 0.693,-13.551 1.636,-1.337 3.229,-2.636 4.052,-4.654 -1.538,-2.119 -3.042,-2.714 -4.661,-4.679 -0.126,-2.395 1.281,-9.528 -0.6,-11.882 0,0 -3.445,10.362 -10.855,13.473 -0.219,-10.943 0.052,-38.454 0.052,-38.454 0,0 7.611,5.259 11.493,7.396 1.824,0.975 3.096,1.587 3.119,2.28 0.012,0.353 -0.721,0.802 -1.043,1.298 -0.2,0.308 -1.045,3.268 -0.718,5.583 0.148,1.706 0.952,2.786 1.721,3.604 2.441,2.594 6.916,1.374 8.688,-0.626 z m 14.748,-19.358 29.309,-40.95 c 3.476,15.077 9.35,28.886 17.016,41.405 z M 97.29,171.789 c 0,0 2.046,-4.05 2.984,-6.198 l -3.587,-0.002 2.147,-2.405 5.34,0.003 -2.86,6.086 2.267,0.001 3.138,-6.086 8.321,0.005 -2.914,6.086 1.917,0.001 3.117,-6.086 7.737,0.004 -2.725,6.086 1.813,0.001 1.591,-3.071 0.385,5.591 -7.686,-0.004 3.042,-6.198 -2.477,-0.001 -3.436,6.198 -7.2,-0.004 3.126,-6.198 -2.737,-0.002 -3.433,6.198 z m 23.727,-21.802 3.108,-6.557 -2.457,-0.001 -3.438,6.42 -7.675,-0.004 3.024,-6.347 -1.912,0.005 c -1.297,2.001 -3.368,6.066 -3.368,6.066 l -8.139,-0.004 c 0,0 2.304,-4.312 3.213,-6.42 l -2.008,-0.001 -1.636,2.605 c -0.575,-0.973 -0.194,-3.557 -0.29,-4.654 l 7.672,0.004 -3.085,6.293 2.448,0.001 3.364,-6.293 8.101,0.004 -3.303,6.293 1.918,0.001 3.274,-5.948 8.242,0.005 -2.892,5.948 2.545,0.001 -1.124,2.585 z m -7.576,-11.433 -1.554,0.291 c -1.979,-16.999 -11.376,-34.332 -15.353,-41.49 l 46.802,0.684 z m 55.007,-98.11 c 0,0 -4.467,5.736 -4.77,15.364 l 4.253,-3.393 c -0.264,-9.77 0.517,-11.972 0.517,-11.972 z m -4.723,16.087 c -0.075,7.164 1.801,11.732 4.174,15.309 0.043,-4.615 0.51,-9.286 0.785,-10.51 z M 47.78,193.536 32.652,183.104 l -10e-4,2.285 17.98,12.228 z m -2.724,-5.596 c -4.053,-2.037 -12.403,-8.342 -12.403,-8.342 l -10e-4,2.084 13.293,9.35 c 0.261,0.257 0.612,0.192 0.735,-0.095 -0.523,-0.884 -1.153,-2.086 -1.624,-2.997 z m -3.709,-9.052 -8.69,-6.071 -10e-4,1.887 c 2.228,1.998 9.561,6.753 9.561,6.753 z m -8.689,-7.451 8.176,5.291 -0.507,-2.341 -5.807,-3.948 z m 147.014,-73.201 0.458,-37.67 c -8.524,4.025 -10.22,15.777 -9.936,16.142 -8.478,-8.747 -11.665,-27.598 0.24,-40.267 0.892,4.066 1.189,9.963 9.603,15.357 l 0.221,-7.979 11.797,-7.526 -0.093,-9.066 -28.285,-0.236 c -4.391,5.556 -8.78,11.879 -13.123,17.774 -1.63,2.21 -2.038,3.25 -1.726,4.406 2.848,10.257 2.27,22.883 8.257,28.857 8.039,-7.551 15.561,3.828 9.311,10.839 z M 57.369,261.061 c 1.085,3.431 0.333,10.351 0.263,10.351 1.298,-0.705 4.832,-10.723 3.951,-14.489 M 102.621,72.976 c -2,-0.569 -3.506,-1.429 -5.619,-1.229 -1.663,0.171 -2.228,-0.379 -1.213,-1.284 1.327,-1.123 2.613,-1.585 5.07,-0.298 7.394,3.873 7.624,-1.777 4.295,-2.178 -0.945,-0.114 -0.901,-0.717 0.041,-0.564 5.167,0.209 3.589,7.053 -2.574,5.554 z m -8.644,-5.647 c -0.978,-0.357 -2.159,-0.955 -2.594,-0.838 -1.098,0.294 -1.135,-0.309 -1.004,-1.024 0.317,-1.725 2.081,-1.411 4.412,0.074 3.34,2.128 4.621,-0.928 1.582,-2.58 -1.022,-0.556 -0.706,-0.709 -0.109,-0.733 1.583,-0.064 3.073,2.092 2.652,3.855 -1.066,2.827 -3.651,1.718 -4.94,1.247 z m 9.792,-5.216 c -2.161,-0.376 -5.29,-3.284 -6.744,-3.484 -0.816,-0.093 -1.776,0.006 -2.037,-0.323 -0.798,-1.004 1.464,-1.003 1.618,-1.367 0.006,-0.847 0.059,-1.377 0.025,-1.666 -0.399,-0.541 -1.97,-2.704 -1.915,-3.751 0.038,-0.065 0.824,0.58 1.229,0.582 3.861,-2.032 6.498,-1.128 9.755,0.311 1.346,0.595 4.818,3.29 4.862,3.717 0.074,0.723 -1.473,-0.634 -2.682,-1.445 -2.978,-2.073 -5.658,-3.547 -9.398,-2.321 -0.583,0.2 -0.482,0.307 1.434,0.192 1.872,-0.113 3.406,0.462 5.796,2.023 0.594,0.388 1.311,1.05 1.739,1.254 3.008,1.436 3.663,2.846 1.748,2.463 -0.41,-0.082 -1.204,-0.509 -1.985,-0.786 -1.375,-0.487 -0.888,-0.34 -2.212,0.276 -0.465,0.216 -1.583,0.672 -2.501,0.78 -0.704,0.117 -2.986,0.097 -1.977,1.061 1.071,1.073 2.848,1.865 4.069,2.355 0.879,0.392 0.202,0.306 -0.824,0.128 z m 0.259,-4.671 c 1.409,-0.521 0.308,-1.703 -1.488,-1.965 -0.411,-0.06 -1.291,1.88 -1.31,2.288 -0.014,0.304 2.026,-0.038 2.798,-0.324 z m -3.889,0.207 c 0.323,-0.205 1.407,-1.769 1.408,-2.018 0.006,-1.004 -1.28,-0.725 -1.577,0.32 -0.362,1.271 -0.393,2.054 0.169,1.698 z m -4.497,-8.096 c -1.158,-0.513 -2.731,-2.754 -0.931,-2.375 0.388,0.09 2.409,0.196 3.714,0.202 4.441,0.022 8.866,2.036 11.679,4.964 1.566,1.629 1.666,2.834 0.078,1.712 -5.629,-5.058 -9.085,-4.119 -14.54,-4.503 z m 43.767,174.266 -1.572,0.835 c 0.003,0.871 0.317,0.736 1.013,1.353 0,0 -0.965,0.156 -1.67,0.109 -1.148,-0.077 -1.411,-0.058 -0.904,0.75 0.234,0.374 0.556,0.925 0.556,0.925 0,0 -0.623,0.134 -1.56,-0.123 -1.42,-0.39 -2.148,-0.195 -1.611,0.595 l 0.433,0.628 c -1.036,-0.236 -2.94,-1.163 -2.94,-1.163 l -1.343,0.407 c 2.676,5.234 12.206,1.939 9.598,-4.316 z m 46.476,-7.441 c 1.473,-1.235 0.759,-2.751 -1.392,-3.863 -0.895,-0.463 -0.807,-0.469 -2.259,0.383 -1.79,1.05 -1.916,1.104 -0.642,2.456 1.537,1.632 3.21,1.932 4.293,1.024 z m -5.465,-3.496 c 1.355,-0.6 0.852,-0.499 0.761,-1.914 -0.394,-1.631 0.529,-1.745 0.987,-3.267 0.189,-0.833 -0.515,-0.525 -1.884,0.747 -1.129,0.947 -1.464,1.178 -1.461,0.717 0.127,-0.385 -0.774,-1.375 -1.583,-1.509 -0.684,-0.114 -0.619,-0.271 0.05,-1.135 1.16,-1.499 1.638,-3.391 0.861,-5.058 -0.982,-2.108 -1.306,-2.417 -3.481,-0.578 -1.114,1.024 -2.686,1.81 -3.446,3.076 -0.544,0.932 -0.23,1.835 0.629,3.668 2.144,4.574 5.46,6.63 8.567,5.255 z m 7.611,0.044 c 2.389,-0.934 1.427,-3.513 -2.304,-6.113 -2.249,-1.567 -2.887,-1.552 -0.978,0.146 1.221,1.086 1.412,1.47 0.888,2.251 -0.437,0.651 -0.896,1.417 -0.463,2.013 0.683,0.939 1.849,2.097 2.856,1.703 z m -134.461,-4.361 -2.602,-1.645 -0.001,2.248 2.602,1.556 z m 130.1,2.103 c 0.516,-0.363 0.961,-1.382 0.964,-1.834 0.118,-1.046 -1.585,-0.796 -2.399,0.36 -0.915,1.3 0.166,2.365 1.435,1.473 z m 5.831,-3.536 c 1.187,-1.242 0.61,-2.566 -1.825,-4.145 -0.94,-0.616 -1.419,-1.019 -1.304,0.202 0.035,0.373 -0.374,0.865 -0.637,1.159 -0.844,0.944 -0.47,1.114 1.935,2.64 1.225,0.777 1.16,0.844 1.83,0.143 z m -135.929,-2.465 -2.602,-1.573 -10e-4,2.04 2.602,1.758 z m -5.692,2.033 0.035,-2.046 -3.371,-2.244 -0.049,2.281 z m 132.632,-0.754 c -0.435,1.171 1.313,0.641 1.414,0.522 0.303,-0.592 0.035,-0.648 -0.113,-0.711 -0.307,-0.129 -1.497,0.075 -1.3,0.189 z m 0.763,-1.479 c 0.6,-0.193 0.67,-0.117 0.587,-1.198 -0.125,-1.631 0.12,-1.762 1.204,-2.479 0.866,-0.573 0.873,-0.487 0.859,-1.487 -0.016,-1.208 0.067,-1.727 1.655,-1.973 0.65,-0.1 1.022,-0.259 1.076,-0.772 0.091,-0.862 -1.294,-2.319 -3.017,-3.16 -0.254,-0.002 -4.108,3.348 -5.185,4.506 l -0.657,0.707 0.785,1.473 c 1.224,2.297 1.023,3.143 0.301,6.188 -0.148,0.815 0.481,0.697 0.646,-0.284 0.217,-0.916 0.343,-1.25 1.745,-1.521 z m 5.876,-8.122 c -0.298,1.85 0.66,2.988 1.566,2.07 0.493,-0.5 0.909,-4.584 0.567,-5.233 -1.858,-1.99 -2.059,2.718 -2.132,3.163 z m -29.949,30.618 c 6.911,-4.041 15.788,-0.73 20.792,-4.045 2.334,-2.57 4.681,-4.208 3.359,-5.982 -1.029,-1.381 -1.698,-1.593 -1.698,-1.593 0.073,0.098 -3.647,3.228 -9.041,2.5 -8.992,-0.314 -13.244,2.507 -13.412,9.119 z m 11.811,-9.624 c 4.4,0.155 7.977,-0.607 9.613,-1.882 1.016,-0.792 1.17,-0.931 -0.422,-1.06 -3.417,-0.277 -6.875,-4.241 -7.957,-8.084 -0.22,-0.79 -0.48,-1.649 -0.48,-1.649 -9.108,7.261 -29.153,18.695 -29.153,18.695 1.326,6.186 -3.157,9.873 -9.225,7.673 -1.056,-0.096 -0.919,1.263 -0.721,1.821 0.33,0.915 1.064,1.682 1.207,1.805 0.903,0.775 1.071,1.286 0.935,2.028 -0.135,0.732 -0.121,0.707 0.391,0.982 0.912,0.489 0.864,1.184 0.366,2.619 -0.537,2.019 -0.574,2.527 0.876,3.488 1.867,1.201 5.532,2.515 4.99,4.32 -1.229,4.089 -3.244,7.609 -5.017,11.434 -0.658,1.059 -0.518,2.809 0,3.625 0.642,1.251 0.567,2.747 1.398,3.896 4.598,6.834 8.558,12.846 12.747,19.019 l 43.865,0.439 -1.036,-101.167 c 0,0 -6.766,6.655 -6.745,7.125 0.025,0.561 1.587,1.438 2.259,1.55 0.028,-0.303 -0.003,-1.502 0.084,-1.922 0.062,-0.609 2.014,-0.45 2.66,0.08 0.452,0.371 0.312,2.792 -0.147,4.763 -0.376,1.612 -0.324,1.634 0.368,2.566 0.842,1.136 1.133,2.099 1.022,3.382 -0.061,0.703 -0.056,1.258 0.143,1.723 0.468,1.094 0.329,2.634 -0.187,3.35 -0.749,1.039 -0.761,1.198 -0.598,1.753 0.612,1.926 0.382,3.566 -1.766,4.399 -0.275,0.107 -0.576,0.582 -0.752,0.992 -0.938,3.081 -2.695,3.076 -5.097,2.187 -1.704,6.629 -8.623,8.291 -13.606,8.092 -5.192,-0.207 -10.472,0.179 -12.823,3.573 0.554,-8.043 4.156,-11.919 12.808,-11.614 z m 15.675,-13.348 c 0.883,-0.329 0.993,-1.249 0.252,-1.84 -1.138,-0.907 -2.445,0.014 -1.912,1.326 0.299,0.735 0.803,0.834 1.66,0.514 z m -136.66,-2.995 -3.456,-2.397 0.019,2.146 3.445,2.214 z m 6.521,1.766 -2.445,-2.936 c -7.21,-4.414 -13.459,-9.351 -19.455,-13.327 l -0.047,2.719 1.715,0.865 c 0,0 0.146,-0.598 0.263,-0.943 0.221,-0.648 2.203,1.177 2.834,2.639 l 0.499,1.177 2.311,1.277 c 0,0 0.035,-0.656 0.036,-0.838 0.009,-1.392 2.48,0.525 3.606,2.801 0.273,0.552 0.631,1.137 0.631,1.137 l 2.174,1.323 c 0.859,-1.172 3.045,0.434 3.604,1.858 0.708,1.807 1.958,1.964 2.007,1.97 z m -13.019,-0.402 0.006,-2.084 -3.603,-2.372 -0.047,2.113 z m 148.404,0.252 c 0.094,-0.547 -0.444,-2.675 -1.253,-2.795 -0.506,-0.075 -1.298,0.691 -1.301,1.226 -0.004,0.694 2.452,2.161 2.554,1.569 z m -2.931,-2.53 c 0.788,-0.86 -0.205,-1.981 -1.409,-1.592 -1.43,0.462 -0.936,1.757 0.664,1.785 0.357,0.006 0.572,-0.004 0.745,-0.193 z m -145.658,-1.613 0.015,-1.987 -3.329,-2.203 -0.07,1.942 z m -6.548,-0.705 0.034,-1.912 -2.187,-1.526 -10e-4,2.29 z m 0.082,-5.729 -2.233,-1.458 -10e-4,2.073 2.334,1.336 z m 9.08,-6.299 c -0.231,-0.613 -1.174,-2.551 -1.174,-2.551 l -10.131,-7.08 -0.001,2.177 11.334,7.632 z m -4.734,-16.813 -0.119,-0.886 -0.903,0.481 z m -2.148,0.22 -1.418,0.766 4.281,2.787 -0.344,-1.98 z m 148.709,-23.382 1.105,-0.799 -1.95,-1.322 -0.147,1.34 z m 1.977,-1.271 1.451,-1.197 -4.851,-3.424 0.343,2.128 z m 3.44,-1.789 0.001,-1.462 -7.867,-5.318 0.542,2.672 c 1.387,0.802 3.081,1.974 4.853,3.221 1.123,0.793 1.127,1.098 2.471,0.888 z m 0.001,-2.707 0.001,-2.319 -9.1,-6.049 0.738,2.722 z m 0.002,-3.483 0.005,-2.431 -11.016,-7.287 1.204,3.217 z m 0.003,-6.107 -13.887,-9.304 1.776,3.564 12.11,8.103 z m 0.002,-3.552 -17.428,-11.607 1.956,3.247 15.471,10.473 z m 0.002,-3.77 -0.652,-0.003 c -0.053,1.662 -1.853,0.456 -2.529,-1.373 -0.511,-1.224 -0.625,-1.533 -0.625,-1.533 l -3.51,-2.375 0.276,1.86 -2.365,-1.445 c 0,0 -0.682,-2.286 -0.704,-2.301 l -4.039,-2.748 c 0.086,0.468 0.153,1.239 -0.11,1.292 0,0 -1.228,-0.525 -1.79,-1.343 -0.584,-0.851 -0.672,-1.707 -0.672,-1.707 l -3.296,-2.136 -0.821,0.088 c 0,0 -0.444,-0.301 -0.862,-0.64 -0.782,-1.399 -1.697,-1.61 -2.79,-2.18 0,0 2.319,2.71 3.558,4.311 1.138,1.478 2.518,2.534 2.518,2.534 l 18.411,12.298 z m 0.002,-3.791 -1.423,-0.855 0.103,2.244 1.319,0.897 z M 47.632,114.275 c 0.087,-0.141 -0.277,-0.303 -0.676,-1.183 -0.99,-2.18 -1.087,-2.94 -0.556,-5.229 0.253,-1.092 -0.739,-1.562 -1.196,-0.397 -0.355,0.906 -0.907,1.416 -1.435,1.349 -0.498,-0.063 -0.604,0.146 -0.388,0.834 0.264,0.952 -0.311,2.192 -1.11,2.529 -0.807,0.207 -0.954,0.718 -0.728,1.458 0.376,1.228 -0.951,2.266 -1.992,2.207 -1.609,-0.092 -0.979,1.373 0.96,2.769 0.718,0.517 1.039,0.797 1.604,0.536 1.468,-1.386 4.199,-3.369 5.517,-4.872 z m 139.632,4.573 -0.08,-2.139 -4.046,-2.736 0.497,2.863 z m 3.952,-0.895 0.001,-2.155 -1.665,-1.071 0.084,2.29 z M 38.857,114.532 c 0.388,0.393 0.773,0.428 1.389,0.058 0.71,-0.37 0.439,-0.932 -0.304,-1.297 -0.694,-0.366 -1.667,0.745 -1.085,1.239 z m -1.208,-0.946 c -0.055,-0.451 0.496,-1.058 0.876,-1.081 0.832,-0.049 0.685,-0.493 -0.266,-1.069 -0.446,-0.27 -1.236,-0.902 -1.525,-1.111 -1.421,-1.033 -2.796,0.559 -1.741,1.907 0.884,1.128 2.188,1.798 2.655,1.355 z m 149.217,1.418 -0.312,-2.381 -3.655,-2.432 0.287,2.622 z M 53.972,109.129 c 0.199,-0.33 0.26,-0.645 0.24,-1.044 -0.074,-1.498 -0.846,-3.259 -1.927,-4.732 -0.805,-1.097 -1.782,-2.034 -2.772,-2.585 -2.796,-1.439 -6.528,-0.822 -5.986,1.03 0.386,1.252 0.295,2.3 -0.779,2.929 -0.731,0.428 -0.824,1.004 -0.051,1.006 0.561,10e-4 2.048,-0.512 2.669,-1.488 0.875,-1.376 1.376,-2.176 1.178,0.071 -0.083,0.94 0.035,0.87 1.492,0.795 1.976,-0.101 1.61,0.269 0.454,1.159 -1.683,1.295 -2.017,3.488 -1.169,5.353 0.525,1.154 0.888,1.768 1.572,1.614 1.48,-0.971 3.895,-2.922 5.079,-4.106 z m 126.438,2.848 -3.597,-2.37 0.14,2.534 3.884,2.295 z M 42.317,109.583 c -1.318,-1.665 -2.867,0.46 -1.867,1.39 0.726,0.638 2.559,-0.014 1.867,-1.39 z m -3.118,0.23 c -0.164,-0.519 0.79,-1.351 0.94,-1.682 0.437,-0.964 -3.467,-3.649 -4.682,-2.06 -0.838,1.095 -0.258,2.191 1.998,3.692 1.361,0.905 2.014,0.905 1.744,0.05 z m 140.863,-1.529 -3.325,-2.073 0.057,2.188 3.531,2.131 z m -5.865,1.955 0.001,-2.235 -3.349,-2.338 -0.056,2.314 z M 43.929,107.526 c 0.608,-0.601 0.403,-0.796 -0.773,-0.736 -0.743,0.038 -0.971,-0.086 -1.021,0.254 -0.111,0.753 1.169,1.099 1.794,0.482 z m -2.788,-0.847 c 0.061,-0.155 -0.36,-0.461 -1.045,-1.037 -1.308,-1.098 -1.456,-1.781 -0.197,-2.636 1.795,-1.218 -0.086,-2.954 -2.169,-2.25 -1.683,0.569 -1.689,2.263 -0.69,3.354 1.37,0.913 3.854,3.548 4.101,2.568 z m 133.059,-2.161 -3.294,-2.261 -0.001,2.2 3.294,1.924 z m -132.438,0.071 c 1.468,-0.747 1.548,-2.623 0.077,-1.937 -0.606,0.283 -1.401,1.051 -1.403,1.398 -0.004,0.676 0.576,0.92 1.326,0.539 z m 1.08,-4.306 c 1.903,-1.021 1.612,-1.971 -0.283,-3.159 -2.312,-1.327 -3.934,1.215 -2.029,2.947 0.997,0.906 1.228,0.794 2.312,0.213 z m 2.468,-1.842 c 3.094,-3.321 5.144,-3.15 9.228,-3.059 10.532,0.101 13.763,-4.931 13.432,-8.461 -5.12,2.539 -9.687,1.172 -14.559,1.905 -8.407,1.872 -9.395,5.824 -9.982,8.086 z M 87.539,87.146 c 2.714,0.026 2.592,0.109 1.477,-2.123 2.642,0.363 3.707,1.629 2.836,-1 1.401,0.5 2.241,0.885 3.688,1.362 l 0.919,-0.532 C 90.872,79.41 84.669,84.016 86.3,89.504 l 2.077,-0.992 z"
         inkscape:connector-curvature="0"
         style="fill:#131f67" /><path
         id="path4597"
         d="m 101.076,286.004 1.303,-6.298 11.602,0.57 c 0,0 1.345,3.955 1.89,5.736 z m -26.793,-0.168 6.161,-10.162 8.74,2.376 -2.016,7.946 z m 17.003,0.162 2.654,-10.85 c -5,-1.104 -9.716,-1.83 -15.234,-3.322 l -8.967,14.149 -5.39,-0.146 c 4.647,-6.184 13.135,-18.674 13.135,-18.674 19.45,6.703 39.062,7.843 58.81,4.319 0,0 7.27,9.601 9.874,14.807 l -5.13,-0.255 -6.368,-10.678 c -4.439,0.479 -8.805,1.068 -13.436,1.258 l 3.166,9.411 -5.095,-0.003 -2.885,-9.384 c -5.555,-0.218 -10.224,0.213 -16.881,-0.832 l -2.353,10.199 z m 36.712,0.024 -1.751,-6.674 6.262,-0.728 c 0,0 2.901,5.09 4.49,7.403 z M 71.843,223.989 c 7.794,-11.832 35.318,-49.98 35.318,-49.98 l 4.004,0.384 c 0,0 -24.445,34.054 -36.319,51.326 z m -39.703,-18.435 9.587,6.911 0.039,53.764 -9.75,6.854 z m 39.862,-87.935 5.799,11.364 c -24.679,23.356 -19.855,50.782 -6.651,70.35 0,0 -1.711,4.375 -5.436,9.02 -17.872,-11.8 -23.294,-42.444 -23.157,-42.772 19.712,-17.562 22.371,-23.157 29.445,-47.962 z m 100.748,83.809 c 1.283,-17.301 9.752,-28.605 19.238,-35.51 l 0.475,17.599 c -6.211,5.954 -12.779,12.102 -19.714,17.911 z m -25.746,-17.442 c 21.613,-20.162 22.365,-48.81 6.64,-69.848 l 6.445,-8.99 c 9.123,9.775 18.069,20.018 21.866,43.813 -13.686,10.775 -25.784,28.586 -29.01,46.57 z m -29.753,-23.488 -0.035,-8.245 8.079,-0.036 -0.235,8.232 z m -17.081,-0.074 -0.111,-8.216 7.988,0.062 -0.129,8.329 z m 13.845,-21.991 c 0,0 26.796,-37.463 37.313,-50.985 l 2.232,1.644 -35.635,49.552 z M 51.49,112.19 c -0.034,14.787 -9.52,26.499 -19.206,34.138 l 0.141,-16.835 z m 5.654,-26.906 c -37.110249,155.55575 -18.555124,77.77788 0,0 z m 135.061,-44.371 0.02,65.632 -9.045,-5.454 0.798,-55.039 z m -43.131,3.863 C 128.651,39.454 110.043,37.854 90.478,42.036 87.93,38.994 79.369,26.325 79.369,26.325 l 4.945,0.075 6.993,11.206 13.335,-1.735 -3.428,-9.115 5.497,0.027 2.734,8.938 c -0.028,-0.07 10.848,0.113 16.891,0.833 0.963,-3.318 2.754,-9.911 2.754,-9.911 l 6.056,0 c -0.78,3.169 -2.873,10.706 -2.873,10.706 4.959,0.692 14.158,3.036 14.242,3.137 3.23,-4.56 6.233,-9.12 9.154,-13.68 l 5.901,-0.025 c -1.74,2.944 -12.17,18.142 -12.497,17.995 z m -3.764,-7.87 -9.023,-2.109 2.361,-7.951 12.613,0 z m -51.817,-2.905 -4.192,-7.383 8.073,0.004 2.67,6.502 z m 18.328,-1.493 -1.219,-5.878 14.662,0.008 -1.502,6.26 z"
         inkscape:connector-curvature="0"
         style="fill:#d40000"
         sodipodi:nodetypes="cccccccccccccccccccccccccccccccccccccccccccccccccccccccccccccccccccccccccccccccccccccccccccccccccccccccccccccccccccccc" /><path
         id="path4599"
         d="m 78.265,25.997 13.039,18.818 c 0.061,-0.061 7.307,-1.443 14.43,-1.792 7.081,-0.347 15.525,0.095 15.597,0.31 0,0 2.228,6.727 2.984,10.031 0.998,4.414 0.893,9.494 -0.16,12.865 -1.542,4.939 -2.357,6.421 -5.803,9.813 -2.555,2.477 -6.166,5.172 -9.891,6.612 -5.161,2.155 -5.687,2.144 -8.728,2.286 -2.011,0.094 -2.216,0.172 -3.316,0.743 -0.339,0.118 -0.56,0.472 -0.862,0.574 -0.255,0.086 -0.738,-0.011 -0.738,-0.011 -16.773,7.351 -29.901,15.548 -39.819,22.867 l -0.301,0.555 c -0.812,0.664 -1.56,1.168 -2.351,1.774 l -0.461,0.017 c -11.669,8.99 -18.28,16.279 -20.711,18.384 l 0.238,41.859 c 0,0 5.313,-2.729 8.038,-4.393 1.913,16.208 9.997,31.952 22.761,42.887 l -5.536,7.634 -25.517,-17.568 0.354,77.234 13.567,-9.421 0,-8.147 c 4.043,2.722 7.989,3.784 10.86,16.183 2.295,-4.355 2.094,-10.842 1.066,-15.175 0.017,0 3.444,-2.833 4.495,-5.004 l -5.042,-4.471 c 0,0 1.306,-10.829 -1.07,-13.01 -1.881,4.916 -3.381,10.124 -10.409,13.916 l -0.087,-37.621 c 3.503,2.219 6.816,4.718 10.278,6.994 l 0.477,-0.096 3.582,2.455 c 0,0 -0.379,0.767 -0.727,1.293 -4.353,6.602 2.9,14.7 8.801,9.828 2.31,-1.908 6.646,6.024 7.464,13.655 0.833,4.929 1.281,11.049 2.62,15.33 0.414,1.249 0.252,1.95 -0.63,2.708 -4.522,6.362 -13.611,19.181 -13.611,19.181 l 6.549,0 0.474,-0.751 -4.828,0 c 4.158,-5.533 8.125,-11.978 12.439,-17.379 16.073,6.05 42.4,7.446 58.299,3.778 3.284,4.605 6.476,9.433 9.634,14.124 l -4.572,0 0.63,0.983 6.185,0 -13.03,-19.181 c -8.981,2.672 -30.876,1.631 -30.477,1.41 0,0 -0.06,-0.149 -0.819,-2.325 -3.759,-12.135 -4.107,-22.906 5.323,-31.61 5.009,-4.454 10.604,-7.392 16.851,-6.835 2.793,-0.055 2.846,-0.206 4.011,-0.731 0.642,-0.29 1.971,-0.591 1.971,-0.591 l 6.329,-3.51 0.835,-0.167 1.821,-0.959 0.376,-0.446 2.941,-1.494 0.33,0.027 3.977,-2.288 0.053,-0.323 1.565,-0.964 0.373,0.392 c 0.434,0.036 15.588,-9.909 21.908,-15.452 l 0.392,0.145 c 7.38,-5.972 17.416,-15.388 20.392,-18.963 l -0.16,-17.917 -0.252,-0.218 -0.102,-19.84 -0.576,0 -0.024,-2.448 c -3.263,1.209 -6.855,4.24 -7.096,4.114 -2.078,-16.797 -9.813,-32.27 -22.451,-43.633 l 5.381,-7.43 24.989,16.813 0.068,-4.912 0.31,0 C 193.472,88.679 193.64,39.86 193.64,39.86 l -0.247,-0.024 -0.004,-3.898 -12.773,8.155 -0.179,8.239 c -5.663,-1.85 -9.249,-8.653 -10.438,-14.715 -1.65,0.662 -2.416,7.046 -1.807,15.132 -1.75,1.045 -2.871,2.186 -3.943,3.57 1.387,1.746 2.926,3.178 4.622,4.643 -0.354,0.763 -1.103,11.552 -0.359,12.891 0.341,0.987 1.52,0.846 1.526,-0.192 1.723,-8.415 9.704,-13.937 10.152,-13.428 l -0.195,38.799 -14.18,-9.938 c 2.977,-3.362 3.604,-9.032 -0.147,-11.806 -3.76,-2.782 -7.441,-0.422 -8.312,1.347 -4.604,-3 -6.153,-14.117 -6.825,-18.469 -0.168,-2.117 -0.71,-4.992 -1.337,-7.585 -0.392,-1.625 -0.86,-3.18 -0.92,-4.635 -0.027,-0.686 0.055,-0.982 0.678,-1.841 l 13.785,-19.559 -7.038,-0.024 -0.068,0.121 5.536,0.015 -12.434,17.655 c -18.704,-5.876 -38.098,-7.297 -58.847,-3.57 l -10.249,-14.415 4.66,-0.019 -0.184,-0.31 z m 10.816,0.165 0.199,0.354 8.055,-0.024 -0.121,-0.3 -8.133,-0.029 z m 11.945,0.044 0.155,0.426 5.497,0.019 -0.169,-0.417 z m 28.065,0.15 -0.056,0.194 6.058,0.01 0.053,-0.194 z m -18.561,0.005 0.058,0.247 14.613,0 0.053,-0.232 z m 28.137,0.131 -0.058,0.203 12.613,-0.01 0.107,-0.194 z m 53.218,10.758 0.039,2.654 -8.472,5.386 c -0.212,11.354 -0.538,55.03 -0.538,55.03 l -2.03,-1.332 0.397,-54.691 c 0,0 7.496,-4.817 10.603,-7.048 z m -22.233,2.136 0.286,0 0.087,0.615 -0.494,0 z m 0.601,1.603 0.223,0.833 -1.24,-0.005 0.208,-0.804 z m 21.385,0.431 0,1.734 -7.309,4.568 0,-1.72 z m -22.562,1.443 1.913,0.024 0.32,0.959 -2.407,0 z m -46.946,0.513 1.279,0.191 c 2.929,6.989 3.686,12.992 4.195,19.237 1.168,8.106 3.524,16.232 5.163,19.685 l -1.875,-0.019 c -0.217,-0.028 -4.174,-11.763 -4.999,-18.692 -0.221,-1.372 -0.133,-2.647 -0.203,-3.919 -0.417,-5.358 -1.151,-9.384 -3.56,-16.483 z m 2.402,0.282 1.632,0.167 c 1.14,4.963 2.803,9.648 3.478,14.634 1.08,7.975 1.656,16.12 5.503,23.981 l -1.526,-0.015 c -2.334,-5.315 -3.778,-10.858 -4.708,-16.851 -0.727,-3.437 -0.734,-6.018 -1.119,-9.126 -0.468,-3.731 -1.906,-8.475 -3.26,-12.791 z m 2.48,0.231 1.632,0.242 c 1.074,4.929 2.917,10.352 3.405,14.807 0.994,9.073 2.418,17.527 5.28,23.526 l -1.143,-0.034 c -4.421,-8.564 -4.491,-16.194 -5.73,-24.219 -0.729,-4.726 -2.276,-9.453 -3.444,-14.323 z m 2.601,0.383 1.443,0.223 c 1.002,4.903 2.802,10.454 3.221,15.427 0.741,8.804 2.303,15.469 5.58,22.577 l -1.351,0.024 c -3.957,-6.923 -4.488,-15.419 -5.72,-24.025 -0.68,-4.753 -2.215,-9.537 -3.173,-14.226 z m 62.024,0.01 0,2.146 -7.309,4.694 0,-2.117 z m -59.665,0.417 1.506,0.232 c 0.97,4.729 2.776,9.777 3.202,14.381 0.728,7.869 2.176,15.817 5.42,23.139 l -1.39,0.087 c -3.431,-7.393 -4.926,-14.123 -5.575,-22.62 -0.364,-4.765 -2.198,-10.573 -3.163,-15.219 z m 39.811,0.024 0.523,1.274 -3.502,0.17 0.044,-1.429 z m -37.331,0.446 1.792,0.349 c 1.898,7.544 2.396,14.686 3.689,21.856 1.616,8.909 3.318,13.387 4.71,15.048 l -1.482,0.048 c -3.618,-7.713 -4.899,-15.382 -5.74,-23.328 -0.496,-4.687 -2.034,-9.307 -2.969,-13.974 z m 2.732,0.509 1.366,0.276 c 1.629,6.165 2.363,11.932 3.08,17.513 1.303,10.599 4.834,18.661 5.586,19.033 l -1.506,-0.068 c -3.267,-4.515 -4.477,-12.203 -6.084,-23.051 -0.706,-4.769 -1.409,-9.256 -2.441,-13.703 z m 2.199,0.441 1.531,0.378 c 0,0 1.38,5.424 2.422,12.623 0.868,5.999 1.325,17.804 7.847,24.592 3.256,3.389 8.99,6.332 12.904,3.134 1.672,-1.425 2.749,-3.71 1.744,-6.152 -1.69,-4.09 -7.412,-3.389 -5.507,0.901 0.213,1.029 -1.131,1.073 -2.068,0.068 -0.984,-1.073 -0.739,-2.297 -0.041,-3.422 1.471,-2.372 5.411,-2.615 7.723,-0.496 3.694,3.618 2.096,9.827 -2.582,11.795 -5.389,2.289 -12.334,-2.436 -15.083,-6.946 -4.55,-7.856 -5.254,-15.313 -6.321,-23.245 -0.542,-4.283 -1.587,-8.78 -2.567,-13.228 z m 2.306,0.635 1.555,0.378 c 0.005,0.021 1.703,7.645 2.267,12.163 0.696,5.583 1.465,12.16 3.856,17.239 1.486,3.158 3.649,5.815 5.837,7.362 1.88,1.331 3.568,2.172 6.069,1.627 2.889,-0.629 3.013,-5.099 0.257,-5.11 -1.408,-0.006 -0.491,-1.361 0.678,-1.4 4.153,-0.137 4.274,6.411 0.363,7.871 -4.478,1.673 -9.32,-1.48 -12.318,-5.44 -5.246,-8.146 -5.039,-15.577 -6.19,-22.146 -0.308,-3.46 -2.257,-12.382 -2.373,-12.545 z m 31.431,0.228 0.949,1.269 -5.275,-0.024 0.024,-1.206 z m -29.116,0.421 1.487,0.518 c 0.042,0 1.492,5.918 2.393,12.913 1.07,6.744 1.419,12.358 4.912,17.229 1.453,2.027 4.196,4.73 5.924,5.052 1.07,0.231 2.179,-0.005 2.451,-0.819 0.446,-1.333 1.588,-0.72 1.613,0.489 -0.005,0.846 -0.626,1.725 -1.676,2.03 -5.134,0.888 -9.831,-5.557 -11.257,-8.825 -1.931,-4.754 -2.757,-10.067 -3.594,-16.682 -0.354,-2.8 -2.049,-11.728 -2.252,-11.906 z m 47.633,0.237 -0.024,2.136 -7.285,4.592 0,-2.078 z m -45.396,0.417 1.666,0.455 c 0,0 1.389,5.205 2.218,11.635 0.841,6.521 2.647,14.096 6.021,18.014 0.307,0.375 0.517,0.642 0.649,0.862 0.242,0.533 -0.046,1.433 -0.295,1.434 -6.011,-3.128 -7.432,-15.697 -7.949,-19.947 -0.762,-6.572 -2.31,-12.453 -2.31,-12.453 z m 23.376,1.008 5.304,0.15 1.264,1.245 -7.023,-0.063 c -0.741,-0.765 -0.279,-0.677 0.455,-1.332 z m 22.02,1.734 0,1.773 -7.309,4.631 0,-1.812 z m -21.836,0.562 7.76,0.136 2.722,1.618 -11.857,-0.097 z m 21.836,2.248 0,2.126 -7.309,4.582 0,-1.996 z m -24.708,0.402 13.185,0.14 0.034,1.429 -14.299,-0.368 z m -1.72,2.446 14.914,0.039 0.039,1.579 -13.563,-0.131 z m 26.427,0.242 0,2.218 -7.309,4.529 0,-2.102 z m -23.623,2.325 11.431,0.053 -1.24,1.322 -8.622,-0.087 z m 23.623,0.78 0,2.092 -7.309,4.597 0,-2.063 z m -15.02,1.598 -1.385,1.347 -5.924,-0.082 0.203,-1.225 z m 15.02,1.468 0,2.243 -7.309,4.466 0,-1.942 z m -22.412,0.819 4.887,0.107 -0.746,1.027 -4.277,0.019 z m -43.952,1.787 c 0.737,5.641 4.831,17.015 4.829,17.011 l -1.613,0.015 c 0.08,0.109 -2.927,-7.165 -4.011,-14.018 -0.132,-0.654 0.316,-2.859 0.794,-3.008 z m 43.633,0.325 3.764,0.068 -0.819,1.453 -3.066,-0.005 z m 22.732,0.344 0,1.962 -7.309,4.495 0,-1.787 z m -22.853,1.986 2.495,0.077 -0.591,1.347 -1.933,-0.058 z m 22.853,1.056 0,2.092 -7.309,4.534 0,-2.02 z m -67.905,0.446 c 0.734,4.109 3.851,12.362 4.088,12.904 l -1.38,0.019 c -0.062,0.188 -3.24,-7.4 -3.58,-10.647 -0.163,-0.68 0.197,-2.025 0.872,-2.277 z m 45.027,0.872 1.477,0.068 -0.252,0.77 -1.196,0.029 z m 0.131,1.85 0.77,0.019 -0.184,0.731 -0.48,0 z m 22.746,0.039 0,1.69 -7.309,4.626 0,-1.603 z m -69.735,0.184 c 1.109,3.294 2.218,6.65 3.531,9.862 l -1.637,-0.039 c -1.085,-2.316 -1.847,-4.919 -2.693,-7.474 -0.233,-1.066 0.264,-1.979 0.799,-2.349 z m -1.632,2.199 2.722,7.605 -1.545,0 c -0.636,-1.53 -1.351,-3.24 -1.852,-4.814 -0.513,-1.633 -0.466,-1.686 0.675,-2.79 z m 71.368,0.475 0,2.005 -7.309,4.524 0,-1.729 z m -72.507,2.942 1.492,4.212 -1.908,-0.048 c -0.559,-1.326 -0.901,-2.484 -1.042,-3.774 -0.052,-0.626 -0.166,-1.251 0.271,-1.514 0.862,-0.488 0.764,-0.086 1.186,1.124 z m -2.028,1.725 0.793,2.469 -1.782,-0.044 c -0.524,-1.167 -0.725,-2.006 -0.567,-3.228 1.072,-1.238 1.152,-0.591 1.556,0.803 z m 74.534,-1.45 0,2.097 -7.309,4.393 0,-1.947 z m -77.064,1.506 0.746,2.432 -1.608,-0.039 c -0.267,-0.57 -0.097,-1.265 -0.107,-1.908 z m -2.107,1.245 0.053,0.019 c 0.23,1.076 0.005,1.143 0.019,1.133 l -2.248,-0.015 c 0,0 1.822,-1.156 2.175,-1.138 z m 79.171,0.63 0,1.676 -7.309,4.558 0,-1.7 z m -86.911,2.654 43.923,0.126 1.463,2.068 c 0,0 -4.273,0.116 -18.271,0.029 -11.783,0.152 -35.461,-0.252 -35.461,-0.252 l 2.306,-1.085 c 3.189,-0.075 6.085,-0.903 6.04,-0.886 z m 86.911,0.247 0,1.845 -7.309,4.427 0,-1.787 z M 68.038,86.522 c -3.532,1.565 -6.828,1.95 -9.291,1.751 -5.304,-0.43 -13.418,1.788 -15.05,6.883 -0.512,1.799 -0.518,1.849 0.455,2.766 0.483,0.455 0.952,0.8 1.041,0.765 0.853,-0.757 1.985,-2.162 3.197,-2.572 1.594,-0.482 2.458,-0.548 5.071,-0.664 5.631,-0.249 6.901,-0.486 8.302,-0.857 3.082,-0.816 6.19,-3.847 6.377,-7.225 0.021,-0.387 -0.104,-0.846 -0.104,-0.846 z m -0.15,0.462 c -0.595,7.047 -8.229,7.965 -11.581,7.765 -6.799,-0.407 -9.476,1.623 -10.553,2.883 -0.355,0.338 -0.561,0.258 -0.505,-0.049 0.789,-3.902 7.094,-4.049 10.268,-4.006 7.779,0.355 9.749,-3.396 9.529,-3.433 -0.59,0.265 -1.028,0.498 -1.626,0.781 -0.257,0.107 -0.203,-0.05 -0.875,-0.439 -0.011,0.051 -0.779,1.795 -1.772,0.141 0.025,0.083 -0.707,1.469 -2.064,0.174 0.009,0.139 -0.819,1.328 -2.145,0.112 -1.247,1.068 -1.841,0.48 -2.377,-0.271 -0.393,0.236 -1.549,1.796 -2.512,0.117 -1.027,0.653 -1.455,1.361 -2.339,0.933 -2.061,0.369 -3.846,2.485 -4.572,4.422 -0.227,0.666 -0.686,0.77 -0.741,0.039 -0.244,-2.021 3.083,-5.523 6.423,-6.49 2.597,-0.752 4.368,-1.295 10.076,-1.077 3.246,0.124 7.366,-1.602 7.366,-1.602 z m 83.327,0.533 2.059,1.395 -35.829,49.401 -3.163,-0.082 z m -57.476,0.034 4.074,0 0,6.733 -3.512,0 -1.255,-1.865 c 0.325,0.191 0.701,0.305 1.104,0.305 1.205,0 2.185,-0.979 2.185,-2.185 0,-1.205 -0.979,-2.18 -2.185,-2.18 -1.205,0 -2.185,0.974 -2.185,2.18 l 0.024,0.315 -1.313,-1.947 c 0,0 0.558,-0.332 1.889,-0.925 0.344,-0.153 1.172,-0.431 1.172,-0.431 z m 12.555,0 6.902,0 0,6.733 -6.902,0 z m 15.122,0 7.145,0 0,6.776 -7.145,-0.044 z m 15.427,0 7.14,0 0,6.733 -7.14,0 z m 54.686,0.16 0.107,2.102 -7.309,4.442 0,-2.078 z m -51.378,0.698 c -1.275,0 -2.315,1.03 -2.315,2.306 0,1.275 1.04,2.31 2.315,2.31 1.275,0 2.31,-1.035 2.31,-2.31 0,-1.275 -1.035,-2.306 -2.31,-2.306 z m -30.39,0.121 c -1.275,0 -2.31,1.03 -2.31,2.306 0,1.275 1.035,2.31 2.31,2.31 1.275,0 2.31,-1.035 2.31,-2.31 0,-1.275 -1.035,-2.306 -2.31,-2.306 z m 15.054,0.044 c -1.275,0 -2.31,1.03 -2.31,2.306 0,1.275 1.035,2.31 2.31,2.31 1.275,0 2.31,-1.035 2.31,-2.31 0,-1.275 -1.035,-2.306 -2.31,-2.306 z m 7.779,0.276 c 1.07,0 1.938,0.867 1.938,1.938 0,1.07 -0.867,1.938 -1.938,1.938 -1.07,0 -1.938,-0.867 -1.938,-1.938 0,-1.07 0.867,-1.938 1.938,-1.938 z m -30.627,0.029 c 1.071,0 1.938,0.867 1.938,1.938 0,1.07 -0.867,1.938 -1.938,1.938 -1.07,0 -1.938,-0.867 -1.938,-1.938 0,-1.07 0.867,-1.938 1.938,-1.938 z m 45.909,0.068 c 0.46,0 0.879,0.175 1.196,0.46 l -2.112,2.868 c -0.523,-0.313 -0.872,-0.882 -0.872,-1.535 0,-0.989 0.798,-1.792 1.787,-1.792 z m -30.332,0.01 c 1.071,0 1.938,0.867 1.938,1.938 0,1.07 -0.867,1.938 -1.938,1.938 -1.07,0 -1.938,-0.867 -1.938,-1.938 0,-1.07 0.867,-1.938 1.938,-1.938 z m -23.395,0.14 c 0.798,0 1.443,0.646 1.443,1.443 0,0.798 -0.645,1.448 -1.443,1.448 -0.798,0 -1.448,-0.651 -1.448,-1.448 0,-0.798 0.65,-1.443 1.448,-1.443 z m -4.432,0.077 c 12.31,15.676 18.851,31.568 21.729,48.888 l -2.063,-0.097 C 105.962,119.128 98.262,102.973 87.819,89.934 Z m 50.433,0.015 c 0.844,0 1.531,0.682 1.531,1.526 0,0.844 -0.686,1.531 -1.531,1.531 -0.844,0 -1.531,-0.686 -1.531,-1.531 0,-0.844 0.686,-1.526 1.531,-1.526 z m -30.39,0.121 c 0.844,0 1.531,0.682 1.531,1.526 0,0.844 -0.686,1.531 -1.531,1.531 -0.844,0 -1.531,-0.686 -1.531,-1.531 0,-0.844 0.686,-1.526 1.531,-1.526 z m 15.054,0.044 c 0.844,0 1.531,0.682 1.531,1.526 0,0.844 -0.686,1.531 -1.531,1.531 -0.844,0 -1.531,-0.686 -1.531,-1.531 0,-0.844 0.686,-1.526 1.531,-1.526 z m 38.304,1.095 c 0.811,6.204 -0.791,10.21 -5.522,10.86 -6.033,0.828 -6.815,1.282 -6.849,6.994 -0.04,6.771 -1.041,8.726 -5.837,9.261 -5.395,0.602 -6.65,1.241 -6.166,7.949 0.353,4.894 -1.576,6.977 -5.73,7.886 -3.248,0.71 -6.061,1.798 -7.266,5.071 l -2.969,0.039 c 0.771,-5.156 5.954,-7.618 9.276,-7.789 3.581,-0.849 4.329,-2.05 3.749,-8.326 -0.437,-4.725 1.297,-6.161 6.849,-7.241 4.438,-0.875 5.526,-2.149 5.285,-5.779 -0.518,-7.783 -0.006,-8.954 4.417,-9.901 2.254,-0.534 5.924,-0.773 7.324,-2.495 1.592,-1.958 1.186,-3.625 1.041,-6.03 z m 28.515,0.208 0,2.034 -7.309,4.51 0,-1.981 z m -107.43,1.206 c -1.563,6.748 3.811,8.215 7.082,9.353 3.805,1.325 4.728,3.244 4.296,9.949 -0.327,5.072 0.232,6.193 3.517,7.934 5.024,2.592 6.373,6.276 4.141,11.669 -1.376,3.325 -0.653,4.257 0.218,7.159 l -2.436,-0.024 c -0.178,0.056 -2.235,-3.62 -0.48,-7.576 2.08,-4.687 2.021,-7.041 -2.616,-9.15 -3.587,-1.632 -4.688,-3.171 -4.912,-6.529 -0.094,-1.414 -0.084,-2.119 0.247,-5.192 0.417,-3.876 -0.964,-5.543 -6.694,-7.673 -2.553,-0.949 -4.288,-3.157 -4.81,-6.66 -0.146,-0.981 -0.015,-2.112 -0.015,-2.112 z m 85.696,0.731 21.792,14.497 -0.15,3.226 -23.119,-15.447 z m -14.042,0.32 c 1.054,0 1.908,0.855 1.908,1.908 0,1.054 -0.854,1.908 -1.908,1.908 -1.054,0 -1.908,-0.855 -1.908,-1.908 0,-1.054 0.854,-1.908 1.908,-1.908 z m -68.558,0.833 c 0.957,0 1.729,0.773 1.729,1.729 0,0.957 -0.772,1.734 -1.729,1.734 -0.957,0 -1.734,-0.777 -1.734,-1.734 0,-0.957 0.777,-1.729 1.734,-1.729 z m 104.271,0.203 -0.073,1.942 -7.174,4.437 0,-1.942 z M 77.848,95.306 c 6.59,8.589 13.067,17.439 18.062,34.115 l -2.131,0.819 C 89.655,116.818 83.312,105.667 75.833,96.445 Z m 17.212,-0.082 49.647,0 -1.274,1.715 -47.43,-0.484 z m 96.573,1.613 0,2.126 -5.498,3.347 -1.618,-1.056 z m -116.7,0.228 0.974,1.279 c 0,0 -1.054,0.827 -2.248,1.681 -3.251,2.325 -3.673,2.589 -3.89,4.103 -0.514,3.595 3.182,5.367 6.893,3.289 1.331,-0.608 4.248,-2.456 4.248,-2.456 l 0.838,1.235 c 0,0 -4.182,3.128 -6.636,3.841 -5.383,1.564 -9.403,-5.258 -5.425,-9.31 0.608,-0.619 1.893,-1.451 2.916,-2.112 1.049,-0.678 2.33,-1.55 2.33,-1.55 z m 22.16,0.848 45.744,0.271 -29.213,39.927 -1.298,-0.073 c -2.265,-14.934 -7.881,-27.981 -15.234,-40.126 z m -19.947,1.69 2.674,3.735 c 0,0 -1.743,1.667 -4.621,3.24 -2.308,1.262 -4.804,-1.032 -3.352,-3.1 1.491,-2.053 5.299,-3.875 5.299,-3.875 z m 114.487,0.383 0,1.947 -3.168,1.942 -1.448,-0.925 z m -114.821,1.497 c -1.269,0.067 -3.372,1.506 -4.088,2.746 -0.308,0.533 -0.197,0.981 0.087,1.347 0.433,0.557 0.944,0.525 2.465,-0.286 3.106,-1.655 3.688,-2.638 2.32,-3.609 -0.189,-0.134 -0.415,-0.194 -0.668,-0.199 l -0.116,0 z m -0.102,0.799 0.625,0.024 c 0.537,0.221 0.373,0.889 -0.189,1.046 -0.123,-0.195 -1.055,-0.221 -0.993,0.727 -0.227,0.537 -0.217,0.496 -0.901,0.572 -0.453,-0.11 -0.754,0.204 -0.843,0.402 -0.471,0.252 -1.05,0.173 -1.158,-0.111 -0.104,-0.276 0.283,-1.072 0.61,-1.07 0.158,0.013 0.438,-0.222 0.727,-0.417 -0.01,-0.518 0.598,-0.593 0.775,-0.591 0.173,0.036 0.756,0.044 1.037,-0.431 0.08,-0.1 0.19,-0.139 0.31,-0.15 z m 114.923,0.465 0,3.003 -2.296,-1.468 z m -126.926,0.378 c 8.331,9.837 14.331,20.307 18.15,34.797 l -1.671,1.153 C 78.662,128.916 74.776,118.18 63.279,104.224 Z m 97.471,0.165 c 3.772,3.203 19.229,17.752 22.175,43.574 l -2.068,1.269 c -1.661,-13.629 -7.022,-29.255 -21.443,-43.105 z m -7.455,0.896 c 1.054,0 1.908,0.855 1.908,1.908 0,1.054 -0.855,1.908 -1.908,1.908 -1.054,0 -1.908,-0.855 -1.908,-1.908 0,-1.054 0.854,-1.908 1.908,-1.908 z m -92.336,0.746 c 0,0 1.751,1.8 1.749,2.228 -0.006,0.848 -0.68,1.329 -4.703,2.795 -0.679,0.247 -3.652,0.932 -3.652,0.932 l -0.108,-1.442 c 1.516,-0.547 5.588,-1.522 5.886,-2.387 0.146,-0.34 -0.58,-1.201 -0.426,-1.201 z m 27.756,0.366 c 0.957,0 1.729,0.777 1.729,1.734 0,0.957 -0.772,1.734 -1.729,1.734 -0.957,0 -1.734,-0.777 -1.734,-1.734 0,-0.957 0.777,-1.734 1.734,-1.734 z m 70.121,0.496 c 12.593,12.301 19.524,27.5 21.143,43.197 -14.666,11.927 -24.629,26.923 -28.588,45.681 -1.956,-3.261 -3.621,-7.011 -5.43,-10.676 19.569,-17.197 23.687,-48.167 6.762,-69.876 z m -77.016,2.344 0.882,1.366 c 0,0 -0.184,0.168 -2.926,1.87 -4.01,2.49 -4.672,4.113 -3.333,6.66 1.369,2.605 2.895,2.744 7.203,0.659 1.521,-0.736 2.814,-1.511 2.814,-1.511 l 0.688,1.429 c 0,0 -1.928,1.569 -5.643,2.93 -3.493,1.281 -6.796,-0.901 -7.416,-4.936 -0.452,-2.933 0.828,-4.505 5.924,-7.396 0.573,-0.303 1.807,-1.07 1.807,-1.07 z m 60.004,0.649 c 1.054,0 1.908,0.855 1.908,1.908 0,1.054 -0.854,1.908 -1.908,1.908 -1.054,0 -1.908,-0.855 -1.908,-1.908 0,-1.054 0.854,-1.908 1.908,-1.908 z m -77.82,0.072 1.153,1.087 c 0,0 -0.497,0.731 -3.337,2.44 -2.553,1.536 -2.816,1.287 -1.545,2.361 2.37,2.002 5.657,6.435 5.639,7.58 -0.017,1.103 -1.005,2.12 -2.9,2.973 -1.037,0.467 -5.143,1.931 -5.746,2.036 -1.199,0.131 -1.537,0.612 -0.337,1.702 2.037,2.336 3.775,7.337 3.076,8.861 -0.787,1.717 -1.731,2.008 -9.275,2.353 -0.86,0.039 -1.27,-0.204 -0.804,0.896 0.339,0.799 0.694,1.897 1.366,5.289 0.599,3.025 0.496,4.385 -0.678,5.008 -0.675,0.358 -5.922,0.232 -8.089,-0.194 -2.481,-0.487 -2.751,-0.52 -2.349,1.095 0.52,2.231 0.844,8.209 -0.843,9.363 -0.702,0.457 -1.458,0.345 -4.539,-0.693 -1.965,-0.662 -3.667,-1.419 -3.667,-1.419 l 0.034,-1.855 c 1.602,0.659 5.993,2.556 7.241,1.957 1.481,-2.122 -0.575,-9.562 -1.361,-11.155 -0.948,-1.903 0.043,-2.318 2.228,-1.138 1.147,0.808 11.026,4.703 10.464,1.219 -0.602,-3.307 -1.676,-7.07 -3.76,-9.434 -1.927,-2.186 -0.968,-3.08 1.177,-2.121 3.796,1.696 11.639,1.28 11.248,-0.478 -0.517,-2.859 -3.114,-6.734 -6.669,-9.739 -0.988,-0.836 -1.026,-1.193 0.14,-1.399 3.32,-0.264 12.822,-1.24 11.493,-3.471 -1.14,-1.826 -2.662,-3.844 -3.958,-4.931 -2.129,-1.785 -4.276,-2.559 -5.228,-2.93 l 0.061,-1.368 c 4.327,-0.359 6.577,-1.662 9.763,-3.894 z m -10.477,1.347 c -1.552,16.266 -8.357,29.668 -22.402,39.016 l -0.077,-1.821 c 12.349,-9.275 18.277,-22.458 19.884,-35.214 z m 29.925,1.022 0.01,0.005 c 0,0 2.26,4.063 2.257,4.432 -1.341,1.243 -4.862,3.062 -6.302,2.635 -2.221,-0.708 -2.569,-3.078 -0.436,-4.476 1.842,-1.342 4.137,-2.509 4.447,-2.591 l 0.024,-0.005 z m -17.999,-0.253 1.155,1.035 c 0,0 -0.297,0.451 -1.959,1.78 -1.294,0.995 -0.842,0.603 0.039,1.787 0.784,0.94 2.18,2.829 2.18,2.829 l -0.417,2.514 c -1.462,-2.082 -2.674,-3.597 -4.844,-5.822 -1.102,-1.136 -1.041,-1.167 0.533,-1.986 1.179,-0.652 2.139,-1.444 3.313,-2.137 z m 31.533,1.62 c 0.957,0 1.729,0.773 1.729,1.729 0,0.957 -0.773,1.734 -1.729,1.734 -0.957,0 -1.734,-0.777 -1.734,-1.734 0,-0.957 0.777,-1.729 1.734,-1.729 z m -14.008,0.144 c -1.65,0.435 -3.267,1.908 -4.175,2.558 -0.331,0.236 -0.07,1.423 0.247,1.831 0.408,0.524 1.159,0.437 2.059,-0.063 0.377,-0.209 1.058,-0.551 1.511,-0.76 1.268,-0.586 1.8,-1.023 1.753,-1.511 -0.203,-0.657 -0.722,-2.101 -1.395,-2.054 z m 0.092,0.751 c 0.464,0.019 0.798,0.616 0.649,0.969 -0.795,0.43 -1.236,0.066 -1.133,0.668 0,0 0.079,0.937 -1.085,0.959 -0.284,-0.124 -0.778,-0.102 -1.017,0.14 -0.814,0.337 -1.524,-0.375 -0.639,-0.78 0.239,-0.109 0.83,-0.294 0.993,-0.659 0.084,-0.452 0.458,-0.812 0.867,-0.562 0.218,0.016 0.705,0.05 0.862,-0.295 -0.06,-0.388 0.215,-0.421 0.412,-0.436 l 0.092,-0.005 z m -33.293,-0.121 c 0.356,1.826 -0.745,5.032 -1.369,6.839 -3.694,4.832 -9.051,7.303 -14.144,8.99 -1.132,0.376 -2.652,0.186 -2.652,0.186 7.048,-7.25 13.09,-12.564 18.165,-16.015 z m -12.873,1.641 c 0.05,-0.407 -1.808,-0.899 -1.986,-0.644 -0.343,0.322 -0.889,5.358 -0.533,5.72 0.495,0.504 1.861,0.642 1.991,0.042 0.428,-1.976 0.323,-3.452 0.528,-5.118 z m 31.586,-0.15 1.206,1.497 c -2.555,24.27 -19.892,45.266 -38.401,53.591 L 32.67,168.34 c 21.175,-11.121 33.918,-29.638 37.248,-53.48 z m 83.773,0.102 2.296,3.158 -3.289,0.102 z M 37.72,115.548 c -0.019,0.83 -0.114,2.554 -0.434,3.516 -0.2,0.749 -0.779,0.579 -0.998,-0.111 -0.227,-0.717 -0.038,-2.754 0.392,-3.589 0.458,-0.787 0.821,-0.655 1.04,0.184 z m 17.519,0.441 c 1.136,0 7.167,3.711 6.361,5.56 -0.641,1.471 -5.689,1.591 -8.004,1.385 l 0.349,-1.418 c 0,0 0.705,0.246 3.394,-0.039 2.824,-0.189 2.617,-1.158 -0.62,-3.207 -1.393,-0.872 -1.716,-1.087 -1.716,-1.087 z m 16.714,1.991 c 1.869,3.15 3.637,6.699 5.299,10.676 -22.801,21.516 -21.032,50.818 -6.655,70.05 l -6.195,8.36 C 52.015,195.247 45.271,180.707 42.993,165.264 c 18.08,-13.008 26.576,-32.42 28.961,-47.285 z m 84.674,0.954 1.361,2.601 -3.27,-0.053 z m -14.12,1.303 c 1.054,0 1.908,0.855 1.908,1.908 0,1.054 -0.854,1.904 -1.908,1.904 -1.054,0 -1.908,-0.85 -1.908,-1.904 0,-1.054 0.854,-1.908 1.908,-1.908 z m -53.054,0.513 0.649,1.477 c 0.03,0.185 -4.613,1.651 -6.108,3.536 -1.38,1.741 -1.251,3.557 -0.475,4.81 1.324,1.786 2.262,2.036 4.495,1.351 1.821,-0.558 3.158,-1.312 4.965,-2.233 l 0.286,0.746 c 0.003,-0.039 -2.593,1.524 -4.572,2.64 -0.743,0.419 -1.637,0.595 -2.412,0.576 -4.504,-0.108 -6.892,-5.921 -3.177,-9.353 0.544,-0.503 2.384,-1.511 3.933,-2.31 1.031,-0.532 2.417,-1.24 2.417,-1.24 z m 59.631,0.915 c 14.872,21.45 4.69,44.956 -4.912,53.272 l -0.257,-2.524 c 16.168,-18.416 10.544,-39.923 3.807,-49.484 z m 9.571,0.964 1.167,2.65 -3.454,-0.363 z m -59.944,0.868 c 0.957,0 1.734,0.777 1.734,1.734 0,0.957 -0.777,1.729 -1.734,1.729 -0.957,0 -1.729,-0.773 -1.729,-1.729 0,-0.957 0.773,-1.734 1.729,-1.734 z m 48.6,0.338 c 13.035,18.936 5.765,49.13 -19.099,58.328 l -0.126,-2.117 c 25.351,-10.598 27.842,-38.814 17.655,-54.734 z m -56.502,0.116 1.647,4.447 c -2.072,1.388 -2.885,1.625 -5.207,2.189 -1.83,0.418 -3.256,-2.746 -1.85,-3.957 1.604,-1.383 3.331,-1.981 5.41,-2.679 z m -42.276,0.015 c 0.306,-0.014 -0.017,0.744 -0.804,2.65 -1.734,4.198 -1.849,4.287 -6.215,4.979 -2.272,0.36 -3.965,0.451 -5.58,0.295 -2.436,-0.234 -3.477,-0.923 -1.899,-1.255 4.577,-1.006 9.637,-3.377 12.928,-5.672 0.857,-0.615 1.36,-0.988 1.569,-0.998 z m 82.85,0.517 c 1.184,0 2.145,0.962 2.146,2.146 0,1.184 -0.962,2.141 -2.146,2.141 -1.184,0 -2.141,-0.957 -2.141,-2.141 0,-1.184 0.957,-2.146 2.141,-2.146 z m -64.797,0.594 -0.183,1.651 c 0,0 -2.644,1.397 -3.896,1.924 -0.957,0.387 -1.023,0.473 -0.716,1.36 0.619,1.771 1.812,3.967 1.812,3.967 l -1.105,2.503 c -0.675,-2.251 -1.384,-4.63 -2.625,-6.727 -1.176,-1.641 -1.396,-1.845 0.435,-2.188 2.364,-0.796 4.203,-1.372 6.279,-2.49 z m 23.613,0.536 c -1.294,0.057 -3.995,1.145 -4.263,2.185 -0.152,0.587 0.016,1.409 0.513,1.594 1.345,0.499 4.045,-0.607 4.757,-1.618 0.222,-0.312 -0.116,-0.958 -0.354,-1.361 -0.182,-0.308 -0.147,-0.821 -0.654,-0.799 z m 0.068,0.886 0.068,0 c 0.219,-0.019 1.017,0.991 0.121,0.906 -0.309,-0.029 -0.59,0.086 -0.843,0.349 -0.031,0.485 -0.726,0.669 -1.061,0.504 -0.249,-0.123 -0.599,0.131 -0.635,0.281 -0.503,0.363 -1.139,0.345 -1.221,0.087 -0.17,-0.181 0.338,-0.923 0.78,-0.896 0.095,0.006 0.409,-0.206 0.702,-0.46 0.141,-0.507 0.675,-0.419 1.012,-0.392 0.382,0.154 0.732,-0.343 1.075,-0.378 z m 70.026,0.077 0.954,2.654 -3.415,-0.305 z m -14.678,3.058 c -0.707,0.901 -1.358,0.91 -2.389,0.862 0.844,1 1.217,2.381 0.394,3.287 -1.25,1.274 -3.661,-0.679 -3.483,-0.857 l 4.327,-5.766 c 1.148,0.326 1.784,1.399 1.15,2.474 z M 51.656,128.13 c 0,0 5.259,4.531 5.297,6.561 0.015,0.774 -0.234,1.025 -0.852,1.23 -2.066,0.685 -7.816,-1.077 -7.816,-1.077 l 0.739,-1.402 c 0.905,0.25 5.36,1.403 5.743,0.835 0.398,-0.589 -3.721,-4.608 -3.73,-4.612 z m 26.104,1.894 0.63,2.189 -2.151,-0.533 z m 83.986,0.392 0.562,3.027 -3.444,-0.804 z m -65.652,0.048 0.513,1.778 c -22.845,10.593 -29.515,34.92 -17.602,54.996 l -1.347,1.85 c -15.947,-25.839 0.204,-52.065 18.435,-58.624 z m -20.581,1.86 0.31,2.698 -2.654,-0.155 z m -31.439,-0.071 c 0.452,0.006 0.538,0.25 0.536,0.516 -0.002,0.364 -2.307,3.307 -3.054,3.97 -1.62,0.654 -7.871,-1.957 -8.804,-3.978 -0.184,-0.592 0.433,-0.331 1.817,-0.05 3.507,1 7.06,-0.373 9.505,-0.458 z m 60.863,0.035 c 0.957,0 1.734,0.773 1.734,1.729 0,0.957 -0.777,1.734 -1.734,1.734 -0.957,0 -1.729,-0.777 -1.729,-1.734 0,-0.957 0.772,-1.729 1.729,-1.729 z m -71.961,2.132 c 1.739,1.563 4.294,2.855 6.56,3.306 1.411,0.311 1.001,0.456 -0.307,1.807 -1.224,1.279 -1.123,1.44 -2.369,0.809 -2.079,-1.054 -4.34,-3.45 -4.248,-4.753 0.038,-0.542 0.132,-1.172 0.364,-1.169 z m 129.759,0.293 0.431,2.877 -3.255,-1.129 z m -90.457,1.037 1.061,2.577 -2.887,-0.082 z m 73.363,2.461 c -0.002,0.36 -0.087,0.969 -0.087,0.969 1.698,-1.08 3.952,-0.193 3.885,1.553 -0.095,2.461 -1.298,2.484 -3.265,2.158 1.077,1.786 -0.201,3.506 -2.225,2.848 -1.846,-0.6 -1.49,-2.547 -0.628,-3.7 -4.353,0.71 -5.517,6.903 -0.489,8.743 -1.011,-1.564 -1.262,-3.432 0.931,-3.746 2.037,-0.292 2.899,1.253 2.019,3.111 1.913,-0.665 3.716,0.431 3.14,2.295 -0.696,2.25 -2.696,2.095 -3.877,0.724 0.847,2.04 -1.114,3.51 -2.594,2.719 -2.333,-1.246 -1.18,-3.469 0.383,-4.061 -6.007,-0.619 -7.401,7.689 -2.973,8.874 -1.137,-0.713 -1.265,-3.985 1.33,-3.536 2.549,0.513 1.942,2.881 0.308,3.957 1.973,-0.421 3.822,1.303 2.62,3.047 -1.416,2.055 -3.368,0.59 -4.093,-0.809 0.228,1.876 -0.966,3.07 -2.501,2.366 -2.635,-1.208 -0.688,-4.231 1.372,-4.037 -4.18,-2.47 -9.862,2.71 -6.515,6.999 -0.13,-1.948 0.84,-3.547 2.179,-3.327 1.178,0.133 2.209,1.475 1.877,2.531 -0.308,0.9 -1.335,1.592 -2.409,1.808 3.196,0.355 3.469,2.616 2.144,3.73 -2.249,1.892 -3.294,-0.293 -3.815,-1.57 -0.457,3.175 -4.201,2.095 -4.33,-0.199 -0.127,-2.513 2.772,-2.461 3.308,-2.32 0.068,-0.087 -2.244,-2.375 -4.711,-2.7 l 0.015,-1.458 c 9.727,-6.1 13.071,-16.75 9.985,-26.847 l 0.586,-0.673 c 1.586,1.212 3.177,3.81 6.111,2.857 0,0 -0.682,-0.48 -1.02,-0.813 -1.51,-1.488 -0.662,-3.241 1.439,-3.337 1.361,-0.063 1.89,0.988 1.899,1.845 z m -65.986,-0.005 1.008,1.477 c -14.749,17.279 -12.061,37.05 -3.58,50.138 l -1.235,1.492 c -7.507,-9.624 -13.635,-32.956 3.807,-53.107 z m 12.57,2.388 c -0.02,0.385 0.008,0.695 0.008,0.695 0,0 0.317,-0.394 0.574,-0.867 1.259,-2.106 3.971,-0.894 3.525,1.524 -0.209,1.134 -2.12,1.577 -2.64,1.253 0.495,1.351 1.836,1.669 3.469,2.254 0.571,0.109 1.55,0.388 1.55,0.388 l 0.039,0.915 c -8.847,5.574 -13.856,15.024 -10.613,27.948 l -0.978,1.322 c -1.785,-4.293 -3.412,-4.199 -6.347,-4.367 0,0 0.729,0.514 1.149,1.01 0.89,1.051 0.495,2.885 -0.736,3.076 -2.853,0.442 -2.881,-1.58 -2.504,-2.95 0,0 -0.511,0.429 -0.76,0.591 -1.132,0.736 -2.542,-0.028 -2.674,-1.487 -0.124,-1.373 0.345,-2.261 1.758,-2.432 0.474,-0.057 1.206,0.063 1.206,0.063 l -0.436,-0.843 c -0.676,-1.327 0.808,-2.462 2.17,-2.176 2.15,0.518 1.981,2.373 0.736,3.831 3.335,0.251 5.084,-1.929 4.838,-4.094 -0.3,-2.641 -1.515,-4.069 -4.139,-4.529 0,0 0.423,0.664 0.604,0.986 0.672,1.191 -0.293,2.653 -1.705,2.645 -1.447,-0.009 -2.374,-1.335 -1.816,-2.645 0.136,-0.319 0.678,-0.719 0.596,-0.756 -0.057,-0.025 -0.802,0.205 -1.008,0.237 -1.739,0.271 -2.855,-1.258 -2.126,-2.785 0.516,-1.082 2.069,-1.373 3.197,-0.843 l 0.431,0.262 c 0.033,-0.054 -0.114,-0.409 -0.16,-0.659 -0.357,-1.399 0.315,-2.146 1.831,-2.049 2.122,0.136 2.913,1.865 1.487,3.425 -0.368,0.402 -0.934,0.997 -0.934,0.997 0.071,0.307 3.027,0.53 4.538,-1.051 1.748,-1.829 2.023,-5.647 0.266,-6.893 l -0.872,-0.615 c 0.836,1.678 -0.703,3.609 -2.062,3.248 -2.717,-0.655 -2.482,-2.879 -0.695,-3.582 0,0 -1.812,-0.677 -2.334,-1.406 -0.738,-1.031 -0.489,-1.981 0.396,-2.705 1.115,-0.896 2.7,-0.309 3.464,0.797 0.462,-1.407 1.113,-2.357 3.037,-1.591 1.346,0.642 1.335,2.438 -0.147,3.416 -0.475,0.313 -1.32,0.605 -1.32,0.605 0,0 1.274,0.726 2.824,0.743 2.991,0.034 5.357,-3.491 4.151,-6.185 -0.245,-0.547 -0.856,-1.253 -0.856,-1.253 0,0 -0.066,0.941 -0.252,1.303 -0.691,1.343 -2.279,1.368 -3.219,0.52 -0.854,-0.77 -0.604,-1.801 0.058,-2.503 0.502,-0.533 0.955,-0.637 1.657,-0.964 -0.797,-0.269 -1.683,-0.463 -2.07,-1.287 -0.36,-0.786 -0.107,-1.752 0.847,-2.351 1.723,-0.901 3.075,0.624 2.997,1.811 z M 32.909,138.42 c 1.218,0.703 2.031,1.765 3.168,2.692 0.878,0.712 0.869,0.839 0.142,1.515 -1.633,1.575 -2.551,-0.705 -3.079,-1.637 -0.647,-1.249 -0.713,-2.523 -0.231,-2.57 z m 130.592,0.435 0.203,3.047 -3.395,-1.303 z m -93.572,0.179 1.221,2.771 -3.153,-0.015 z m 65.89,0.005 c 2.964,10.953 -1.204,18.816 -9.111,24.974 l -0.877,-1.148 c 6.181,-5.251 10.807,-11.44 8.762,-22.465 z m -36.328,0.048 34.764,0.639 -1.041,1.831 -2.708,0.015 -5.372,9.494 -24.984,-0.005 z m -50.864,7.923 c -1.213,1.914 -8.434,-2.206 -8.339,-2.423 l 0.905,-0.871 c 1.146,0.465 4.716,2.434 5.506,2.123 0.276,-1.792 -1.829,-4.112 -2.622,-5.656 l 0.884,-1.108 c 0,0 4.579,5.929 3.665,7.935 z m 11.848,-6.969 -1.202,2.173 c -1.125,0.345 -4.521,0.406 -4.795,0.631 0.41,1.114 0.86,4.386 0.86,4.386 L 54,148.943 c -0.357,-2.105 -0.953,-4.766 -1.479,-6.718 -0.45,-1.655 -0.324,-1.291 3.202,-1.565 1.58,-0.089 3.209,-0.289 4.752,-0.62 z m 7.13,2.62 1.429,2.538 -2.897,0.029 z m -34.812,0.17 c 0.158,-0.065 1.054,0.94 1.208,1.23 -0.066,0.66 -1.089,1.021 -1.247,0.785 -0.064,-0.095 -0.082,-1.576 0.019,-1.986 l 0.019,-0.029 z m 131.135,0.034 -0.029,3.177 -3.444,-1.526 z m 27.343,0.717 -0.048,2.059 c -12.489,6.099 -31.116,22.475 -36.43,51.847 l -1.09,-1.201 c 5.31,-28.044 23.639,-44.626 37.568,-52.705 z m -125.623,2.834 1.555,2.34 -2.805,0.305 z m 98.347,0.896 -0.276,2.814 -3.391,-1.879 z m -65.24,0.586 c 0.013,0.668 0.071,1.15 0.111,1.816 -7.695,4.982 -10.296,12.822 -9.014,22.688 l -1.066,1.574 c -2.504,-8.946 0.024,-19.969 9.968,-26.079 z m 89.222,0.581 c 0.785,0.46 3.327,1.21 3.327,1.21 l -0.028,1.871 -5.236,-1.879 z M 37.533,156.44 c -1.126,0.918 -3.724,-0.61 -4.905,-1.233 l -0.034,-1.579 c 0,0 0.9,0.462 1.807,0.823 1.863,0.826 1.867,-0.158 0.847,-2.915 -0.359,-0.97 -0.714,-2.091 -0.714,-2.091 l 1.225,-1.162 c 0,0 2.931,6.601 1.773,8.157 z m 26.289,-5.922 2.005,2.097 -2.795,0.639 z m 122.232,0.252 c 1.775,0.002 5.197,1.443 5.197,1.443 l -0.023,2.076 c -1.738,-0.503 -3.756,-1.469 -5.593,-1.74 -1.451,-0.201 -1.366,0.612 -1.374,2.662 -0.011,2.778 0.687,5.287 2.015,8.065 1.1,2.301 0.527,2.916 -1.269,1.889 -3.233,-2.219 -10.123,-3.893 -11.184,-2.602 -1.091,1.328 1.057,7.94 3.54,11.093 1.009,1.281 1.072,1.486 0.601,1.986 -0.382,0.404 -0.999,0.429 -2.088,0.082 -3.582,-1.14 -8.766,-1.397 -10.26,-0.431 -1.482,0.959 2.376,7.579 5.614,9.716 2.1,1.498 1.695,2.244 -1.7,2.32 -5.544,0.026 -9.808,1.262 -9.571,2.775 0.402,2.572 3.992,6.1 8.113,7.973 2.522,1.03 1.467,1.44 -0.209,2.035 -2.804,0.947 -5.499,2.463 -8.137,3.879 l -1.269,-1.623 c 0,0 2.655,-1.687 5.541,-3.308 0.677,-0.38 0.643,-0.518 -0.305,-1.313 -3.075,-2.578 -5.331,-5.455 -5.803,-7.392 -0.458,-1.882 0.481,-3.07 3.274,-4.132 1.726,-0.656 2.362,-0.85 3.885,-1.192 2.195,-0.492 2.231,-0.56 1.293,-2.248 -0.421,-0.757 -1.11,-2.006 -1.531,-2.775 -3.27,-5.592 -1.546,-7.611 6.045,-7.726 1.864,-0.098 2.219,-0.104 2.117,-0.747 -0.404,-2.635 -1.568,-5.66 -1.403,-7.892 0.348,-3.366 3.81,-4.18 9.895,-2.662 1.409,0.352 1.507,0.28 1.259,-0.857 -1.178,-5.126 0.049,-9.75 3.328,-9.358 z m -22.33,0.358 -0.533,3.265 -3.24,-2.155 z m -121.186,0.77 8.937,0.586 -1.419,1.666 -5.401,-0.102 -0.203,4.611 -1.729,1.482 z m 57.922,0.354 7.358,0 -0.058,7.779 -7.333,0 z m 8.767,0 6.849,0 0,7.779 -6.791,0.073 z m 8.2,0 7.343,0 -0.068,7.779 -7.27,0 z m 64.131,0.62 c -0.173,2 0.246,5.616 0.415,7.169 -0.119,0.462 -0.439,0.396 -2.362,-0.039 -1.333,-0.446 -5.03,-0.577 -5.03,-0.577 l 1.549,-1.641 c 1.266,0.151 2.266,0.139 3.577,0.302 -0.018,-1.31 0.037,-3.81 0.037,-3.81 z m -118.905,1.54 2.054,2.068 -2.63,0.673 z m 100.358,0.673 -0.819,3.328 -2.974,-2.674 z m 28.169,1.768 0.012,1.698 -2.925,-1.316 c -0.033,1.937 1.681,5.435 1.681,5.435 l -1.39,0.654 c -1.204,-1.967 -2.041,-3.734 -2.11,-5.951 0.015,-0.802 -0.095,-2.159 0.628,-2.196 1.487,-0.035 2.732,0.469 4.105,1.676 z m -129.529,1.68 2.441,1.453 -2.708,1.095 z m 100.425,0.746 -1.196,3.425 -2.611,-2.964 z m -129.464,1.09 6.588,2.233 -1.172,1.245 -5.473,-1.729 z m 92.424,0.906 0.542,12.134 -34.807,-0.286 1.211,-1.715 2.262,-0.019 5.958,-10.046 z m -63.85,0.945 2.587,1.826 -2.688,1.187 z m 130.152,1.07 0.005,1.986 c -8.404,6.209 -17.49,16.909 -19.036,35.829 l -2.267,1.938 c 1.106,-18.474 8.799,-31.21 21.298,-39.753 z m -30.661,0.073 -1.221,3.081 -2.417,-2.868 z m 23.682,4.189 -0.81,0.907 c -0.228,0.076 -3.433,-1.641 -5.953,-2.044 0.825,1.632 1.215,2.849 3.042,5.435 l -1.177,1.163 c -0.355,-0.079 -4.922,-6.824 -3.713,-8.347 1.962,-1.321 6.719,1.45 8.611,2.887 z m -13.668,-3.621 c -0.051,1.831 1.431,7.515 1.431,7.515 -2.291,0.113 -4.513,-0.15 -6.987,0.544 l 1.165,-2.078 c 0,0 1.077,-0.112 2.019,-0.299 1.948,-0.387 1.746,-0.153 1.294,-1.847 -0.425,-1.593 -0.449,-1.924 -0.449,-1.924 0,0 1.387,-1.922 1.527,-1.912 z m -128.458,1.965 c 3.007,18.216 10.194,30.725 21.53,41.981 l -1.153,1.506 C 49.283,197.187 42.008,181.665 40.106,167.068 Z m 18.755,0.765 2.451,1.337 -2.519,1.468 z m 130.317,0.053 -0.015,2.673 -1.535,-1.549 c 0.414,-0.375 0.917,-0.749 1.551,-1.124 z m -32.308,0.547 -1.671,3.066 -2.181,-2.905 z m 32.129,6.936 c -0.343,-0.54 -3.404,-2.443 -4.792,-3.241 -0.088,-0.235 2.15,-2.234 2.595,-2.372 2.223,0.309 2.936,4.749 2.197,5.614 z m -130.104,-3.333 2.771,1.351 -2.514,1.773 z m 92.176,-0.002 3.556,0.336 -1.889,2.935 z m 32.914,1.304 c 0.462,0.003 0.98,0.197 1.627,0.557 2.505,1.395 3.82,2.924 3.681,4.282 -0.064,0.624 -0.413,0.749 -0.819,0.295 -0.731,-0.817 -3.195,-1.88 -5.318,-2.296 -1.609,-0.315 -1.757,-0.452 -1.274,-1.196 0.732,-1.129 1.334,-1.647 2.102,-1.642 z m -42.843,1.288 c 3.852,14.584 10.623,25.807 19.123,35.045 l -1.763,1.502 c -6.455,-7.405 -13.554,-16.071 -19.351,-34.807 z m 7.69,0.78 3.558,0.538 -2.083,2.654 z m -50.184,0.155 c 0.413,0.014 -1.225,6.222 -6.878,6.65 -3.579,0.594 -3.981,1.196 -4.035,6.767 -0.073,7.551 -1.292,9.318 -7.464,9.784 -4.087,0.309 -4.625,1.141 -3.933,7.009 0.658,5.585 -1.453,8.433 -6.66,8.428 -4.51,0.374 -6.374,2.477 -6.37,6.655 0.002,1.693 0.029,2.102 0.029,2.102 l -2.916,0.228 c 0,0 0.008,-2.751 0.228,-4.088 0.888,-5.406 3.205,-7.571 8.084,-7.547 3.772,-0.287 4.359,-0.899 4.229,-6.617 -0.146,-5.816 -0.224,-5.776 1.293,-7.3 0.977,-0.981 2.093,-1.422 4.074,-1.608 6.169,-0.581 6.656,-0.993 6.641,-7.319 -0.572,-5.255 0.881,-8.474 4.219,-8.738 6.755,-0.535 6.595,-4.202 6.297,-4.355 l 3.144,-0.048 0.019,-0.005 z m 13.814,0 c 3.962,21.367 16.497,41.377 23.376,48.762 l -1.342,0.712 c -10.027,-12.453 -19.14,-26.754 -23.647,-49.44 z m -7.154,0.01 3.134,0.034 -36.1,50.806 -1.904,-1.434 z m 4.379,0.034 c 3.392,12.316 6.06,24.359 16.725,40.47 l -45.241,-0.295 z m 12.492,0.048 c 0.263,-0.122 1.326,6.231 -0.258,9.165 -1.424,3.97 -0.728,6.206 2.37,7.653 5.32,2.484 6.662,4.964 5.987,11.063 -0.472,4.271 0.82,6.334 4.829,7.706 4.782,1.637 6.874,4.209 6.849,8.423 -0.004,0.647 -0.247,1.385 -0.247,1.385 l -2.669,1.569 c 0,0 0.033,-0.573 0.136,-1.259 0.696,-4.672 -0.19,-5.939 -5.706,-8.142 -5.21,-2.081 -6.501,-4.487 -5.614,-10.487 0.29,-1.957 -0.11,-3.935 -0.92,-5.425 -1.363,-2.428 -4.377,-2.404 -6.544,-4.621 -1.79,-1.899 -1.99,-4.551 -0.464,-9.091 0.946,-2.814 1.088,-3.881 0.353,-6.225 -0.484,-1.544 -0.673,-1.681 -0.673,-1.681 z m -62.833,0.678 3.071,0.848 -2.31,2.398 z m 121.886,0.636 c 1.054,-0.029 3.09,0.34 4.758,1.171 3.826,1.906 4.521,3.468 1.167,2.625 -1.891,-0.475 -4.609,-0.368 -7.232,0.281 -2.772,0.685 -2.713,0.716 -1.758,-0.959 1.209,-2.121 1.524,-3.076 3.064,-3.118 z m -6.945,2.251 -0.696,1.197 c -1.521,-0.252 -3.119,-0.998 -5.435,-0.815 0.95,1.817 2.075,2.757 3.585,4.36 l -0.562,1.201 c -0.135,0.162 -4.412,-3.405 -5.27,-5.802 -0.387,-1.083 -0.036,-1.554 1.521,-1.594 2.321,-0.035 4.659,0.628 6.857,1.453 z m -57.145,-1.176 c 1.146,0 2.073,0.928 2.073,2.073 0,1.146 -0.927,2.078 -2.073,2.078 -1.146,0 -2.073,-0.932 -2.073,-2.078 0,-1.146 0.927,-2.073 2.073,-2.073 z m 29.217,0.562 3.503,0.629 -2.335,2.616 z m -65.5,0.026 c 0.829,-0.066 2.108,1.54 2.105,1.543 l -4.245,5.865 c -2.02,-0.406 -1.589,-3.466 0.262,-3.56 0.427,0.003 1.208,0.075 1.208,0.075 0,0 -0.569,-0.311 -0.897,-0.746 -1.24,-1.498 -0.067,-3.047 1.568,-3.177 z m 79.232,-0.524 c 0,0 3.379,6.685 3.164,6.94 -2.095,0.923 -4.382,1.4 -6.684,2.239 l 0.442,-1.943 c 0,0 0.766,-0.055 3.34,-1.035 1.232,-0.469 -1.344,-3.895 -1.344,-3.895 z m -23.379,1.975 c 4.931,0.041 4.994,6.092 4.049,8.094 -0.686,1.373 -1.731,2.134 -4.887,3.56 -2.736,1.236 -3.042,1.153 -3.042,1.153 l -0.654,-1.458 c 0,0 1.593,-0.702 3.308,-1.395 3.546,-1.432 4.409,-2.526 4.02,-5.091 -0.55,-3.631 -3.355,-4.197 -8.782,-1.763 -0.63,0.282 -1.424,0.567 -1.424,0.567 l -0.373,-0.731 c 0.086,-0.072 4.346,-2.304 6.733,-2.858 0.373,-0.054 0.722,-0.08 1.051,-0.077 z m -76.27,0.659 2.79,0.92 -2.034,2 z m 124.286,0.78 c 2.466,-0.007 4.496,0.409 4.49,1.288 -0.003,0.417 -0.097,0.454 -2.312,0.761 -3.365,0.467 -8.988,3.338 -12.152,6.004 -1.874,1.579 -1.39,1.21 -0.6,-1.078 0.785,-2.276 1.957,-4.994 2.592,-5.409 1.585,-1.036 5.188,-1.558 7.982,-1.566 z m -40.315,0.315 2.373,0.518 -1.545,1.497 z m -7.953,1.288 c 0.85,-0.012 1.269,0.388 1.603,1.201 0.722,1.757 0.009,2.789 -2.742,3.967 -1.247,0.558 -2.36,1.344 -3.725,1.594 l -1.729,-4.64 c 0,0 0.546,-0.201 2.344,-0.945 2.05,-0.848 3.398,-1.165 4.248,-1.177 z m -8.021,0.562 c 5.49,15.529 12.208,25.616 19.317,33.974 l -1.72,1.075 c -7.551,-8.932 -14.499,-19.399 -19.506,-34.807 z m 7.614,0.552 c -0.665,0.019 -1.662,0.421 -2.993,0.935 -1.936,0.747 -2.103,1.649 -1.235,2.766 0.378,0.487 0.77,0.379 2.63,-0.358 1.899,-0.753 2.719,-1.087 2.834,-1.763 0.166,-0.986 -0.38,-1.603 -1.235,-1.579 z m 53.37,0.212 c -0.004,0.651 -9.876,10.009 -15.522,14.773 -2.572,2.171 -2.484,2.154 -2.704,1.886 -0.138,-1.613 0.955,-7.371 1.619,-8.375 3.771,-3.992 9.588,-7.241 15.249,-8.462 0.889,-0.178 1.441,-0.159 1.358,0.178 z m -53.195,0.311 c 0.354,0.011 0.662,0.318 0.659,0.712 -0.002,0.302 -0.438,0.594 -0.891,0.591 -0.16,-0.001 -0.553,0.09 -0.799,0.344 -0.244,0.354 -0.403,0.694 -0.843,0.61 -0.257,-0.049 -0.73,-0.064 -0.915,0.097 -0.867,0.755 -1.728,0.128 -1.327,-0.63 0.101,-0.191 0.452,-0.287 0.736,-0.286 0.246,10e-4 0.81,-0.056 0.891,-0.358 0.098,-0.362 0.651,-0.462 1.037,-0.45 0.42,0.056 0.758,-0.154 0.867,-0.329 0.156,-0.14 0.339,-0.282 0.513,-0.295 l 0.073,-0.005 z m -74.657,0.165 3.144,0.426 -1.981,2.538 z m 30.009,-0.043 c 1.146,0 2.078,0.928 2.078,2.073 0,1.146 -0.932,2.078 -2.078,2.078 -1.146,0 -2.073,-0.932 -2.073,-2.078 0,-1.146 0.927,-2.073 2.073,-2.073 z m 32.741,1.643 c 1.146,0 2.073,0.928 2.073,2.073 0,1.146 -0.928,2.073 -2.073,2.073 -1.146,0 -2.073,-0.928 -2.073,-2.073 0,-1.146 0.928,-2.073 2.073,-2.073 z m -61.345,2.343 3.41,0.218 -1.952,2.611 z m 18.004,0.499 c 1.146,0 2.073,0.928 2.073,2.073 0,1.146 -0.927,2.073 -2.073,2.073 -1.146,0 -2.073,-0.928 -2.073,-2.073 0,-1.146 0.927,-2.073 2.073,-2.073 z m 85.192,1.293 c 1.422,-0.023 3.071,0.121 3.071,0.121 l -0.398,1.595 c -1.733,0.166 -3.961,-0.316 -5.822,0.462 0.691,1.13 4.74,2.728 5.187,3.127 0.042,0.168 -0.333,1.69 -0.333,1.69 0.109,0.388 -6.851,-2.825 -7.082,-5.536 0.006,-0.92 3.006,-1.42 5.377,-1.458 z m -23.933,1.657 c 3.954,0.036 5.906,5.557 4.369,8.002 -0.609,1.105 -1.981,2.416 -3.793,3.57 -0.871,0.555 -3.177,1.686 -3.177,1.686 l -1.037,-1.603 c 0,0 0.92,-0.369 1.787,-0.843 2.178,-1.23 6.597,-3.851 4.461,-7.421 -1.199,-1.932 -2.995,-2.309 -6.723,-0.417 -2.783,1.413 -3.415,1.545 -3.415,1.545 l -0.707,-1.279 c 0.185,0.106 5.557,-3.128 8.234,-3.24 z m -77.2,0.576 3.105,0.005 -1.327,2.8 z m 89.939,-0.368 c 1.888,3.653 5.118,6.413 6.001,7.076 0,0 -3.217,2.066 -5.138,3.382 l -1.129,-1.327 2.76,-2.368 -3.108,-4.336 z m 30.295,0.88 c -0.35,1.804 -0.406,3.719 -0.554,5.827 0.681,0.622 1.293,0.933 1.828,0.897 0.601,-1.895 1.033,-4.048 0.746,-6.264 -0.568,-0.444 -1.315,-0.394 -2.021,-0.46 z m 1.557,1.372 c -0.01,1.19 0.155,2.675 -0.354,3.823 -0.29,0.653 -0.95,0.408 -0.973,-0.48 -0.031,-1.201 0.213,-2.209 0.283,-3.303 0.04,-0.624 0.309,-0.997 0.681,-0.853 0.387,0.187 0.355,0.464 0.363,0.812 z m -44.828,0.819 c 2.039,0.152 2.825,1.857 2.073,3.081 -1.842,2.353 -3.726,2.78 -6.142,4.141 l -2.412,-4.51 c 0,0 4.694,-2.649 6.481,-2.712 z m -0.056,1.007 c -1.348,0.158 -2.2,0.815 -3.333,1.371 -1.388,0.679 -1.84,1.731 -0.898,2.684 1.038,1.157 4.663,-1.601 5.262,-2.267 0.368,-0.572 0.307,-1.094 -0.21,-1.506 -0.225,-0.178 -0.502,-0.279 -0.821,-0.282 z m -74.359,0.19 3.037,0.034 -1.642,2.32 z m 74.637,0.475 c 0.517,0.367 0.472,1.025 -0.256,1.211 -0.369,0.094 -1.004,0.097 -1.019,0.588 -0.011,0.366 -0.57,0.504 -0.89,0.452 -0.326,-0.053 -0.879,-0.081 -0.985,0.328 -0.279,0.557 -0.489,0.566 -0.88,0.177 -0.42,-0.424 -0.224,-0.961 0.596,-1.051 0.35,-0.038 0.654,-0.293 0.78,-0.562 -0.019,-0.348 0.225,-0.55 0.61,-0.47 0.544,-0.006 0.901,-0.207 1.289,-0.715 0.271,-0.127 0.569,-0.089 0.755,0.042 z m -17.769,0.06 c 1.146,0 2.073,0.928 2.073,2.073 0,1.146 -0.928,2.078 -2.073,2.078 -1.146,0 -2.073,-0.932 -2.073,-2.078 0,-1.146 0.928,-2.073 2.073,-2.073 z m -44.278,3.815 c 1.146,0 2.078,0.932 2.078,2.078 0,1.146 -0.932,2.073 -2.078,2.073 -1.146,0 -2.073,-0.928 -2.073,-2.073 0,-1.146 0.927,-2.078 2.073,-2.078 z m -49.615,1.841 23.749,16.241 -1.623,2.369 -22.058,-15.001 z m 119.239,0.528 c 1.545,0.001 2.737,0.891 3.89,2.683 2.289,3.56 1.141,6.368 -3.599,9.237 -2.202,1.333 -2.218,1.347 -2.218,1.347 l -1.119,-1.38 c 0,0 1.604,-0.943 2.267,-1.361 3.896,-2.461 4.992,-4.639 3.279,-7.091 -1.651,-2.363 -3.384,-2.174 -8.196,0.886 -0.973,0.619 -2.136,1.104 -2.136,1.104 l -1.056,-1.434 c 0,0 2.724,-1.4 3.652,-1.991 2.132,-1.361 3.872,-2.002 5.236,-2 z m 17.704,-0.612 0.015,1.561 c 0.053,0.07 -3.228,1.516 -5.15,2.387 -0.622,0.34 -0.38,1.002 -0.342,1.683 l -0.926,0.626 c 0,0 -1.279,-0.933 -1.446,-1.532 -0.469,-1.891 5.551,-4.154 7.849,-4.725 z m -34.288,1.677 c 1.146,0 2.078,0.928 2.078,2.073 0,1.146 -0.932,2.078 -2.078,2.078 -1.146,0 -2.073,-0.932 -2.073,-2.078 0,-1.146 0.928,-2.073 2.073,-2.073 z m -64.339,0.582 c 1.146,0 2.073,0.928 2.073,2.073 0,1.146 -0.928,2.073 -2.073,2.073 -1.146,0 -2.073,-0.928 -2.073,-2.073 0,-1.146 0.928,-2.073 2.073,-2.073 z m 80.836,1.656 c 0.787,-0.028 1.378,0.485 1.7,1.269 0.824,2.006 -0.297,3.491 -4.355,5.764 l -1.061,0.581 -2.989,-4.127 c 0,0 1.052,-0.724 2.044,-1.317 2.223,-1.454 3.648,-2.133 4.66,-2.17 z m -0.397,0.988 c -0.191,0.005 -0.412,0.079 -0.668,0.228 -1.042,0.6 -2.782,1.252 -3.604,2.34 -0.48,0.665 -0.262,1.326 0.649,2.18 0.772,0.51 4.754,-2.422 4.853,-3.274 -0.337,-0.902 -0.656,-1.488 -1.23,-1.472 z m -118.585,0.223 0.664,0.446 -0.664,0.523 z m 119.218,0.723 c 0.294,0.359 0.117,0.967 -0.507,1.074 -0.315,0.054 -0.779,0.14 -0.93,0.605 -0.126,0.307 -0.555,0.568 -0.978,0.557 -0.489,-0.113 -0.746,0.183 -0.773,0.398 -0.241,0.411 -0.836,0.477 -1.199,0.091 -0.283,-0.301 0.223,-1.167 0.557,-1.154 0.06,0.028 0.426,0.111 0.871,-0.483 0.09,-0.432 0.592,-0.696 0.956,-0.68 0.37,0.126 0.587,-0.284 0.735,-0.51 0.34,-0.18 1.029,-0.179 1.267,0.102 z m -117.639,0.314 0.954,0.644 -2.533,1.797 0,-1.448 z m 1.85,1.211 1.298,0.867 -4.728,3.386 0,-1.836 z m 2.422,1.545 1.371,0.906 -7.222,4.878 0,-1.879 z m 2.601,1.317 0,1.569 -8.452,5.9 0,-1.589 z m 0.954,1.129 1.821,1.245 0.455,53.184 -11.388,7.823 0.01,-2.325 9.562,-6.912 z m 137.374,1.438 c -2.553,2.916 -5.979,3.113 -8.966,3.033 -8.05,0.112 -13.047,0.542 -14.082,10.14 3.28,-2.451 6.757,-2.768 10.783,-2.652 5.099,-0.007 7.392,-0.341 9.465,-1.376 3.329,-1.661 5.435,-4.636 5.032,-6.723 -0.395,-0.451 -1.43,-2.312 -2.232,-2.423 z m -138.328,0.466 0,1.841 -8.452,5.662 0,-1.87 z m 96.513,0.171 c 1.146,0 2.078,0.928 2.078,2.073 0,1.146 -0.932,2.073 -2.078,2.073 -1.146,0 -2.073,-0.928 -2.073,-2.073 0,-1.146 0.927,-2.073 2.073,-2.073 z m -55.177,0.212 c 14.934,0.464 46.65,0.286 46.65,0.286 l 1.69,2.436 -49.866,-0.523 z m 96.909,1.598 c -1.787,1.752 -3.64,2.609 -9.513,2.504 -6.205,-0.111 -8.624,0.87 -10.23,3.633 -0.467,0.803 -0.457,1.116 0.218,0.508 0.567,-0.674 1.857,-1.972 2.39,-0.743 1.054,-0.69 1.965,-1.741 2.517,-0.413 0.306,-0.068 2.094,-1.859 2.518,-0.272 0.854,-0.955 1.586,-1.255 1.987,0.101 1.215,-0.576 1.86,-1.667 2.55,-0.159 0.979,-0.701 1.721,-1.576 2.292,-0.242 0.835,-0.246 1.684,-1.777 2.166,-0.557 0.09,0.03 3.108,-1.785 3.962,-3.58 0.7,-1.584 1.344,-0.532 0.547,1.085 -2.045,3.962 -5.543,5.408 -13.572,5.42 -4.874,0.005 -6.889,0.483 -8.42,1.375 -2.459,1.434 -1.135,-2.175 0.588,-4.364 2.171,-2.759 4.646,-3.575 11.426,-3.328 3.706,0.022 6.075,-0.49 7.077,-1.298 0.85,-0.686 1.465,-1.15 1.922,-1.181 0.457,-0.03 0.519,0.585 -0.425,1.51 z M 69.828,216.307 c 1.146,0 2.078,0.932 2.078,2.078 0,1.146 -0.932,2.073 -2.078,2.073 -1.146,0 -2.073,-0.928 -2.073,-2.073 0,-1.146 0.927,-2.078 2.073,-2.078 z m -28.518,1.538 0,1.87 -8.452,5.769 0,-1.913 z m 40.867,0.896 6.558,0 0,6.922 -6.558,0 z m 14.696,0 7.057,0 0,6.922 -7.057,0 z m 15.708,0.223 6.81,0 0,6.699 -6.81,0 z m 14.754,0.136 4.534,0.155 c 0,0 2.517,3.202 3.58,4.679 l -3.352,1.72 -4.761,0.01 z m -42.005,0.47 c -1.275,0 -2.31,1.03 -2.31,2.306 0,1.275 1.035,2.31 2.31,2.31 1.275,0 2.31,-1.035 2.31,-2.31 0,-1.275 -1.035,-2.306 -2.31,-2.306 z m 15.08,0.228 c -1.276,0 -2.31,1.03 -2.31,2.306 0,1.275 1.035,2.31 2.31,2.31 1.276,0 2.31,-1.035 2.31,-2.31 0,-1.275 -1.035,-2.306 -2.31,-2.306 z m 15.422,0.06 c -1.276,0 -2.31,1.03 -2.31,2.306 0,1.275 1.035,2.31 2.31,2.31 1.276,0 2.31,-1.035 2.31,-2.31 0,-1.275 -1.034,-2.306 -2.31,-2.306 z m -36.809,0.468 c 0.455,0.325 0.756,0.851 0.756,1.453 0,0.989 -0.803,1.792 -1.792,1.792 -0.348,0 -0.674,-0.099 -0.949,-0.271 z m 6.307,0.024 c 0.844,0 1.531,0.682 1.531,1.526 0,0.844 -0.686,1.531 -1.531,1.531 -0.844,0 -1.531,-0.686 -1.531,-1.531 0,-0.844 0.686,-1.526 1.531,-1.526 z m 45.856,0.063 c -1.276,0 -2.31,1.03 -2.31,2.306 0,1.275 1.035,2.31 2.31,2.31 1.276,0 2.31,-1.035 2.31,-2.31 0,-1.275 -1.034,-2.306 -2.31,-2.306 z m -38.372,0.068 c 1.024,0 1.855,0.831 1.855,1.855 0,1.024 -0.831,1.855 -1.855,1.855 -1.025,0 -1.85,-0.831 -1.85,-1.855 0,-1.024 0.826,-1.855 1.85,-1.855 z m 30.559,-0.073 c 1.024,0 1.855,0.831 1.855,1.855 0,1.024 -0.831,1.855 -1.855,1.855 -1.024,0 -1.85,-0.831 -1.85,-1.855 0,-1.024 0.826,-1.855 1.85,-1.855 z m -82.063,0.199 0,1.86 -8.452,5.905 0,-1.831 z m 59.1,-0.029 c 0.845,0 1.531,0.682 1.531,1.526 0,0.844 -0.686,1.531 -1.531,1.531 -0.844,0 -1.531,-0.686 -1.531,-1.531 0,-0.844 0.686,-1.526 1.531,-1.526 z m 15.422,0.06 c 0.845,0 1.531,0.682 1.531,1.526 0,0.844 -0.686,1.531 -1.531,1.531 -0.844,0 -1.531,-0.686 -1.531,-1.531 0,-0.844 0.686,-1.526 1.531,-1.526 z m -7.732,0.192 c 1.024,0 1.855,0.831 1.855,1.855 0,1.024 -0.831,1.855 -1.855,1.855 -1.025,0 -1.855,-0.831 -1.855,-1.855 0,-1.024 0.83,-1.855 1.855,-1.855 z m 23.085,0.363 c 0.845,0 1.531,0.682 1.531,1.526 0,0.844 -0.686,1.531 -1.531,1.531 -0.844,0 -1.531,-0.686 -1.531,-1.531 0,-0.844 0.686,-1.526 1.531,-1.526 z m -65.739,1.603 c 3.937,-0.046 8.196,1.953 10.598,5.27 3.636,4.861 6.066,11.06 7.169,19.196 0.546,4.03 2.426,16.129 3.492,18.988 l -1.468,-0.281 c -0.198,0.094 -2.083,-7.61 -3.27,-17.786 -0.44,-3.769 -1.241,-8.633 -3.429,-13.073 -2.498,-5.07 -6.741,-10.443 -12.4,-10.869 -3.3,-0.249 -6.399,1.819 -6.733,4.732 -0.475,2.301 0.875,4.445 2.645,5.163 1.739,0.705 3.817,0.179 4.049,-2.189 0.04,-0.389 0,-0.781 -0.145,-1.143 0.805,-0.131 1.417,0.232 1.744,0.911 0.17,0.021 0.007,3.436 -2.679,4.107 -3.24,1.061 -6.98,-2.147 -7.27,-5.415 -0.222,-2.753 1.874,-6.155 4.514,-7.077 1.003,-0.35 2.08,-0.52 3.182,-0.533 z m -24.136,1.061 0,1.899 -8.452,5.832 0,-1.913 z m 24.32,1.206 c 4.728,-0.134 9.332,5.136 11.281,8.607 2.034,3.624 3.645,9.378 4.2,14.793 0.944,9.21 2.708,16.741 3.081,17.084 l -1.288,-0.281 c -0.269,0.181 -2.047,-8.133 -3.129,-17.389 -0.607,-5.191 -2.533,-10.338 -4.824,-14.304 -2.115,-3.66 -4.966,-6.394 -8.341,-6.791 -2.116,-0.212 -4.291,0.399 -4.718,2.625 -0.226,1.308 0.458,2.591 2.01,2.703 0.366,0.026 0.715,0.056 0.78,0.068 0.821,0.146 -0.469,1.479 -1.317,1.361 -3.031,-0.422 -4.428,-4.472 -2.039,-6.626 1.398,-1.26 2.859,-1.809 4.306,-1.85 z m 10.123,1.351 53.092,0.538 c 0,0 0.044,0.951 -3.26,0.794 -2.81,-0.133 -4.623,0.26 -6.486,0.857 l -41.714,-0.092 z m -34.444,0.615 0,1.763 -8.452,5.914 0,-1.947 z m 24.674,0.746 c 1.02,-0.014 2.06,0.249 2.843,0.702 6.576,3.809 9.088,13.264 9.954,19.215 1.181,8.815 2.546,17.003 2.926,17.205 l -1.434,-0.325 c -0.191,0.007 -1.76,-7.635 -2.737,-16.198 -0.79,-6.922 -3.157,-13.873 -7.852,-16.798 -3.013,-2.05 -3.604,-2.258 -4.999,-1.061 -1.203,1.033 -2.427,-0.522 -1.419,-1.787 0.695,-0.65 1.697,-0.94 2.717,-0.954 z m -24.674,2.388 0,1.448 -8.452,5.885 0,-1.715 z m 38.643,0.039 c 0.109,-0.1 4.568,7.471 5.977,19.404 0.742,6.283 2.866,16.997 3.207,17.084 l -1.545,-0.165 c -1.58,-6.319 -2.454,-12.299 -3.299,-17.689 -0.955,-6.098 -1.722,-11.515 -5.522,-18.585 l 1.177,-0.039 0.005,-0.01 z m 1.012,0.063 1.38,0.019 c 2.361,4.496 4.873,11.479 5.74,18.479 0.749,6.046 1.508,12.197 3.672,18.6 l -1.482,-0.407 c -1.858,-5.198 -2.517,-11.48 -3.517,-17.99 -1.105,-7.196 -2.839,-13.462 -5.793,-18.702 z m 8.52,0.01 c 2.415,6.255 3.987,9.239 5.091,16.939 0.856,5.975 2.067,13.449 4.819,21.365 l -1.398,-0.06 C 95.956,263.055 94.394,255.736 93.679,248.706 92.707,239.158 88.42,230.244 88.38,230.3 Z m -2.378,0.024 c 0.13,-0.194 4.606,8.759 5.643,18.6 0.69,6.547 2.222,13.027 4.325,19.283 l -1.429,-0.032 c -1.65,-1.908 -2.886,-10.951 -4.248,-19.392 -1.39,-8.615 -3.348,-13.916 -5.522,-18.445 l 1.225,0 0.005,-0.015 z m -3.609,0.01 1.269,0.005 c 3.319,7.254 4.698,11.571 5.72,18.585 1.293,8.871 2.535,16.874 3.909,18.958 l -1.55,-0.102 c -2.138,-6.394 -3.102,-12.782 -3.86,-19.176 -0.822,-6.924 -2.812,-12.856 -5.488,-18.271 z m 7.004,0.058 1.506,0.024 c 2.597,5.26 4.756,11.659 5.517,18.973 0.418,3.966 1.148,10.054 4.127,19.447 l -1.206,-0.077 c -2.44,-6.299 -3.906,-13.714 -4.781,-20.179 -0.882,-6.522 -2.439,-11.903 -5.163,-18.188 z m 9.281,0.044 c 1.424,3.648 2.597,7.271 3.366,11 l -0.853,1.661 c -1.336,-4.922 -2.84,-8.755 -4.335,-12.637 z m -6.873,0.005 1.836,0.044 c 3.154,7.319 4.774,15.059 5.217,17.655 0,0 0.436,2.298 0.465,3.052 -0.106,6.396 1,10.958 3.381,17.835 l -1.09,-0.077 c -2.763,-7.992 -3.508,-13.67 -4.214,-19.094 -0.585,-6.819 -2.803,-13.845 -5.595,-19.414 z m 4.238,0.058 c 1.879,4.691 3.312,9.215 4.616,13.742 -0.059,1.028 -0.159,2.153 -0.828,2.984 -1.532,-5.537 -2.825,-11.29 -5.192,-16.716 z m 3.468,0.039 1.453,0.024 2.897,8.297 -1.133,1.255 c -0.851,-2.747 -1.722,-5.767 -3.216,-9.576 z m 8.481,0.058 1.061,2.495 -1.143,0.969 c 0,0 -1.167,-2.334 -1.472,-3.434 z m 2.155,0 0.533,1.439 -0.959,0.731 -0.746,-2.141 z m -8.322,0.029 1.497,0.01 c 0.604,1.743 2.214,6.011 2.214,6.011 l -1.075,1.129 c 0,0 -2.027,-5.396 -2.635,-7.149 z m 2.32,0 1.327,0.015 c 0.399,1.133 1.642,4.267 1.642,4.267 l -0.915,0.872 z m 6.941,0.058 1.313,0.063 -0.155,0.325 -0.819,0.407 z m -43.051,1.845 c 5.498,2.898 7.013,11.579 7.61,16.353 1.041,8.329 2.209,15.105 2.456,15.287 l -1.221,-0.194 c 0,0 -0.902,-4.279 -1.526,-8.351 -0.519,-3.387 -0.92,-6.224 -1.061,-7.522 -0.088,-0.811 -0.224,-1.756 -0.3,-2.097 -0.768,-3.421 -1.015,-4.205 -2.005,-6.287 -0.951,-1.999 -1.286,-2.5 -2.868,-4.282 -0.607,-0.684 -1.198,-1.184 -1.405,-1.623 -0.295,-0.626 0.32,-1.284 0.32,-1.284 z m -27.832,0.446 0,1.637 -8.452,5.968 0,-1.87 z m 0,2.872 0,1.884 -8.452,5.575 0,-1.671 z m 0,3.211 0,1.749 -8.452,5.89 0,-1.807 z m 14.115,1.768 0.746,0 0.053,1.225 -1.153,-0.073 z m -14.115,1.511 0,1.87 -8.452,5.58 0,-1.744 z m 13.243,0.712 1.787,0.019 -0.019,1.284 -2.296,-0.077 z m -1.037,2.059 2.935,0.053 0,1.221 -3.638,-0.058 z m -12.206,0.266 0,1.962 -8.452,5.619 0,-1.971 z m 10.71,2.039 4.296,0.048 -0.024,1.022 -5.13,-0.034 z m -10.71,1.138 0,1.918 -8.452,5.41 0,-1.724 z m 8.917,0.911 5.9,0.082 -0.145,0.988 -6.728,-0.029 z m -8.917,2.088 0,1.845 -8.452,5.503 0,-1.773 z m 6.704,0 7.765,0.179 1.637,1.487 -12.085,0.073 z m -2.349,2.722 13.349,0.165 0.93,0.862 -14.323,0.053 z m -4.355,0.421 0,1.957 -8.452,5.536 0,-1.787 z m 4.369,1.72 14.793,0.068 -1.07,1.187 -13.742,0.039 z m -4.369,1.482 0,1.792 -8.452,5.735 0,-2.059 z m 4.001,0.935 12.787,0.044 -1.502,1.177 -8.835,0.203 z m -4.001,2.214 0,1.71 -8.452,6.055 0,-1.918 z m 7.74,0.218 7.508,0.034 0.14,1.008 -6.457,-0.015 z m 2.078,2.078 5.764,0.058 0.271,1.303 -5.13,-0.068 z m -9.818,0.911 0,1.589 -8.452,5.9 0,-1.758 z m 15.98,1.303 0.068,1.24 -3.439,0.131 -0.969,-1.298 z m -0.029,2.199 -0.029,1.303 -2.398,0.039 -0.538,-1.255 z m -2.131,2.32 1.889,0.015 -0.16,1.003 -1.463,0.019 z m 0.567,2.407 0.92,0 -0.155,0.785 -0.47,0 z m 18.697,13.262 -0.441,0.567 13.214,0 0.145,-0.567 z m 17.035,0 -0.232,0.765 5.963,0 0.165,-0.765 z m 9.741,0.15 -0.184,0.722 15.243,0 -0.252,-0.722 z m 18.237,0 0.31,0.877 5.13,0 -0.339,-0.877 z m 17.696,0 -9.002,0.005 0.325,0.978 9.31,0 z"
         inkscape:connector-curvature="0" /></g><g
       id="g4461"
       transform="matrix(1.3299406,0,0,1.3319365,-231.3758,-3.8006729)"><g
         style="fill:#df0000;fill-opacity:1"
         id="layer1-9-6"
         transform="matrix(2.28884,0,0,2.1421364,43.408162,46.447947)"><path
           sodipodi:nodetypes="scsscss"
           d="m 80.247318,-9.2170167 c -3.243,0 -3.676,3.477 -3.676,3.477 0,0 -0.433,-3.477 -3.676,-3.477 -2.27,0 -4.324,1.559 -4.324,4.5 0,3.88600003 6.579151,7.7938141 8,13.5 1.35201,-5.7014031 8,-9.61399997 8,-13.5 0,-2.941 -2.054,-4.5 -4.324,-4.5 z"
           id="hl-8"
           inkscape:connector-curvature="0"
           style="fill:#df0000;fill-opacity:1" /></g><g
         style="fill:#df0000;fill-opacity:1"
         id="layer1-9-6-7"
         transform="matrix(-2.28884,0,0,-2.1421364,298.26661,194.4458)"><path
           sodipodi:nodetypes="scsscss"
           d="M 3.676,-9 C 0.433,-9 0,-5.523 0,-5.523 0,-5.523 -0.433,-9 -3.676,-9 -5.946,-9 -8,-7.441 -8,-4.5 -8,-0.614 -1.4208493,3.2938141 0,9 1.35201,3.2985969 8,-0.614 8,-4.5 8,-7.441 5.946,-9 3.676,-9 Z"
           id="hl-8-6"
           inkscape:connector-curvature="0"
           style="fill:#df0000;fill-opacity:1" /></g></g></g></svg>