<?xml version="1.0" encoding="UTF-8" standalone="no"?>
<!-- http://code.google.com/p/vector-playing-cards/ -->

<svg
   xmlns:dc="http://purl.org/dc/elements/1.1/"
   xmlns:cc="http://creativecommons.org/ns#"
   xmlns:rdf="http://www.w3.org/1999/02/22-rdf-syntax-ns#"
   xmlns:svg="http://www.w3.org/2000/svg"
   xmlns="http://www.w3.org/2000/svg"
   xmlns:xlink="http://www.w3.org/1999/xlink"
   xmlns:sodipodi="http://sodipodi.sourceforge.net/DTD/sodipodi-0.dtd"
   xmlns:inkscape="http://www.inkscape.org/namespaces/inkscape"
   width="167.0869141pt"
   height="242.6669922pt"
   viewBox="0 0 167.0869141 242.6669922"
   xml:space="preserve"
   id="svg2"
   version="1.1"
   inkscape:version="0.91 r13725"
   sodipodi:docname="king_of_diamonds.svg"
   inkscape:export-filename="/home/byron/art/cards/final/PNGs/king_of_diamonds2.png"
   inkscape:export-xdpi="215.44792"
   inkscape:export-ydpi="215.44792"><metadata
     id="metadata43"><rdf:RDF><cc:Work
         rdf:about=""><dc:format>image/svg+xml</dc:format><dc:type
           rdf:resource="http://purl.org/dc/dcmitype/StillImage" /><dc:title /></cc:Work></rdf:RDF></metadata><defs
     id="defs41"><radialGradient
       inkscape:collect="always"
       xlink:href="#linearGradient3773"
       id="radialGradient3781"
       cx="-0.15782039"
       cy="-8.8345356"
       fx="-0.15782039"
       fy="-8.8345356"
       r="7.9997029"
       gradientTransform="matrix(-1.5842693,-0.02349808,0.03071979,-2.4775745,-0.24856378,-26.713507)"
       gradientUnits="userSpaceOnUse" /><linearGradient
       id="linearGradient3773"><stop
         style="stop-color:#000000;stop-opacity:1;"
         offset="0"
         id="stop3775" /><stop
         style="stop-color:#000000;stop-opacity:0.64885497;"
         offset="1"
         id="stop3777" /></linearGradient><radialGradient
       inkscape:collect="always"
       xlink:href="#linearGradient3773"
       id="radialGradient3957"
       cx="-0.15782039"
       cy="-8.8345356"
       fx="-0.15782039"
       fy="-8.8345356"
       r="7.9997029"
       gradientTransform="matrix(-1.5842693,-0.02349808,0.03071979,-2.4775745,-0.24856378,-26.713507)"
       gradientUnits="userSpaceOnUse" /><linearGradient
       id="linearGradient3959"><stop
         style="stop-color:#000000;stop-opacity:1;"
         offset="0"
         id="stop3961" /><stop
         style="stop-color:#000000;stop-opacity:0.64885497;"
         offset="1"
         id="stop3963" /></linearGradient><radialGradient
       r="81.902771"
       fy="509.47577"
       fx="168.02475"
       cy="509.47577"
       cx="168.02475"
       gradientTransform="matrix(1.2565605,-0.77740644,0.33663816,0.5361257,-221.20213,359.24256)"
       gradientUnits="userSpaceOnUse"
       id="radialGradient3975"
       xlink:href="#linearGradient3784-4"
       inkscape:collect="always" /><linearGradient
       id="linearGradient3784-4"><stop
         style="stop-color:#ffffff;stop-opacity:0.4351145;"
         offset="0"
         id="stop3786-8" /><stop
         style="stop-color:#000000;stop-opacity:0;"
         offset="1"
         id="stop3788-6" /></linearGradient><radialGradient
       inkscape:collect="always"
       xlink:href="#linearGradient3784-4-5"
       id="radialGradient3929"
       gradientUnits="userSpaceOnUse"
       gradientTransform="matrix(1.2565605,-0.77740644,0.33663816,0.5361257,-221.20213,359.24256)"
       cx="168.02475"
       cy="509.47577"
       fx="168.02475"
       fy="509.47577"
       r="81.902771" /><linearGradient
       id="linearGradient3784-4-5"><stop
         style="stop-color:#ffffff;stop-opacity:0.48854962;"
         offset="0"
         id="stop3786-8-0" /><stop
         style="stop-color:#000000;stop-opacity:0;"
         offset="1"
         id="stop3788-6-3" /></linearGradient><radialGradient
       inkscape:collect="always"
       xlink:href="#linearGradient3784-4-1"
       id="radialGradient3927"
       gradientUnits="userSpaceOnUse"
       gradientTransform="matrix(1.2565605,-0.77740644,0.33663816,0.5361257,-221.20213,359.24256)"
       cx="168.02475"
       cy="509.47577"
       fx="168.02475"
       fy="509.47577"
       r="81.902771" /><linearGradient
       id="linearGradient3784-4-1"><stop
         style="stop-color:#ffffff;stop-opacity:0.23664123;"
         offset="0"
         id="stop3786-8-03" /><stop
         style="stop-color:#000000;stop-opacity:0;"
         offset="1"
         id="stop3788-6-6" /></linearGradient><linearGradient
       id="linearGradient3768"><stop
         style="stop-color:#df0000;stop-opacity:1;"
         offset="0"
         id="stop3770" /><stop
         style="stop-color:#df0000;stop-opacity:0.67175573;"
         offset="1"
         id="stop3772" /></linearGradient><linearGradient
       id="linearGradient3784-4-6"><stop
         style="stop-color:#ffffff;stop-opacity:0.31297711;"
         offset="0"
         id="stop3786-8-8" /><stop
         style="stop-color:#000000;stop-opacity:0;"
         offset="1"
         id="stop3788-6-8" /></linearGradient><radialGradient
       r="81.902771"
       fy="492.63205"
       fx="159.35434"
       cy="492.63205"
       cx="159.35434"
       gradientTransform="matrix(1.0894779,-0.71513803,0.44645273,0.65626582,-244.93331,290.9185)"
       gradientUnits="userSpaceOnUse"
       id="radialGradient4013-8"
       xlink:href="#linearGradient3784-4-2"
       inkscape:collect="always" /><linearGradient
       id="linearGradient3784-4-2"><stop
         style="stop-color:#ffffff;stop-opacity:0.29007635;"
         offset="0"
         id="stop3786-8-1" /><stop
         style="stop-color:#000000;stop-opacity:0;"
         offset="1"
         id="stop3788-6-5" /></linearGradient><linearGradient
       id="linearGradient2984"><stop
         style="stop-color:#df0000;stop-opacity:1;"
         offset="0"
         id="stop2986" /><stop
         style="stop-color:#df0000;stop-opacity:0.64122134;"
         offset="1"
         id="stop2988" /></linearGradient><linearGradient
       id="linearGradient3784-4-4"><stop
         style="stop-color:#ffffff;stop-opacity:0.4351145;"
         offset="0"
         id="stop3786-8-8-2" /><stop
         style="stop-color:#000000;stop-opacity:0;"
         offset="1"
         id="stop3788-6-1" /></linearGradient><radialGradient
       gradientUnits="userSpaceOnUse"
       gradientTransform="matrix(-1.5842693,-0.02349808,0.03071979,-2.4775745,-0.24856378,-26.713507)"
       r="7.9997029"
       fy="-8.8345356"
       fx="-0.15782039"
       cy="-8.8345356"
       cx="-0.15782039"
       id="radialGradient3781-9"
       xlink:href="#linearGradient3773"
       inkscape:collect="always" /><radialGradient
       gradientUnits="userSpaceOnUse"
       gradientTransform="matrix(-1.5842693,-0.02349808,0.03071979,-2.4775745,-0.24856378,-26.713507)"
       r="7.9997029"
       fy="-8.8345356"
       fx="-0.15782039"
       cy="-8.8345356"
       cx="-0.15782039"
       id="radialGradient3957-5"
       xlink:href="#linearGradient3773"
       inkscape:collect="always" /><radialGradient
       inkscape:collect="always"
       xlink:href="#linearGradient3784-4"
       id="radialGradient3975-3"
       gradientUnits="userSpaceOnUse"
       gradientTransform="matrix(1.2565605,-0.77740644,0.33663816,0.5361257,-221.20213,359.24256)"
       cx="168.02475"
       cy="509.47577"
       fx="168.02475"
       fy="509.47577"
       r="81.902771" /><radialGradient
       r="81.902771"
       fy="509.47577"
       fx="168.02475"
       cy="509.47577"
       cx="168.02475"
       gradientTransform="matrix(1.2565605,-0.77740644,0.33663816,0.5361257,-221.20213,359.24256)"
       gradientUnits="userSpaceOnUse"
       id="radialGradient3929-3"
       xlink:href="#linearGradient3784-4"
       inkscape:collect="always" /><radialGradient
       r="81.902771"
       fy="509.47577"
       fx="168.02475"
       cy="509.47577"
       cx="168.02475"
       gradientTransform="matrix(1.2565605,-0.77740644,0.33663816,0.5361257,-221.20213,359.24256)"
       gradientUnits="userSpaceOnUse"
       id="radialGradient3927-8"
       xlink:href="#linearGradient3784-4"
       inkscape:collect="always" /><radialGradient
       inkscape:collect="always"
       xlink:href="#linearGradient3784-4"
       id="radialGradient4013-8-8"
       gradientUnits="userSpaceOnUse"
       gradientTransform="matrix(1.0894779,-0.71513803,0.44645273,0.65626582,-244.93331,290.9185)"
       cx="159.35434"
       cy="492.63205"
       fx="159.35434"
       fy="492.63205"
       r="81.902771" /></defs><sodipodi:namedview
     pagecolor="#ffffff"
     bordercolor="#666666"
     borderopacity="1"
     objecttolerance="10"
     gridtolerance="10"
     guidetolerance="10"
     inkscape:pageopacity="0"
     inkscape:pageshadow="2"
     inkscape:window-width="1440"
     inkscape:window-height="811"
     id="namedview39"
     showgrid="false"
     inkscape:zoom="2.4336873"
     inkscape:cx="86.269146"
     inkscape:cy="171.57977"
     inkscape:window-x="0"
     inkscape:window-y="0"
     inkscape:window-maximized="1"
     inkscape:current-layer="svg2" /><g
     id="Layer_x0020_1"
     style="fill-rule:nonzero;clip-rule:nonzero;stroke:#000000;stroke-miterlimit:4;"><path
       style="fill:#FFFFFF;stroke-width:0.5;"
       d="M166.8369141,235.5478516c0,3.7773438-3.0869141,6.8691406-6.8710938,6.8691406H7.1108398c-3.7749023,0-6.8608398-3.0917969-6.8608398-6.8691406V7.1201172C0.25,3.3427734,3.3359375,0.25,7.1108398,0.25h152.8549805    c3.7841797,0,6.8710938,3.0927734,6.8710938,6.8701172v228.4277344z"
       id="path5" /><g
       style="stroke:none;"
       id="g7"><g
         id="g9" /></g><g
       id="g15" /><g
       id="g19" /><g
       style="stroke:none;"
       id="g23"><g
         id="g25" /></g><g
       style="stroke:none;"
       id="g31"><g
         id="g33" /></g></g><text
     xml:space="preserve"
     style="font-size:30.33362198px;font-style:normal;font-weight:normal;line-height:125%;letter-spacing:0px;word-spacing:0px;fill:#df0000;fill-opacity:1;stroke:none;font-family:Bitstream Vera Sans"
     x="0.56581068"
     y="27.601255"
     id="text3788"
     sodipodi:linespacing="125%"><tspan
       sodipodi:role="line"
       id="tspan3790"
       x="0.56581068"
       y="27.601255"
       style="font-style:normal;font-variant:normal;font-weight:normal;font-stretch:normal;fill:#df0000;fill-opacity:1;font-family:Arial;-inkscape-font-specification:Arial">K</tspan></text>
<g
     transform="matrix(1.128247,0,0,1.128247,11.157104,40.19725)"
     id="layer1-2-6-2"><path
       style="fill:#df0000"
       inkscape:connector-curvature="0"
       id="dl-6-6"
       d="M 3.2433274,-4.7253274 C 1.1263274,-7.5893274 0,-10.5 0,-10.5 c 0,0 -1.1263274,2.9106726 -3.2433274,5.7746726 C -5.3613274,-1.8623274 -8,0 -8,0 -8,0 -5.3613274,1.8613274 -3.2433274,4.7263274 -1.1263274,7.5893274 0,10.5 0,10.5 0,10.5 1.1263274,7.5893274 3.2433274,4.7263274 5.3613274,1.8613274 8,0 8,0 8,0 5.3613274,-1.8623274 3.2433274,-4.7253274 z"
       sodipodi:nodetypes="ccccccccc" /></g><text
     xml:space="preserve"
     style="font-size:30.33362198px;font-style:normal;font-weight:normal;line-height:125%;letter-spacing:0px;word-spacing:0px;fill:#df0000;fill-opacity:1;stroke:none;font-family:Bitstream Vera Sans"
     x="-166.35341"
     y="-215.10426"
     id="text3788-8"
     sodipodi:linespacing="125%"
     transform="scale(-1,-1)"><tspan
       sodipodi:role="line"
       id="tspan3790-8"
       x="-166.35341"
       y="-215.10426"
       style="font-style:normal;font-variant:normal;font-weight:normal;font-stretch:normal;fill:#df0000;fill-opacity:1;font-family:Arial;-inkscape-font-specification:Arial">K</tspan></text>
<g
     transform="matrix(-1.128247,0,0,-1.128247,155.76212,202.50828)"
     id="layer1-2-6-2-4"><path
       style="fill:#df0000"
       inkscape:connector-curvature="0"
       id="dl-6-6-3"
       d="M 3.2433274,-4.7253274 C 1.1263274,-7.5893274 0,-10.5 0,-10.5 c 0,0 -1.1263274,2.9106726 -3.2433274,5.7746726 C -5.3613274,-1.8623274 -8,0 -8,0 -8,0 -5.3613274,1.8613274 -3.2433274,4.7263274 -1.1263274,7.5893274 0,10.5 0,10.5 0,10.5 1.1263274,7.5893274 3.2433274,4.7263274 5.3613274,1.8613274 8,0 8,0 8,0 5.3613274,-1.8623274 3.2433274,-4.7253274 z"
       sodipodi:nodetypes="ccccccccc" /></g><g
     id="g4637"
     transform="matrix(0.73594245,0,0,0.75981518,1.2853281,3.488169)"><g
       id="g4641"><path
         id="path4643"
         d="m 29.779,25.096 c 0.085,78.891 0.924,175.843 0.982,261.766 l 163.23,-0.038 -1.088,-261.348 z m 48.25,1.675 c 28.162,0.764 56.498,-0.062 84.868,0.159 0,0 -10.308,17.954 -13.432,23.605 -0.684,1.243 -0.754,2.122 -0.385,2.637 0.57,0.797 0.523,2.146 -0.115,2.926 -0.274,0.334 -0.398,0.551 -0.419,0.751 -0.021,0.2 0.158,0.418 0.303,0.78 0.504,1.721 -0.798,2.913 -2.161,3.465 -0.914,0.371 -2.949,0.615 -4.452,0.544 -9.415,-0.447 -27.879,-8.403 -35.487,-9.023 C 101.47,51.141 94.648,51.656 89.025,51.975 87.963,52.039 88.149,49.564 88.149,49.564 87.263,41.39 81.474,34.274 78.028,26.772 Z m 86.399,0.746 26.613,0.029 0.12,4.298 -11.199,11.478 c -1.054,1.073 -1.887,1.964 -1.887,1.964 l -0.067,10.357 c -7.634,-4.102 -9.155,-9.003 -10.549,-14.394 -12.761,9.414 -13.358,30.016 0.573,40.622 0.114,-4.607 3.625,-13.66 9.846,-14.332 l 0.087,35.887 -7.652,-7.474 -16.637,0.217 c 2.742,-4.45 2.805,-7.985 1.03,-12.156 -2.991,-6.815 -7.606,-22.373 -7.252,-22.32 0,0 0.133,-0.335 0.51,-0.419 1.379,-0.307 2.256,-1.639 1.862,-3.239 -0.075,-0.515 -0.072,-0.394 0.279,-1.064 1.354,-2.31 -0.26,-4.817 -0.26,-4.817 z m -88.266,0.217 9.986,18.052 c 0,0 -0.13,0.828 -0.077,1.314 0.078,0.699 0.312,1.321 0.712,1.973 0.265,0.431 0.46,1.02 0.52,1.564 0.099,0.896 0.099,0.897 1.41,2.079 0.275,0.248 0.328,0.401 0.226,0.659 -0.434,1.097 -0.18,3.339 0.679,6.016 1.084,3.381 1.364,3.337 -0.654,7.859 -0.421,0.945 -0.93,2.205 -1.477,3.364 -2.492,5.118 -2.877,6.507 1.4,9.235 1.204,0.768 1.557,1.434 1.256,2.965 -0.237,1.204 -0.285,1.973 0.294,2.652 0.375,0.44 0.715,0.512 0.621,0.852 -0.064,0.231 -0.344,1.232 -0.25,2.074 0.252,2.268 -2.369,5.61 -4.76,6.781 -0.478,0.339 -0.615,-0.075 -0.885,-0.549 -2.477,-4.338 -8.643,-2.58 -9.052,2.594 -0.108,1.368 -0.066,1.961 -0.419,2.252 -0.12,0.099 -0.481,0.303 -0.481,0.303 0,0 -9.227,6.001 -15.097,9.086 -0.383,0.201 -0.726,0.533 -0.996,0.587 -0.312,0.063 -0.543,0.006 -0.736,-0.188 -2.166,-4.12 -0.965,-8.987 -0.78,-10.713 -0.047,-0.611 -0.569,-0.722 -1.357,-0.732 -1.334,-0.016 -3.255,1.338 -3.672,2.599 -0.355,1.072 -0.583,1.766 -0.905,1.761 -0.324,-0.005 -0.481,-0.437 -1.285,-1.983 -1.672,-3.216 -1.93,-3.623 -3.494,-5.491 -1.247,-1.49 -2.31,-1.687 -3.532,-0.578 -0.85,0.772 -0.822,0.101 -1.545,-0.289 -1.248,-0.85 -3.125,-0.089 -3.171,1.107 -0.039,1.003 -0.047,1.758 -1.064,1.824 -1.132,0.074 -1.623,1.535 -1.304,3.619 0.168,1.097 0.201,1.273 -0.135,1.675 -1.094,1.311 -1.237,2.217 -0.635,4.047 1.716,5.218 4.203,8.73 6.54,13.475 0,0 -5.937,3.369 -9.461,5.327 L 32.491,27.823 Z m 115.38,5.159 0.14,84.334 -12.743,-12.527 c 0,0 -0.248,-16.161 -0.236,-22.768 0.013,-6.607 0.108,-13.214 0.082,-14.442 -0.027,-1.229 0.066,-6.457 0.106,-11.824 0.084,-11.245 -0.945,-9.855 1.145,-12.012 z m -24.905,10.111 0.703,2.036 c -5.34,3.061 -11.874,20.111 0.12,32.629 l -0.241,2.579 C 154.648,68.845 156.974,52.492 166.637,43.004 Z m 0.914,2.406 c 1.833,3.783 3.918,7.132 6.762,9.182 -1.531,3.655 -2.19,7.686 0.404,13.124 -1.819,0.998 -4.347,3.648 -6.964,9.076 -9.465,-9.561 -7.358,-23.423 -0.202,-31.382 z m -70.412,7.147 c 5.249,0.009 10.724,0.865 15.742,2.377 3.165,16.001 8.724,26.758 8.701,33.023 0,0 -0.438,-0.074 -1.372,-0.746 -2.286,-1.651 -5.289,-0.73 -6.896,1.372 -1.524,1.992 0.011,4.762 -0.77,5.924 -1.478,2.166 -5.282,6.172 -5.919,6.04 -0.463,-0.096 -0.389,-0.299 1.242,-2.801 1.698,-2.606 3,-4.967 2.44,-5.544 -0.238,-0.245 -0.364,0.273 -1.631,2.474 -2.975,5.166 -5.591,8.361 -6.627,7.945 -0.485,-0.194 -0.234,-0.622 1.968,-3.532 2.488,-3.286 3.178,-5.342 2.931,-6.251 -0.19,-0.699 -0.575,0.431 -1.607,2.45 -1.1,2.137 -3.089,4.518 -4.697,6.805 -0.51,0.828 -1.164,1.307 -2.002,1.684 -0.621,0.269 -1.611,0.709 -2.185,0.635 -0.295,-0.038 -0.092,-0.211 0.313,-0.606 3.173,-3.268 5.901,-6.912 7.45,-10.409 0.239,-0.459 -0.104,-1.112 -0.496,-0.63 -2.374,4.178 -5.68,9.39 -9.269,11.69 -0.77,0.493 -1.929,0.911 -2.974,0.823 -1.767,-0.051 -1.142,-0.444 0.467,-1.477 3.444,-2.212 8.277,-8.573 9.057,-10.823 0.184,-0.532 -0.021,-0.836 -0.361,-0.799 -2.834,4.533 -6.577,9.521 -10.929,11.608 -2.345,1.125 -5.302,1.346 -6.757,0.635 -1.066,-0.521 -0.798,-0.701 1.092,-0.823 4.55,-0.449 9.882,-4.72 12.522,-9.24 1.546,-2.502 0.461,-1.928 -1.304,0.486 -3.013,4.12 -8.996,8.07 -12.705,7.758 -3.752,-0.222 -5.911,-3.129 -5.428,-5.621 0.292,-1.508 1.362,-3.044 3.46,-3.484 3.593,-0.754 5.945,4.937 2.656,6.011 -1.12,0.366 -1.546,0.088 -1.141,-0.361 2.439,-1.067 1.355,-3.998 -0.703,-4.298 -1.295,-0.188 -2.795,0.683 -2.859,2.69 0.038,1.496 1.269,2.958 3.739,2.993 2.929,0.041 7.423,-2.067 10.15,-5.948 1.935,-2.966 0.153,-1.965 -1.29,0.014 -1.273,1.747 -5.385,4.19 -5.698,4.1 l 0.14,-2.012 c 0.063,0.348 6.33,-3.943 5.963,-7.137 -0.235,-2.318 0.104,-3.027 2.517,-2.998 1.804,0.022 4.098,0.654 4.764,1.482 0.687,0.819 1.457,1.077 1.117,-0.303 -0.553,-2.241 0.109,-2.61 -1.189,-2.185 -0.896,0.293 -1.691,-0.426 -2.589,-1.064 -0.988,-0.702 -2.238,-1.002 -3.73,-0.948 -1.114,0.04 -1.617,-0.027 -1.439,-1.078 0.125,-0.741 0.268,-1.415 0.053,-1.901 -0.349,-0.79 -1.744,-1.606 -3.321,-2.767 -1.861,-1.371 -1.517,-1.452 2.45,-10.592 1.665,-3.838 1.672,-4.626 0.674,-7.459 -1.578,-4.478 -1.826,-6.271 1.131,-6.896 1.674,-0.192 3.4,-0.287 5.149,-0.284 z m 16.791,2.594 1.535,0.438 c 0.012,0.001 4.793,16.366 7.532,24.356 0.835,2.438 1.472,5.732 1.631,8.826 -0.075,4.26 -2.474,7.317 -5.4,7.652 -2.071,0.237 -4.318,-0.838 -5.347,-3.143 -0.868,-2.192 -0.214,-4.777 2.286,-5.669 4.327,-1.544 7.496,3.979 3.253,5.679 -2.195,0.879 -4.281,-0.706 -3.292,-2.551 0.693,-1.293 2.643,-1.153 3.104,0.183 0.376,1.422 0.998,0.751 0.732,-0.212 -0.805,-3.068 -4.746,-2.345 -5.063,0.481 0,3.502 3.834,4.325 6.122,2.358 1.772,-1.572 1.958,-4.412 1.516,-6.877 -0.608,-5.119 -3.506,-11.759 -5.563,-19.337 -1.027,-3.784 -2.515,-8.295 -3.046,-12.185 z m 61.085,0.183 2.883,1.141 -0.067,9.5 -2.445,0.842 c -3.199,-4.888 -0.539,-11.478 -0.371,-11.483 z m -58.429,0.616 2.113,0.813 c 1.157,6.706 6.612,19.525 8.537,29.092 0.536,5.75 0.622,7.437 -3.272,10.501 l 0,-0.043 -2.108,0 c 0,0 -0.008,-0.129 0.914,-0.818 5.101,-3.815 2.056,-12.221 0.13,-18.682 -3.356,-10.319 -6.355,-20.875 -6.314,-20.862 z M 96.84,56.619 c -0.268,0.003 -0.539,0.014 -0.813,0.029 -3.187,0.171 -3.71,0.375 -3.72,1.068 -0.019,1.305 0.516,1.884 3.479,1.564 2.565,-0.277 6.281,0.121 8.841,1.222 2.92,1.257 3.614,1.553 4.663,2.093 2.635,1.356 2.175,0.007 -0.207,-1.559 -4.865,-3.2 -8.228,-4.466 -12.243,-4.418 z m 22.989,0.462 1.983,0.756 c 0,0 0.524,1.546 0.712,2.43 1.929,8.56 7.177,18.188 7.791,28.201 0.139,3.282 -0.424,6.341 -2.83,7.82 l -1.814,0 c 1.94,-1.929 3.232,-2.486 2.69,-9.192 -0.858,-8.612 -6.539,-19.372 -8.533,-30.016 z m 3.518,1.391 1.829,0.674 c 2.106,11.56 12.546,28.833 5.9,37.167 l -1.66,0 c 1.483,-2.313 2.094,-4.344 1.872,-7.464 -0.646,-10.504 -6.005,-20.699 -7.941,-30.377 z m 3.066,1.064 1.968,0.602 c 2.672,11.712 12.941,30.906 5.621,36.214 l -1.444,-0.038 c 5.516,-10.31 -2.846,-20.979 -6.146,-36.777 z m 3.431,1.092 c 0.605,0.336 1.468,0.497 2.127,0.688 2.071,8.856 5.857,17.566 7.58,25.814 0.58,4.516 -0.411,7.897 -3.248,9.182 l -0.606,0 c 2.546,-3.844 2.066,-8.693 0.707,-13.932 -1.827,-7.046 -5.376,-14.799 -6.559,-21.753 z m -31.012,0.154 c -0.914,-0.009 -1.871,0.13 -2.883,0.452 -1.036,0.392 -0.909,1.208 0.053,1.04 l 1.285,-0.226 c 2.361,-0.412 5.271,0.439 8.797,2.575 0.852,0.516 1.777,1.013 2.007,1.184 0.648,0.483 1.339,0.481 1.102,-0.135 -0.095,-0.247 -1.454,-1.3 -2.656,-1.973 -2.571,-1.554 -4.962,-2.89 -7.705,-2.916 z m 34.356,0.77 1.983,0.303 c 3.73,17.14 11.916,27.79 4.914,34.149 l -1.752,0 c 1.916,-1.957 2.782,-5.021 2.146,-8.643 -0.648,-3.697 -2.559,-9.566 -4.144,-14.726 -1.837,-5.982 -3.316,-11.041 -3.147,-11.083 z m 2.844,0.481 1.68,0.313 c 1.968,6.967 5.309,15.603 7.32,22.797 1.237,4.424 0.74,9.872 -2.021,10.876 l -1.42,0.024 c 2.344,-3.131 2.678,-6.393 1.607,-10.612 -2.197,-8.658 -5.524,-16.214 -7.166,-23.398 z m 10.366,0.01 c 1.697,7.223 5.77,18.241 7.233,22.046 1.947,3.885 1.363,9.639 -1.564,11.916 l -1.386,0.029 c 1.674,-1.566 2.249,-4.202 1.983,-6.935 -0.753,-7.723 -6.221,-18.434 -8.2,-26.661 z m -7.368,0.342 1.732,0.159 c 1.735,7.555 5.11,14.899 7.301,22.455 0.408,1.706 0.764,3.789 0.621,5.323 -0.299,3.215 -1.631,5.751 -2.801,5.751 l -1.194,0 c 2.438,-2.905 2.319,-6.865 1.275,-11.122 -1.724,-7.035 -5.896,-15.518 -6.935,-22.566 z m -45.108,0.038 c -0.722,0.004 -0.735,0.665 0.419,1.675 0.706,0.618 0.651,0.412 0.611,0.804 -0.172,1.673 0.092,3.205 0.78,1.482 0.184,-0.46 0.453,-0.979 0.722,-0.914 0.508,0.157 0.25,1.091 0.496,1.564 0.415,0.834 -0.026,1.038 -1.035,0.78 -0.726,-0.186 -0.767,0.207 -1.218,0.707 -0.789,0.876 -0.66,1.398 0.553,1.126 0.2,-0.045 0.369,0.012 0.525,0.048 0.379,0.087 0.725,0.327 1.627,1.015 1.159,0.884 2.8,2.063 3.864,2.243 1.705,0.288 1.325,-0.528 -0.072,-1.064 -1.197,-0.458 -2.681,-1.732 -2.676,-2.084 0.003,-0.271 0.38,-0.11 2.536,-0.703 0.936,-0.257 2.251,-0.832 2.806,-1.088 0.915,-0.422 0.959,-0.418 2.392,-0.375 2.441,0.073 2.813,-0.01 1.102,-1.28 -3.458,-2.566 -8.073,-4.236 -10.52,-3.171 -0.742,0.323 -0.725,0.125 -1.261,-0.183 -0.701,-0.402 -1.273,-0.584 -1.651,-0.582 z m 49.501,0.231 c 2.397,9.234 7.034,17.508 8.162,26.267 0.255,2.505 -0.165,4.953 -2.247,7.07 l -1.405,0.024 c -0.206,0.003 1.962,-3.349 1.776,-6.218 0.056,-1.531 -0.113,-3.172 -0.549,-4.793 -2.724,-7.787 -5.406,-14.845 -7.488,-22.267 z m -43.288,3.032 0.038,0 c 0.654,0.103 0.676,0.363 0.486,0.703 -0.282,0.504 -0.78,1.473 -0.78,1.473 0,0 -0.663,0.13 -0.799,-0.038 -0.239,-0.347 0.635,-2.086 1.054,-2.137 z m 1.66,0.298 c 0.073,-10e-4 0.162,0.036 0.303,0.091 0.628,0.248 1.717,0.757 1.246,1.15 -0.558,0.466 -2.718,0.676 -2.613,0.481 l 0.722,-1.333 c 0.153,-0.283 0.221,-0.388 0.342,-0.39 z m -6.617,8.071 -0.14,0.038 c -0.125,0.075 0.158,0.577 0.573,1.145 1.912,2.579 -0.735,3.344 -2.608,1.964 -1.779,-1.383 -4.525,-1.253 -4.129,0.197 0.14,0.511 0.003,0.76 0.996,0.775 0.882,0.013 1.11,0.062 1.906,0.606 3.042,2.081 6.973,-0.705 5.053,-3.691 -0.362,-0.564 -1.259,-1.057 -1.651,-1.035 z m 7.508,4.028 c -1.105,0 -1.802,0.824 -0.419,1.071 4.942,0.887 1.628,6.011 -1.858,3.371 -3.141,-2.835 -7.342,-2.815 -7.392,-0.804 -0.007,0.506 0.016,0.523 0.76,0.664 1.751,0.331 4.365,1.127 5.366,1.631 0.589,0.297 1.208,0.574 1.376,0.616 2.093,0.761 4.778,-0.228 5.309,-1.991 0.486,-1.613 0.093,-4.559 -3.143,-4.559 z m -61.99,16.488 c 0.662,0.008 1.365,0.587 1.867,1.434 1.16,1.958 2.57,5.25 3.47,7.065 0.227,0.457 0.236,0.866 0.221,1.083 0.071,1.064 0.427,1.466 1.059,0.987 0.621,-0.471 1.482,-1.259 0.472,-1.386 -1.016,-0.766 -1.582,-1.89 -0.953,-2.575 0.463,-0.504 0.282,-0.831 -0.091,-0.852 -1.424,-0.021 -3.546,-4.256 -2.546,-5.169 1.35,-1.231 2.843,0.294 6.02,6.598 1.4,2.784 1.465,5.831 0.265,4.322 -0.408,-0.38 -0.325,-0.183 -0.804,1.015 -0.36,0.901 -0.655,1.329 -2.026,2.647 -1.67,1.605 -2.682,2.874 -2.719,3.152 -0.072,0.532 0.902,0.036 1.612,-0.89 1.587,-1.55 1.646,-1.963 1.631,0.091 -0.013,1.858 -0.108,2.197 0.226,2.185 0.522,-0.02 0.801,-1.489 1.044,-3.263 0.291,-1.597 1.121,-2.403 2.502,-3.292 0.379,-0.244 0.386,-0.412 0.313,-1.117 -0.255,-2.257 1.028,-6.464 1.612,-5.424 0.082,0.234 0.336,0.781 0.472,1.165 0.109,0.594 0.483,1.264 1.054,1.309 0.709,0.531 0.707,0.818 0.953,2.762 0.08,0.635 0.361,1.587 0.558,2.093 0.367,0.942 0.695,1.495 0.491,1.776 l -0.404,0.399 -11.569,6.858 c 0,0 -0.908,0.502 -1.237,0.64 -0.917,0.414 -1.474,0.108 -1.925,-0.578 -2.452,-3.651 -4.134,-7.753 -5.857,-11.536 -1.034,-2.245 -0.022,-3.731 1.314,-1.92 0.519,0.704 0.254,1.152 -0.005,2.512 -0.047,0.246 0.182,0.152 0.611,0.221 0.676,-0.073 1.002,0.531 0.977,1.554 -0.427,1.467 0.163,0.675 0.443,0.602 0.535,0.008 0.653,0.329 0.953,0.938 0.187,0.859 0.565,0.61 1.117,0.043 0.456,-0.468 0.457,-0.457 -0.462,-1.554 -1.588,-1.72 -3.79,-5.605 -4.36,-7.97 -0.157,-0.652 -0.1,-1.174 0.019,-1.521 0.717,-1.615 1.716,-1.621 2.806,0.635 0.185,0.384 0.55,1.003 0.808,1.376 0.419,0.606 0.678,1.125 0.664,2.089 -0.322,0.807 -0.374,0.823 -0.096,0.934 0.691,0.273 1.918,1.521 1.973,2.637 0.056,1.134 0.248,1.737 1.141,1.064 1.018,-0.767 0.584,-1.076 -0.419,-2.06 -1.051,-1.251 -1.115,-2.336 -0.491,-3.239 0.102,-0.303 0.059,-0.389 -0.327,-0.351 -1.221,0.118 -2.408,-1.428 -1.559,-2.604 0.391,-0.689 0.345,-0.866 -0.207,-0.885 -0.288,-0.01 -0.762,0.045 -0.996,-0.087 -0.361,-0.677 -1.115,-1.622 -1.107,-2.397 0.356,-1.089 0.908,-1.528 1.492,-1.521 z m 72.51,0.058 c 2.006,1.23 3.992,2.51 6.247,3.094 -5.223,9.406 -13.622,14.447 -20.65,16.415 0.239,1.204 0.409,2.404 1.574,3.143 -0.04,-0.182 -0.556,-2.318 -0.443,-2.758 9.683,-2.472 18.206,-11.958 20.386,-16.849 l 42.552,-0.462 c -31.545,30.26 -32.802,72.849 -7.065,108.546 l -2.96,1.728 c -19.832,-29.707 -19.631,-58.328 -13.682,-77.496 4.218,-13.59 11.786,-23.972 17.537,-29.905 0,0 -23.071,-0.317 -34.554,0.106 -1.668,2.552 -3.22,4.636 -5.462,7.045 0,0 5.834,-5.634 5.684,-6.612 10.642,-0.006 21.616,-0.621 32.244,0.12 -12.437,14.884 -18.567,30.249 -19.63,44.703 -0.04,1.88 -0.153,0.83 -0.775,1.521 l -1.964,3.046 -1.574,-3.167 c -1.07,-0.346 -3.174,0.212 -4.067,-0.111 -4.375,19.52 0.046,43.078 5.804,58.453 0,0 -1.446,0.81 -3.224,0.674 -1.947,-0.432 -2.423,0.105 -4.11,0.448 -1.94,0.369 -2.617,0.366 -3.046,0.857 -0.239,0.273 -0.671,0.653 -1.16,0.919 -4.725,1.716 -10.27,8.152 -10.27,8.061 l -5.202,-2.334 c 4.793,-9.413 10.419,-12.801 20.309,-16.979 l -0.919,-4.206 c -10.533,3.924 -17.236,8.621 -22.523,17.748 -6.414,-0.091 -32.395,-0.274 -32.422,-0.193 10.597,-12.051 18.953,-30.228 19.866,-44.4 0.224,-2.76 -0.162,-1.433 1.059,-2.257 l 1.92,-2.286 1.506,2.252 c 0,0 1.091,1.388 1.781,0.231 1.933,-19.763 -0.112,-42.297 -9.635,-58.005 1.69,-0.112 3.372,-0.158 4.991,0.799 3.725,8.435 5.92,18.855 6.872,26.666 1.206,9.886 1.036,21.037 -0.193,30.506 l 0.635,0.087 c 1.856,-12.306 1.227,-25.395 -0.476,-36.835 -0.874,-5.968 -3.69,-15.302 -5.626,-19.611 -0.535,-1.191 -0.95,-1.498 -0.443,-1.675 11.605,-0.976 16.939,-4.849 21.108,-11.03 z m -32.176,1.04 c 0.888,0 1.607,0.72 1.607,1.607 0,0.888 -0.72,1.607 -1.607,1.607 -0.888,0 -1.607,-0.72 -1.607,-1.607 0,-0.888 0.72,-1.607 1.607,-1.607 z m 87.222,0.818 c -3.397,3.075 -6.127,6.262 -8.995,9.659 8.486,11.67 17.917,24.321 25.848,34.429 0,0 2.745,-1.626 2.733,-1.829 -0.006,-0.107 -0.219,-0.644 -0.27,-0.525 -0.118,0.281 -2.223,1.458 -2.223,1.458 l -25.097,-32.937 c 0,0 1.36,-1.629 1.781,-2.142 1.95,-0.641 7.376,-7.362 7.642,-7.224 4.252,3.257 17.074,17.063 22.012,21.295 l 0.063,38.322 c -0.511,1.533 -14.181,7.442 -23.836,29.486 -4.855,2.72 -10.234,4.184 -15.236,6.55 0,0 1.273,2.002 1.896,2.551 -0.764,-1.651 -0.899,-1.967 0.833,-2.671 l 36.127,-14.726 -0.067,2.974 -0.587,5.135 c -9.832,6.063 -18.13,8.604 -31.661,17.748 -0.966,0.225 -1.745,1.153 -2.762,1.203 -34.568,-50.909 -12.47,-89.265 7.676,-108.536 z M 55.683,99.091 c 0.943,0.016 0.705,2.203 0.356,2.96 -0.697,0.547 -1.391,0.061 -1.376,-0.963 0.004,-0.334 -0.06,-0.649 -0.144,-0.703 -0.523,-0.334 0.352,-1.307 1.165,-1.295 z m 21.112,1.367 c 0.794,0.603 1.088,1.406 1.381,2.209 -1.071,-0.168 -3.94,-0.991 -2.594,-1.631 z m -5.222,2.844 c 24.932,37.705 23.816,77.752 -4.009,108.108 l 35.203,-0.053 c 4.481,-8.842 11.946,-14.231 21.497,-17.551 l 0.833,2.777 c -10.977,3.524 -16.531,9.366 -20.949,17.46 l -41.984,0 c 16.131,-17.356 23.52,-32.017 24.683,-51.85 1.108,-18.888 -3.698,-36.138 -18.292,-56.893 z m 7.026,0.433 5.881,2.777 -0.871,6.035 -6.16,-2.839 z m -10.602,1.694 c 31.444,47.566 17.958,81.023 -7.147,108.868 l -4.625,0.077 -10.78,-10.015 0.197,60.854 c 0,0 -10.511,10.296 -11.718,11.531 -1.193,1.149 -2.089,-0.616 -2.089,-0.616 l 0.029,-80.672 0.467,-3.162 0.144,-17.383 6.699,-3.532 25.121,32.927 c 0,0 -1.009,1.488 -1.477,1.752 -0.305,0.172 -0.082,0.467 0.173,0.433 0.705,-0.093 2.718,-2.343 2.296,-2.705 -9.113,-11.289 -26.055,-33.394 -26.055,-33.394 l -7.055,3.682 c 0,0 0.204,-14.432 0.077,-19.972 0.271,-1.307 1.251,-0.957 1.911,-1.54 8.124,-5.222 13.849,-11.595 17.383,-17.777 0.26,-0.462 1.823,-3.237 1.978,-3.489 0.551,-0.898 1.918,-3.707 2.714,-5.501 0.445,-1.003 0.918,-2.217 1.097,-2.363 4.888,-1.592 10.019,-3.851 14.928,-5.881 l -7.07,-10.612 z m -19.269,0.606 c -0.265,-0.004 -0.94,0.303 -1.853,1.131 -1.685,1.529 -3.906,4.041 -3.913,4.519 0.452,0.163 0.852,-0.097 1.213,-0.462 1.409,-2.08 3.588,-2.894 4.865,-4.716 0.198,-0.337 -0.011,-0.476 -0.313,-0.472 z m 15.838,2.209 c 0,0 4.878,7.107 6.126,8.995 -12.855,5.09 -26.306,11.812 -38.221,16.16 l 0,-2.849 1.882,-5.116 z m 19.125,4.697 4.808,2.483 -1.357,5.424 -4.851,-2.714 z m 3.966,9.023 3.951,2.878 -1.805,4.601 -3.98,-2.738 z m -32.239,3.374 c 0,0 -0.609,2.133 -1.631,4.042 -4.889,8.495 -9.673,16.044 -19.558,22.599 -0.376,-0.335 -1.453,-2.219 -1.453,-2.219 l -0.096,-2.517 c 5.24,-4.21 9.763,-7.3 16.704,-19.654 l 2.012,-0.818 1.713,0.741 1.16,-2.069 z m 20.564,0.019 c -4.555,9.664 -9.038,19.631 -16.295,27.162 l 19.861,27.725 c 6.535,-19.575 4.109,-37.922 -3.566,-54.887 z m -24.991,2.108 -0.953,1.651 1.651,0.953 0.953,-1.651 z m -2.695,0.178 c -3.598,8.045 -8.999,14.235 -16.088,18.687 l -0.274,-11.805 z m 1.266,2.401 -0.953,1.651 1.651,0.953 0.953,-1.651 z m 40.593,0.346 3.58,3.398 -2.127,3.749 -3.672,-3.037 z m 54.853,1.67 -0.01,0.01 c -6.293,19.558 -4.403,38.24 4.23,54.502 4.236,-10.541 7.713,-17.595 15.982,-28.817 -5.092,-6.667 -19.691,-25.905 -20.203,-25.694 z m -96.852,0.313 -1.001,1.622 1.622,1.001 1.001,-1.622 z m 27.455,2.281 c 5.673,13.56 5.172,25.787 2.156,36.383 L 63.599,153.139 c 5.191,-6.443 8.638,-12.543 12.012,-18.485 z m -28.918,0.048 -1.073,1.574 1.574,1.078 1.073,-1.579 z m -1.583,2.252 -1.174,1.506 1.502,1.174 1.174,-1.506 z m 46.676,1.603 3.21,3.046 -2.026,3.951 -3.258,-2.979 z m -48.529,0.741 -1.232,1.449 1.449,1.232 1.232,-1.449 z m 103.488,0.428 14.293,18.442 c -4.781,5.69 -8.754,12.394 -12.306,19.621 -3.982,-12.478 -5.78,-24.739 -1.988,-38.062 z m -105.495,1.867 -1.319,1.376 1.376,1.319 1.319,-1.376 z m 33.389,1.843 -6.54,9.457 7.498,9.572 c 0.807,-5.182 0.988,-11.197 -0.958,-19.029 z m -35.521,0.308 -1.405,1.29 1.29,1.405 1.405,-1.29 z m -2.065,1.843 -1.482,1.203 1.203,1.482 1.477,-1.203 z m 55.859,0.977 2.685,3.138 -2.724,3.229 -2.551,-2.868 z m 34.14,0.563 1.824,0.067 c -2.992,29.506 2.888,44.435 8.09,57.418 0,0 -0.012,0.52 -0.188,0.674 -0.847,0.292 -2.562,0.607 -3.937,-0.602 -6.998,-17.988 -8.525,-40.145 -5.789,-57.557 z m -92.4,0.38 -1.545,1.117 1.117,1.545 1.545,-1.117 z m 114.316,1.049 c -0.464,0 -0.867,12.139 0.881,18.066 l 6.579,-8.913 z m -17.007,2.002 2.199,2.955 -2.334,3.181 -2.387,-3.013 z m -99.094,0.804 c 0.11,-0.017 0.291,0.29 0.645,0.534 0.329,0.344 0.281,0.318 -0.087,0.611 -0.575,0.459 -0.747,0.385 -0.736,-0.332 0.049,-0.59 0.092,-0.8 0.178,-0.813 z m 60.175,2.219 2.43,3.479 -2.69,3.46 -2.3,-3.643 z m 38.726,4.408 2.56,3.119 -2.199,3.422 -2.796,-3.268 z m 59.28,0.659 0.226,3.595 -0.885,-1.314 -1.627,1.246 1.136,1.506 1.42,-1.107 0.087,1.449 c -9.017,6.516 -12.906,14.001 -16.565,19.616 l -1.627,0.688 -1.853,-0.587 -0.905,1.603 -1.574,0.371 c -0.048,-0.01 3.159,-6.881 8.648,-13.874 4.887,-6.228 13.493,-13.248 13.518,-13.191 z m 1.044,5.626 0.077,12.782 -16.137,6.233 c 4.188,-7.136 9.126,-13.758 16.06,-19.015 z m -4.009,-1.554 -1.473,1.208 1.27,1.458 1.468,-1.208 z m -2.267,1.925 -1.42,1.266 1.323,1.41 1.42,-1.275 z m -53.886,0.707 3.042,3.239 -2.228,3.826 -3.167,-3.037 z m 51.595,1.362 -1.333,1.362 1.458,1.4 1.333,-1.362 z m -2.098,2.151 -1.28,1.415 1.55,1.343 1.28,-1.415 z m -2.108,2.411 -1.189,1.492 1.612,1.246 1.189,-1.497 z m -46.344,2.291 3.802,2.469 -1.858,4.524 -3.797,-2.892 z m 44.506,0.019 -1.117,1.55 1.718,1.174 1.131,-1.603 z m -1.718,2.445 -1.035,1.603 1.737,1.117 1.03,-1.655 z m -1.535,2.421 -0.953,1.651 1.8,1.025 0.953,-1.67 z m -1.386,2.502 -0.953,1.651 1.992,0.861 0.789,-1.574 z m -37.807,1.02 3.893,2.637 -1.723,4.74 -4.11,-2.907 z m 56.455,4.663 0.193,97.54 -42.865,0.149 c 0,0 -2.004,-3.527 -6.199,-11.675 -1.776,-3.45 -3.277,-4.915 -3.431,-7.647 0.161,-1.604 -0.581,-3.425 -1.896,-4.158 -0.442,-0.246 -1.181,0.051 -0.934,-0.635 0.272,-0.756 -0.562,-1.919 -0.789,-2.166 -0.259,-0.437 -0.098,-0.544 -0.125,-2.17 -0.027,-1.572 -0.111,-2.23 -0.448,-3.417 -0.852,-3 -1.041,-4.498 -0.553,-6.054 1.266,-3.945 2.586,-6.972 4.293,-10.65 0.993,-2.153 0.841,-2.994 -2.204,-4.557 -2.28,-1.171 -2.583,-1.158 -2.296,-2.868 0.135,-0.801 0.26,-1.306 0.091,-1.694 -0.103,-0.236 -0.481,-0.566 -0.703,-0.756 -0.298,-0.254 -0.208,-0.779 0.096,-1.169 0.299,-0.383 0.301,-0.93 0.005,-1.843 -0.623,-1.92 0.787,-4.465 3.451,-6.223 1.177,-0.777 1.145,-0.616 2.373,0.674 3.589,3.769 8.922,1.401 8.932,-3.913 0.003,-1.656 -0.561,-1.558 1.006,-2.339 5.31,-3.379 16.208,-9.524 16.136,-9.355 0.71,1.446 0.947,2.682 1.396,4.24 0.388,1.336 0.337,1.438 0.193,4.038 -0.131,2.35 -0.201,2.896 0.351,3.046 3.145,0.346 3.863,-0.766 4.466,-2.796 0.261,-0.897 0.763,-0.715 1.073,-0.337 1.197,2.178 2.711,4.443 3.706,5.992 1.243,1.977 3.336,2.96 4.432,2.026 0.231,-0.768 0.421,-0.792 1.809,-0.476 1.684,0.383 2.644,-0.561 2.806,-1.8 0.065,-0.494 -0.296,-0.474 0.606,-0.963 2.237,-1.656 1.384,-3.917 1.049,-5.279 0.029,0.072 0.956,-0.564 0.977,-1.838 0.107,-6.619 -5.63,-16.152 -5.501,-15.905 z m -54.121,3.812 4.553,2.199 -1.073,5.438 -4.678,-2.103 z m 44.299,2.021 c 2.622,3.04 4.518,8.109 5.496,11.41 0.483,1.645 0.542,3.522 0.111,3.783 -0.426,0.258 -0.624,-0.018 -0.544,-1.001 0.067,-0.819 0.091,-1.453 -0.26,-1.444 -1.017,0.263 -1.057,-1.279 -0.953,-1.641 0.07,-0.242 0.195,-0.412 0.25,-0.544 0.251,-0.597 -0.404,-0.516 -1.083,-0.525 -0.6,0.014 -0.755,-0.35 -0.727,-0.919 -0.017,-0.631 -0.853,-0.508 -1.328,-0.029 -0.434,0.438 -0.343,0.953 0.245,1.314 0.846,0.518 1.645,1.791 3.614,6.179 1.143,2.548 0.805,4.356 -0.558,4.336 -0.945,-0.028 -2.046,-2.616 -2.936,-4.524 -0.23,-0.493 0.346,-1.044 0.549,-1.309 0.523,-0.686 0.444,-0.903 -0.332,-0.914 -0.726,-0.011 -1.035,0.054 -1.473,-0.842 -0.165,-0.337 -0.284,-0.852 -0.226,-1.179 0.374,-0.988 -0.395,-1.227 -1.141,-0.847 -0.94,0.392 -0.933,1.231 0.5,2.604 0.923,1.515 0.682,1.41 -0.193,2.43 -0.183,0.36 -0.073,0.582 0.313,0.587 1.109,-0.339 2.318,1.659 1.988,2.344 -0.34,0.294 -1.269,1.36 -0.371,1.155 1.827,-0.497 2.938,2.178 1.862,3.085 -1.605,0.805 -1.985,0.553 -4.456,-4.384 -0.768,-1.533 -1.691,-3.181 -1.805,-3.349 -0.114,-0.169 -0.164,-0.622 -0.159,-0.987 0.108,-0.893 -0.273,-1.096 -1.049,-0.741 -0.583,0.139 -1.109,0.618 -0.371,1.073 0.862,1.487 1.167,1.726 0.693,2.103 -1.078,0.858 -0.61,0.823 0.597,1.064 0.591,0.178 0.891,0.482 1.054,0.847 0.624,1.4 1.729,3.375 1.838,3.778 0.366,1.027 -0.295,1.488 -1.198,1.444 -0.946,0.023 -1.379,-0.724 -1.838,-1.362 -1.719,-2.389 -2.957,-4.756 -4.711,-7.469 l 0.236,-2.536 c 0,0 0.46,0.1 0.717,-0.024 0.505,-0.243 0.805,-1.035 1.092,-2.089 0.461,-0.916 3.184,-3 4.225,-4.12 0.192,-0.127 0.354,-0.336 0.356,-0.462 -0.007,-0.41 -1.181,-0.136 -1.954,0.751 -1.135,1.008 -1.619,0.662 -1.583,-0.626 -0.112,-1.59 -1.082,-0.793 -1.131,0.76 -0.125,1.227 -0.551,1.975 -1.41,2.661 -1.621,1.296 -1.351,0.968 -1.275,2.767 0.131,3.138 -1.08,5.719 -1.872,4.009 -0.281,-0.607 -0.611,-1.297 -1.319,-1.328 -0.501,-0.022 -0.749,-0.513 -1.025,-1.728 -0.41,-1.965 -0.983,-3.229 -1.506,-5.039 z m -40.353,6.762 5.246,2.089 -0.982,5.486 -5.197,-1.988 z m 39.997,0.505 -0.12,0.029 c -1.478,1.117 -2.841,2.37 -4.452,3.33 -0.604,0.357 -1.31,1.279 -1.314,1.526 -0.004,0.24 0.717,0.235 1.42,-0.072 0.667,-0.291 4.471,-3.863 4.476,-4.192 0.262,-0.289 0.237,-0.637 -0.01,-0.621 z m -48.168,6.66 c 1.24,-0.003 0.517,0.365 -2.19,2.243 -2.642,1.833 -6.997,7.629 -7.503,9.779 -0.23,0.977 0.39,1.052 1.088,-0.289 3.208,-6.166 9.276,-11.8 14.832,-11.55 2.722,0.123 4.192,0.857 1.939,1.179 -6.176,0.758 -10.792,4.28 -14.832,11.3 -0.003,0.157 0.366,0.15 0.789,-0.12 3.698,-4.521 7.864,-10.509 15.183,-10.024 5.279,0.318 6.779,6.596 2.397,8.739 -3.821,1.868 -7.344,-2.681 -4.177,-5.38 1.028,-0.876 1.671,-0.492 0.683,0.404 -2.119,1.923 0.479,5.347 3.061,4.047 1.571,-0.658 2.208,-2.908 0.823,-4.606 -3.081,-3.777 -9.717,-0.905 -14.341,5.197 -0.485,0.642 -0.905,2.037 -0.496,1.887 0.718,-0.296 1.151,-0.859 1.574,-1.492 1.651,-2.289 2.919,-3.438 5.154,-4.668 1.727,-0.951 1.833,-0.772 1.189,0.876 -0.272,0.694 -0.489,0.925 -1.16,1.357 -2.816,1.923 -4.565,4.499 -4.634,6.141 -0.051,1.198 0.826,2.764 -0.125,3.085 -1.613,0.762 -6.012,0.14 -7.199,-1.376 -0.854,-1.091 -1.185,-0.459 -0.544,1.314 0.424,1.171 0.405,1.833 1.044,1.713 0.808,-0.428 1.363,-0.328 2.931,0.529 0.756,0.413 2.095,0.798 2.912,0.987 1.488,0.343 1.799,0.198 1.766,0.842 -0.01,0.197 0.058,0.753 0.014,1.102 -0.242,1.94 1.378,2.599 3.585,3.874 1.29,0.745 0.781,1.512 -0.712,5.202 -0.776,1.67 -1.439,3.916 -2.397,5.611 -0.895,1.905 -0.971,3.99 -0.395,6.367 1.071,4.411 1.841,6.653 -0.067,7.05 -4.912,0.743 -15.762,0.713 -21.685,-1.564 -1.515,-11.369 -9.543,-28.238 -8.513,-32.6 2.055,3.098 10.67,2.278 8.075,-6.381 0,0 0.706,-1.056 2.108,-2.478 3.616,-3.668 4.508,-4.275 2.791,-1.044 -1.32,2.484 -3.004,5.724 -3.042,6.353 -0.03,0.5 0.36,0.617 0.664,0.217 0.225,-0.296 0.493,-1.017 0.727,-1.564 2.155,-5.045 5.839,-9.594 8.379,-10.689 0.654,-0.282 0.621,0.018 0.168,0.573 -2.988,3.717 -5.269,7.155 -6.891,11.641 -0.072,0.463 0.584,0.656 0.794,0.217 2.802,-5.873 3.64,-7.206 7.084,-11.343 1.354,-1.626 2.613,-2.447 3.619,-2.358 0.87,0.077 0.613,0.22 -0.193,1.078 -0.615,0.656 -1.524,1.567 -2.993,3.417 -2.592,3.262 -5.2,8.57 -4.24,8.292 0.165,0.442 0.983,-0.968 1.675,-2.315 1.895,-3.181 3.906,-7.384 8.406,-10.148 0.94,-0.389 1.967,-0.612 2.874,-0.622 z m -87.02,1.025 8.013,8.008 16.117,-0.207 c -2.658,4.13 -1.239,10.532 0.226,14.274 2.871,7.335 7.08,19.444 6.771,19.621 0,0 -2.344,0.602 -2.555,2.089 -0.314,2.203 0.641,2.039 -0.736,4.028 -0.31,0.447 -0.11,1.292 0.221,1.964 0.219,0.492 0.427,1.233 0.019,1.809 l -14.216,25.362 -26.979,0.13 0,-5.072 13.509,-13.677 -0.164,-10.063 c 7.368,2.19 9.898,9.792 10.53,15.424 13.309,-12.146 12.98,-30.431 0.404,-41.902 -2.451,12.125 -11.232,14.644 -11.04,14.404 z m 100.23,1.439 c 0.862,0.062 2.026,0.201 2.815,0.626 -0.535,0.32 -0.915,0.701 -1.27,1.092 -0.432,-0.766 -1.013,-1.184 -1.545,-1.718 z m 22.34,0.087 c 0.718,-0.002 1.598,2.098 1.092,2.589 -0.285,0.277 -1.21,0.382 -1.54,0.173 -0.423,-0.314 -0.207,-2.76 0.448,-2.762 z m -25.42,3.643 c 0.925,0 1.675,0.75 1.675,1.675 0,0.925 -0.75,1.675 -1.675,1.675 -0.925,0 -1.675,-0.75 -1.675,-1.675 0,-0.925 0.75,-1.675 1.675,-1.675 z m -70.883,2.387 1.208,0.029 c -2.196,2.935 -2.492,5.463 -1.713,9.124 0.875,4.121 7.553,19.609 7.984,23.875 0.02,0.193 0.038,0.736 0.038,0.736 l -1.641,0.111 -0.173,-0.611 c -2.297,-7.723 -4.582,-13.612 -6.179,-18.114 -1.591,-4.855 -4.028,-12.052 0.476,-15.15 z m 8.826,0.029 0.029,0.005 1.16,0.01 c -0.043,0.026 -1.731,3.646 -1.853,5.842 -0.138,2.49 0.464,5.202 1.29,7.878 1.949,5.79 4.801,12.24 6.386,19.548 l 0.193,0.794 -1.718,-0.231 -0.188,-0.852 c -1.186,-6.429 -4.495,-13.105 -6.468,-19.433 -1.011,-2.876 -1.714,-6.412 -1.352,-9.115 0.255,-1.907 2.168,-4.409 2.522,-4.447 z m 14.028,0.014 c -1.228,1.902 -2.347,4.286 -2.425,6.155 -0.071,3.478 0.942,6.413 1.954,9.485 3.115,9.459 4.626,14.45 6.184,22.036 l -1.655,-0.707 c 0,0 -0.064,-0.426 -0.101,-0.549 -0.884,-4.751 -0.94,-4.336 -6.136,-20.314 -1.218,-3.835 -2.378,-7.197 -2.151,-10.39 0.051,-1.819 1.638,-5.42 3.311,-5.708 z m 1.988,0 1.545,0 c 0,0 -0.851,0.901 -1.097,1.237 -2.698,3.743 -1.918,7.759 -0.578,12.546 1.844,6.587 5.253,13.954 7.036,23.995 0.033,0.186 0,1.155 0,1.155 l -1.838,-0.741 c -1.67,-9.206 -5.791,-18.752 -7.777,-27.032 -1.168,-4.862 -0.835,-7.935 1.862,-10.583 0.676,-0.522 0.847,-0.578 0.847,-0.578 z m -18.851,0.053 1.155,0 c 0,0 -1.931,3.172 -1.93,5.039 -0.323,3.342 0.887,7.035 2.276,10.905 2.135,5.948 4.957,13.14 5.823,16.926 0.034,0.149 0.149,0.828 0.149,0.828 l -2.016,-0.106 c 0,0 -0.106,-0.916 -0.226,-1.338 -2.327,-8.141 -4.594,-13.406 -7.267,-20.838 -0.405,-1.125 -1.05,-5.573 -0.289,-8.456 0.598,-2.263 2.324,-2.96 2.324,-2.96 z m -3.094,0.005 1.246,0.034 c 0,0 -0.187,0.339 -0.664,1.155 -2.274,4.118 -1.255,7.877 0.154,12.065 1.88,5.588 4.832,12.412 6.675,18.87 0.104,0.364 0.245,1.463 0.245,1.463 l -1.8,-0.024 c 0,0 -0.366,-1.315 -0.39,-1.458 -1.013,-5.986 -6.483,-15.963 -7.907,-23.557 -0.78,-4.073 -0.11,-6.596 2.44,-8.547 z m 16.695,0 c 0,0 -1.967,3.409 -2.146,5.308 -0.352,3.723 0.829,6.806 2.18,11.006 2.331,7.246 5.621,15.749 5.915,19.635 l 0.058,0.602 -2.026,-0.722 -0.13,-0.549 c -1.766,-7.032 -3.854,-14.036 -6.66,-21.931 -0.692,-2.663 -1.601,-5.343 -1.521,-7.633 0.411,-3.057 0.932,-3.882 2.753,-5.693 z m 8.913,0.005 1.631,0.034 c 0,0 -0.487,0.261 -1.651,1.502 -6.436,5.881 4.006,22.486 6.415,37.605 l 0.101,0.732 -1.795,-0.645 c -0.17,-0.753 -0.297,-1.67 -0.505,-2.493 -1.951,-7.729 -4.555,-15.675 -6.944,-22.883 -1.341,-5.252 -1.831,-9.878 0.578,-12.464 0.754,-0.893 2.17,-1.386 2.17,-1.386 z m -16.781,0.01 1.737,0.048 c -1.256,1.574 -1.992,4.027 -2.06,6.208 -0.067,2.58 0.623,5.089 1.473,7.743 1.742,5.444 4.23,11.361 5.939,18.706 0.096,0.486 0.177,0.798 0.221,1.011 0.071,0.337 0.265,0.871 0.265,0.871 l -1.834,-0.366 c 0,0 -0.189,-0.476 -0.313,-0.727 -0.185,-0.376 -0.355,-0.856 -0.505,-1.429 -0.888,-3.832 -4.156,-12.527 -6.146,-18.624 -1.578,-3.842 -2.008,-10.558 1.222,-13.441 z m 21.69,0.067 c 2.222,-0.082 4.231,1.804 4.707,3.576 0.461,1.881 -0.129,4.005 -2.199,5.053 -3.357,1.7 -6.971,-2.823 -4.322,-5.313 2.008,-1.887 4.978,-0.49 4.331,1.925 -0.417,1.572 -2.802,1.674 -3.196,0.087 -0.108,-0.528 -0.373,-1.056 -0.563,-0.765 -1.234,2.899 2.916,4.257 4.639,1.559 1.022,-2.162 -0.924,-4.947 -3.787,-4.418 -3.927,0.726 -4.378,5.709 -2.748,11.521 2.274,9.187 7.7,21.543 7.69,27.215 l 0.019,0.308 -1.723,-0.515 -0.024,-0.178 c -1.033,-7.921 -6.917,-21.036 -8.605,-31.118 -0.731,-4.597 1.059,-7.933 5.087,-8.845 0.233,-0.053 0.463,-0.083 0.693,-0.091 z m -17.036,0.072 c -1.208,1.615 -1.998,4.042 -2.036,5.775 -0.036,2.538 0.874,5.009 1.627,7.652 1.904,6.526 6.351,18.577 6.189,20.833 l 0.168,0.991 -1.718,-0.51 c 0,0 -0.068,-0.108 -0.197,-0.419 -0.573,-2.24 -3.296,-11.838 -6.348,-20.136 -1.174,-3.336 -1.745,-5.936 -1.665,-8.148 0.248,-3.052 1.122,-4.326 2.459,-6.025 z m 32.715,10.819 c -4.453,0.254 -4.025,5.683 -1.266,6.603 0.987,0.272 1.566,0.037 1.723,-0.178 0.178,-0.245 -0.021,-0.618 -0.669,-0.712 -1.872,-0.615 -2.541,-2.819 -0.85,-3.743 0.923,-0.484 2.398,-0.173 4.176,1.144 3.177,2.353 7.072,2.501 6.564,0.12 -0.123,-0.578 -0.372,-0.655 -2.7,-0.972 -1.89,-0.257 -2.742,-0.855 -3.566,-1.299 -1.299,-0.7 -2.443,-0.991 -3.412,-0.963 z M 57.728,231.1 c 11.505,11.236 9.8,28.846 -0.029,37.663 -0.202,-0.712 -0.632,-2.456 -0.679,-2.406 7.392,-7.691 10.873,-20.298 0.173,-33.221 0.056,0.049 0.238,-0.933 0.534,-2.036 z m 72.106,0.299 c -0.109,0.002 -0.204,0.014 -0.289,0.043 -2.979,0.815 -3.597,3.76 -1.665,4.971 1.184,0.743 2.094,0.288 0.621,-0.611 -1.263,-0.77 -0.64,-2.795 0.89,-2.772 0.669,0.01 1.124,0.301 2.825,1.554 1.4,1.032 2.718,1.114 3.017,-0.284 0.179,-0.834 -0.101,-1.205 -0.991,-0.987 -0.394,0.097 -0.625,-0.134 -1.16,-0.505 -1.189,-0.826 -2.488,-1.427 -3.248,-1.41 z m -73.294,2.204 c 10.37,12.037 7.041,24.59 0.048,31.945 -1.92,-5.666 -6.627,-9.201 -6.627,-9.201 1.774,-3.935 2.831,-8.045 -0.486,-13.234 3.086,-2.788 5.643,-5.853 7.065,-9.509 z m 67.38,4.394 c -0.487,-0.009 -0.328,0.46 0.818,1.261 2.733,1.859 2.967,2.195 0.318,2.151 -0.671,-0.04 -1.724,0.436 -2.32,0.635 -3.458,1.153 -3.625,1.062 -5.279,0.674 -0.551,-0.129 -1.111,-0.36 -1.352,-0.14 -0.374,0.34 -0.793,0.566 -0.322,1.073 0.343,0.37 0.981,0.653 1.757,1.097 4.015,2.3 4.38,2.851 9.1,2.974 0.541,0.014 0.818,-0.266 1.136,-0.27 0.771,-0.009 1.175,0.179 1.954,0.89 1.427,1.302 1.493,0.356 0.645,-1.352 -0.445,-0.896 -0.834,-1.109 -0.616,-1.79 0.498,-1.553 -0.211,-1.862 -1.141,-0.486 -0.696,1.077 -0.775,1.052 -1.434,-0.332 -0.873,-1.729 -0.463,-2.527 0.861,-1.4 1.004,0.854 1.26,0.219 1.651,-0.457 0.513,-0.889 0.436,-1.686 -0.481,-1.617 -0.527,0.04 -1.02,-0.203 -1.434,-0.654 -0.812,-0.886 -2.368,-1.997 -3.86,-2.257 z m 1.136,4.678 c 0.109,0.006 0.185,0.05 0.221,0.164 0.009,0.569 -0.382,1.733 -0.703,2.344 -0.103,0.272 -0.278,0.306 -0.525,0.356 -0.828,0.153 -0.885,-0.103 -0.736,-0.616 0.303,-0.792 0.554,-1.918 1.622,-2.243 l 0.12,-0.005 z m -2.103,0.395 c 0.335,-0.025 0.346,0.115 0.212,0.419 -0.239,0.513 -0.659,0.998 -0.972,1.4 -0.663,0.429 -1.743,-0.883 -1.266,-1.222 0.666,-0.264 1.168,-0.535 1.862,-0.578 l 0.164,-0.019 z m -74.291,0.857 c 0.179,0 0.361,0.036 0.549,0.115 2.51,3.388 2.339,8.544 0.39,11.396 -0.145,0.213 -0.294,0.251 -0.539,0.168 -0.839,-0.496 -1.904,-0.681 -2.7,-0.967 l 0,-9.919 c 0.82,-0.174 1.527,-0.796 2.3,-0.794 z m 66.133,0.808 c -0.192,0.009 -0.271,0.139 -0.029,0.39 3.659,2.648 8.695,5.717 13.34,4.529 0.426,-0.092 0.77,-0.326 0.688,-0.765 -0.051,-0.274 -0.523,-0.51 -1.035,-0.375 -1.065,0.281 -3.108,0.317 -3.946,0.183 -3.194,-0.524 -6.016,-2.567 -8.47,-3.763 -0.182,-0.139 -0.4,-0.204 -0.549,-0.197 z m -1.068,2.527 c -0.164,-0.008 -0.151,0.156 -0.048,0.462 0.515,1.534 5.694,5.108 9.784,6.29 3.512,1.015 8.556,0.017 8.263,-1.651 -0.153,-0.87 -0.792,-1.078 -3.032,-0.794 -4.934,0.959 -9.683,-1.059 -13.287,-3.301 -0.971,-0.612 -1.469,-0.996 -1.68,-1.006 z m -32.311,2.098 c 2.155,-0.026 4.292,0.149 6.603,0.534 4.496,0.767 9.707,2.16 14.115,4.201 7.492,2.812 16.911,4.981 24.905,4.687 1.951,0.054 5.477,-0.112 6.16,-0.337 1.782,-0.4 2.274,-0.021 2.7,2.19 0.075,0.481 0.223,0.621 0.842,1.04 0.947,0.641 0.789,1.275 0.674,2.69 -0.097,1.191 0.623,1.859 3.508,7.185 3.284,6.061 6.487,13.104 6.487,13.104 -28.787,-0.02 -56.251,-1.088 -85.706,-0.173 2.649,-6.281 9.872,-17.607 14.398,-26.698 -1.095,-2.798 0.257,-3.273 -0.31,-3.936 -0.917,-1.555 -0.255,-3.736 1.682,-4.227 1.35,-0.155 2.648,-0.244 3.941,-0.26 z"
         inkscape:connector-curvature="0"
         style="fill:#131f67" /><path
         id="path4645"
         d="m 61.595,285.101 c 0,0 9.47,-19.057 13.456,-24.765 5.733,-7.24 31.53,3.209 44.365,5.831 5.217,1.016 17.314,0.566 17.314,0.566 l 10.078,18.243 z m -19.553,-21.709 -0.291,-59.382 2.951,1.849 0.568,59.648 -12.791,12.202 -0.064,-3.582 z m 7.741,-6.762 c 3.052,-6.116 -0.329,-13.597 -0.329,-13.594 1.763,0.438 6.696,-8.881 7.132,-8.611 7.506,9.24 8.785,22.989 -0.422,31.492 -2.309,-5.926 -6.352,-9.288 -6.381,-9.288 z m 5.692,-41.987 c 5.727,-5.831 10.268,-10.373 14.811,-16.902 0.372,-0.531 -24.059,-31.68 -23.678,-32.225 3.785,-4.168 8.855,-7.227 12.804,-12.261 0,0 20.035,26.326 20.497,26.095 2.05,-8.223 3.554,-15.669 3.181,-24.269 -1.199,-22.004 -10.576,-35.49 -10.65,-35.225 -3.216,20.209 -34.519,50.77 -40.667,48.577 l -0.009,-14.126 c 0.371,0.708 19.818,-12.461 24.972,-29.901 0.37,-1.253 15.45,-6.048 15.345,-6.233 -0.635,-1.639 -7.211,-10.978 -7.211,-10.978 0,0 2.666,-1.236 2.961,-1.231 8.527,10.642 14.951,24.654 17.121,37.989 2.636,14.363 4.308,41.359 -24.538,70.786 z m 86.383,-36.988 c -4.48,-13.992 -4.33,-28.469 -2.24,-38.574 3.195,-18.311 14.795,-31.405 24.098,-41.389 l 4.028,0.009 -6.58,6.784 c -3.013,3.444 -7.383,10.632 -7.383,10.632 l 23.971,31.451 13.701,-2.935 c 0,0 -0.439,14.049 -0.014,14.05 -10.66,8.791 -18.325,16.751 -23.839,29.577 -3.368,1.238 -14.535,6.029 -14.535,6.029 -5.302,-1.306 15.846,-34.329 11.837,-34.897 -1.649,-1.366 -19.895,-26.074 -20.252,-26.024 -8.479,25.8 -0.303,52.925 14.496,71.887 -1.686,1.088 -3.211,1.934 -3.071,1.679 -6.338,-8.827 -11.886,-19.362 -14.216,-28.281 z M 97.986,164.631 c 0.948,1.473 5.283,-31.496 -5.904,-57.913 1.071,-0.808 10.343,-2.564 10.343,-2.564 l 2.48,7.908 -6.328,2.666 1.16,3.707 c 4.913,-2.372 15.549,-5.867 22.108,-16.717 0,0 31.772,-0.214 32.448,-0.157 0.659,0.056 -6.493,6.885 -13.289,20.722 -3.104,6.32 -5.58,14.501 -6.11,24.103 -0.105,1.898 -7.253,-8.935 -7.253,-8.935 1.804,-9.138 6.598,-18.129 11.376,-27.12 0,0 -7.305,-0.429 -12.41,-0.289 -7.954,8.66 -12.939,13.222 -24.914,17.343 4.339,13.989 31.024,20.757 25.089,19.469 -1.212,-0.288 -2.774,12.848 -1.516,27.654 0.226,11.838 6.559,31.582 6.784,31.424 0,0 -4.247,0.948 -4.586,0.267 0.716,-0.171 -6.319,1.597 -6.319,1.597 l -2.502,-7.359 6.811,-3.119 -1.093,-4.153 c -0.027,0.002 -15.026,4.509 -22.392,17.572 l -32.836,-0.022 c 12.689,-13.718 17.879,-27.299 20.662,-45.262 2.686,0.487 8.191,-0.822 8.191,-0.822 z M 178.959,46.148 c 4.135,-3.447 12.438,-12.429 12.438,-12.429 l 0.1,4.61 -9.422,9.763 -0.015,60.384 -3.176,-3.055 z m -4.387,22.093 c -1.695,0.804 -5.078,4.766 -6.696,9.223 -10.877,-9.754 -6.358,-27.635 -0.387,-31.348 1.723,3.909 6.726,9.097 6.61,8.988 -1.159,4.088 -2.05,8.235 0.472,13.137 z M 78.18,27.528 l 84.029,0.301 c -4.81,9.429 -9.222,17.049 -14.334,26.331 -2.657,3.193 -60.015,-10.436 -60.287,-9.089 z"
         inkscape:connector-curvature="0"
         style="fill:#e2cf00" /><path
         id="path4647"
         d="m 164.687,283.688 c -5.486,-10.735 -12.538,-20.469 -20.632,-28.882 8.09,-8.802 14.839,-17.924 20.61,-27.89 5.909,9.943 12.403,19.331 21.481,28.415 -9.03,8.856 -15.818,18.524 -21.459,28.358 z M 32.309,273.027 31.894,193.74 l 9.535,9.296 0.456,60.889 z m 43.856,-15.284 c -1.977,0.298 -0.855,-1.53 -0.491,-3.269 0.203,-0.969 -0.733,-1.883 -0.728,-2.179 0.028,-1.721 1.319,-2.445 7.162,-2.367 13.773,0.981 20.886,5.404 28.784,7.468 7.563,1.977 15.064,1.951 23.414,1.774 0.61,0.353 2.838,6.122 2.421,6.699 -18.896,3.687 -42.973,-10.224 -60.563,-8.127 z m 34.119,-40.993 c -1.988,-1.446 -3.855,-1.716 -5.7,-2.033 3.25,-5.692 7.182,-10.877 13.74,-14.115 l 3.035,7.548 c -3.857,1.974 -7.645,4.325 -11.075,8.599 z M 70.527,197.089 c 0,0 -2.836,4.617 -5.508,6.86 C 57.106,193.298 39.41,170.62 39.41,170.62 l -7.534,3.797 c 0,0 -0.022,-4.384 0.149,-4.691 20.349,-10.438 34.335,-30.212 40.511,-48.742 0,0 3.267,3.346 2.834,4.758 -5.524,14.615 -14.95,29.264 -28.793,40.238 z m 25.395,-21.53 25.665,0.083 1.12,8.924 c -9.834,3.275 -17.957,9.987 -25.555,17.755 l -12.173,-0.234 c 4.007,-8.737 9.568,-17.598 10.942,-26.528 z m 95.09,-37.414 c 0.826,2.517 -0.015,5.229 0.303,5.116 -30.77,15.147 -39.616,48.5 -39.616,48.5 0,0 -2.91,-4.626 -2.776,-5.34 15.977,-35.337 26.625,-36.37 28.677,-40.207 l -24.144,-31.364 5.488,-7.435 25.896,33.825 c 2.582,-1.184 4.055,-2.176 6.172,-3.094 z M 175.77,183.87 c 5.23,-9.366 10.618,-14.806 15.982,-18.545 l -0.283,12.372 z m -143.658,-37.06 0.156,-12.003 15.848,-6.786 c -4.396,9.536 -10.349,14.64 -16.004,18.789 z m 70.567,-10.663 -0.921,-8.445 c 9.621,-4.175 18.124,-9.768 24.994,-17.43 7.366,-0.34 12.396,0.168 12.356,0.068 0.013,-0.015 -7.025,10.267 -11.702,26.466 z m 79.807,-88.54 8.766,-8.825 0.131,78.9 -8.773,-8.379 z m -77.018,64.105 -2.762,-7.828 c 4.37,-1.628 7.683,-5.187 10.769,-8.712 2.085,1.873 4.778,2.535 5.713,2.897 1.28,0.302 -8.876,12.45 -13.72,13.643 z M 37.885,57.564 C 47.273,48.436 53.38,38.802 59.283,29.224 64.425,39.784 71.88,49.029 79.874,57.967 71.601,66.927 65.31,76.525 59.269,86.189 53.367,75.981 47.152,66.409 37.885,57.564 Z M 89.172,52.44 c 0,0 -1.091,-0.634 -0.969,-1.524 0.364,-1.153 -1.16,-3.767 -1.16,-3.767 18.644,-5.619 45.749,10.339 61.859,7.022 -0.137,1.124 0.046,2.466 -0.412,3.525 0.503,2.254 0.861,2.328 -1.342,3.7 -11.32,3.181 -23.231,-3.667 -34.276,-6.951 -9.011,-2.856 -16.335,-2.146 -23.7,-2.005 z"
         inkscape:connector-curvature="0"
         style="fill:#d40000"
         sodipodi:nodetypes="ccccccccccccccccccccccccccccccccccccccccccccccccccccccccccccccccccccccccccccccccccccccccc" /><path
         id="path4649"
         d="m 77.222,26.414 3.392,6.416 -0.589,0.398 c 0.924,1.546 1.708,3.284 2.653,4.817 l 0.684,-0.077 c 1.114,2.144 1.565,2.937 3.023,5.478 l -0.66,-0.004 c 0.338,1.129 1.209,1.88 1.225,2.69 0.007,1.007 -0.254,2.029 0.364,2.713 0.732,0.809 0.819,1.033 0.668,1.506 -0.402,1.256 0.734,2.65 1.89,2.527 8.148,-1.074 16.447,-0.135 24.741,2.388 5.964,1.893 11.258,4.01 16.27,5.501 1.58,0.475 4.775,1.225 7.526,1.432 7.63,0.573 11.915,-0.974 10.635,-4.15 l -0.35,-0.572 c -0.037,-0.242 0.001,-0.503 0.435,-0.857 1.254,-1.276 0.557,-2.208 -0.204,-3.625 0,0 9.832,-17.487 14.742,-26.201 z m 84.842,1.729 -7.175,12.334 c -3.822,-0.7 -4.726,2.514 -4.785,2.966 -4.963,-1.282 -4.212,5.157 -1.722,5.597 0.159,0.934 -4.085,2.087 -6.317,-0.105 3.435,0.466 4.66,-4.077 0.465,-5.094 5.54,-4.103 -4.829,-10.279 -4.968,-1.772 -4.879,-0.868 -4.257,5.582 -1.162,6.089 -1.587,1.743 -6.243,1.783 -8.67,-1.902 4.136,2.158 6.386,-3.388 2.088,-4.949 5.316,-4.645 -5.069,-8.955 -4.84,-1.434 -3.913,-2.329 -6.618,3.585 -1.39,4.503 -0.3,1.065 -7.149,1.06 -8.882,-1.696 4.854,1.117 5.089,-4.795 0.804,-5.284 4.312,-5.451 -6.602,-8.232 -4.783,-0.779 -4.216,-1.676 -5.819,3.58 -1.714,5.277 0.226,0.837 -6.656,1.537 -9.059,-1.487 5.29,-0.784 3.449,-5.913 0.023,-5.509 l 0.244,-0.646 c 1.627,-5.142 -7.068,-5.588 -5.874,-0.13 0.192,0.503 0.404,1.172 0.404,1.172 -2.396,-0.493 -3.863,0.481 -3.694,2.73 0.591,2.987 2.169,2.77 4.188,2.179 0.845,0.886 -4.876,3.832 -8.459,1.186 4.397,-1.255 2.18,-6.408 -1.498,-5.72 -0.149,-1.644 -1.931,-3.953 -4.262,-2.832 L 78.57,27.985 Z m 7.062,68.609 -5.163,0.067 c -3.633,3.695 -29.935,27.834 -25.58,64.377 1.863,15.63 6.202,29.157 17.839,45.149 l 3.121,-1.824 0.476,0.32 32.365,-18.539 0.027,-5.648 -37.557,15.675 c -0.743,-0.794 -1.179,-1.678 -1.805,-2.655 L 167.9,187.31 c 0,0 0.362,-0.913 0.479,-1.333 4.967,-12.5 15.028,-21.538 23.785,-28.518 -0.024,-12.316 -0.034,-38.101 -0.034,-38.101 l -22.57,-22.56 c -2.904,2.646 -5.481,5.368 -8.058,8.322 l 25.898,34.219 -2.304,1.494 -25.625,-34.041 c 3.049,-3.653 6.357,-6.836 9.654,-10.04 z m 23.024,22.26 c 0,0 -0.017,-58.669 -0.136,-87 l -13.499,13.798 -0.057,59.468 z m -0.996,-81.416 -9.537,9.805 -0.004,60.447 -2.442,-2.416 0.108,-58.82 11.915,-12.438 z M 98.517,35.971 c 0.284,0.502 0.159,1.197 -0.299,1.764 -1.951,2.411 4.156,6.619 8.557,5.898 3.35,-0.549 6.208,-2.555 4.98,-4.087 -1.001,-1.248 -0.343,-2.507 0.861,-2.497 1.239,0.011 2.232,0.998 1.156,2.346 -2.395,2.999 1.242,6.529 6.813,6.612 3.94,0.059 5.254,-0.909 5.046,-3.716 -0.097,-1.315 0.162,-1.677 1.077,-1.875 1.462,-0.316 2.196,1.36 0.982,2.635 -2.621,2.753 0.344,6.815 5.291,7.085 1.81,0.099 2.168,0.003 4.19,-1.133 1.58,-0.888 2.14,-2.233 1.368,-3.28 -0.993,-1.348 0.352,-2.953 1.901,-2.288 1.107,0.475 1.651,1.326 0.423,2.764 -1.613,1.889 -0.854,3.451 2.245,4.509 2.413,0.825 4.086,0.726 5.218,-0.303 0.352,-0.32 1.136,-0.989 1.124,-0.784 -0.762,1.311 -1.438,2.528 -1.438,2.528 -5.062,2.247 -9.003,-1.983 -8.873,-2.14 -5.217,2.997 -9.836,2.355 -13.731,-2.704 -1.016,0.561 -8.287,1.872 -13.523,-3.896 -5.299,2.647 -10.219,1.524 -14.587,-1.455 -3.238,3.045 -6.646,3.521 -10.183,2.05 L 86.07,41.893 c 0.265,-0.099 1.402,2.117 6.944,1.096 1.861,-0.343 5.067,-3.463 3.277,-4.99 -0.819,-1.162 -0.842,-1.685 -0.116,-2.388 0.714,-0.692 1.931,-0.333 2.341,0.363 z m -13.576,2.741 c 0.308,0.599 0.347,1.594 0.008,0.996 -0.179,-0.316 -1.115,-1.725 -1.07,-1.768 0.436,-0.036 0.869,0.416 1.062,0.772 z m 106.214,0.675 -0.081,78.006 -8.092,-8.057 -0.278,-61.11 z m -93.886,3.605 2.55,1.61 -4.571,-0.036 z m 14.348,1.369 2.14,2.086 -4.504,-0.953 z m 40.151,1.154 -0.961,1.962 c -0.551,-0.619 -0.71,-1.93 0.961,-1.962 z m 16.139,32.459 c 1.634,-3.65 3.819,-8.297 7.345,-9.77 -2.613,-5.217 -2.263,-10.426 -0.397,-13.279 -2.657,-2.482 -5.383,-5.454 -7.07,-9.725 -8.422,7.409 -9.801,22.655 0.122,32.774 z m -0.194,-31.348 0.576,1.427 c -7.505,9.151 -5.215,21.185 0.197,27.615 l -0.782,1.616 c -6.616,-7.003 -9.491,-21.786 0.009,-30.658 z m -44.776,5.102 c 8.672,2.562 15.614,6.543 25.653,3.026 l 0.043,1.953 c -6.392,4.087 -19.105,-0.267 -27.692,-3.454 -13.804,-5.124 -24.554,-4.846 -32.235,-4.278 -0.676,-0.134 -1.21,-1.9 -0.127,-1.91 14.362,-0.132 12.045,-1.928 34.358,4.663 z m 1.967,-3.451 2.844,3.028 C 125.609,50.63 123.53,49.88 121.596,48.95 Z m 43.491,0.825 0.557,0.771 c 0.241,0.334 -1.577,0.504 -1.271,0.113 z m -48.97,5.443 c 10.35,3.908 21.748,7.811 29.239,4.343 0,0 0.045,1.482 -0.812,1.9 0,0 -0.791,0.637 -3.433,0.995 -12.112,0.972 -19.964,-4.056 -29.733,-7.037 -3.706,-1.131 -9.66,-2.503 -15.776,-2.768 -3.632,-0.172 -9.189,0.339 -9.189,0.339 -1.21,-0.103 -1.191,-0.818 -1.201,-1.518 10.532,-1.385 20.212,-0.319 30.905,3.745 z m 50.093,-3.637 c 0.134,-0.006 0.27,0.004 0.404,0.025 l 1.056,1.355 -1.26,1.995 c 0,0 -1.106,-1.022 -1.667,-2.025 -0.309,-0.649 0.531,-1.308 1.466,-1.35 z M 139,51.233 l 3.276,2.482 c -2.466,0.117 -5.242,0.203 -7.987,-0.893 z m 27.779,1.312 c 0.258,-0.006 0.529,0.268 0.846,0.81 0.609,1.043 0.528,1.242 -0.658,1.621 -1.557,0.497 -1.679,0.387 -1.173,-1.008 0.345,-0.95 0.652,-1.416 0.985,-1.423 z m 4.981,0.648 2.214,1.865 c -1.23,3.184 -2.039,7.226 0.41,13.036 -0.273,0.018 -1.87,1.587 -2.37,1.855 -1.404,-0.591 -4.474,-12.1 -0.253,-16.756 z m -2.527,2.432 -0.57,3.522 c -0.047,0.289 -2.45,-1.673 -2.224,-2.651 0.431,-1.162 1.896,-0.911 2.793,-0.871 z m -3.981,1.23 c 0.291,0.003 0.747,0.708 1.306,1.629 0.437,0.719 0.346,0.99 -0.624,1.862 -1.429,1.44 -1.709,0.969 -1.388,-1.485 0.158,-1.212 0.377,-2.009 0.706,-2.006 z m 2.945,3.198 c 0.194,0.004 0.363,0.051 0.486,0.15 l 0.157,3.432 c 0.014,0.31 -2.678,-0.127 -3.03,-1.435 -0.446,-0.838 1.341,-2.171 2.387,-2.147 z m -3.561,2.894 c 0.193,-0.027 0.796,0.375 1.366,0.715 0.991,0.59 1.012,0.849 0.155,1.945 -1.006,1.287 -1.504,1.08 -1.654,-1.163 -0.055,-0.823 -0.115,-1.462 0.133,-1.497 z m 3.951,1.32 c 0.087,0 0.164,0.025 0.231,0.082 0.476,0.409 1.2,3.85 0.892,4.209 -0.438,0.51 -2.736,-0.174 -3.247,-0.983 -0.487,-0.77 1.285,-3.309 2.124,-3.308 z m -2.821,4.045 c 0.264,-0.018 0.739,0.165 1.458,0.513 0.432,0.209 1.153,0.603 1.312,0.937 0.28,0.589 -0.188,1.46 -0.793,2.183 -0.4,0.478 -0.772,0.121 -1.542,-1.485 -0.619,-1.292 -0.874,-2.118 -0.434,-2.148 z m 4.639,1.547 0.144,0.034 c 0.782,0.435 0.649,1.724 -0.279,2.676 -1.114,1.142 -2.078,0.278 -1.307,-1.172 0.488,-0.919 1.071,-1.53 1.442,-1.538 z m -64.654,31.885 c -0.677,0.029 -1.735,0.64 -2.197,1.233 -0.584,0.749 -1.093,0.65 -1.739,0.594 -0.769,-0.013 -1.939,0.155 -3.525,0.874 -0.899,0.408 -1.308,0.499 -2.624,0.563 -0.859,0.042 -1.72,0.156 -1.911,0.256 -0.191,0.1 -0.81,0.315 -1.373,0.479 -1.15,0.335 -0.742,0.662 -0.085,2.145 3.34,8.608 5.726,18.636 6.587,26.802 0.966,9.368 0.648,20.725 -0.678,29.397 -3.212,0.016 -5.229,-0.153 -8.612,-0.102 -2.341,18.753 -8.63,33.636 -21.166,47.009 l 33.823,0.148 c 3.894,-10.328 21.593,-18.179 22.173,-17.597 l 0.925,3.774 c 0,0 -12.725,1.795 -21.322,17.922 0.877,-0.528 4.067,-0.155 6.17,2.036 4.217,-5.327 11.125,-8.8 11.17,-8.718 l 0.232,-0.643 c 0,0 1.266,-0.428 2.379,-0.637 0.357,-0.067 1.089,-0.204 1.575,-0.373 0.751,-0.261 1.124,-0.54 2.282,-0.439 2.411,0.235 4.833,-0.46 4.781,-0.473 -7.143,-19.814 -8.808,-37.692 -5.965,-58.451 2.645,0.025 8.445,0.136 8.445,0.136 0.594,-5.833 1.344,-11.669 3.146,-17.174 2.314,-7.068 5.101,-13.637 9.579,-19.64 2.53,-3.771 4.737,-6.453 7.352,-9.987 l -33.11,0.016 c -4.395,7.356 -12.849,13.491 -19.639,16.041 -2.311,0.863 -2.637,0.734 -3.017,-0.352 -0.68,-1.941 -0.648,-1.859 1.16,-2.371 0.604,-0.171 2.535,-1.184 5.55,-2.589 6.398,-3.233 10.804,-9.165 13.396,-13.169 1.031,-1.582 0.34,-1.225 -1.418,-1.244 -1.61,-0.129 -2.345,-0.628 -3.789,-1.98 -0.532,-0.498 -0.761,-0.853 -1.005,-0.825 -1.895,2.71 -5.074,6.285 -7.551,7.341 z m 7.782,-6.255 c 1.485,1.596 3.249,2.531 5.573,2.839 -3.725,5.822 -8.271,10.371 -13.49,13.133 l -2.637,-7.462 c 6.504,-3.014 8.247,-6.041 10.555,-8.51 z m 53.963,2.471 c -35.076,32.309 -33.091,73.126 -8.63,106.322 l -2.572,1.54 C 133.32,174.918 129.237,129.257 164.483,97.817 Z m -22.083,3.908 8.584,-0.002 -5.858,7.564 -7.841,-0.043 z m -1.345,0.06 -4.788,7.518 -12.878,0.142 c -7.723,9.485 -16.008,14.104 -24.44,17.251 l -1.629,-8.115 c 0,0 13.346,-3.193 22.012,-16.939 z m -13.087,0.599 -2.99,3.297 3.094,3.158 2.836,-3.196 z m 6.758,-0.065 -3.029,3.138 2.353,3.167 3.139,-3.065 z m -14.908,0.545 -0.524,4.942 3.887,1.283 0.576,-4.225 z m 23.659,0.228 -2.831,4.407 4.25,0.075 2.98,-4.388 z m -44.435,1.046 2.741,7.641 -2.421,1.162 -2.439,-7.978 z m -3.263,1.219 2.825,7.904 -2.379,0.78 -2.594,-8.226 z m 3.346,31.192 c 0.297,10.986 0.442,17.608 -1.412,27.261 -0.097,0.504 -2.069,0.054 -2.069,0.054 0.249,0.084 1.131,-10.91 1.076,-17.816 -0.106,-13.152 -2.312,-26.167 -7.45,-39.21 0.985,-0.6 3.412,-0.903 3.412,-0.903 3.239,9.89 6.107,20.528 6.443,30.614 z M 67.814,106.171 c 11.277,15.018 19.319,35.381 17.931,55.454 -1.338,23.342 -10.213,36.78 -25.786,52.918 l -4.011,0.086 c 18.432,-17.609 26.601,-32.693 27.28,-52.612 0.78,-22.909 -6.189,-38.159 -17.944,-54.42 z m -36.196,20.551 0.029,5.463 38.543,-16.447 -5.54,-8.193 z m 90.295,-17.729 -4.193,0.204 0.132,4.231 4.371,-0.098 z m 37.373,-0.735 24.898,32.772 -6.184,4.576 -23.736,-30.796 z m -19.565,2.199 7.47,0.129 -2.897,4.787 -7.22,-0.071 z m -1.38,0.115 c -3.446,6.382 -8.198,13.656 -10.88,25.423 l -24.592,-0.024 c -0.04,-2.688 -0.384,-5.376 -0.779,-8.064 10.604,-3.859 18.823,-9.641 24.874,-17.292 z m 4.547,0.346 -3.209,1.842 1.955,2.256 3.536,-1.346 z m -29.276,2.3 -1.067,4.166 3.983,1.543 0.746,-4.952 z m 22.925,3.156 7.167,0.056 -3.029,6.021 -7.1,-0.119 z m 17.066,-0.758 23.561,30.657 -2.217,1.748 -23.026,-29.967 z m -14.347,1.249 -3.235,2.685 2.426,2.811 2.984,-2.372 c 0.063,-0.05 -2.175,-3.123 -2.175,-3.123 z m -31.345,0.164 -0.999,4.051 4.142,1.11 0.749,-4.345 z m -5.738,2.685 -0.85,3.989 3.902,1.061 0.83,-3.844 z m -32.23,-0.459 c 0.2,-0.04 -0.661,4.748 -1.918,5.609 -0.601,0.411 -0.911,0.32 -1.43,-0.243 -0.358,-0.388 -1.977,-3.039 -1.977,-3.039 l 1.388,-0.695 c 1.678,2.695 1.679,1.393 2.321,-0.9 z m -6.478,2.747 c 0.55,-0.003 1.215,0.681 1.965,2.006 1.085,1.916 1.049,2.04 -0.741,2.588 -3.222,0.846 -4.42,1.048 -3.425,-1.075 1.071,-2.286 1.495,-3.515 2.201,-3.519 z m 9.587,-0.362 2.197,3.776 c -8.878,22.483 -23.16,38.597 -42.796,48.327 l -0.038,-3.738 C 55.569,156.882 65.082,141.347 73.053,121.64 Z m 60.079,1.737 6.955,0.138 -1.868,5.315 -7.393,-0.066 z m -71.757,-0.364 c -5.686,13.481 -13.443,25.237 -28.928,35.146 l -0.055,-3.584 C 49.779,144.139 57.323,124.546 57.322,124.54 Z m 87.911,0.138 c 4.118,0.12 8.44,4.618 7.994,8.318 -0.314,2.607 0.182,4.543 0.894,3.477 1.573,-2.356 6.193,-0.78 6.146,2.053 -0.025,1.508 -1.033,1.754 -1.608,0.392 -0.85,-2.012 -3.25,-2.067 -3.608,0.04 -0.336,1.975 1.337,3.429 5.81,5.055 5.243,1.24 8.392,5.947 6.522,8.647 -0.649,0.713 -1.04,0.888 -1.161,0.518 -0.035,-0.106 -0.162,-0.664 -0.282,-1.238 -0.59,-2.834 -1.945,-4.026 -3.596,-3.057 -0.828,0.486 -0.724,1.132 -0.243,1.984 0.64,1.135 0.237,1.574 -0.912,0.995 -1.814,-0.915 -2.41,-3.078 -0.648,-4.071 2.094,-0.833 1.386,-1.014 -1.286,-1.923 -5.688,-1.955 -8.124,-5.527 -8.411,-12.323 0.115,-3.098 -0.307,-4.203 -1.763,-4.629 -1.333,-0.39 -2.847,1.302 -1.891,2.196 0.519,0.486 0.943,0.928 0.667,1.195 -0.886,0.857 -3.097,-0.541 -3.072,-2.037 0.016,-0.978 0.387,-1.179 1.853,-2.326 0.407,-0.318 0.062,-0.92 -0.533,-0.93 -2.239,0.717 -2.075,-2.242 -0.872,-2.336 z m -12.895,0.761 -3.481,1.992 1.806,2.534 3.853,-1.801 z m -67.656,1.84 c 0.399,0.001 0.726,0.324 0.725,0.723 -0.001,0.399 -0.329,0.726 -0.728,0.725 -0.399,-0.001 -0.721,-0.329 -0.721,-0.728 10e-4,-0.399 0.324,-0.721 0.723,-0.721 z m 7.127,0.326 c 7.309,16.03 9.021,34.347 3.881,52.64 l -19.771,-25.82 c 7.619,-8.546 12.749,-18.337 15.89,-26.82 z m -26.804,1.127 -17.697,7.397 -0.122,13.259 c 9.892,-6.724 14.096,-13.619 17.819,-20.656 z m 16.998,-0.079 c 1.743,-0.051 0.874,4.651 -1.391,6.252 -0.831,0.636 -1.39,0.557 -1.662,-0.719 -0.141,-0.661 -0.834,-2.061 -1.708,-3.188 -1.017,-1.311 -1.005,-1.343 0.484,-1.434 1.644,0.028 2.994,-0.759 4.277,-0.912 z m -1.726,1.996 c -1.285,-0.021 -1.672,0.579 -0.907,1.404 0.643,0.694 1.155,0.547 1.589,-0.454 0.265,-0.61 0.029,-0.938 -0.682,-0.949 z m -31.926,17.142 0.064,-11.254 15.134,-6.34 c -3.046,6.57 -8.673,13.079 -15.198,17.593 z m 134.328,9.338 -2.019,2.022 -19.476,-25.485 1.229,-3.21 z M 59.785,129.663 c 0.655,0.011 2.135,2.283 2.549,3.913 0.307,1.209 -0.021,1.464 -2.314,1.801 -0.95,0.258 -3.515,0.002 -3.306,-0.68 0.374,-0.985 2.84,-5.038 3.071,-5.034 z m 70.726,0.389 7.124,0.09 -1.642,5.84 -7.461,-0.124 z m 3.147,0.362 -3.321,2.29 2.619,2.59 3.518,-2.164 z m 11.171,2.534 19.702,25.668 c -5.906,7.484 -11.799,16.083 -15.683,27.455 -7.001,-16.459 -9.546,-32.473 -4.019,-53.123 z m -80.215,2.034 c 0.399,0.001 0.726,0.324 0.725,0.723 -0.001,0.399 -0.329,0.726 -0.728,0.725 -0.399,-0.001 -0.721,-0.329 -0.721,-0.728 10e-4,-0.399 0.324,-0.721 0.723,-0.721 z m -2.274,0.973 c 1.233,0.09 0.062,4.014 -1.797,5.443 -1.465,1.126 -2.093,0.601 -2.427,-1.465 -0.121,-0.747 -0.903,-2.017 -1.592,-3.019 -0.77,-1.12 -0.451,-1.298 1.503,-0.844 1.365,0.267 3.051,-0.054 4.313,-0.114 z m 66.002,1.08 7.469,0.059 -1.166,8.871 z m -72.777,0.278 c 1.175,1.099 2.655,4.952 1.892,5.227 -0.888,0.321 -4.903,-0.153 -5.351,-0.616 -0.309,-0.319 -0.31,-0.321 0.349,-1.198 0.362,-0.482 1.052,-1.444 1.535,-2.139 0.435,-0.507 0.918,-1.884 1.576,-1.274 z m 4.158,0.139 c -1.138,0.036 -1.214,0.192 -0.676,1.419 0.438,1.001 0.743,1.091 1.501,0.436 1.054,-0.911 0.614,-1.9 -0.825,-1.855 z m 131.103,1.011 0.262,4.376 c -28.738,14.189 -39.552,47.793 -39.707,47.792 l -2.077,-3.883 c 13.234,-32.441 30.774,-41.81 41.522,-48.284 z M 55.521,143.39 c 1.71,-0.033 2.209,-0.148 2.199,0.485 0.017,1.704 -1.58,4.12 -3.528,5.028 -1.311,0.612 -1.341,0.626 -1.486,-0.917 -0.112,-1.188 -0.496,-2.716 -1.109,-3.935 -0.192,-0.452 -0.933,-1.488 0,-1.192 0.932,0.296 2.858,0.55 3.924,0.53 z m 3.836,-0.389 c 0.399,0.001 0.721,0.324 0.721,0.723 -0.001,0.399 -0.324,0.721 -0.723,0.721 -0.399,-0.001 -0.721,-0.324 -0.721,-0.723 10e-4,-0.399 0.324,-0.721 0.723,-0.721 z m -9.151,0.981 c 0.31,-0.009 0.604,0.629 0.955,1.566 0.763,2.038 0.996,3.142 0.768,3.621 -0.351,0.738 -5.062,0.252 -5.862,-0.574 -0.153,0.114 3.474,-4.205 4.138,-4.613 z m 3.393,0.512 c -0.676,0.045 -0.319,0.452 0.18,1.632 0.345,0.817 0.814,0.949 1.352,0.378 0.719,-0.764 0.817,-1.372 0.365,-1.699 -0.665,-0.268 -1.156,-0.306 -1.897,-0.311 z m 137.409,4.678 0.022,1.466 c -1.118,-0.336 -1.809,-0.81 -3.084,-1.237 -0.781,-0.264 -1.242,-0.451 -0.551,-1.273 1.084,-1.287 2.245,-2.091 3.565,-2.888 l 0.004,1.66 c -2.109,0.93 -1.906,1.792 0.043,2.272 z m -82.994,-1.642 7.932,0.015 -0.01,5.237 6.204,0.011 -0.492,5.968 -5.723,-0.01 -0.01,5.237 -7.932,-0.015 0.01,-5.237 -5.665,-0.01 0.468,-5.968 5.208,0.01 z m 17.915,0.051 c -4.054,19.896 -0.407,41.034 5.758,58.261 l -3.128,0.339 c -4.805,-13.776 -8.609,-33.384 -4.657,-58.592 0,0 1.4,-0.023 2.027,-0.008 z m 58.877,0.494 c 0.399,0.001 0.721,0.324 0.721,0.723 -10e-4,0.399 -0.324,0.721 -0.723,0.721 -0.399,-0.001 -0.721,-0.324 -0.721,-0.723 0.001,-0.399 0.324,-0.721 0.723,-0.721 z M 45.258,149.49 c 0.263,-0.007 1.069,0.342 1.785,0.542 1.076,0.301 1.925,0.432 2.906,0.453 1.972,0.042 2.23,0.024 1.378,1.644 -0.613,1.167 -1.993,2.708 -2.956,3.176 -1.365,0.725 -1.887,0.626 -1.804,-0.716 0.011,-0.91 -0.381,-2.492 -0.893,-3.621 -0.399,-0.878 -0.854,-1.466 -0.416,-1.478 z m 8.341,0.655 c 0.399,10e-4 0.726,0.324 0.725,0.723 -10e-4,0.399 -0.329,0.726 -0.728,0.725 -0.399,-10e-4 -0.721,-0.329 -0.721,-0.728 10e-4,-0.399 0.324,-0.721 0.723,-0.721 z m 133.471,0.149 c 0.559,-0.011 1.517,0.333 2.391,0.76 2.317,1.131 2.254,1.39 -0.892,3.613 -2.285,1.727 -2.825,1.92 -2.901,-0.809 -0.078,-2.3 0.172,-3.54 1.402,-3.564 z m -143.003,0.397 c 0.92,0.015 1.93,4.809 1.102,5.234 -1.289,0.663 -5.276,-0.64 -5.258,-1.733 0.005,-0.355 3.75,-3.508 4.156,-3.501 z m 140.229,0.06 c 0.55,-0.023 0.622,0.408 0.569,1.936 -0.028,0.809 0.108,2.129 0.163,2.744 0.115,1.277 0.004,1.365 -1.003,0.792 -0.645,-0.367 -1.957,-0.968 -3.377,-1.094 -1.164,-0.103 -1.248,-0.582 -0.886,-1.348 1.031,-1.698 2.895,-2.889 4.533,-3.03 z m -136.813,0.471 c -0.803,-0.007 -0.605,0.42 -0.109,1.622 0.351,0.852 0.963,0.934 1.593,0.21 0.882,-1.014 0.71,-1.551 -0.57,-1.748 -0.271,-0.041 -0.729,-0.082 -0.914,-0.084 z m 135.746,1.39 c -0.334,0.03 -0.792,0.294 -1.012,0.436 -0.756,0.472 -1.063,0.812 0.032,1.189 0.974,0.336 1.492,0.482 1.416,-0.358 -0.046,-0.506 -0.005,-1.24 -0.436,-1.267 z m -74.455,0.484 -0.01,5.218 6.315,0.012 0.01,-5.218 z m 68.812,0.579 c 0.399,10e-4 0.721,0.324 0.721,0.723 -10e-4,0.399 -0.324,0.721 -0.723,0.721 -0.399,-0.001 -0.721,-0.324 -0.721,-0.723 0.001,-0.399 0.324,-0.721 0.723,-0.721 z m -118.219,0.597 19.876,25.607 -1.33,3.331 -20.47,-27.031 z m 131.758,0.121 0.038,3.342 c -2.254,1.643 -16.566,11.974 -23.993,29.394 l -3.874,1.641 c 5.477,-14.994 17.155,-27.824 27.829,-34.377 z M 39.568,155.53 c 1.296,0.397 2.533,1.301 3.757,1.465 1.407,0.174 1.892,0.085 1.51,0.811 -0.856,1.626 -2.47,3.328 -4.171,3.882 -1.216,0.396 -1.79,0.246 -1.597,-0.508 0.36,-1.413 0.424,-2.572 0.378,-3.86 0.194,-0.701 -0.404,-1.686 0.124,-1.79 z m -1.522,0.296 c 0.826,0.709 0.653,5.176 -0.271,6.137 -0.483,0.502 -1.882,0.04 -3.979,-1.153 -1.371,-0.78 -1.626,-1.255 -0.94,-1.73 1.162,-0.702 4.566,-3.422 5.19,-3.254 z m 142.332,0.357 c 0.43,-0.008 0.962,0.067 1.602,0.215 2.482,0.562 3.034,1.13 0.914,2.808 -0.784,0.62 -1.615,1.391 -1.856,1.686 -1.141,1.394 -1.932,0.38 -2.177,-2.156 -0.171,-1.775 0.098,-2.785 1.516,-2.553 z m -3.11,0.235 c 0.403,0.001 0.662,0.212 0.653,0.714 -0.011,0.641 0.444,3.415 0.7,4.179 0.445,1.3 0.12,1.592 -0.955,1.024 -0.783,-0.424 -2.857,-0.748 -3.98,-0.662 -1.277,0.098 -1.24,-0.244 -0.864,-1.316 0.666,-1.899 3.235,-3.94 4.445,-3.939 z m -136.491,0.674 c -0.485,-0.002 -0.507,0.652 -0.177,2.151 0.105,0.477 0.515,0.448 1.29,-0.094 0.917,-0.641 0.88,-1.045 -0.151,-1.666 -0.425,-0.256 -0.741,-0.391 -0.962,-0.392 z m 5.646,0.174 c 0.399,0.001 0.721,0.324 0.721,0.723 -10e-4,0.399 -0.324,0.721 -0.723,0.721 -0.399,-0.001 -0.721,-0.324 -0.721,-0.723 10e-4,-0.399 0.324,-0.721 0.723,-0.721 z m 128.479,3.042 c 0.346,0.338 1.627,0.327 1.848,0.124 0.339,-0.311 0.184,-1.761 -0.098,-1.935 -0.721,-0.247 -2.182,1.276 -1.751,1.811 z m -119.58,2.539 c 0.432,2.067 3.337,1.958 3.014,-0.197 -0.189,-1.258 -0.234,-1.232 0.397,-1.203 3,0.152 2.471,4.88 -0.985,4.508 -0.721,0.085 -0.818,0.38 -0.208,0.635 0.606,0.253 2.928,0.854 3.286,0.853 3.761,-0.006 9.177,5.787 9.034,10.919 -0.093,3.356 1.04,5.774 2.203,6.05 0.925,0.219 2.269,-0.619 2.155,-1.647 -0.158,-1.418 0.994,-0.973 1.656,0.046 1.01,1.409 -0.3,3.437 -2.711,3.273 -1.026,0.198 0.752,0.853 2.071,1.236 1.196,0.071 0.183,1.542 -0.04,1.805 -0.678,0.784 -2.893,0.18 -4.628,-1.226 -2.131,-1.727 -3.043,-4.038 -3.286,-8.574 -0.157,-2.916 -0.373,-3.509 -1.223,-2.308 -1.53,2.679 -5.178,1.36 -5.629,-1.474 -0.253,-1.5 1.07,-2.58 1.494,-1.22 1.127,2.828 3.898,2.154 3.452,-0.653 -0.294,-1.852 -2.144,-2.877 -5.803,-3.914 -4.398,-1.247 -5.703,-2.756 -6.554,-6.366 -0.377,-1.598 -0.315,-2.434 0.531,-3.267 0.418,-0.412 0.95,-0.831 0.95,-0.831 0,0 0.583,2.429 0.826,3.554 z m 115.095,-2.079 c 0.399,0.001 0.721,0.324 0.721,0.723 -0.001,0.399 -0.324,0.721 -0.723,0.721 -0.399,-10e-4 -0.721,-0.324 -0.721,-0.723 0.001,-0.399 0.324,-0.721 0.723,-0.721 z m -138.1,0.433 c 1.309,0.477 2.434,1.182 3.784,1.644 0.876,0.3 0.635,1.001 -0.275,1.995 -1.014,1.193 -2.01,1.779 -3.414,2.442 l 0.018,-2.02 c 1.707,-0.592 2.794,-2.011 -0.07,-2.471 z m 141.505,1.387 c 0.496,0.005 1.199,0.025 2.023,0.196 2.087,0.435 2.331,0.621 1.074,2.086 -0.466,0.543 -1.159,1.362 -1.539,1.821 -1.238,1.717 -1.901,1.126 -2.472,-1.097 -0.709,-2.322 -0.87,-3.212 0.914,-3.007 z m -134.963,0.581 c 0.399,10e-4 0.721,0.324 0.721,0.723 -10e-4,0.399 -0.324,0.721 -0.723,0.721 -0.399,-0.001 -0.721,-0.324 -0.721,-0.723 10e-4,-0.399 0.324,-0.721 0.723,-0.721 z m 132.854,1.816 c 0.198,0.733 0.498,1.668 0.728,2.329 1.128,2.501 0.413,1.533 -1.616,1.309 -1.364,-0.151 -3.537,0.073 -4.074,-0.305 -0.234,-0.305 -0.016,-1.107 0.423,-2.011 0.619,-1.273 1.74,-2.357 2.577,-2.848 2.118,-0.974 1.623,0.268 1.962,1.526 z m -121.974,-1.112 22.701,30.129 -1.789,2.541 -23.35,-30.978 z m 142.614,0.374 c -11.845,8.527 -16.407,18.893 -17.332,20.247 l 17.355,-6.659 z m -22.587,0.939 c -0.649,0.177 -1.582,1.378 -1.183,1.851 0.239,0.247 1.193,0.281 1.651,0.114 0.705,-0.257 0.227,-1.967 -0.468,-1.965 z m -99.784,32.356 -4.858,6.099 -25.196,-32.715 6.381,-4.59 z m 121.107,-31.53 0.158,11.229 -14.845,6.157 c 4.982,-8.382 9.857,-13.561 14.687,-17.386 z m -101.43,0.766 5.927,7.746 -7.259,-0.178 z m 75.123,0.771 c 0.399,0.001 0.721,0.324 0.721,0.723 -10e-4,0.399 -0.324,0.721 -0.723,0.721 -0.399,-0.001 -0.721,-0.324 -0.721,-0.723 0.001,-0.399 0.324,-0.721 0.723,-0.721 z m 4.351,1.838 c 2.717,0.042 3.624,0.191 2.831,1.525 -1.057,1.301 -1.682,2.539 -2.834,3.742 -0.665,0.674 -1.492,-0.72 -2.182,-2.951 -0.557,-1.801 -0.272,-2.254 0.792,-2.267 1.064,-0.013 1.245,-0.051 1.393,-0.049 z m -3.143,2.43 c 0.221,0.712 0.739,1.882 1.15,2.597 0.412,0.715 0.874,1.509 0.845,1.647 -0.07,0.335 -0.387,0.36 -1.102,0.089 -1.547,-0.701 -5.188,0.03 -5.283,-0.314 -0.539,-0.771 0.275,-2.87 1.806,-4.322 0.748,-0.709 1.432,-1.17 1.827,-1.176 0.395,-0.006 0.466,0.541 0.757,1.48 z m -126.934,-0.785 25.637,33.421 -1.782,2.161 -25.925,-34.066 c 0,0 -4.107,2.002 -5.315,2.671 l 0.131,17.262 -0.703,-0.035 -0.055,87.429 14.366,-14.273 -0.078,-59.324 c 3.037,2.868 5.635,5.926 9.113,8.738 l 5.964,-0.036 c 15.598,-15.806 24.149,-29.342 26.065,-53.606 1.282,-16.232 -4.075,-36.658 -18.345,-56.469 l -3.497,2.115 6.883,10.414 -14.633,6.453 c -5.846,12.266 -12.77,23.584 -25.408,30.049 l -0.1,15.89 -0.221,0.328 0.158,4.989 z m 125.644,1.37 c -0.682,0.05 -1.753,1.52 -1.265,2.024 0.576,0.274 1.464,0.257 1.837,-0.236 0.255,-0.482 0.192,-1.505 -0.572,-1.788 z m -76.668,3.297 7.547,0.057 -1.985,6.47 -7.35,-0.153 z m 71.693,0.103 c 0.399,0.001 0.721,0.324 0.721,0.723 -0.001,0.399 -0.324,0.721 -0.723,0.721 -0.399,-0.001 -0.721,-0.324 -0.721,-0.723 10e-4,-0.399 0.324,-0.721 0.723,-0.721 z m -38.451,0.127 0.96,8.409 c -8.237,2.978 -17.122,8.04 -24.902,17.362 -1.326,-0.09 -11.912,0.07 -11.912,0.07 0.265,0.038 9.841,-17.952 10.954,-25.766 z m -29.893,0.728 -3.465,2.371 2.7,2.888 3.586,-2.419 z m 72.028,0.167 c 0.736,-0.002 1.722,0.089 2.513,0.231 1.275,0.25 1.463,0.274 1.031,1.326 -0.577,1.396 -1.875,3.912 -2.202,4.112 -1.171,0.722 -3.758,-4.478 -2.871,-5.375 0.235,-0.184 0.732,-0.292 1.53,-0.294 z m -3.312,1.592 c 0.334,-0.029 0.779,0.622 0.91,1.183 0.159,0.681 1.334,2.398 2.075,3.221 0.932,1.035 0.883,1.18 -0.455,1.284 -1.593,0.124 -3.149,0.434 -4.046,0.759 -1.391,0.502 -1.58,0.391 -1.398,-1.234 0.273,-2.445 1.911,-5.128 2.914,-5.213 z m -1.229,5.057 c 0.173,0.474 2.33,-0.392 2.451,-0.96 -0.02,-0.255 -0.863,-1.732 -1.372,-1.8 -0.863,0.133 -1.228,2.089 -1.079,2.76 z m -72.826,-0.466 7.133,0.08 -2.35,5.873 -7.052,-0.032 z m 3.192,0.794 -3.421,2.155 2.657,2.58 3.277,-2.251 z m 72.539,1.198 c 0.606,-0.005 1.247,0.055 1.381,0.277 0.378,0.625 -1.172,4.109 -1.172,4.109 l -2.516,0.992 c -0.539,-1.114 -1.461,-2.272 -1.683,-3.478 -0.088,-0.527 0.179,-0.719 0.761,-1.044 0.868,-0.485 2.22,-0.848 3.229,-0.856 z m -6.735,0.273 c 0.399,0.001 0.721,0.324 0.721,0.723 -10e-4,0.399 -0.324,0.721 -0.723,0.721 -0.399,-0.001 -0.721,-0.324 -0.721,-0.723 0.001,-0.399 0.324,-0.721 0.723,-0.721 z m -32.53,0.041 c 0,0 1.526,8.712 1.611,7.752 -11.905,4.458 -18.875,11.057 -22.184,17.501 l -22.32,-0.057 4.996,-7.721 13.214,-0.042 c 6.401,-7.739 14.292,-13.905 24.684,-17.433 z m -2.861,2.045 -1.109,3.517 3.332,2.134 1.263,-3.776 z m 36.562,0.135 c 0.283,-0.026 0.562,0.451 1.133,1.47 0.422,0.753 0.978,1.847 0.978,1.847 l -0.999,0.37 c -0.8,-2.752 -1.54,-1.731 -1.631,0.697 l -1.369,0.542 c 0,0 0.153,-2.34 0.937,-3.706 0.45,-0.785 0.701,-1.198 0.95,-1.221 z m -72.759,2.273 6.917,0.099 -2.904,5.987 -7.032,-0.205 z m 30.17,0.537 -0.557,4.447 3.724,0.796 0.518,-4.225 z m -27.23,0.003 -3.422,2.203 2.238,2.955 3.292,-2.203 z m 21.879,3.934 -0.715,4.095 3.493,0.801 0.802,-4.119 z m -75.946,0.101 8.73,8.685 0.371,60.482 -8.713,8.706 z m 47.579,2.301 c -0.031,0.048 6.976,0.213 6.976,0.213 l -2.814,5.057 -2.395,-0.112 3.157,-2.146 -2.017,-2.588 -3.243,2.107 1.8,2.617 -4.732,-0.11 z m 45.112,1.58 2.361,7.852 -2.856,0.491 -2.132,-7.387 c 0.876,-0.451 1.751,-0.673 2.627,-0.955 z m -22.438,0.449 0.04,4.708 3.812,0.329 0.157,-4.414 z m 18.949,0.786 2.159,7.46 -1.813,0.513 -2.583,-7.082 c 0.711,-0.419 1.454,-0.725 2.237,-0.89 z m -3.311,1.533 2.779,7.305 c -3.86,1.557 -7.865,4.897 -10.882,8.232 -2.229,-1.644 -3.542,-1.818 -4.918,-2.192 3.81,-7.067 8.301,-10.772 13.021,-13.346 z m -42.143,1.753 7.335,0.235 -5.116,7.61 -8.298,-0.025 z m 21.837,0.324 -0.485,4.456 3.923,2.327 0.605,-4.576 z m -4.733,0.617 -2.797,2.946 2.959,3.389 2.726,-3.528 z m -6.243,0.143 -3.322,3.036 2.631,3.446 3.039,-3.455 z m -42.259,2.76 0.217,59.086 -12.207,11.787 -0.085,-3.178 9.706,-10.098 c 0.048,-19.986 0.021,-39.971 -0.01,-59.957 z m 32.424,-1.849 -3.373,4.581 3.99,0.017 2.901,-4.437 z m -20.803,28.554 c -1.336,4.772 -7.462,9.938 -7.571,9.851 3.02,4.346 2.907,10.533 0.231,13.577 0.013,-0.068 4.861,3.971 5.539,6.065 0.383,0.834 0.535,1.85 1.02,2.678 0.128,0.219 0.538,0.765 0.538,0.765 11.883,-12.006 6.261,-26.111 0.243,-32.936 z m 0.176,1.248 c 11.49,14.309 3.874,27.373 -0.151,31.014 l -0.765,-1.269 c 8.576,-9.93 4.972,-22.155 -0.004,-27.948 z m -1.252,2.779 c 0.076,0.232 0.523,0.906 0.191,0.862 l -0.577,-0.117 z m -0.09,1.593 c 0.25,0 0.459,0.079 0.572,0.251 0.234,0.391 -0.962,3.674 -1.696,2.907 -0.221,-0.434 -0.481,-0.811 -0.684,-1.261 -0.239,-0.536 -0.081,-0.795 0.469,-1.327 0.379,-0.367 0.922,-0.571 1.339,-0.57 z m 1.654,0.894 c 0.582,0.046 1.407,1.88 1.481,3.189 0.036,0.136 -1.965,-0.311 -2.496,-0.924 0.065,-0.536 0.57,-1.899 1.015,-2.265 z m -4.508,1.487 c 3.455,6.978 3.228,12.423 0.165,17.424 l -2.388,-2.05 c 1.615,-3.804 2.419,-7.867 -0.28,-13.046 z m 2.336,1.748 c 0.24,-0.02 0.981,0.091 1.636,0.301 2.319,0.746 2.403,2.265 0.167,3.375 -0.926,0.46 -1.214,0.255 -1.743,-2.068 -0.262,-1.149 -0.46,-1.574 -0.06,-1.608 z m 4.476,2.68 c 0.447,-0.001 0.652,0.844 0.703,2.302 0.049,1.384 -0.245,1.493 -1.358,0.503 -1.203,-1.07 -1.41,-1.324 -0.304,-2.2 0.324,-0.257 0.756,-0.604 0.959,-0.605 z m -3.167,2.281 c 0.22,-0.019 0.861,0.391 1.486,0.869 1.584,1.212 1.231,2.041 -0.573,2.622 -1.25,0.403 -1.188,0.454 -1.152,-1.706 0.018,-1.068 -0.044,-1.761 0.239,-1.785 z m 21.002,2.005 c -1.938,0.488 -2.754,2.214 -2.114,3.77 0.291,0.707 0.735,0.714 0.213,1.145 -0.583,0.67 -0.894,2.223 -0.256,2.79 0.754,0.434 0.949,-0.311 0.152,1.147 l -14.638,26.771 87.571,-0.002 -10.489,-19.732 c 0.024,-0.028 0.848,-3.251 -0.835,-3.643 -0.541,-0.126 -0.849,-0.629 -0.958,-1.11 0.14,-1.371 -0.482,-1.956 -1.005,-2.665 -8.327,1.16 -15.557,0.562 -21.527,-0.793 -8.601,-1.951 -14.744,-5.313 -18.741,-6.373 -5.512,-1.462 -12.166,-2.105 -17.372,-1.306 z m 4.717,0.194 c 6.785,-0.028 14.377,2.063 19.689,4.373 5.511,2.288 11.351,3.996 17.252,4.879 4.871,0.622 9.731,0.323 14.391,-0.038 0.509,-0.075 1.037,-0.005 1.416,0.4 0.964,1.075 0.305,1.746 -2.112,1.965 -3.88,0.313 -8.691,0.167 -12.957,-0.481 -6.756,-0.789 -13.915,-2.845 -20.091,-5.418 -7.719,-2.912 -14.811,-3.895 -20.418,-3.051 -3.079,0.464 -3.532,0.537 -3.518,-0.29 0.027,-1.613 1.363,-2.348 6.348,-2.337 z m -22.242,4.637 c -0.299,0.683 -2.405,-1.558 -2.383,-2.189 0.045,-0.278 1.756,-1.39 2.434,-1.842 0.328,-0.251 0.307,-0.12 0.31,0.175 0.01,0.843 -0.061,3.02 -0.362,3.856 z m -3.246,-1.656 c 0.974,0.133 2.57,2.765 1.159,3.169 -1.249,0.358 -2.385,0.588 -2.536,-0.25 0.647,-2.055 0.89,-2.869 1.261,-2.915 l 0.116,-0.005 z m 56.612,9.082 c 6.214,1.086 14.372,1.745 19.705,1.338 3.058,-0.302 3.701,-0.202 3.68,1.072 -0.013,0.798 0.074,0.779 -3.871,0.768 -3.279,0.213 -6.231,-0.145 -9.405,-0.314 -6.567,-0.338 -12.532,-1.474 -18.044,-3.399 -6.115,-1.598 -11.41,-4.657 -17.396,-5.298 -5.49,-0.548 -10.43,0.415 -11.467,0.988 -0.346,-0.005 -0.525,-0.518 -0.504,-0.991 0.021,-0.462 0.194,-0.833 0.58,-1.127 15.744,-3.941 24.154,4.577 36.721,6.963 z m -54.563,-5.357 c 0.524,0.007 0.356,0.782 -0.505,2.425 -0.732,1.396 -1.02,1.389 -1.429,-0.046 -0.438,-1.533 -0.395,-1.702 0.48,-1.924 0.515,-0.123 0.951,-0.391 1.454,-0.455 z m -3.674,0.773 c 0.615,0.01 1.482,2.795 1.034,3.318 -0.355,0.413 -1.634,0.13 -2.006,-0.36 -0.599,-0.788 0.173,-2.972 0.973,-2.959 z m 27.511,0.803 c 2.441,-0.02 4.874,0.245 7.109,0.634 -1.289,0.474 -2.571,0.911 -3.91,1.681 -0.922,-0.795 -1.97,-1.57 -3.2,-2.315 z m 3.166,3.384 c 8.636,-4.794 12.266,1.853 13.51,2.926 7.545,-1.655 9.02,-0.83 13.22,3.723 7.559,-3.679 11.214,-0.533 14.363,1.459 3.705,-3.449 8.394,-3.536 10.834,-1.797 0.456,0.765 1.089,1.737 1.141,2.026 0.04,0.226 -0.305,-0.038 -1.154,-0.647 -4.43,-3.182 -11.797,0.757 -9.838,4.945 0.527,1.128 0.442,1.614 -0.35,2.064 -1.126,0.759 -2.506,-0.506 -1.72,-1.794 1.312,-2.15 0.331,-3.953 -2.849,-5.622 -4.481,-2.353 -11.814,0.26 -10.312,3.721 0.963,1.106 0.067,1.883 -1.207,1.841 -1.442,-0.048 -1.929,-1.013 -1.002,-2.043 1.156,-1.315 0.855,-2.65 -0.485,-4.174 -4.017,-5.744 -12.171,-3.485 -11.101,1.544 0.471,1.25 -0.877,1.751 -2.274,1.193 -0.889,-0.355 -0.754,-1.73 0.221,-2.214 1.121,-0.111 1.282,-1.733 1.151,-2.775 -0.192,-1.516 -2.424,-3.013 -4.633,-3.809 -1.599,-0.576 -3.085,-0.702 -4.258,-0.597 -2.477,0.222 -3.863,1.901 -3.459,4.422 0.238,1.487 -0.181,3.028 -1.925,2.207 -0.954,-0.449 -0.712,-1.529 0.265,-2.523 3.435,-3.342 -3.462,-7.43 -7.635,-4.63 -0.708,0.58 -1.223,0.68 -1.223,0.68 2.626,-6.502 10.799,-0.393 10.723,-0.127 z m 11.363,-0.856 5.205,1.971 c -1.202,0.235 -2.048,0.572 -2.9,0.908 z m -13.609,2.091 c -4.806,-0.92 -5.077,4.452 -1.946,5.334 -4.321,5.913 6.961,8.232 4.904,0.922 5.717,1.041 4.694,-5.469 0.442,-5.417 0.999,-2.423 8.846,-0.571 8.504,1.23 -5.308,0.553 -3.196,5.392 -0.9,5.402 -5.559,5.244 5.537,10.108 5.257,2.187 4.454,0.945 4.989,-4.969 0.707,-5.366 1.573,-2.204 7.172,-0.802 8.721,1.724 -4.423,0.578 -4.153,4.462 -0.694,5.096 -4.395,5.575 6.393,7.659 5.284,1.166 3.865,1.337 5.997,-3.819 0.989,-5.303 5.138,-3.048 10.703,1.52 10.099,1.611 -5.856,-0.357 -4.701,5.514 -0.462,5.203 -2.708,6.089 7.977,6.448 5.279,0.123 4.806,0.097 4.395,-5.473 -0.209,-5.854 2.903,-2.109 6.173,-2.288 8.273,-0.306 -4.385,1.145 -2.573,6.242 1.838,4.84 0.4,4.263 3.867,3.365 3.945,3.237 l 3.09,5.791 -84.024,-0.019 7.196,-13.222 c 4.239,0.225 4.095,-3.855 3.909,-3.956 2.815,2.018 5.856,-2.979 1.734,-4.42 3.375,-3.519 8.365,-0.254 8.066,-0.001 z m -27.353,-0.419 c -0.176,0.179 -0.221,0.287 -0.51,0.018 -0.731,-0.84 1.262,-0.906 0.51,-0.018 z m 17.37,2.249 c 0.37,0.304 0.114,1.133 -0.187,1.416 -0.759,0.81 -1.014,0.745 -0.345,-0.654 0.197,-0.423 0.384,-0.767 0.533,-0.762 z m 36.811,0.443 4.367,1.064 -2.077,1.166 c -0.765,-0.834 -1.501,-1.554 -2.29,-2.23 z m 13.651,1.784 4.75,0.312 c -0.629,0.426 -1.245,0.822 -2.015,1.599 -0.597,-0.636 -1.729,-1.274 -2.735,-1.911 z m 15.819,4.874 c 0.263,0.551 1.308,2.47 1.21,2.52 -1.537,0.265 -1.944,-2.022 -1.21,-2.52 z"
         inkscape:connector-curvature="0"
         style="fill:#100f08" /></g></g></svg>