<?xml version="1.0" encoding="UTF-8" standalone="no"?>
<!-- http://code.google.com/p/vector-playing-cards/ -->

<svg
   xmlns:dc="http://purl.org/dc/elements/1.1/"
   xmlns:cc="http://creativecommons.org/ns#"
   xmlns:rdf="http://www.w3.org/1999/02/22-rdf-syntax-ns#"
   xmlns:svg="http://www.w3.org/2000/svg"
   xmlns="http://www.w3.org/2000/svg"
   xmlns:xlink="http://www.w3.org/1999/xlink"
   xmlns:sodipodi="http://sodipodi.sourceforge.net/DTD/sodipodi-0.dtd"
   xmlns:inkscape="http://www.inkscape.org/namespaces/inkscape"
   width="167.0869141pt"
   height="242.6669922pt"
   viewBox="0 0 167.0869141 242.6669922"
   xml:space="preserve"
   id="svg2"
   version="1.1"
   inkscape:version="0.91 r13725"
   sodipodi:docname="queen_of_diamonds.svg"
   inkscape:export-filename="/home/byron/art/cards/final/PNGs/queen_of_diamonds2.png"
   inkscape:export-xdpi="215.44792"
   inkscape:export-ydpi="215.44792"><metadata
     id="metadata43"><rdf:RDF><cc:Work
         rdf:about=""><dc:format>image/svg+xml</dc:format><dc:type
           rdf:resource="http://purl.org/dc/dcmitype/StillImage" /><dc:title /></cc:Work></rdf:RDF></metadata><defs
     id="defs41"><radialGradient
       inkscape:collect="always"
       xlink:href="#linearGradient3773"
       id="radialGradient3781"
       cx="-0.15782039"
       cy="-8.8345356"
       fx="-0.15782039"
       fy="-8.8345356"
       r="7.9997029"
       gradientTransform="matrix(-1.5842693,-0.02349808,0.03071979,-2.4775745,-0.24856378,-26.713507)"
       gradientUnits="userSpaceOnUse" /><linearGradient
       id="linearGradient3773"><stop
         style="stop-color:#000000;stop-opacity:1;"
         offset="0"
         id="stop3775" /><stop
         style="stop-color:#000000;stop-opacity:0.64885497;"
         offset="1"
         id="stop3777" /></linearGradient><radialGradient
       inkscape:collect="always"
       xlink:href="#linearGradient3773"
       id="radialGradient3957"
       cx="-0.15782039"
       cy="-8.8345356"
       fx="-0.15782039"
       fy="-8.8345356"
       r="7.9997029"
       gradientTransform="matrix(-1.5842693,-0.02349808,0.03071979,-2.4775745,-0.24856378,-26.713507)"
       gradientUnits="userSpaceOnUse" /><linearGradient
       id="linearGradient3959"><stop
         style="stop-color:#000000;stop-opacity:1;"
         offset="0"
         id="stop3961" /><stop
         style="stop-color:#000000;stop-opacity:0.64885497;"
         offset="1"
         id="stop3963" /></linearGradient><radialGradient
       r="81.902771"
       fy="509.47577"
       fx="168.02475"
       cy="509.47577"
       cx="168.02475"
       gradientTransform="matrix(1.2565605,-0.77740644,0.33663816,0.5361257,-221.20213,359.24256)"
       gradientUnits="userSpaceOnUse"
       id="radialGradient3975"
       xlink:href="#linearGradient3784-4"
       inkscape:collect="always" /><linearGradient
       id="linearGradient3784-4"><stop
         style="stop-color:#ffffff;stop-opacity:0.4351145;"
         offset="0"
         id="stop3786-8" /><stop
         style="stop-color:#000000;stop-opacity:0;"
         offset="1"
         id="stop3788-6" /></linearGradient><radialGradient
       inkscape:collect="always"
       xlink:href="#linearGradient3784-4-5"
       id="radialGradient3929"
       gradientUnits="userSpaceOnUse"
       gradientTransform="matrix(1.2565605,-0.77740644,0.33663816,0.5361257,-221.20213,359.24256)"
       cx="168.02475"
       cy="509.47577"
       fx="168.02475"
       fy="509.47577"
       r="81.902771" /><linearGradient
       id="linearGradient3784-4-5"><stop
         style="stop-color:#ffffff;stop-opacity:0.48854962;"
         offset="0"
         id="stop3786-8-0" /><stop
         style="stop-color:#000000;stop-opacity:0;"
         offset="1"
         id="stop3788-6-3" /></linearGradient><radialGradient
       inkscape:collect="always"
       xlink:href="#linearGradient3784-4-1"
       id="radialGradient3927"
       gradientUnits="userSpaceOnUse"
       gradientTransform="matrix(1.2565605,-0.77740644,0.33663816,0.5361257,-221.20213,359.24256)"
       cx="168.02475"
       cy="509.47577"
       fx="168.02475"
       fy="509.47577"
       r="81.902771" /><linearGradient
       id="linearGradient3784-4-1"><stop
         style="stop-color:#ffffff;stop-opacity:0.23664123;"
         offset="0"
         id="stop3786-8-03" /><stop
         style="stop-color:#000000;stop-opacity:0;"
         offset="1"
         id="stop3788-6-6" /></linearGradient><linearGradient
       id="linearGradient3768"><stop
         style="stop-color:#df0000;stop-opacity:1;"
         offset="0"
         id="stop3770" /><stop
         style="stop-color:#df0000;stop-opacity:0.67175573;"
         offset="1"
         id="stop3772" /></linearGradient><linearGradient
       id="linearGradient3784-4-6"><stop
         style="stop-color:#ffffff;stop-opacity:0.31297711;"
         offset="0"
         id="stop3786-8-8" /><stop
         style="stop-color:#000000;stop-opacity:0;"
         offset="1"
         id="stop3788-6-8" /></linearGradient><radialGradient
       r="81.902771"
       fy="492.63205"
       fx="159.35434"
       cy="492.63205"
       cx="159.35434"
       gradientTransform="matrix(1.0894779,-0.71513803,0.44645273,0.65626582,-244.93331,290.9185)"
       gradientUnits="userSpaceOnUse"
       id="radialGradient4013-8"
       xlink:href="#linearGradient3784-4-2"
       inkscape:collect="always" /><linearGradient
       id="linearGradient3784-4-2"><stop
         style="stop-color:#ffffff;stop-opacity:0.29007635;"
         offset="0"
         id="stop3786-8-1" /><stop
         style="stop-color:#000000;stop-opacity:0;"
         offset="1"
         id="stop3788-6-5" /></linearGradient><linearGradient
       id="linearGradient2984"><stop
         style="stop-color:#df0000;stop-opacity:1;"
         offset="0"
         id="stop2986" /><stop
         style="stop-color:#df0000;stop-opacity:0.64122134;"
         offset="1"
         id="stop2988" /></linearGradient><linearGradient
       id="linearGradient3784-4-4"><stop
         style="stop-color:#ffffff;stop-opacity:0.4351145;"
         offset="0"
         id="stop3786-8-8-2" /><stop
         style="stop-color:#000000;stop-opacity:0;"
         offset="1"
         id="stop3788-6-1" /></linearGradient></defs><sodipodi:namedview
     pagecolor="#ffffff"
     bordercolor="#666666"
     borderopacity="1"
     objecttolerance="10"
     gridtolerance="10"
     guidetolerance="10"
     inkscape:pageopacity="0"
     inkscape:pageshadow="2"
     inkscape:window-width="1440"
     inkscape:window-height="811"
     id="namedview39"
     showgrid="false"
     inkscape:zoom="1.7208768"
     inkscape:cx="-15.902525"
     inkscape:cy="122.65886"
     inkscape:window-x="0"
     inkscape:window-y="0"
     inkscape:window-maximized="1"
     inkscape:current-layer="svg2" /><g
     id="Layer_x0020_1"
     style="fill-rule:nonzero;clip-rule:nonzero;stroke:#000000;stroke-miterlimit:4;"><path
       style="fill:#FFFFFF;stroke-width:0.5;"
       d="M166.8369141,235.5478516c0,3.7773438-3.0869141,6.8691406-6.8710938,6.8691406H7.1108398c-3.7749023,0-6.8608398-3.0917969-6.8608398-6.8691406V7.1201172C0.25,3.3427734,3.3359375,0.25,7.1108398,0.25h152.8549805    c3.7841797,0,6.8710938,3.0927734,6.8710938,6.8701172v228.4277344z"
       id="path5" /><g
       style="stroke:none;"
       id="g7"><g
         id="g9" /></g><g
       id="g15" /><g
       id="g19" /><g
       style="stroke:none;"
       id="g23"><g
         id="g25" /></g><g
       style="stroke:none;"
       id="g31"><g
         id="g33" /></g></g><text
     xml:space="preserve"
     style="font-size:28.80771637px;font-style:normal;font-weight:normal;line-height:125%;letter-spacing:0px;word-spacing:0px;fill:#df0000;fill-opacity:1;stroke:none;font-family:Bitstream Vera Sans"
     x="0.18016258"
     y="24.82486"
     id="text3788"
     sodipodi:linespacing="125%"><tspan
       sodipodi:role="line"
       id="tspan3790"
       x="0.18016258"
       y="24.82486"
       style="font-style:normal;font-variant:normal;font-weight:normal;font-stretch:normal;fill:#df0000;fill-opacity:1;font-family:Arial;-inkscape-font-specification:Arial">Q</tspan></text>
<g
     transform="matrix(2.0445981,0,0,2.3009995,46.373828,49.306264)"
     id="layer1-2-6" /><g
     transform="matrix(1.128247,0,0,1.128247,11.157104,40.19725)"
     id="layer1-2-6-2"><path
       style="fill:#df0000"
       inkscape:connector-curvature="0"
       id="dl-6-6"
       d="M 3.2433274,-4.7253274 C 1.1263274,-7.5893274 0,-10.5 0,-10.5 c 0,0 -1.1263274,2.9106726 -3.2433274,5.7746726 C -5.3613274,-1.8623274 -8,0 -8,0 -8,0 -5.3613274,1.8613274 -3.2433274,4.7263274 -1.1263274,7.5893274 0,10.5 0,10.5 0,10.5 1.1263274,7.5893274 3.2433274,4.7263274 5.3613274,1.8613274 8,0 8,0 8,0 5.3613274,-1.8623274 3.2433274,-4.7253274 z"
       sodipodi:nodetypes="ccccccccc" /></g><text
     xml:space="preserve"
     style="font-size:28.80771446px;font-style:normal;font-weight:normal;line-height:125%;letter-spacing:0px;word-spacing:0px;fill:#df0000;fill-opacity:1;stroke:none;font-family:Bitstream Vera Sans"
     x="-166.66907"
     y="-218.03435"
     id="text3788-4"
     sodipodi:linespacing="125%"
     transform="scale(-1,-1)"><tspan
       sodipodi:role="line"
       id="tspan3790-9"
       x="-166.66907"
       y="-218.03435"
       style="font-style:normal;font-variant:normal;font-weight:normal;font-stretch:normal;fill:#df0000;fill-opacity:1;font-family:Arial;-inkscape-font-specification:Arial">Q</tspan></text>
<g
     transform="matrix(-1.128247,0,0,-1.128247,155.69211,202.66196)"
     id="layer1-2-6-2-4"><path
       style="fill:#df0000"
       inkscape:connector-curvature="0"
       id="dl-6-6-8"
       d="M 3.2433274,-4.7253274 C 1.1263274,-7.5893274 0,-10.5 0,-10.5 c 0,0 -1.1263274,2.9106726 -3.2433274,5.7746726 C -5.3613274,-1.8623274 -8,0 -8,0 -8,0 -5.3613274,1.8613274 -3.2433274,4.7263274 -1.1263274,7.5893274 0,10.5 0,10.5 0,10.5 1.1263274,7.5893274 3.2433274,4.7263274 5.3613274,1.8613274 8,0 8,0 8,0 5.3613274,-1.8623274 3.2433274,-4.7253274 z"
       sodipodi:nodetypes="ccccccccc" /></g><g
     id="g4398"
     transform="matrix(0.72324737,0,0,0.77347205,0.7888952,0.69531924)"><g
       id="g4402"><path
         id="path4404"
         d="m 143.058,26.959 c 0,0 25.366,36.665 33.969,43.172 0.633,0.297 11.239,-1.729 11.239,-1.729 -5.436,-13.014 -8.933,-26.479 -5.405,-41.574 z m 14.095,57.987 c -17.487,4.936 -34.942,9.577 -53.9,1.532 l -20.704,20.003 c -0.172,0.516 26.829,12.147 27.253,10.874 l -6.646,21.214 15.322,3.373 7.034,-22.567 c 0,0 21.154,-2.029 30.972,-5.398 7.465,-2.561 15.185,-4.419 21.85,-9.983 C 164.566,95.719 157.138,84.847 157.152,84.946 Z M 51.971,90.861 c -6.628,-4.067 -11.809,4.304 -6.955,8.483 -0.57,2.442 -0.764,6.076 1.598,7.673 2.171,1.372 6.22,-0.051 6.804,-0.036 0.042,0.001 0.105,4.395 -0.232,4.384 -0.628,-0.021 -2.998,-2.04 -4.46,-2.478 -4.94,-1.481 -11.888,-2.212 -11.765,-1.957 0.206,0.428 -1.231,1.441 4.282,4.902 2.048,1.286 8.517,-0.162 13.669,1.463 3.139,0.99 6.225,2.636 7.929,1.816 2.155,-0.9 4.667,-3.743 5.478,-6.06 0.228,-2.529 -12.927,2.943 -12.127,3.032 l -0.041,-5.098 c 5.301,0.583 10.086,-3.258 4.876,-9.845 3.88,-3.857 -1.547,-13.048 -9.056,-6.279 z m 22.085,23.317 C 61.018,127.32 34.369,151.985 34.369,151.985 l 0.285,18.408 26.035,23.297 c 2.062,-24.731 16.117,-47.813 29.499,-59.36 1.229,-3.512 -13.298,-18.921 -16.132,-20.153 z m 92.891,4.546 c -1.964,15.207 -3.75,35.945 -29.549,58.996 4.47,7.613 10.161,15.362 18.35,19.06 0.581,1.308 23.669,-23.891 37.873,-35.805 l -0.075,-16.138 z m -116.274,3.264 c -0.054,0.331 -1.006,4.326 -1.252,4.22 0.019,0.217 2.642,-0.974 2.938,-2.069 0.26,-0.96 0.861,-2.262 0.901,-2.445 -0.591,-4.112 -1.709,-1.191 -2.587,0.295 z m -9.658,10.631 c -0.937,2.263 -1.814,6.421 -1.491,9.126 4.619,2.312 5.874,-7.305 4.632,-8.225 -0.744,-0.314 -2.508,-0.924 -3.141,-0.902 z m 142.644,44.095 c -0.428,1.918 -0.338,2.487 0.516,2.861 1.495,0.655 2.167,-0.136 3.368,-3.26 0.715,-1.859 1.351,-4.657 0.775,-5.769 -2.833,-1.977 -4.33,4.719 -4.658,6.167 z m -69.853,-4.506 c -0.906,0.007 -1.779,0.082 -2.587,0.266 -7.624,1.744 -7.047,15.066 -8.341,20.378 -23.949,3.417 -30.284,5.044 -36.846,7.74 -10.203,4.191 -13.435,6.75 -16.135,8.859 1.696,-0.199 20.005,16.873 20.949,19.283 -1.165,-3.304 35.419,-11.347 54.904,-3.27 2.39,0.856 20.594,-17.667 20.019,-19.733 2.363,-4.137 -22.945,-8.784 -26.137,-11.368 -2.619,-14.095 17.68,-21.815 3.623,-21.405 -2.558,0.075 -6.213,-0.777 -9.45,-0.751 z m 63.695,15.834 c -0.45,0.532 -0.905,0.815 -1.492,1.439 l -1.337,1.763 0.974,1.574 2.495,-2.751 z m -17.858,17.725 c 2.628,-1.186 11.955,-5.707 12.355,-4.662 l -0.197,4.526 c -1.427,-0.467 -10.636,1.055 -5.31,10.562 -3.354,7.552 4.12,11.446 9.356,6.453 10.974,3.765 9.505,-7.215 7.241,-8.989 1.785,-2.772 -0.458,-8.674 -1.575,-8.694 0,0 9.576,2.159 8.64,0.454 -0.427,-0.778 -0.962,-2.12 -3.09,-3.541 -2.453,-1.638 -6.762,-1.043 -10.249,-1.773 -3.728,-0.78 -6.129,-2.114 -9.262,-2.302 -4.729,0.431 -9.144,4.583 -7.908,7.966 z M 52.924,241.405 39.73,244.931 c 0,0 4.268,9.904 5.745,18.736 1.806,10.803 0.363,22.548 0.363,22.548 l 38.295,0.194 z"
         inkscape:connector-curvature="0"
         style="fill:#e2cf00" /><path
         id="path4406"
         d="M 87.311,286.275 C 70.509,262.293 54.94,239.481 34.269,214.339 c 0,0 0.017,-9.717 0.09,-19.355 l 63.502,91.055 z m 58.823,-31.334 c 8.325,-9.034 14.63,-18.663 20.227,-28.499 6.38,11.329 13.763,20.559 21.916,28.179 -7.994,8.08 -15.245,17.326 -20.987,28.946 -4.667,-8.879 -10.72,-18.144 -21.157,-28.626 z m -24.807,-7.387 c -0.541,-4.555 -1.469,-10.005 -2.803,-14.697 l 11.595,-10.932 c -1.251,9.769 -3.172,17.263 -8.792,25.629 z m 55.413,-34.456 c 2.595,3.447 -1.784,5.36 -3.438,3.826 -3.352,-3.11 1.558,-6.322 3.438,-3.826 z M 61.776,191.394 c -1.924,1.233 3.457,-30.054 18.229,-46.223 8.985,25.735 -6.868,40.164 -18.229,46.223 z m 72.875,-0.116 -9.811,-2.648 4.885,-13.72 c 0,0 9.211,2.158 8.426,5.007 -2.557,9.275 -3.5,11.361 -3.5,11.361 z m -45.415,-5.274 c 2.656,-4.367 4.673,-9.182 6.53,-14.11 l 13.95,-1.933 -8.085,15.68 z m 59.127,-19.253 c -7.593,-15.118 1.352,-39.046 17.873,-45.633 -0.595,15.331 -5.352,30.86 -17.873,45.633 z m -51.032,-4.296 c 0.334,-5.37 -0.281,-10.997 -1.024,-15.984 l 34.532,4.603 1.206,14.474 z m 25.27,-22.995 c 1.17,-4.604 2.21,-8.436 4.47,-12.167 2.514,0.08 12.712,-1.597 11.412,0.384 -2.772,3.547 -4.099,9.304 -5.914,12.925 -1.905,-0.202 -10.538,1.285 -9.967,-1.141 z m -22.873,-2.638 c -3.492,-1.232 -8.268,-1.577 -10.125,-4.277 l 3.633,-11.511 10.759,3.301 z m 30.194,-109.837 8.432,-0.08 c 0,0 40.514,51.839 55.699,72.012 -0.506,2.053 0.17,19.455 0.17,19.455 -21.508,-30.268 -64.3,-91.386 -64.3,-91.386 z M 52.23,99.315 c -2.265,-2.432 1.337,-4.587 2.835,-2.414 1.319,1.914 -1.641,3.696 -2.835,2.414 z m 45.459,-8.499 c 0.131,-12.013 8.65,-26.27 8.561,-25.905 -0.099,-0.023 1.214,11.744 2.851,15.447 -0.442,0.652 -11.01,11.212 -11.412,10.459 z M 61.402,86.83 C 54.797,74.204 46.861,64.636 39.949,57.934 48.558,49.792 55.012,39.734 61.635,29.826 67.102,40.219 74.209,49.717 82.18,58.744 74.185,66.596 66.63,77.719 61.402,86.829 Z"
         inkscape:connector-curvature="0"
         style="fill:#d40000"
         sodipodi:nodetypes="ccccccccccccccccccccccccccccccccccccccccccccccccccccccccscsccccccccccc" /><path
         id="path4408"
         d="m 32.693,24.786 -0.317,262.832 163.535,0.03 -0.055,-262.436 z m 149.449,2.057 c -1.329,14.543 -1.561,25.939 5.985,41.022 -1.363,1.429 -11.631,1.835 -14.867,3.527 -0.059,0.406 0.831,1.109 0.831,1.109 3.385,-1.571 16.585,-3.004 16.585,-3.004 -5.528,-9.635 -10.076,-28.169 -6.652,-42.382 l 9.528,0.03 -0.06,70.029 c 0,0 0.749,13.517 1.032,21.133 -5.073,-6.556 -11.8,-15.712 -16.193,-22.509 -5.329,-7.497 -11.263,-16.292 -17.355,-24.543 -1.796,-2.6 -4.357,-5.972 -6.447,-9.009 -3.281,-4.69 -5.994,-8.33 -9.397,-13.378 -3.634,-5.228 -7.117,-9.972 -11.436,-16.043 -3.661,-5.166 -3.831,-5.779 -3.831,-5.779 z m -62.572,0.272 c 6.176,10.733 17.231,14.368 20.013,15.091 l 1.617,2.363 c -13.034,-2.554 -20.014,-10.922 -23.291,-16.096 -0.255,-0.403 -0.226,-1.328 -0.226,-1.328 z m -6.113,0 c -1.708,4.053 -4.099,6.382 -6.365,8.836 l 0.078,-2.607 c 0.07,0.163 3.393,-3.524 4.537,-6.229 z m 2.99,0 c 0,0 0.05,0.692 -0.156,1.261 -1.309,4.226 -9.435,12.247 -9.201,11.045 l -0.083,-2.069 c -0.036,0.089 6.104,-5.846 7.712,-10.237 z m -5.909,0 c -0.633,1.18 -2.996,4.743 -3.21,3.755 l 0.21,-3.755 z m 18.565,0 c 1.024,1.482 1.954,2.566 3.031,4.082 0.201,0.289 0.322,0.63 0.271,0.76 -0.163,0.421 -0.65,0.108 -1.995,-1.084 -2.206,-1.956 -3.707,-3.758 -3.707,-3.758 z m -8.218,0 1.996,0.005 c 4.133,6.865 11.549,10.517 14.117,11.316 0.685,0.755 1.423,2.135 1.71,2.441 -6.922,-1.875 -14.677,-7.727 -17.822,-13.762 z m 4.853,-0.029 c 2.201,3.177 5.651,5.404 7.594,6.924 1.045,0.819 2.425,2.492 2.296,2.824 -4.327,-1.368 -9.388,-6.164 -11.711,-9.718 z m -8.484,1.966 1.203,1.915 c -2.914,4.805 -6.569,9.134 -11.442,12.546 l -0.026,-2.509 c 5.531,-3.983 7.921,-7.985 10.266,-11.951 z m 1.951,2.775 c 3.474,4.68 10.962,11.924 22.97,14.088 0,0 0.682,0.616 1.677,1.97 1.262,1.718 1.282,1.786 1.448,4.602 0.112,5.153 1.786,12.146 3.449,16.546 -0.206,1.094 -0.398,1.651 -2.461,4.437 -8.595,11.609 -26.906,22.589 -35.926,7.602 -3.008,-4.801 -3.301,-14.006 -3.492,-19.746 l 0.08,-0.513 c 0.217,-1.042 0.515,-0.878 2.143,-0.432 1.651,0.709 3.37,0.136 5.117,-0.339 1.989,-0.803 2.155,-0.184 0.236,1.606 -0.663,0.619 -1.475,1.566 -1.39,1.52 0.085,-0.046 1.201,-0.501 1.695,-0.877 1.533,-1.167 1.895,-0.72 1.327,0.564 -2.41,5.448 -2.838,5.665 0.552,7.178 0.707,0.315 1.189,0.668 1.585,1.014 2.318,2.181 1.486,1.006 0.837,0.005 -0.997,-1.568 -0.096,-2.396 1.588,-1.425 1.125,0.649 2.603,1.172 3.406,0.924 1.56,-0.508 2.036,-2.216 1.573,-4.097 -0.37,-1.04 -2.502,-2.877 -2.01,-0.954 1.281,-0.058 2.387,1.759 1.274,2.989 -0.84,1.133 -2.338,0.521 -4.635,-0.998 -1.27,-0.954 -2.811,-0.466 -2.751,0.707 0.04,0.788 -1.076,0.607 -1.801,-0.397 -0.403,-0.558 -0.129,-2.163 0.627,-3.683 4.763,-9.576 0.747,-18.861 -7.501,-16.244 -0.907,0.288 -1.725,0.521 -1.725,0.521 l -0.045,-3.663 c 4.736,-3.3 9.76,-8.563 12.154,-12.907 z m 4.816,17.192 c -1.244,1.501 -0.803,2.838 1.928,1.492 2.224,-1.096 2.532,-1.225 4.955,-1.313 3.439,-0.124 6.526,0.97 10.346,3.313 2.532,1.553 2.901,1.671 2.214,0.698 -2.045,-3.914 -14.133,-9.856 -19.443,-4.19 z m -11.68,0.448 c 2.387,0.601 4.678,2.178 4.279,2.831 -0.144,0.235 -0.282,0.28 -0.586,0.121 -1.746,-0.863 -4.53,-2.273 -8.554,-0.552 -0.444,0.19 -0.69,-0.105 -0.688,-0.639 0.004,-1.038 1.752,-1.867 3.598,-1.934 0.657,-10e-4 1.374,0.033 1.951,0.174 z m 13.867,3.036 c -1.423,0.739 -1.911,1.133 -2.516,0.803 -1.444,-0.789 -1.139,-0.17 -0.242,1.419 0.633,1.121 0.627,1.352 0.533,2.039 -0.102,0.747 -0.087,0.776 0.639,1.574 1.358,1.785 2.709,3.506 4.742,4.86 0.634,0.422 1.481,0.902 1.545,0.904 0.202,0.006 0.125,-0.155 -0.237,-0.509 -2.604,-2.505 -4.658,-4.75 -2.006,-3.796 3.087,1.007 6.024,-0.248 8.432,-1.066 0.982,-0.303 2.013,-0.558 2.269,-0.558 2.224,0.002 2.749,-0.923 1.327,-2.335 -4.811,-5.394 -8.803,-6.664 -14.486,-3.336 z m 11.415,1.011 c 0.995,0.918 1.519,1.417 1.419,1.657 -0.107,0.257 -0.872,-0.178 -2.155,-0.862 -2.581,-1.376 -5.508,-1.7 -9.164,-0.644 -2.839,0.82 -2.001,-0.481 1.163,-1.705 2.533,-1.168 6.027,-0.819 8.738,1.555 z m -26.509,-1.858 c 2.169,-0.035 4.427,0.677 5.937,1.979 1.054,0.908 0.283,1.12 -1.429,0.412 -2.59,-1.071 -4.772,-1.242 -6.897,-0.247 -0.667,0.312 -1.436,0.684 -1.647,0.664 -0.355,-0.24 -0.506,-0.939 -0.199,-1.434 0.854,-0.838 2.548,-1.347 4.234,-1.374 z m 35.741,0.744 c 0.159,0.007 0.399,0.26 0.756,0.76 0.649,0.911 0.673,1.36 0.136,2.955 -0.657,1.947 -0.92,1.631 -1.085,-1.085 -0.107,-1.762 -0.11,-2.643 0.194,-2.63 z m 2.151,2.935 c 0.247,-0.035 0.536,0.401 0.998,1.303 0.322,0.629 0.246,0.818 -0.76,3.764 -0.421,1.233 -0.818,2.215 -0.828,2.223 -0.31,0.244 -0.27,0.222 -0.402,0.053 -0.718,-0.917 -0.666,-2.705 -0.048,-4.849 0.468,-1.624 0.723,-2.449 1.041,-2.495 z m -19.54,0.223 c 0.078,-0.007 0.559,0.098 0.559,0.098 -0.05,4.364 3.325,3.486 3.771,0.386 0,0 0.833,-0.086 0.96,0.121 0.4,0.649 -0.529,2.516 -1.918,3.126 -1.014,0.452 -2.391,0.342 -3.214,-0.415 -0.23,-0.427 -0.928,-2.048 -0.798,-2.721 0.162,-0.393 0.405,-0.576 0.639,-0.596 z m -2.011,0.51 0.102,0 c 0.331,0.017 0.572,0.106 0.703,0.507 l 0.723,2.217 c -0.532,0.636 -2.553,-0.653 -2.549,-1.62 0.003,-0.668 0.505,-1.079 1.022,-1.104 z m -13.721,-0.004 c 0.51,-0.049 0.69,0.007 0.749,0.483 0.172,1.44 -1.268,3.006 -3.137,3.091 -1.808,0.202 -2.784,-1.2 -2.729,-2.568 0.004,-1.04 0.899,-1.17 0.998,-0.348 0.287,2.373 2.314,2.509 3.24,1.199 0.35,-0.513 0.27,-1.778 0.878,-1.857 z m 22.202,0.483 c 0.144,-0.006 0.336,0.048 0.62,0.145 1.865,0.595 1.915,0.883 0.32,1.458 -1.902,0.685 -2.026,0.775 -1.579,-0.552 0.249,-0.74 0.323,-1.038 0.639,-1.051 z m -19.769,0.209 c 1.382,0.086 1.498,1.255 0.283,1.646 -1.811,0.799 -2.421,0.747 -1.719,-0.432 0.38,-0.835 0.721,-1.198 1.437,-1.214 z m -8.649,0.421 c 0.165,-0.002 0.354,0.062 0.557,0.213 0.208,0.627 0.56,1.11 0.838,1.758 -0.284,0.282 -0.961,0.277 -1.393,-0.065 -0.866,-0.687 -0.718,-1.9 -0.002,-1.906 z m 43.468,1.351 c 0.537,0.003 1.083,0.854 1.261,1.487 -1.876,2.41 -1.581,6.909 -2.017,8.267 -0.378,1.105 -0.5,0.151 -1.544,-2.712 -0.421,-1.156 1.702,-6.901 2.193,-7.029 l 0.107,-0.015 z m 1.918,2.47 c 0.418,0.238 0.985,0.786 1.085,1.647 0.058,0.5 -0.189,1.164 -0.349,1.821 -0.379,1.562 -0.891,4.514 -1.075,7.241 -0.078,1.161 -0.074,2.205 -0.126,2.306 -0.565,1.106 -1.754,-1.87 -1.653,-4.239 0.37,-1.891 0.576,-8.517 2.118,-8.776 z m 2.65,3.4 c 0.265,0.368 0.433,0.65 0.515,0.968 0.142,0.552 0.023,1.211 -0.302,2.617 -0.861,3.725 -0.736,7.74 -0.174,11.862 0.118,0.867 -0.484,0.433 -1.395,-1.061 -0.505,-0.828 -0.828,-1.963 -0.983,-3.303 -0.317,-2.93 0.294,-6.902 0.815,-10.036 0.23,-1.387 0.391,-2.609 1.525,-1.047 z m 1.429,2.267 1.506,1.816 c 0,0 -0.643,4.176 -0.639,6.403 -0.105,0.834 0.749,9.908 1.027,10.642 -0.926,-1.037 -1.359,-1.647 -2.373,-2.95 -0.115,0.019 -0.994,-8.94 -0.388,-12.366 0.367,-2.072 0.867,-3.546 0.867,-3.546 z m 2.364,3.609 c 0.253,-0.009 0.574,0.276 0.978,0.843 0.365,0.512 0.542,0.932 0.562,1.569 0.014,0.465 -0.216,0.823 -0.223,1.652 -0.042,4.936 0.625,9.594 1.464,14.085 0.296,1.607 -0.28,0.951 -1.233,-0.065 -0.874,-0.931 -0.889,-1.285 -1.356,-2.608 -0.093,-0.264 -1.023,-9.366 -1.015,-10.054 0.033,-2.828 0.114,-4.404 0.44,-5.082 0.106,-0.222 0.231,-0.334 0.383,-0.339 z m -5.475,9.918 c 0,0 -1.754,0.903 -2.213,0.586 -0.741,-2.02 -3.412,-7.426 -3.458,-8.384 0.047,-0.315 1.095,-1.737 1.095,-1.737 1.476,3.203 2.805,6.479 4.576,9.535 z m -33.006,-6.493 c -0.529,0.621 -1.159,0.362 -2.434,-0.198 -0.654,-0.201 -0.553,0.068 -1.633,0.63 -0.838,0.435 -1.132,0.446 -1.687,0.442 -0.732,-0.006 -0.996,-0.263 -0.998,0.252 -0.002,0.285 -0.044,1.572 -0.217,2.237 -0.235,0.905 -0.441,1.305 -0.312,1.462 0.372,0.341 0.685,0.133 1.47,-0.625 1.302,-1.258 2.18,-0.897 3.631,-0.43 1.65,0.532 1.991,0.728 3.5,0.201 2.138,-0.747 3.425,-0.748 4.276,-0.206 1.467,0.934 1.91,0.879 1.305,-1.675 -0.195,-0.823 -0.209,-2.1 -0.329,-2.321 -0.136,-0.25 -0.509,0.464 -0.899,0.727 -0.746,0.502 -1.132,0.493 -2.814,-0.058 -0.996,-0.327 -2.113,-1.394 -2.859,-0.436 z m 27.055,0.333 c 0.651,1.534 3.242,6.66 3.163,7.233 -0.505,0.453 -1.18,0.783 -1.581,0.378 -1.295,-2.364 -1.684,-3.638 -2.736,-6.291 -0.314,-0.634 0.625,-2.25 1.154,-1.32 z m 13.915,-0.188 c 0.184,-0.026 0.567,0.356 0.852,0.737 0.887,1.187 0.941,1.334 0.969,2.606 0.102,4.612 0.682,10.04 1.981,14.226 0.256,0.824 0.741,1.826 0.688,1.962 -0.436,0.635 -2.456,-1.066 -3.066,-3.652 -0.841,-3.285 -1.333,-6.712 -1.601,-8.942 -0.339,-3.924 -0.337,-6.732 0.177,-6.936 z m -15.544,2.544 c 0.746,1.439 1.687,3.923 2.32,5.413 0.289,0.647 -1.187,1.157 -1.527,0.937 -0.59,-0.44 -0.869,-1.679 -1.256,-2.422 -1.232,-2.693 -1.453,-2.75 -0.771,-3.589 0.42,-0.583 0.922,-1.298 1.233,-0.34 z m 18.469,1.652 c 0.108,0 0.249,0.105 0.426,0.334 0.779,0.92 1.308,1.624 1.511,2.306 0.148,0.495 0.029,0.866 0.082,1.763 0.139,2.349 0.756,5.556 2.504,12.119 0.17,0.64 0.402,1.397 0.373,1.603 -0.169,1.205 -1.936,-0.748 -2.451,-2.766 -0.597,-2.29 -1.684,-5.215 -2.005,-7.92 -0.66,-4.293 -1.026,-7.44 -0.441,-7.44 z m -20.026,1.735 c 1.47,3.429 1.586,3.423 0.661,3.695 -0.978,0.287 -1.037,0.193 -2.186,-2.142 -0.838,-1.704 -1.004,-1.918 -0.299,-2.532 1.076,-1.268 1.359,-0.059 1.824,0.98 z m -20.468,-0.818 -1.154,0.573 c -1.214,0.481 -3.37,0.514 -4.684,0.118 -2.329,-0.935 -1.673,0.279 0.387,1.018 1.599,0.538 4.765,0.121 5.256,-0.875 0.302,-0.319 0.411,-0.837 0.196,-0.833 z m 17.706,1.803 c 1.312,2.028 1.706,2.837 1.485,2.995 -0.21,0.21 -1.249,0.602 -1.676,0.392 -0.536,-0.263 -1.003,-1.515 -1.239,-2.496 0.164,-0.479 1.027,-1.339 1.43,-0.891 z m -32.862,0.854 c 0.586,0.002 2.111,2.052 1.802,2.422 -0.086,0.19 -0.658,0.009 -1.993,-0.361 -0.446,-0.164 -1.454,-0.296 -1.135,-0.943 0.159,-0.294 1.093,-1.119 1.327,-1.118 z m 31.455,2.809 c -0.131,0.35 -1.12,0.433 -1.54,0.407 -0.362,-0.752 -0.456,-1.111 -0.557,-1.608 0.137,-0.299 0.814,-1.072 1.148,-0.92 0.2,0.179 0.847,1.751 0.949,2.122 z m 27.295,-1.976 c 0.209,0.007 0.571,0.374 1.109,1.143 1.017,1.453 0.879,1.348 1.608,4.82 0.828,3.937 1.819,6.741 2.819,10.763 0.014,0.667 -0.257,0.49 -0.998,0.039 -1.211,-0.737 -1.609,-1.557 -1.991,-3.691 -0.651,-3.525 -2.025,-6.787 -2.553,-10.952 -0.279,-1.377 -0.301,-2.132 0.005,-2.122 z m -30.512,1.407 c 0.715,-0.024 0.619,1.077 0.414,1.256 -0.522,0.455 -1.963,0.319 -2.21,0.345 -0.553,-0.867 1.33,-1.571 1.796,-1.6 z m 34.144,3.747 c 0.21,0.029 0.775,0.826 1.831,2.31 1.015,1.426 0.792,1.193 1.4,3.541 0.859,3.244 2.281,5.583 3.115,8.569 -0.002,0.341 -0.414,0.297 -0.809,0.136 -0.769,-0.322 -1.456,-0.867 -2.107,-1.4 -0.446,-0.481 -0.442,-1.093 -1.758,-5.619 -0.475,-1.633 -0.598,-2.058 -1.192,-4.539 -0.496,-2.075 -0.718,-3.031 -0.48,-2.998 z M 61.461,97.292 c 3.451,6.35 2.173,9.166 -5.249,10.045 -0.536,-0.075 -0.03,3.253 -0.045,4.741 3.719,-2.127 8.216,-2.624 12.36,-3.96 -1.128,3.613 -3.11,7.708 -9.109,7.078 -6.271,-4.846 -13.652,-1.934 -18.659,-3.901 -2.724,-1.015 -3.764,-4.04 -3.796,-4.559 3.266,0.327 6.954,1.027 10.12,0.798 -3.457,-2.663 -2.446,-6.349 -1.959,-8.035 -4.046,-5.101 -0.668,-10.839 5.208,-9.505 0.607,0.138 1.806,0.728 1.806,0.728 5.668,-5.075 12.239,-0.307 9.323,6.57 z m 114.687,-3.089 c 0.235,-0.022 0.753,0.59 1.792,2.044 3.082,4.312 5.751,8.324 5.711,8.549 -0.133,0.743 -3.345,-0.559 -4.156,-1.623 -0.923,-1.212 -3.52,-7.451 -3.517,-8.443 0.002,-0.331 0.047,-0.516 0.17,-0.528 z M 50.617,112.672 c 1.603,0.235 2.051,0.371 2.034,0.998 0.137,0.532 -3.891,0.603 -4.437,0.208 -0.436,-0.315 0.126,-1.006 0.557,-1.172 0.624,-0.188 1.242,-0.122 1.845,-0.034 z m 111.038,0.572 c -22.505,10.629 -31.711,38.899 -20.352,60.564 l -1.564,1.129 c -11.137,-22.905 -2.852,-47.45 15.243,-59.846 0.733,-0.521 2.353,-0.923 3.107,-1.422 0,0 -7.382,1.684 -9.88,2.661 -0.507,-0.017 -1.996,0.508 -3.596,2.242 -1.398,1.296 -5.771,7.324 -5.631,7.534 l -11.618,0.468 0.01,0.429 11.403,-0.263 c -11.742,19.334 -8.858,37.729 -1.607,50.603 l 0.179,0.12 c 0.422,0.284 1.531,-0.528 3.831,-2.708 0.948,-0.898 2.142,-2.013 2.654,-2.48 1.422,-1.303 3.447,-3.55 4.839,-5.173 -7.896,-16.093 -0.107,-37.288 18.37,-46.84 0.032,-0.508 -0.197,-2.061 -0.197,-2.061 0,0 -0.698,-0.627 -1.111,-0.563 -20.584,9.067 -28.831,31.584 -20.462,52.059 l -1.38,1.502 c -10.516,-21.204 0.772,-47.706 20.455,-55.214 -0.009,-0.479 -0.436,-1.091 -0.965,-0.722 -21.249,9.866 -30.51,35.058 -20.101,56.532 l -1.311,1.159 c -11.842,-23.512 0.635,-49.859 20.197,-58.862 0.577,-0.134 -0.513,-0.848 -0.513,-0.848 z m -114.538,0.219 c 0,0 -0.149,1.252 0.293,1.68 0.203,0.893 -0.122,0.796 -0.882,0.615 -1.871,-0.446 -0.412,0.618 1.119,1.477 1.508,0.846 1.305,0.818 -0.01,1.652 -0.884,0.561 -0.792,0.771 -0.673,1.196 0.176,0.632 0.297,0.211 0.664,-0.126 0.77,-0.707 1.384,-0.884 2.068,-0.882 1.027,0.004 1.131,0.826 0.949,1.468 -0.408,1.346 -1.794,1.274 -2.93,0.94 -1.859,-0.547 -4.895,-3.772 -4.848,-5.67 -0.129,-1.7 2.197,-2.428 4.25,-2.351 z m 8.358,0.415 c 0.721,0.265 1.628,0.619 2.625,1.037 1.378,0.438 2.774,1.15 3.675,1.751 2.742,1.828 2.574,5.483 2.377,5.847 l -14.166,13.425 c 0,0 -0.8,-0.391 -1.554,-0.775 -2.382,-1.215 -2.954,-1.855 -1.632,-2.528 0.641,-0.326 0.848,-1.028 0.94,-1.715 0.123,-0.92 0.075,-0.763 0.625,-1.182 0.957,-0.729 1.003,-1.03 1.008,-2.243 0.003,-0.802 0.086,-1.172 0.378,-1.676 0.232,-0.4 0.476,-1.235 0.639,-2.194 l 0.065,-0.69 c 0.167,-0.75 0.405,-0.971 0.564,-1.141 0.159,-0.17 0.414,-0.748 0.591,-1.25 0.395,-1.118 0.321,-0.952 0.959,-0.828 0.927,0.18 0.794,0.721 0.693,1.579 -0.049,0.416 -0.327,0.709 -0.232,0.615 0.127,-0.126 0.696,-0.395 0.814,-0.421 0.297,-0.068 0.592,0.034 0.668,0.499 0.042,0.259 -0.07,0.736 -0.063,1.104 0.019,0.955 0.058,2.1 0.276,2.853 1.052,3.63 0.842,3.127 0.484,0.107 -0.086,-0.723 -0.187,-1.785 -0.082,-2.669 0.073,-0.623 0.252,-1.395 0.494,-1.816 0.622,-1.083 0.656,-1.298 -0.693,-1.831 -0.501,-0.198 -1.354,-0.545 -1.531,-0.891 -0.216,-0.423 -0.858,-1 -1.695,-1.196 -2.035,-0.479 -3.219,-2.445 -2.926,-2.737 0.193,-0.191 1.012,0.059 1.531,0.077 1.858,0.066 2.253,-0.029 3.076,-0.736 0.438,-0.376 0.635,-0.711 0.984,-0.736 0.368,-0.007 0.837,0.267 1.109,0.363 z m 96.422,2.175 c -19.031,15.396 -22.366,40.302 -12.872,59.52 l -1.643,1.291 c -11.931,-22.543 -3.917,-46.861 10.74,-60.16 z m -109.868,1.836 c 0.336,-0.031 0.703,0.461 2.039,1.889 0.9,0.962 1.837,1.797 2.33,2.078 1.118,0.535 0.873,0.312 -0.058,1.196 -0.952,1.092 -0.426,1.991 -1.565,1.443 -2.961,-1.39 -5.04,-5.485 -3.115,-6.471 0.145,-0.074 0.256,-0.125 0.368,-0.136 z m -1.472,4.306 0.228,0.024 c 0.365,0.089 0.808,0.776 1.284,1.255 1.316,1.325 1.927,1.913 2.979,2.378 1.034,0.457 1.062,0.568 0.334,1.376 -0.265,0.294 -0.422,0.646 -0.484,0.843 -0.062,0.196 -0.078,0.447 -0.3,0.489 -1.153,0.221 -4.984,-2.102 -5.134,-3.705 0.124,-1.499 0.502,-2.614 1.095,-2.659 z m 8.118,0.446 c 0.665,-0.017 1.055,0.575 1.051,1.535 -0.003,0.665 -0.377,0.936 -1.138,1.221 -1.627,0.609 -2.63,-0.555 -1.492,-1.841 0.478,-0.54 1.124,-0.904 1.579,-0.915 z m -0.993,3.909 c 1.227,0.005 1.583,1.04 0.683,1.933 -0.845,0.839 -2.551,0.843 -2.548,-0.077 0.003,-0.722 1.084,-1.858 1.865,-1.855 z m -7.61,1.238 c 0.83,0.245 2.852,1.701 3.741,1.873 0.047,0.491 -0.544,0.625 0.295,1.549 0.381,0.419 0.413,0.705 0.082,0.882 -1.014,0.54 -4.526,-1.167 -4.761,-2.926 -0.114,-0.859 0.171,-1.347 0.644,-1.377 z m 4.583,2.104 c 1.208,0.05 2.575,0.086 2.432,0.664 -0.104,0.419 -0.537,1.524 -1.09,1.317 -0.269,-0.101 -0.53,-0.368 -0.717,-0.547 -0.645,-0.618 -0.816,-1.442 -0.625,-1.434 z m 45.698,5.003 c 3.52,3.187 16.309,36.478 -10.342,60.732 l -5.656,1.694 c 25.587,-20.091 21.331,-48.614 14.426,-60.919 0.002,-0.361 -0.1,-0.32 -0.737,0.257 -0.558,0.505 -0.617,0.614 -0.392,0.707 7.803,12.007 10.72,45.921 -20.024,62.286 -0.516,0.536 0.528,0.454 0.528,0.454 0.054,-0.44 13.843,-3.791 12.87,-3.875 12.852,-11.36 24.041,-38.452 10.112,-62.066 -0.336,-0.221 -0.786,0.73 -0.786,0.73 z m -4.439,3.769 -0.179,0.751 c 11.154,21.899 0.507,48.728 -20.227,58.658 0.341,0.25 0.72,0.423 1.101,0.602 23.522,-12.666 30.304,-39.472 20.043,-60.234 z m -1.865,1.553 -0.13,0.795 c 9.234,18.638 1.903,44.501 -20.136,54.992 -0.209,1.128 0.003,0.799 1.034,0.745 25.501,-13.675 27.898,-39.681 19.919,-56.57 z m -1.584,2.235 c -0.72,0.952 -2.039,1.445 -2.477,2.67 7.408,19.579 -2.166,38.427 -18.375,46.372 -0.013,0.986 -0.72,3.423 0.996,3.034 20.025,-9.072 28.738,-33.184 19.982,-52.164 l -0.126,0.088 z m 100.587,37.856 c 0.737,0.052 1.398,0.275 2.082,0.364 2.487,0.322 4.101,2.136 2.99,3.239 -0.365,0.362 -0.875,0.154 -2.491,-0.637 -0.742,-0.363 -0.862,-0.703 -1.015,-1.522 -0.184,-0.982 -0.38,-1.081 -0.63,-0.32 -0.252,0.77 -0.524,1.247 -1.373,1.053 -2.385,-0.554 -1.483,-2.196 0.437,-2.177 z m -26.608,16.67 c -5.973,-3.39 -13.349,-9.502 -17.566,-16.446 -2.096,3.933 -4.56,11.092 -4.56,11.092 l -9.375,-2.619 -0.11,0.195 9.266,2.67 -0.903,3.092 c -0.098,0.334 -1.532,3.853 -1.532,3.853 l 14.473,6.754 c -0.897,1.403 -1.875,2.311 -3.118,3.619 -0.703,0.738 -0.722,1.694 -0.722,1.694 l 20.067,-19.141 c 0,0 2.589,3.839 3.552,4.709 0.903,0.816 1.184,1.014 0.13,1.258 -4.715,0.691 -8.374,4.261 -7.098,9.05 0.206,0.533 0.622,0.337 1.516,-0.226 3.13,-2.835 10.782,-5.459 11.043,-4.793 l 0.03,3.049 c -8.238,0.119 -7.393,6.175 -6.79,9.423 0,0.07 -2.382,2.153 -2.382,2.153 0.842,0.442 1.667,0.899 2.446,1.443 -0.724,4.04 2.718,9.895 9.48,6.898 0.585,0.6 1.137,1.202 1.781,1.955 0.692,-0.801 1.49,-2.688 1.49,-2.688 3.359,1.52 10.327,-1.882 6.763,-9.674 l 1.965,-1.874 -1.888,-1.19 c -0.049,-1.981 -0.356,-3.751 -1.539,-5.477 0,0 3.171,0.808 5.517,0.944 1.449,0.131 2.67,0.168 2.549,-0.708 -0.036,-0.258 -0.252,-1.519 -0.394,-1.932 -0.7,-2.041 -4.33,-3.54 -7.855,-3.738 -0.575,-0.032 -1.195,-0.014 -1.317,-0.164 -0.231,-0.28 0.183,-0.677 0.562,-0.611 1.931,0.336 3.788,-1.091 4.122,-2.906 0.066,-0.318 0.461,-0.901 1.027,-1.521 1.005,-1.1 1.083,-1.071 1.064,-2.66 -0.013,-1.103 0.18,-1.348 0.689,-2.087 0.657,-1.054 0.962,-2.43 0.632,-3.853 -0.105,-0.451 -0.532,-1.089 -0.168,-2.213 0.592,-1.828 -0.709,-3.5 -2.414,-4.452 -0.136,-0.039 -0.095,0.095 -0.208,0.23 -1.547,0.482 -3.432,-0.627 -3.432,-0.627 -0.389,-0.191 1.318,-10.106 4.853,-9.22 0.588,0.357 0.836,2.08 0.792,2.11 0.163,-0.004 0.251,-1.014 0.022,-1.688 -0.24,-0.707 -0.788,-1.38 -1.843,-1.181 -0.818,0.154 -1.762,1.24 -2.189,1.784 -1.652,2.105 -1.67,3.448 -2.222,5.687 -0.265,1.058 -0.294,0.997 -1.759,-0.147 -1.051,-0.822 -1.561,-1.084 -1.195,-1.566 0.164,-0.217 0.845,-0.901 0.845,-0.901 l 12.799,-12.315 0,123.328 -72.375,0 0.506,-15.849 c 1.358,-11.144 -1.031,-34.546 -2.839,-36.747 1.394,-1.566 5.721,-5.343 5.483,-5.514 l -0.574,-0.339 -2.287,2.104 -5.649,-1.711 c -2.41,-1.664 -4.869,-3.203 -7.42,-3.858 -4.166,-1.069 -12.188,2.337 -12.195,2.373 -12.817,0.949 -23.081,6.154 -22.937,6.114 -0.558,-0.512 -1.297,-2.149 -1.316,-2.139 C 65.13,220.59 58.635,215.44 49.762,209.155 L 61.001,202.947 34.367,175.12 34.132,152.524 72.714,115.639 c 0.227,-0.637 12.309,8.533 16.808,15.995 0.863,-3.648 2.469,-6.96 3.808,-10.542 0.14,-0.328 7.676,2.786 9.911,2.918 0.334,0.02 0.604,-0.333 0.604,-0.333 l -9.946,-3.234 2.034,-5.825 c 0,0 0.708,-1.583 -0.091,-1.845 -4.534,-1.466 -8.788,-4.051 -13.124,-6.254 0,0 2.025,-2.252 2.056,-2.351 0.029,-0.094 0.85,-1.302 0.654,-1.718 -2.206,2.14 -20.206,18.834 -20.206,18.834 -0.512,-2.865 -1.317,-3.867 -3.067,-5.634 0.954,-0.046 2.446,-0.988 3.308,-1.617 2.638,-1.922 4.074,-5.351 3.729,-7.355 -2.532,0.806 -4.819,1.75 -7.991,2.326 -1.782,0.324 -3.473,1.128 -4.499,1.992 l -0.157,-3.197 c 0.006,0.036 4.268,0.747 6.241,-2.113 1.701,-2.465 1.004,-5.285 0.613,-6.724 0.044,-0.319 -0.051,-0.284 0.683,-0.959 0.541,-0.499 1.385,-1.143 1.385,-1.143 0.036,-0.181 -2.201,-1.01 -2.579,-1.767 0.595,-5.925 -4.138,-8.212 -8.145,-7.16 -0.749,0.226 -1.106,0.366 -1.997,-0.626 -0.133,-0.148 -1.201,-1.277 -1.201,-1.277 0,0 -0.472,1.088 -0.713,1.564 -0.786,1.55 -1.001,1.083 -2.696,1.166 -4.292,0.21 -6.207,3.675 -5.222,7.929 0.231,0.998 0.128,0.845 -0.528,2.107 -0.335,0.645 -0.882,1.468 -0.882,1.468 0,0 0.787,0.436 1.317,0.673 0.786,0.351 0.827,0.762 0.823,1.545 0.11,1.726 0.489,2.882 1.481,4.365 -3.362,0.077 -5.941,-0.236 -8.985,-1.247 0.466,4.681 3.916,6.424 8.143,7.11 0,0 -0.443,0.414 -0.91,0.599 -0.989,0.287 -1.608,1.155 -1.598,1.933 -0.142,0.743 -0.623,1.489 -1.066,1.886 -0.658,0.569 -1.199,1.372 -0.94,2.924 -0.066,1.125 -0.338,1.45 -0.668,1.879 -0.663,0.862 -0.887,1.72 -0.722,2.853 0.077,0.527 0.24,1.657 0.131,2.824 -0.182,1.945 0.515,2.675 1.4,4.045 0.573,0.887 0.452,0.911 0.32,1.555 -0.318,1.546 -0.649,2.341 -0.993,3.517 -0.769,2.631 -0.798,4.626 -0.17,5.139 0.948,0.774 2.02,0.541 2.519,0.387 3.739,-1.154 3.092,-4.826 3.289,-7.29 0.107,-0.633 0.323,-0.938 0.533,-0.908 1.057,1.237 2.175,1.953 3.614,2.733 -4.976,5.064 -8.226,8.163 -14.517,13.688 l 0.171,-123.358 71.762,0 c 0,0 0.075,0.913 -0.096,5.376 -0.311,9.072 -0.692,18.575 -0.097,27.823 0.1,3.201 0.034,6.361 0.494,9.528 0.448,3.085 0.646,6.412 2.088,9.285 0.579,1.558 0.598,1.438 -1.61,3.478 -1.083,1.001 -2.003,2.066 -1.963,2.254 0.013,0.062 -0.048,0.297 0.118,0.164 0.111,-0.088 0.91,-0.88 0.999,-0.985 0.598,-0.705 1.599,0.2 5.013,1.163 0.67,0.189 1.613,0.819 2.335,1.342 5.103,4.3 12.283,2.959 17.651,0.614 1.523,-0.666 1.897,-0.734 4.345,-1.025 9.066,-1.075 18.752,-5.036 18.732,-5.023 l 1.183,1.939 c 0,0 0.446,-0.082 0.763,0.405 5.214,9.848 22.237,21.1 21.935,20.579 l -11.127,6.16 c 8.101,10.009 26.625,26.989 26.625,26.989 l -0.426,24.405 c -4.973,3.978 -9.348,8.537 -13.721,12.99 -1.257,1.245 -2.145,1.955 -1.668,1.979 1.135,-0.173 2.115,0.946 3.039,1.723 0.585,0.652 0.444,0.593 -0.231,1.484 -0.474,0.626 -0.648,0.807 -0.65,1.26 0.017,0.876 0.011,1.462 -0.769,2.119 -0.484,0.608 -0.761,0.997 -0.848,1.717 -0.087,0.719 -0.081,1.18 -0.575,1.816 -0.838,0.178 -0.917,1.398 -0.77,1.944 0.878,0.87 0.477,1.812 0.558,1.615 -1.676,1.819 -3.436,3.395 -2.312,0.852 0.506,-0.947 0.683,-1.732 0.683,-1.732 0,0 -0.807,0.836 -1.229,1.231 -0.646,0.598 -0.883,0.246 -0.902,-1.611 -0.083,-1.405 -0.676,-3.366 -0.911,-3.741 -0.132,-0.209 -0.154,0.153 -0.092,1.506 0.081,1.78 0.293,2.296 -0.333,4.073 -0.847,2.401 -1.449,2.741 -0.074,2.658 1.303,-0.078 2.404,-0.092 2.974,0.685 0.192,0.262 0.439,0.711 0.966,0.976 1.072,0.586 1.924,1.235 2.52,1.883 1.927,2.095 1.374,3.968 -2.351,2.698 -1.961,-0.669 -0.677,-1.511 1.431,-1.316 1.295,0.121 1.513,-0.357 0.392,-0.7 -2.085,-0.386 -2.421,-0.621 -3.795,1.014 -5.774,-0.571 -9.016,-3.799 -10.574,-6.428 -0.652,-1.1 -0.851,-1.31 -0.397,-1.933 0.179,-0.245 0.07,-0.17 -0.237,0.17 -0.308,0.34 -1.146,0.624 -1.424,0.869 -1.939,1.935 -3.906,4.014 -5.653,5.588 z m 25.129,-13.553 c 0.98,0.121 0.961,0.944 0.086,1.735 -0.822,0.623 -1.385,0.743 -1.849,0.275 -0.812,-0.819 0.237,-2.016 1.763,-2.01 z m 2.854,0.57 c 0.79,-0.003 1.798,0.36 2.994,1.355 1.429,1.187 1.755,4.062 0.443,4.56 -0.549,0.208 -0.635,0.004 -1.806,-1.108 -0.79,-0.75 -1.646,-1.43 -2.49,-1.831 -1.722,-0.82 -1.943,-1.129 -0.779,-1.688 0.245,-0.126 0.562,-0.422 0.707,-0.654 0.299,-0.479 0.39,-0.632 0.93,-0.634 z m -1.86,3.828 c 0.229,0.007 0.534,0.146 1.012,0.402 2.903,1.585 4.322,4.07 3.339,5.473 -0.644,0.92 -1.693,0.569 -2.492,-0.736 -0.45,-0.735 -1.646,-1.676 -3.003,-2.364 -1.554,-0.788 -1.588,-0.901 -0.465,-1.439 0.461,-0.221 0.807,-0.533 1.032,-0.93 0.261,-0.461 0.283,-0.416 0.577,-0.407 z m 0.93,5.922 c 2.193,2.186 1.942,3.37 0.517,4.26 -0.972,0.608 -2.533,0.759 -3.044,0.256 -0.827,-0.722 -0.805,-1.551 0.109,-1.816 0.852,-0.182 0.533,-0.524 -0.263,-0.726 -2.844,-0.807 -4.591,-2.316 -1.501,-1.989 0.887,0.094 1.746,-0.595 2.21,-1.146 0.671,-0.814 1.577,0.767 1.972,1.161 z m -149.546,0.842 64.002,91.624 -51.741,-0.101 c 0,0 -0.195,-0.673 0.227,-6.165 0.623,-7.451 -0.333,-13.913 -2.097,-21.187 0.223,-0.025 -2.477,-8.829 -4.577,-13.131 -0.382,-0.901 -0.319,-0.988 0.92,-1.148 3.663,-0.588 7.608,-1.475 11.267,-3.022 1.701,-0.15 4.198,0.513 4.063,0.305 -0.061,-0.099 -2.213,-2.073 -2.213,-2.073 -5.975,2.387 -11.487,3.261 -16.677,3.853 6.888,11.724 9.347,27.684 7.281,42.02 l -9.914,-0.03 -0.03,-70.554 z m 11.439,13.57 c 0.904,-0.035 3.156,1.554 3.431,2.75 0.056,0.245 0.642,1.715 1.298,3.082 0.013,0.252 2.232,4.259 1.257,3.909 -1.94,-2.635 -5.405,-7.123 -6.277,-9.31 0.002,-0.291 0.038,-0.421 0.291,-0.431 z m 6.914,4.008 c 0.121,0.662 0.792,2.393 1.322,3.534 1.381,2.973 3.52,7.634 3.085,8.961 -0.293,0.894 0.008,0.847 -0.775,-0.257 -0.383,-0.54 -1.578,-2.207 -1.865,-2.591 -0.7,-0.939 -0.229,-0.078 -0.629,-1.606 -0.953,-4.324 -2.492,-6.595 -3.492,-9.122 -0.357,-1.186 1.895,0.603 2.353,1.081 z m 1.23,0.659 c 0.186,0.131 2.722,1.914 2.979,2.17 0.899,3.197 4.494,13.44 3.563,15.271 -0.324,-0.254 -1.694,-1.906 -1.884,-2.757 -0.415,-4.898 -1.969,-8.42 -3.636,-12.071 -0.469,-1.1 -0.838,-2.201 -1.022,-2.613 z m 4.771,3.597 c 0.803,0.392 1.634,1.289 2.105,2.09 0.315,0.544 0.476,1.184 0.772,2.53 0.919,4.179 2.673,8.415 1.884,12.875 -0.492,0.667 -1.562,-0.845 -1.715,-2.335 -0.507,-4.939 -0.942,-7.304 -2.679,-13.112 -0.337,-1.127 -0.592,-2.01 -0.368,-2.049 z m 4.073,3.831 c 0.172,0.007 0.523,0.326 1.109,0.877 1.14,1.07 1.301,1.465 1.308,3.24 0.037,2.61 0.906,5.59 1.041,8.225 0.078,1.52 0.356,5.453 0.121,5.687 -0.332,0.458 -1.804,-1.209 -1.69,-3.764 0.188,-3.071 0.035,-5.382 -1.274,-10.695 -0.605,-2.456 -0.911,-3.504 -0.649,-3.565 l 0.034,-0.005 z m 118.163,-15.511 c 4.573,2.936 2.96,8.353 1.982,9.019 6.315,7.978 -3.501,12.064 -6.616,9.196 -4.611,4.582 -12.524,0.742 -9.477,-6.81 -0.004,0 -5.792,-11.062 5.63,-10.323 0,0 0.197,-4.47 -0.126,-4.674 -4.077,-0.274 -9.619,3.651 -11.189,4.737 -0.871,0.526 -1.062,0.275 -1.062,0.275 -0.217,-2.32 -0.223,-3.382 0.72,-4.676 1.645,-2.257 4.365,-3.021 7.938,-3.805 4.421,1.361 8.632,3.498 12.728,3.166 2.256,0.013 4.563,0.378 6.75,1.551 1.476,0.696 2.244,3.307 2.244,3.307 -2.315,1.211 -9.521,-0.963 -9.521,-0.963 z m -2.175,-16.404 c 0.019,-0.792 0.914,-1.675 1.795,-1.572 1.21,0.087 1.369,1.521 0.293,2.048 l -1.37,0.159 c 0.074,0.488 -0.418,0.282 -0.513,0.106 -0.167,-0.207 -0.205,-0.503 -0.204,-0.741 z m -0.734,3.124 c 0.445,-0.311 0.816,-0.339 1.263,-0.398 0.687,-0.084 1.565,0.02 1.76,0.74 0.191,0.706 -1.164,1.122 -2.26,1.141 -0.558,0.01 -1.204,0.118 -1.371,-0.273 -0.157,-0.367 0.384,-1.044 0.608,-1.21 z M 39.224,141.009 c 0.883,-3.067 0.331,-4.784 1.802,-8.564 l 3.58,1.192 c 0,0 0.152,3.708 -0.57,5.773 -0.723,2.064 -3.096,3.71 -4.812,1.599 z m 26.665,82.94 c 0.423,0.051 1.46,1.527 1.928,2.877 0.43,1.251 0.288,2.841 0.601,4.19 0.703,4.622 0.661,9.252 0.475,10.651 -0.093,0.697 -0.542,0.413 -1.158,-0.252 -0.895,-0.967 -0.771,-0.987 -0.76,-3.672 0.009,-2.3 -0.501,-7.985 -0.736,-9.14 -0.435,-2.136 -0.615,-4.174 -0.513,-4.524 0.029,-0.098 0.086,-0.14 0.165,-0.131 z m 41.867,0.553 c 4.61,0.734 8.295,3.881 10.407,9.062 2.039,5.268 2.54,12.456 2.857,19.064 -0.022,1.581 -0.674,1.182 -2.381,0.199 -1.866,-0.911 -2.262,-0.647 -4.985,-0.024 -1.699,0.389 -1.546,-0.766 1.25,-2.683 0.952,-0.621 2.059,-1.45 1.695,-1.574 -0.185,-0.063 -1.036,0.166 -1.652,0.664 -2.743,2.216 -3.486,2.756 -2.696,0.601 0.2,-0.545 0.835,-2.056 1.101,-2.78 0.993,-2.708 -0.151,-3.867 -3.525,-5.581 -0.844,-0.429 -1.4,-1.144 -0.557,0.354 0.689,1.225 -0.735,2.213 -2.499,0.78 -1.226,-0.996 -3.69,-0.333 -4.485,0.911 -0.77,1.204 -0.358,3.451 1.16,4.179 1.338,0.576 1.837,0.161 0.543,-0.736 -1.664,-1.154 -1.341,-3.101 0.529,-3.094 0.462,0.002 1.277,0.516 3.338,1.637 1.475,0.798 2.525,0.461 2.526,-0.731 0.002,-0.797 0.457,-0.732 1.427,-0.253 1.306,0.646 1.163,1.231 0.473,3.035 -0.466,1.26 -0.697,2.693 -1.124,4.011 -1.1,4.435 -1.247,9.457 -0.03,11.023 3.236,4.164 6.673,3.722 9.616,0.971 l -0.126,4.56 c -3.001,2.408 -6.506,4.05 -11.918,12.978 -1.887,-2.371 -9.986,-12.062 -22.971,-14.252 l -2.922,-3.998 c 0.05,-0.248 -2.183,-14.87 -3.644,-19.847 0,0 1.607,-2.439 3.066,-4.237 5.83,-7.183 15.686,-15.404 25.527,-14.236 z m -16.936,4.15 c -0.5,0.158 -0.662,-0.838 -0.39,-1.027 0.6,-0.05 0.813,-0.031 1.415,0.013 0.454,0.028 0.444,0.549 -1.025,1.014 z m -21.913,-0.746 c 0.648,0.462 1.44,1.705 2.214,2.838 0.428,0.627 0.185,1.667 0.252,2.693 0.094,1.455 0.256,3.854 0.358,5.328 0.2,2.875 -0.069,5.279 -0.489,6.147 -0.429,1.038 -1.3,0.321 -1.516,-1.1 -0.052,-0.341 0.232,-3.867 0.232,-5.803 0,-3.33 -0.851,-7.439 -1.051,-10.104 z m 19.656,-0.021 c 0.229,-0.013 0.403,-0.005 0.555,0.19 0.699,0.896 0.983,1.437 0.346,1.928 -0.844,0.705 -1.613,0.527 -2.081,-0.812 -0.301,-0.954 0.41,-1.254 1.18,-1.306 z m -2.603,0.789 c 0.754,0.505 1.502,1.835 1.58,2.795 -0.048,0.263 -0.28,0.487 -0.786,0.896 -0.502,0.46 -0.66,0.43 -1.22,-0.453 -0.878,-1.372 -1.289,-2.275 -1.117,-2.749 0.439,-0.456 1.01,-0.638 1.543,-0.488 z m 30.696,0.174 c 1.258,0.107 2.501,0.682 3.726,0.971 l -1.868,1.806 c -0.556,-0.926 -1.188,-1.851 -1.857,-2.777 z m -33.488,0.942 c 0.69,0.898 1.893,3.248 1.829,4.121 -0.176,0.297 -0.449,0.562 -0.738,0.729 -0.23,0.062 -0.436,-0.34 -1.215,-1.717 -1.354,-2.395 -1.75,-3.07 -1.047,-3.357 0.369,-0.041 0.932,-0.023 1.171,0.225 z m -2.73,0.557 c 0.753,0.67 2.559,4.238 2.611,5.242 -0.021,0.282 -0.105,0.527 -0.272,0.717 -1.136,1.221 -0.848,1.025 -2.539,-2.456 -1.428,-2.863 -1.805,-3.145 -0.861,-3.467 0.209,-0.071 0.732,-0.165 1.061,-0.036 z m -2.715,0.931 c 0.496,-0.007 0.635,0.822 1.601,2.71 1.618,3.569 2.225,4.066 1.858,4.447 -0.451,0.569 -0.715,0.969 -1.144,0.278 -0.976,-1.586 -1.943,-3.61 -2.852,-5.387 -0.727,-1.326 -0.792,-1.487 -0.325,-1.812 0.268,-0.186 0.667,-0.233 0.861,-0.236 z m 28.874,1.014 c -0.608,0.171 -3.052,0.945 -1.555,1.085 0.303,0.028 1.069,-0.163 1.608,-0.201 1.513,-0.104 4.661,0.181 4.548,-0.109 -0.287,-1.087 -3.777,-0.986 -4.602,-0.775 z m -30.99,0.334 c 0,0.06 0.392,0.756 0.783,1.437 2.299,4.442 3.577,6.06 3.169,6.762 -0.336,0.424 -0.855,0.957 -1.163,0.831 -0.494,-0.204 -1.153,-1.658 -2.799,-4.949 -1.7,-3.401 -1.877,-3.656 -1.003,-4.097 0.358,-0.166 0.792,-0.289 1.013,0.016 z m -2.297,1.567 c 1.057,1.717 0.918,1.492 0.906,7.082 -0.008,3.479 -0.455,5.698 -1.037,6.554 -0.305,0.448 -0.843,0.185 -1.109,-0.693 -0.122,-0.401 0.225,-0.997 0.291,-1.632 0.411,-4.186 0.124,-8.369 0.134,-12.331 0.319,-0.033 0.645,0.74 0.816,1.021 z m 27.256,1.371 c 0.492,0.703 0.372,1.269 0.368,2.214 -0.005,1.336 0.091,1.435 1.014,0.76 0.818,-0.598 0.883,-0.637 2.343,0.354 0.866,0.587 1.958,0.654 2.664,0.005 0.498,-0.457 0.67,-0.251 1.337,-0.077 0.726,0.403 0.932,0.465 2.49,-0.291 1.052,-0.465 1.094,-0.532 1.72,-0.203 1.1,0.97 1.263,0.619 1.114,-0.649 0.003,-0.443 0.131,-1.27 0.262,-1.807 0.547,-2.255 -0.339,-2.28 -1.511,-0.843 -0.454,0.557 -1.466,0.798 -2.422,0.349 -1.369,-0.643 -3.507,-0.383 -5.087,-0.117 -1.87,0.314 -2.735,-0.201 -3.486,-0.842 -0.426,-0.363 -1.398,-0.687 -1.506,-0.409 -0.108,0.278 0.113,0.716 0.702,1.557 z m -25.071,3.163 c 0.234,-0.051 0.593,0.643 1.119,2.112 0.678,1.896 -0.507,8.487 -1.221,9.566 -0.377,0.566 -0.62,0.914 -1.395,-0.136 -0.308,-0.461 -0.068,-0.608 0.237,-1.904 0.465,-1.972 0.857,-5.162 0.882,-6.646 0.007,-1.926 0.112,-2.936 0.378,-2.993 z m 2.383,6.394 c 0.168,0.012 0.365,0.392 0.635,1.143 0.381,1.032 0.196,3.021 -0.305,4.543 -0.29,0.887 -0.566,1.832 -1.061,2.625 -0.168,0.445 -1.031,0.289 -1.269,-0.698 -0.151,-0.624 0.369,-1.399 0.62,-2.393 0.252,-0.998 0.54,-2.267 0.683,-2.906 0.263,-1.56 0.451,-2.333 0.698,-2.315 z m 18.445,2.921 -0.053,0.005 -0.015,0.015 c -0.039,0.039 1.798,2.041 2.291,2.601 0.258,0.218 2.471,2.909 1.095,2.291 -3.473,-1.44 -7.538,-0.733 -10.041,1.681 -0.314,0.302 -0.573,-0.007 -1.521,-0.077 -1.944,-0.145 -2.65,0.626 -1.468,1.584 0.181,0.147 0.559,0.213 0.729,0.448 0.157,0.216 0.11,0.603 0.191,0.711 3.759,4.99 10.722,5.961 15.093,2.702 0.55,-0.41 0.858,-0.555 1.371,-0.402 1.017,0.303 1.107,-0.549 0.208,-1.739 -0.392,-0.519 -0.874,-1.117 -0.593,-1.29 0.555,-0.478 0.83,-1.258 -0.136,-1.55 -0.665,-0.202 -1.411,-0.942 -1.785,-1.975 -0.437,-1.207 -4.718,-4.916 -5.367,-5.004 z m -17.065,2.185 c 0.817,-0.019 0.855,4.807 -0.048,6.273 -0.464,0.555 -1.525,-0.477 -1.366,-1.535 0.121,-0.805 0.989,-4.433 1.187,-4.621 0.08,-0.076 0.158,-0.115 0.228,-0.116 z m 16.658,3.013 c 0.686,-0.007 1.624,0.3 2.371,0.974 0.404,0.364 1.11,1.943 0.816,2.562 -0.082,0.314 -0.929,0.296 -1.006,0.066 -0.466,-3.185 -3.048,-3.648 -3.868,-0.674 0,0 -0.531,0.452 -0.599,-0.419 0.184,-1.688 0.977,-2.495 2.287,-2.508 z m 20.794,0.276 c 0.821,-0.015 1.603,0.397 2.005,1.274 0.28,0.611 0.311,1.126 0.2,1.394 -0.083,0.2 -0.36,0.113 -0.36,0.113 -1.311,-3.595 -3.094,-1.932 -3.74,0.055 0,0 -0.674,0.208 -0.758,-0.006 -0.084,-0.215 -0.032,-0.619 0.236,-1.179 0.512,-1.068 1.487,-1.634 2.417,-1.652 z m -17.534,0.223 c 0.464,-0.025 1.259,0.352 1.853,0.951 0.604,0.608 0.663,0.972 0.175,1.422 -0.293,0.271 -1.334,0.539 -1.536,0.068 l -0.877,-2.048 c -0.083,-0.195 0.174,-0.382 0.385,-0.393 z m -6.316,0.097 c 0.52,0.002 0.629,0.12 -0.187,2.018 -0.174,0.406 -2.268,-0.184 -1.869,-0.966 0.599,-0.623 1.536,-1.052 2.056,-1.051 z m 20.969,0.15 c 0.209,-0.01 0.379,0.021 0.45,0.116 -0.187,0.067 -0.978,2.068 -0.978,2.068 -0.747,-0.09 -1.64,0.015 -1.802,-0.596 -0.153,-0.577 0.149,-0.929 1.201,-1.332 0.319,-0.116 0.78,-0.241 1.129,-0.257 z m 6.126,0.513 c 0.793,0.29 0.978,0.961 0.877,1.308 -0.077,0.262 -0.451,0.265 -0.717,0.063 -0.252,-0.293 -0.624,-0.793 -0.596,-1.129 0.083,-0.334 0.183,-0.338 0.436,-0.242 z m -39.49,1.849 c 0.244,0.459 0.684,3.057 0.17,2.99 -0.499,-0.129 -0.731,-0.913 -0.819,-1.618 -0.018,-0.145 0.426,-1.355 0.649,-1.372 z m 8.724,1.387 c 0.231,-0.033 0.812,0.171 1.676,0.659 2.842,1.373 5.756,1.567 8.851,0.876 1.785,-0.463 2.24,-0.735 2.493,-0.428 0.428,0.52 -0.248,1.041 -2.768,1.888 -2.764,0.929 -5.632,0.772 -9.403,-1.889 -1.013,-0.715 -1.145,-1.064 -0.848,-1.106 z m 31.542,0.716 c 0.468,0.873 -1.125,1.701 -1.932,1.934 -1.715,0.496 -4.313,0.264 -5.78,-0.617 l -0.354,-0.236 c -1.193,-0.888 -0.699,-1.523 0.63,-0.838 1.429,0.737 4.338,0.872 5.88,0.128 0.773,-0.373 1.304,-0.841 1.556,-0.371 z m -35.296,1.628 c -0.159,0.035 0.11,0.436 0.664,1.037 3.888,4.364 13.165,6.732 18.379,2.234 1.633,-1.533 1.384,-2.222 -1.192,-0.998 -2.848,0.937 -6.896,1.06 -10.397,0.542 -1.722,-0.233 -4.525,-0.892 -5.948,-1.933 -0.896,-0.655 -1.367,-0.913 -1.506,-0.882 z m 26.81,0.131 c 0.237,0.019 0.653,0.107 1.556,0.577 1.317,0.685 4.309,0.45 5.289,0.089 2.064,-0.762 2.488,0.206 0.532,1.287 -2.179,1.319 -5.186,0.803 -6.941,-0.896 -0.543,-0.487 -0.837,-1.093 -0.599,-1.142 l 0.163,0.086 z m -25.777,7.719 c 7.657,0.7 19.213,8.298 23.718,17.425 l -2.593,0 c -4.527,-7.183 -11.492,-12.964 -19.757,-15.121 -0.327,-0.252 -1.543,-1.986 -1.368,-2.304 z m 33.987,1.672 -0.354,2.523 c -1.283,1.052 -5.987,4.948 -9.475,11.05 -0.727,-0.034 -1.079,-0.91 -0.958,-1.506 2.793,-5.507 6.132,-8.548 10.786,-12.067 z m -30.946,1.975 c 1.757,-0.121 13.186,6.017 17.035,13.778 l -2.107,0 c -4.329,-5.638 -9.141,-9.316 -13.412,-10.792 -1.038,-1.095 -2.176,-2.938 -1.516,-2.986 z m 30.593,1.756 -0.019,3.41 c -2.735,2.662 -4.733,5.34 -6.298,8.612 l -2.123,0 c 0,0 -0.472,-0.935 -0.307,-1.518 2.413,-4.343 4.725,-7.505 8.748,-10.504 z m -17.363,12.022 -2.055,0 c -1.734,-2.452 -4.311,-4.811 -6.676,-6.215 -0.969,-1.201 -2.055,-2.683 -1.618,-2.924 0.026,-0.887 9.121,5.259 10.349,9.138 z m 17.407,-6.936 -0.045,1.971 c -1.391,1.778 -2.556,3.27 -3.67,4.965 l -1.751,0 c 1.597,-3.447 5.608,-7.868 5.465,-6.936 z m -23.584,3.818 c 0.634,0.167 2.949,2.378 2.875,3.119 l -1.042,-0.03 c -0.585,-0.738 -1.278,-1.506 -1.689,-2.262 -0.258,-0.478 -0.423,-0.921 -0.144,-0.827 z m 23.181,0.61 0.015,0 c 0.003,0.002 -0.02,2.509 -0.02,2.509 l -1.758,0 c -0.189,-0.034 0.851,-1.895 1.763,-2.509 z"
         inkscape:connector-curvature="0"
         style="fill:#131f67" /><path
         id="path4410"
         d="m 156.315,26.508 c -8.615,-10e-4 -17.326,0.048 -27.018,0.15 l 65.435,92.842 0.053,-20.625 -20.998,-27.098 c 4.779,-1.474 10.615,-2.492 15.209,-2.901 -5.902,-13.082 -8.853,-25.369 -6.253,-42.208 -9.296,-0.107 -17.813,-0.159 -26.427,-0.16 z m 25.338,0.591 c -0.512,5.945 -1.185,12.574 -0.107,19.937 -3.405,-1.243 -4.204,0.881 -4.769,1.104 -0.641,-1.429 -3.014,-3.9 -5.702,-0.995 -1.397,1.51 -0.718,4.351 2.525,5.632 -3.714,0.285 -5.644,-2.889 -6.295,-6.162 -2.007,-1.285 -4.117,-2.555 -4.318,-7.06 l 1.029,0.172 c -0.342,3.143 2.924,4.744 4.835,3.244 1.236,-0.947 1.368,-2.408 0.881,-4.677 0.992,-0.203 3.317,-1.177 2.703,-4.163 -0.849,-4.123 -5.084,-3.639 -7.019,-0.928 -1.608,-1.991 -4.557,-2.36 -5.74,0.731 -0.659,1.722 0.842,3.656 2.548,4.03 -3.788,0.726 -5.698,-4.496 -5.909,-8.031 l -1.569,-2.785 c 10.24,-0.06 14.718,-0.048 26.907,-0.048 z m -51.29,0.102 7.6,0.005 55.466,71.775 0.116,17.869 z m 19.215,0.005 1.211,0.015 c 0.949,6.317 4.582,10.891 10.797,13.117 0.323,5.161 2.811,12.172 12.255,14.541 -0.278,5.828 3.466,11.397 7.474,14.066 0,0 -1.082,0.268 -1.928,0.349 -5.389,-4.273 -6.717,-10.564 -7.251,-13.16 -0.182,-0.375 -0.696,-0.466 -1.104,-0.557 -4.612,-1.629 -8.493,-5.417 -10.08,-10.041 l -0.998,-4.539 c 0.002,-0.583 -0.116,-0.309 -1.487,-0.814 -3.557,-1.309 -6.846,-5.158 -8.322,-9.755 -0.776,-2.417 -0.567,-3.221 -0.567,-3.221 z m -4.887,0.015 4.258,0.005 c 0,0 0.025,0.751 0.087,1.24 0.573,4.526 4.637,10.206 8.782,12.09 0.586,0.267 1.403,0.641 1.594,0.819 1.159,7.419 4.522,11.888 11.62,14.948 0.113,0.117 0.433,0.191 0.528,0.339 0.968,4.588 3.083,9.907 7.106,12.831 l -1.739,0.179 z m 20.798,7.787 c 0.963,0 1.744,0.781 1.744,1.744 0,0.963 -0.781,1.739 -1.744,1.739 -0.963,0 -1.744,-0.776 -1.744,-1.739 0,-0.963 0.781,-1.744 1.744,-1.744 z m -58.764,9.515 c 0.101,0.252 -23.814,20.481 -21.487,58.542 l -0.693,0.775 0.189,0.271 c -0.79,0.896 -1.55,1.616 -2.412,2.49 4.959,3.161 13.603,6.61 13.63,6.52 l -1.652,3.827 10.332,3.337 -1.385,3.638 c 0,0 -7.188,-2.383 -10.167,-3.376 -1.47,3.259 -2.359,6.7 -3.429,10.09 -0.101,0.273 -0.336,0.142 -0.702,-0.388 -5.367,-9.153 -16.39,-15.757 -16.018,-15.103 l -39.089,37.089 -0.266,22.921 27.052,27.881 c 0,0 -7.829,3.852 -11.533,6.379 2.881,2.351 6.141,4.161 9.005,6.384 5.924,4.178 9.922,10.319 13.761,14.478 18.107,-8.977 36.341,-8.477 52.09,-3.027 -1.835,1.93 -3.882,3.603 -5.774,5.696 4.578,12.011 3.113,35.864 2.882,36.512 9.53,-9.735 23.707,-30.611 21.816,-60.004 l 4.011,-4.02 c -0.073,-0.206 -10.033,-5.537 -14.183,-6.698 l 1.148,-3.653 -9.939,-3.105 1.109,-2.901 9.901,2.868 c 1.875,-4.602 3.86,-11.049 3.86,-11.049 3.954,5.915 8.312,11.295 17.282,16.769 l 38.866,-37.185 -0.252,-23.909 -26.461,-26.461 11.015,-5.74 c -1.058,-0.854 -2.593,-1.664 -3.681,-2.519 l 0.14,-0.305 c -0.276,-0.213 -0.479,-0.385 -0.76,-0.581 l -0.325,0.199 c -3.738,-2.621 -7.477,-5.2 -10.419,-8.336 l -0.039,-0.484 c -1.529,-1.634 -3.051,-3.154 -4.606,-4.761 -0.721,-0.728 -1.913,-2.456 -1.913,-2.456 l -0.068,-0.572 -1.671,-2.102 c -5.381,3.174 -28.324,11.141 -50.525,2.32 l 4.219,-4.219 c -1.123,-2.71 -1.851,-5.734 -2.141,-8.21 -1.161,-9.932 -0.717,-27.818 -0.717,-27.818 z m 69.983,5.624 c 1.016,0 1.841,0.825 1.841,1.841 0,1.016 -0.825,1.841 -1.841,1.841 -1.016,0 -1.836,-0.825 -1.836,-1.841 0,-1.016 0.82,-1.841 1.836,-1.841 z m 5.757,2.189 c 0.937,4.575 2.997,11.217 5.049,15.695 l -2.445,0.271 c -1.991,-1.293 -4.095,-3.181 -4.316,-5.858 -5.383,0.041 -6.958,-8.402 -4.991,-7.389 -0.251,2.884 1.818,4.021 3.849,3.738 1.748,-0.244 3.259,-2.657 1.179,-5.322 0.924,-0.36 1.377,-0.631 1.675,-1.136 z m -76.292,13.529 c 0.357,5.85 1.505,10.117 2.577,14.536 L 98.113,90.437 c 0.83,-9.161 3.52,-17.347 8.06,-24.572 z m 51.014,19.268 1.351,1.938 c -15.372,9.027 -41.608,9.665 -57.592,2.054 l 2.122,-2.02 c 14.055,6.347 36.938,6.818 54.119,-1.971 z m -99.835,3.013 c -1.549,-0.019 -3.336,0.572 -5.231,2.015 -7.052,-3.213 -11.67,4.297 -7.309,9.271 -0.646,3.58 -1.134,4.247 1.56,7.871 -2.862,0.364 -6.474,-0.384 -9.547,-0.857 0.519,5.302 8.111,6.536 11.271,5.953 3.412,-0.74 6.631,0.949 6.772,0.988 2.006,0.56 3.253,1.526 5.231,1.991 3.263,0.776 8.041,-3.048 8.733,-6.68 0.065,-0.488 0.216,-0.93 -0.053,-1.003 -2.231,0.57 -4.681,1.375 -6.854,1.85 -2.128,0.522 -3.732,1.037 -5.352,2.306 l -0.136,-4.379 c 11.047,0.526 6.239,-9.978 5.614,-10.429 2.053,-4.144 -0.416,-8.845 -4.698,-8.898 z m 100.411,0.329 2.402,5.779 -6.384,2.165 -1.632,-5.657 z M 56.892,88.649 c 3.755,0.036 7.113,3.991 3.507,8.418 6.991,6.165 -1.968,12.772 -6.234,8.186 -5.679,5.201 -11.712,-0.231 -8.54,-5.895 -6.056,-5.42 1.413,-12.689 6.515,-8.007 1.253,-1.926 3.045,-2.719 4.752,-2.703 z m 43.594,2.117 c 0.899,0 1.627,0.729 1.627,1.627 0,0.899 -0.729,1.627 -1.627,1.627 -0.899,0 -1.627,-0.729 -1.627,-1.627 0,-0.899 0.729,-1.627 1.627,-1.627 z m -41.593,0.121 c -0.093,0.001 -0.204,0.043 -0.325,0.15 -0.182,0.017 -0.577,0.696 -1.569,1.845 -1.724,1.998 -1.91,2.017 -1.91,2.017 -1.837,-0.601 -3.065,-0.276 -4.275,0.489 0,0 -1.38,-0.261 -3.284,-1.852 -0.868,-0.726 -1.336,-0.883 -1.487,-0.494 -0.161,0.415 0.233,0.823 1.899,1.957 2.305,1.568 2.162,1.449 2.162,1.449 -0.143,1.378 0.081,2.499 0.602,3.542 0,0 -0.406,0.979 -2.043,3.122 -0.463,0.606 -0.842,1.265 -0.843,1.463 -0.003,0.834 0.724,0.273 2.398,-1.841 0.656,-0.829 1.556,-2.015 1.556,-2.015 1.965,0.681 2.654,0.267 3.886,-0.171 0,0 0.422,0.314 1.494,1.168 1.961,1.563 2.385,1.73 2.626,1.531 0.324,-0.267 0.281,-0.354 -0.46,-0.891 -2.212,-1.601 -2.973,-2.527 -2.973,-2.527 0.45,-1.752 -0.042,-3.201 -0.524,-4.115 0,0 0.035,-0.223 1.283,-1.617 0.917,-1.024 2.172,-2.64 2.092,-2.872 0.021,-0.145 -0.101,-0.341 -0.305,-0.339 z m 45.265,0.354 5.75,1.787 -1.269,5.977 -6.127,-1.976 z m 41.608,1.468 1.603,5.832 -5.982,1.589 -0.978,-6.19 z m 4.2,0.097 c 0.899,0 1.627,0.729 1.627,1.627 0,0.899 -0.728,1.627 -1.627,1.627 -0.899,0 -1.627,-0.729 -1.627,-1.627 0,-0.899 0.729,-1.627 1.627,-1.627 z m 13.596,0.208 5.028,4.476 -5.58,2.819 -2.688,-5.832 z m -47.411,1.293 5.842,0.688 -0.237,6.277 -6.704,-0.896 z m -20.266,0.068 6.5,2.853 -2.344,6.549 -6.655,-2.858 z m 16.755,0.509 c 2.396,0.375 1.751,3.202 0,3.255 -0.899,0 -1.627,-0.729 -1.627,-1.627 0,-0.899 0.729,-1.627 1.627,-1.627 z m 21.017,0.005 0.799,6.282 -6.064,0.368 -0.131,-6.384 z m 4.17,0.717 c 0.899,0 1.627,0.729 1.627,1.627 0,0.899 -0.729,1.627 -1.627,1.627 -0.899,0 -1.627,-0.729 -1.627,-1.627 0,-0.899 0.728,-1.627 1.627,-1.627 z m -84.426,0.589 c 0.927,0 1.681,0.749 1.681,1.676 0,0.927 -0.753,1.681 -1.681,1.681 -0.927,0 -1.676,-0.754 -1.676,-1.681 0,-0.927 0.749,-1.676 1.676,-1.676 z m 71.813,-0.061 c 0.899,0 1.627,0.729 1.627,1.627 0,0.899 -0.729,1.627 -1.627,1.627 -0.899,0 -1.627,-0.729 -1.627,-1.627 0,-0.899 0.728,-1.627 1.627,-1.627 z m 28.564,0.402 2.364,6.457 -6.626,2.136 -1.875,-6.631 z m 4.65,0.174 c 0.899,0 1.627,0.729 1.627,1.627 0,0.899 -0.729,1.627 -1.627,1.627 -0.899,0 -1.627,-0.729 -1.627,-1.627 0,-0.899 0.729,-1.627 1.627,-1.627 z m 11.455,1.831 4.282,3.027 -2.122,1.182 c -0.556,-1.331 -1.538,-2.909 -2.16,-4.209 z m -61.206,0.586 6.321,1.371 -0.964,6.621 -6.897,-1.376 z m -18.799,0.363 3.357,1.579 -2.214,5.517 -5.43,-2.892 z m 15.006,0.358 c 0.899,0 1.627,0.729 1.627,1.627 0,0.899 -0.729,1.627 -1.627,1.627 -0.899,0 -1.627,-0.729 -1.627,-1.627 0,-0.899 0.729,-1.627 1.627,-1.627 z m 36.507,0.363 1.129,6.621 -7.13,1.003 -0.441,-6.752 z m 26.694,0.126 c 0.899,0 1.627,0.729 1.627,1.627 0,0.899 -0.729,1.627 -1.627,1.627 -0.899,0 -1.627,-0.729 -1.627,-1.627 0,-0.899 0.729,-1.627 1.627,-1.627 z m -5.057,0.048 2.359,5.837 -6.975,2.916 -2.063,-5.842 z m -17.786,0.421 c 0.899,0 1.627,0.729 1.627,1.627 0,0.899 -0.728,1.627 -1.627,1.627 -0.899,0 -1.627,-0.729 -1.627,-1.627 0,-0.899 0.729,-1.627 1.627,-1.627 z m -23.555,0.664 6.675,0.121 -0.077,6.694 -7.309,-0.203 z m 53.383,0.465 2.625,1.821 c -27.019,17.374 -64.974,19.528 -94.594,2.427 0,0 1.21,-1.206 1.899,-1.913 26.702,15.98 65.684,13.737 90.07,-2.335 z m -57.001,0.756 c 0.899,0 1.627,0.729 1.627,1.627 0,0.899 -0.728,1.627 -1.627,1.627 -0.899,0 -1.627,-0.729 -1.627,-1.627 0,-0.899 0.729,-1.627 1.627,-1.627 z m 13.703,0.368 c 0.899,0 1.627,0.729 1.627,1.627 0,0.899 -0.729,1.627 -1.627,1.627 -0.899,0 -1.627,-0.729 -1.627,-1.627 0,-0.899 0.729,-1.627 1.627,-1.627 z m -31.79,0.896 6.97,2.015 -1.187,5.503 -7.643,-2.199 z m -4.611,0.039 c 0.899,0 1.627,0.729 1.627,1.627 0,0.899 -0.728,1.627 -1.627,1.627 -0.899,0 -1.627,-0.729 -1.627,-1.627 0,-0.899 0.729,-1.627 1.627,-1.627 z m 54.139,1.172 1.666,6.176 -7.706,1.647 -0.93,-6.074 z m 4.427,0.896 c 0.899,0 1.627,0.729 1.627,1.627 0,0.899 -0.729,1.627 -1.627,1.627 -0.899,0 -1.627,-0.729 -1.627,-1.627 0,-0.899 0.729,-1.627 1.627,-1.627 z m -100.677,0.959 -0.015,4.33 c -1.278,-1.054 -2.722,-2.175 -4.2,-3.308 1.507,0.08 2.908,-0.336 4.214,-1.022 z m -15.873,0.107 c 0.352,-0.003 1.175,0.284 2.155,0.281 3.138,-0.01 9,0.969 10.734,2.393 0.578,0.473 1.443,0.893 1.913,1.657 -0.002,0.364 -0.517,0.374 -1.274,-0.097 -1.453,-0.902 -3.87,-1.707 -7.106,-2.155 -0.585,-0.081 -0.657,-0.057 -0.659,0.218 -0.002,0.34 0.539,0.539 2.243,0.819 2.205,0.362 2.674,0.578 3.163,0.712 1.309,0.359 0.473,0.838 -0.875,0.966 -5.502,0.515 -9.62,-1.852 -10.449,-4.556 -0.067,-0.177 -0.005,-0.236 0.155,-0.237 z m 76.643,0.097 6.922,0.896 -0.315,5.793 -7.576,-0.867 z m -58.861,0.504 c 1.209,0.949 0.377,3.827 -0.281,4.674 -0.426,0.476 -1.425,0.223 -1.419,-0.446 0.151,-0.601 -0.063,-3.463 0.068,-4.35 0.482,-0.274 1.192,-0.197 1.632,0.121 z m 80.213,0.257 0.358,5.972 -7.551,0.344 0.058,-5.866 z m -25.478,0.402 c 0.899,0 1.627,0.729 1.627,1.627 0,0.899 -0.729,1.627 -1.627,1.627 -0.899,0 -1.627,-0.729 -1.627,-1.627 0,-0.899 0.729,-1.627 1.627,-1.627 z m -42.078,0.082 c 0.279,4.383 -6.452,7.356 -8.971,6.011 -1.115,-0.596 -0.651,-0.963 1.56,-1.41 2.861,-0.757 4.745,-1.495 4.747,-2.03 0.002,-0.328 -0.432,-0.288 -1.598,0.145 -1.796,0.603 -3.662,0.862 -5.377,1.632 -1.282,0.582 -1.78,0.786 -2.068,0.436 -0.604,-0.733 2.244,-2.584 5.197,-3.076 2.216,-0.369 4.45,-1.55 6.51,-1.71 z m 71.721,0.547 c 0.899,0 1.627,0.729 1.627,1.627 0,0.899 -0.729,1.627 -1.627,1.627 -0.899,0 -1.627,-0.729 -1.627,-1.627 0,-0.899 0.728,-1.627 1.627,-1.627 z m -15.137,1.192 c 0.899,0 1.627,0.729 1.627,1.627 0,0.899 -0.729,1.627 -1.627,1.627 -0.899,0 -1.627,-0.729 -1.627,-1.627 0,-0.899 0.729,-1.627 1.627,-1.627 z m 36.265,2.766 c 10.893,10.372 22.832,22.312 32.681,32.133 -0.014,5.139 -0.044,15.418 -0.044,15.418 l -37.607,35.742 c -6.81,-4.157 -12.575,-9.354 -17.883,-18.585 0.598,-0.517 1.125,-0.845 1.579,-1.41 l -1.962,1.172 c -6.937,-11.095 -9.88,-33.201 1.904,-50.922 l -11.906,0.436 1.942,-4.054 12.962,-0.707 5.241,-5.624 c 0,0 1.661,-0.307 3.037,-0.625 1.365,-0.315 4.152,-1.112 6.195,-1.773 2.043,-0.66 3.782,-1.202 3.86,-1.201 z m -87.919,2.872 c 0,0 11.193,6.083 17.408,18.266 C 70.073,151.395 62.5,171.52 60.792,192.466 49.857,182.238 44.332,176.581 34.452,166.649 l 0.358,-14.822 z m 42.257,1.933 c -2.896,6.191 -5.388,12.974 -7.619,20.242 l -3.115,-0.92 c 0,0 2.015,-0.842 2.911,-1.376 l -1.618,-2.606 3.066,-1.259 -1.812,-2.209 3.11,-1.802 -1.555,-1.952 2.848,-1.424 -1.768,-2.034 2.989,-1.666 -1.56,-1.947 z m 0.954,0.015 0.872,0.17 c 0.113,-0.043 -0.561,1.622 -0.489,1.681 1.088,0.224 1.151,0.163 1.477,0.262 l 0.828,-1.715 1.361,0.257 c -2.746,6.197 -5.682,12.976 -7.367,20.315 l -1.603,-0.334 c 0,0 0.468,-1.547 0.47,-1.753 -0.188,-0.04 -1.091,-0.42 -1.371,-0.533 -0.096,0.242 -0.668,2.034 -0.668,2.034 l -1.269,-0.034 c 2.077,-8.013 5.698,-16.898 7.76,-20.349 z m 5.217,0.237 2.843,2.354 -3.226,1.255 1.671,2.223 -3.42,1.235 1.962,2.31 -3.386,1.25 2.02,2.795 -3.521,1.187 2.223,2.456 -3.177,1.487 1.904,1.884 c 0,0 -1.983,0.654 -2.097,0.683 -0.319,0.082 -1.652,-0.247 -1.652,-0.247 2.009,-7.151 4.491,-14.399 7.857,-20.872 z m -69.174,1.192 c -0.785,0.51 -0.337,1.619 -1.322,2.567 -0.157,0.17 -0.171,0.56 -0.232,0.901 -0.047,0.259 -0.825,3.353 -0.825,3.353 0,0 0.197,-0.236 0.508,-1.223 0.266,-0.842 0.497,-2.441 0.641,-2.708 0.726,-0.222 0.836,-2.59 1.572,-2.266 0.425,0.187 0.344,0.574 0.104,1.483 -0.524,1.815 -0.73,2.58 0.17,1.342 1.343,-1.617 1.475,-3.077 -0.039,-3.386 -0.159,-0.031 -0.484,-0.06 -0.576,-0.063 z m 20.315,0.673 -35.141,32.996 -0.107,12.313 12.23,12.395 8.68,8.414 c 3.151,-18.843 10.38,-36.819 28.176,-52.375 -2.727,-4.385 -7.398,-9.908 -13.839,-13.742 z m 94.724,0.339 c -20.648,9.704 -25.396,29.607 -19.002,47.624 9.84,-12.655 17.563,-24.545 19.002,-47.624 z m -73.489,1.008 9.377,3.018 -3.531,12.042 -8.443,-2.562 -0.862,-2.131 z m 72.453,0.315 c -0.897,16.103 -6.969,31.83 -17.534,44.17 -5.342,-13.179 -2.129,-34.249 17.534,-44.17 z m -50.506,0.087 -0.591,1.497 1.298,0.368 0.552,-1.521 z m -1.298,3.536 -0.533,1.521 1.332,0.45 0.499,-1.545 z m 55.316,0.276 c -2.89,22.336 -14.958,42.662 -27.706,53.02 4.063,6.59 8.839,10.828 13.693,14.367 l 35.912,-34.4 -0.14,-11.475 z m -94.899,5.929 c -0.221,0.817 -0.299,1.232 -0.299,1.232 0,0 0.414,-0.382 1.505,-0.979 7.056,-3.519 4.779,1.833 1.455,3.812 -0.743,0.396 -1.507,0.866 -1.507,0.866 0,0 0.706,0.16 1.471,0.302 4.282,0.89 3.371,3.395 -1.096,3.005 -0.66,-0.058 -1.436,-0.183 -1.436,-0.146 0,0.037 0.268,0.978 0.577,1.756 1.506,3.792 -1.303,4.087 -3.15,1.676 -0.257,-0.336 -0.84,-1.262 -0.84,-1.262 0,0 -0.182,0.701 -0.293,1.378 -1.596,5.944 -5.534,5.793 -4.064,-0.237 0.184,-0.623 0.408,-1.739 0.408,-1.739 0,0 -0.885,0.535 -1.849,0.965 -5.1,2.277 -5.927,-0.066 -1.295,-3.493 1.318,-0.975 1.765,-1.358 1.765,-1.358 -0.82,-0.063 -1.577,-0.188 -2.245,-0.356 -3.696,-0.927 -4.681,-3.137 1.241,-3.033 0.875,0.018 1.765,0.076 1.765,0.076 0,0 -0.292,-1.27 -0.6,-2.227 -1.428,-4.43 1.45,-4.958 3.879,-0.989 0.517,0.844 0.665,0.85 0.665,0.85 -0.075,0.003 0.153,-1.511 0.741,-2.912 2.94,-5.446 4.091,-0.475 3.203,2.813 z m 63.511,-4.408 c -2.467,4.358 -4.617,8.691 -5.643,13.209 l -9.595,-0.165 c 0.664,-4.006 2.359,-8.173 4.384,-12.579 3.906,-0.107 7.429,-0.278 10.855,-0.465 z m -25.333,1.933 -0.552,1.603 1.39,0.426 0.504,-1.56 z m -71.755,3.008 c -1.028,2.671 -1.372,5.646 -1.942,8.031 -0.241,1.382 0.004,1.958 0.833,2.267 1.179,0.44 2.88,-0.159 3.831,-1.521 0.536,-0.768 0.926,-2.354 1.008,-5.154 l 0.092,-2.495 c -1.458,-0.271 -2.454,-0.662 -3.822,-1.129 z m 70.457,0.349 -0.46,1.472 1.342,0.499 0.513,-1.487 z m 62.145,0.552 c 1.632,0.04 1.936,0.187 3.415,1.061 l 2.853,2.935 c -0.748,0.716 -1.216,1.722 -1.216,2.838 0,2.172 1.762,3.933 3.933,3.933 1.076,0 2.761,-1.133 2.761,-1.133 l 4.521,4.683 c -2.636,1.155 -5.217,-1.502 -6.187,-2.553 -0.228,-0.247 -0.286,-0.416 -0.286,-0.416 0,0 0.04,0.129 -0.054,0.649 -0.379,2.085 -2.436,8.239 -4.402,7.911 -2.215,-0.369 0.04,-9.166 0.064,-8.963 -1.522,1.61 -8.942,3.323 -8.422,1.526 1.032,-3.57 6.582,-4.946 7.312,-5.566 -2.951,-1.775 -6.692,-6.698 -4.292,-6.905 z m -132.244,0.116 c 0.94,0.066 1.585,0.179 2.223,0.446 0.298,0.08 0.311,0.328 0.344,0.562 0.006,1.054 0.27,4.149 -0.707,4.18 -1.085,-0.023 -2.104,0.21 -2.819,0.756 -0.575,0.439 -0.765,0.122 -0.61,-1.003 0.15,-1.089 0.692,-3.379 0.925,-4.306 0.037,-0.382 0.341,-0.652 0.644,-0.635 z m 29.319,0.039 c -2.172,0 -3.933,1.762 -3.933,3.933 0,2.172 1.762,3.933 3.933,3.933 2.172,0 3.933,-1.762 3.933,-3.933 0,-2.172 -1.762,-3.933 -3.933,-3.933 z m 0,1.376 c 1.411,0 2.558,1.146 2.558,2.558 0,1.411 -1.146,2.553 -2.558,2.553 -1.411,0 -2.558,-1.141 -2.558,-2.553 0,-1.411 1.146,-2.558 2.558,-2.558 z M 91.02,134.4 c 9.015,15.561 7.971,36.921 -2.658,52.459 l 11.426,-0.799 -1.502,2.926 -12.182,1.187 c -1.861,1.704 -3.555,3.651 -5.386,5.473 l -0.019,0.644 c -4.176,0.97 -8.356,2.086 -12.613,3.62 -2.247,-2.206 -6.473,-6.617 -6.446,-6.728 l 0.272,-1.428 c 28.972,-14.781 20.496,-44.424 18.457,-46.862 3.108,-3.732 6.818,-7.243 10.651,-10.491 z m 80.408,2.829 c 1.173,0 2.122,0.953 2.122,2.126 0,1.173 -0.948,2.126 -2.122,2.126 -1.173,0 -2.126,-0.953 -2.126,-2.126 0,-1.173 0.953,-2.126 2.126,-2.126 z m 9.445,0.572 3.56,3.667 c -0.462,0.456 -1.096,0.741 -1.797,0.741 -1.411,0 -2.558,-1.141 -2.558,-2.553 0,-0.728 0.305,-1.389 0.794,-1.855 z m -122.28,0.455 c 1.173,0 2.122,0.948 2.122,2.122 0,1.173 -0.948,2.126 -2.122,2.126 -1.173,0 -2.126,-0.953 -2.126,-2.126 0,-1.173 0.953,-2.122 2.126,-2.122 z m -15.81,0.891 c 0.995,0.333 0.763,1.262 -0.523,2.08 -0.832,0.529 -1.594,0.646 -2.326,0.254 -1.387,-0.742 1.49,-2.819 2.848,-2.335 z m 16.425,5.202 -12.802,12.385 c 0.806,-2.058 0.835,-4.11 0.896,-6.166 3.852,0.397 5.465,-1.557 4.902,-5.58 2.488,0.148 5.067,-0.114 7.004,-0.639 z m 20.513,1.414 c 5.936,16.926 0.78,34.838 -17.786,45.212 0.764,-16.219 7.572,-31.725 17.786,-45.212 z m 16.91,1.482 c 10.189,2.667 21.787,3.91 33.829,3.919 0.091,4.582 0.311,9.428 1.25,14.105 -10.258,-2.683 -21.715,-3.931 -34.231,-3.71 0.519,-4.843 -0.312,-10.336 -0.848,-14.313 z m 75.553,2.504 -10.85,12.686 0.455,-6.927 c 3.654,0.465 4.956,-1.462 4.417,-5.27 1.993,0.247 3.984,-0.102 5.977,-0.489 z m -105.429,0.702 -0.857,5.067 c -2.165,0.059 -4.291,0.828 -4.263,5.662 l -6.471,-0.077 z m 119.408,0.935 c 1.173,0 2.122,0.953 2.122,2.126 0,1.173 -0.948,2.126 -2.122,2.126 -1.173,0 -2.126,-0.953 -2.126,-2.126 0,-1.173 0.953,-2.126 2.126,-2.126 z M 56.912,152.03 c 1.173,0 2.126,0.953 2.126,2.126 0,1.173 -0.953,2.122 -2.126,2.122 -1.173,0 -2.126,-0.948 -2.126,-2.122 0,-1.173 0.953,-2.126 2.126,-2.126 z m 124.509,2.18 -1.133,7.673 c -2.956,-0.26 -5.423,0.196 -4.665,5.396 -2.501,-0.245 -5.975,0.346 -8.302,0.547 z m -10.593,1.39 c 1.173,0 2.126,0.953 2.126,2.126 0,1.173 -0.953,2.122 -2.126,2.122 -1.173,0 -2.126,-0.948 -2.126,-2.122 0,-1.173 0.953,-2.126 2.126,-2.126 z m -129.493,1.647 c 1.173,0 2.126,0.953 2.126,2.126 0,1.173 -0.953,2.122 -2.126,2.122 -1.173,0 -2.122,-0.948 -2.122,-2.122 0,-1.173 0.948,-2.126 2.122,-2.126 z m 7.048,2.514 c 2.714,0.609 1.458,6.935 0.848,8.656 -0.046,0.046 7.572,-3.991 8.026,-2.209 0.298,3.573 -6.307,6.064 -6.307,6.064 0,0 4.451,3.867 4.577,6.297 0.011,1.572 -1.861,1.281 -4.292,-0.712 -1.039,-1.021 -1.843,-1.785 -2.558,-2.495 0.835,-0.721 1.361,-1.79 1.361,-2.979 0,-2.171 -1.762,-3.933 -3.933,-3.933 -1.199,0 -2.272,0.538 -2.993,1.385 -0.564,-0.543 -1.202,-1.176 -2.059,-1.986 -1.404,-1.313 -2.389,-2.356 -2.248,-2.829 1.852,-1.304 5.537,2.2 5.866,2.519 -0.276,-0.683 1.762,-7.416 3.71,-7.779 z m -3.71,7.779 0.063,0.058 -0.063,-0.058 z m 115.698,-2.838 c 1.291,-0.018 1.211,2.92 0.751,4.447 -0.314,1.164 -0.625,2.117 -0.625,2.117 0,0 1.088,-0.85 1.569,-1.075 3.513,-1.645 4.823,0.218 3.052,2.378 -0.851,1.111 -2.012,1.358 -2.955,2.291 1.343,0.061 2.885,0.359 4.045,1.041 0.902,0.539 1.61,1.193 1.608,1.598 -0.004,0.908 -2.234,1.398 -4.321,1.163 -0.888,0.019 -2.558,-0.455 -2.558,-0.455 0,0 0.692,1.165 0.945,1.86 0.779,2.162 0.506,4.693 -0.62,4.689 -1.884,-0.504 -2.804,-2.598 -3.541,-4.103 -0.605,1.677 -1.191,3.471 -2.538,4.718 -1.336,1.236 -2.021,0.21 -1.952,-1.884 0.027,-0.833 0.639,-3.318 0.639,-3.318 -7.914,2.672 -7.326,-0.943 -1.15,-4.108 -3.804,-1.814 -6.115,-3.446 0.355,-3.816 -0.171,-0.155 -1.301,-3.62 -0.092,-4.432 1.123,-0.754 3.518,1.836 3.633,1.962 -0.048,-0.256 0.631,-2.285 1.768,-3.686 0.872,-0.987 1.519,-1.379 1.986,-1.385 z m -7.295,7.542 0.019,0 -0.019,0 z m 34.643,-2.289 c -1.378,0.126 -2.235,1.348 -2.873,2.415 -0.129,0.216 -0.368,0.293 -0.457,0.579 -0.571,1.839 -1.07,4.041 -1.375,6.783 0.873,0.359 2.843,0.965 3.714,0.639 0.245,-0.103 0.169,-0.736 0.252,-0.945 1.374,-3.459 2.053,-6.046 2.053,-7.635 0,-1.281 -0.441,-1.915 -1.315,-1.835 z M 46.116,169.798 c 1.411,0 2.558,1.146 2.558,2.558 0,0.811 -0.379,1.533 -0.969,2 -1.647,-1.643 -2.49,-2.503 -3.594,-3.584 0.469,-0.593 1.192,-0.974 2.005,-0.974 z m 142.09,1.218 c 0.346,0.839 -0.765,1.75 -2.202,1.744 -0.855,-0.003 -1.133,0.117 -0.753,-0.624 0.453,-0.901 2.293,-2.726 2.955,-1.121 z m -19.282,-0.593 c 1.173,0 2.126,0.953 2.126,2.126 0,1.173 -0.953,2.122 -2.126,2.122 -1.173,0 -2.126,-0.948 -2.126,-2.122 0,-1.173 0.953,-2.126 2.126,-2.126 z m -112.089,0.15 c 1.173,0 2.126,0.948 2.126,2.122 0,1.173 -0.953,2.126 -2.126,2.126 -1.173,0 -2.122,-0.953 -2.122,-2.126 0,-1.173 0.948,-2.122 2.122,-2.122 z m 100.527,0.862 c -2.172,0 -3.933,1.762 -3.933,3.933 0,2.172 1.762,3.933 3.933,3.933 2.172,0 3.933,-1.762 3.933,-3.933 0,-2.172 -1.762,-3.933 -3.933,-3.933 z m -52.564,0.528 c -1.034,4.532 -2.626,8.864 -4.635,13.151 -3.792,0.229 -7.89,0.406 -10.593,0.79 4.502,-7.885 4.611,-9.739 6.277,-13.916 z m 6.515,0.639 c 1.065,0.126 2.232,0.287 3.284,0.489 -1.935,6.812 -4.494,13.806 -7.798,20.538 l -2,-0.31 -0.949,-1.172 3.177,-1.269 -2.475,-2.528 4.103,-1.24 -2.524,-2.49 4.054,-1.012 -2.17,-2.635 3.638,-1.419 -2.31,-2.984 3.875,-1.066 z m 46.05,0.208 c 1.411,0 2.558,1.146 2.558,2.558 0,1.411 -1.146,2.553 -2.558,2.553 -1.411,0 -2.558,-1.141 -2.558,-2.553 0,-1.411 1.146,-2.558 2.558,-2.558 z m -42.039,0.388 1.351,0.218 -0.417,1.448 1.54,0.329 0.499,-1.565 c 0,0 1.239,0.114 1.371,0.213 -1.613,6.576 -7.319,20.339 -7.392,20.266 l -1.468,-0.218 0.388,-1.39 -1.366,-0.194 0,-0.015 -0.659,1.511 -1.458,-0.121 c 3.532,-8.061 5.937,-14.249 7.61,-20.484 z m 71.794,0.523 c 1.083,-0.005 1.018,0.554 0.232,2.596 -0.738,1.919 -1.014,2.688 -1.372,2.937 -0.854,0.606 -2.693,0.098 -2.544,-0.786 0.484,-2.868 0.656,-4.09 1.396,-4.48 0.771,-0.152 1.523,-0.264 2.288,-0.268 z m -66.359,0.237 3.526,0.683 -2.95,1.753 1.875,2.189 -3.623,1.545 2.199,2.277 -3.497,1.429 2.126,2.504 -3.628,1.531 2.47,2.141 -4.078,1.288 1.545,2.373 -1.535,0.857 -1.894,-0.295 c 3.144,-7.334 5.164,-13.366 7.464,-20.276 z m 8.665,1.753 6.907,1.879 1.38,2.465 -3.24,10.942 -9.203,-2.703 z m -13.727,1.056 -0.659,1.797 1.521,0.315 0.586,-1.85 z m -1.337,4.127 -0.659,1.797 1.429,0.281 0.673,-1.816 z m -1.347,3.628 -0.673,1.787 1.39,0.286 0.664,-1.792 z m 64.895,3.289 c 0.002,0 -0.705,0.511 -0.891,0.738 0.154,0.41 0.599,1.04 0.533,1.454 -0.061,0.311 -0.408,0.562 -0.929,1.117 -1.3,1.514 -1.758,1.349 -1.003,-0.266 0.248,-0.508 0.358,-0.978 0.358,-0.978 -0.301,0.421 -0.527,0.92 -0.731,1.315 l -0.829,1.606 c 0.828,0.286 1.379,0.902 1.913,1.301 0,0 0.272,-0.732 0.46,-1.433 0.262,-0.977 0.78,-1.379 1.414,-1.715 0.4,-0.212 0.782,-0.598 0.782,-0.598 -0.699,-0.712 -0.779,-1.731 -1.08,-2.541 z m -66.333,0.441 -0.712,1.904 1.385,0.339 0.77,-1.942 z m -78.149,4.786 c -0.126,7.58 0.125,12.571 -0.14,20.746 l 20.523,26.597 -3.202,1.075 c 0,0 -0.035,0.369 -0.208,0.417 -4.386,1.206 -11.499,2.407 -11.499,2.407 5.291,12.08 8.722,27.187 6.355,42.276 l 53.117,-0.14 z m 112.336,12.846 -1.831,1.836 C 116.918,193.1 79.713,193.158 52.563,210.859 l -2.214,-1.623 c 29.632,-18.984 66.088,-18.865 95.412,-3.352 z m -111.343,-10.186 62.518,89.808 -7.343,0.107 -55.122,-72.109 z m 134.167,1.623 c 0,0 -1.806,0.468 -3.323,0.954 -4.344,1.391 -6.376,3.903 -5.977,7.392 0.118,1.031 0.385,1.016 2.155,-0.102 4.143,-2.615 4.402,-2.731 9.562,-4.243 0.399,-0.117 0.978,-0.029 0.978,-0.029 l -0.228,4.074 c -8.601,-0.032 -8.131,6.8 -5.657,10.351 -0.866,1.642 -2.761,7.376 3.478,9.557 3.112,0.62 6.408,-1.909 6.307,-2.039 5.74,2.715 12.402,-1.837 7.207,-9.721 1.953,-3.439 0.576,-5.991 -1.288,-8.186 0,0 0.315,0.027 3.032,0.528 4.122,0.76 5.696,0.625 5.696,0.625 0.005,-3.709 -3.067,-5.367 -9.474,-5.871 -4.538,0.64 -12.468,-3.321 -12.468,-3.289 z m -69.207,0.431 c 0.31,-0.002 0.617,-0.002 0.925,0.005 l -0.3,6.336 -6.98,0.32 -0.455,-6.311 c 2.404,-0.166 4.638,-0.341 6.81,-0.349 z m 8.365,0.155 7.488,0.911 -1.133,5.924 -6.897,-0.741 z m 60.581,0.068 c 0.769,-0.017 0.602,0.782 -0.3,0.959 -1.346,0.264 -4.798,2.273 -4.8,2.795 -0.002,0.336 0.17,0.288 1.434,-0.388 0.632,-0.338 1.95,-0.913 2.926,-1.284 0.976,-0.371 2.091,-0.818 2.48,-0.993 1.161,-0.524 1.736,-0.162 1.317,0.828 -0.276,0.655 -0.386,0.706 -3.076,1.56 -2.434,0.772 -2.881,0.972 -4.427,1.962 -0.577,0.369 -1.599,0.959 -2.272,1.308 -1.59,0.823 -1.913,0.827 -1.908,-0.281 -0.087,-3.282 3.543,-5.744 8.462,-6.452 l 0.165,-0.015 z m -64.654,0.77 c 0.936,0 1.695,0.759 1.695,1.695 0,0.936 -0.759,1.695 -1.695,1.695 -0.936,0 -1.695,-0.759 -1.695,-1.695 0,-0.936 0.759,-1.695 1.695,-1.695 z m -18.527,0.45 0.557,5.75 -6.864,1.763 -1.569,-5.938 c 2.626,-0.643 5.25,-1.095 7.876,-1.574 z m 88.418,0.436 c 1.881,0.286 1.732,4.595 0.77,5.343 -1.481,1.066 -2.39,-1.164 -1.729,-4.122 0.186,-0.89 0.529,-1.2 0.959,-1.221 z m -84.523,0.232 c 0.936,0 1.695,0.759 1.695,1.695 0,0.937 -0.759,1.695 -1.695,1.695 -0.936,0 -1.695,-0.759 -1.695,-1.695 0,-0.936 0.759,-1.695 1.695,-1.695 z m 33.528,0.494 7.76,2.117 -1.899,6.006 -7.28,-2.049 z m -4.224,0.116 c 0.936,0 1.695,0.759 1.695,1.695 0,0.936 -0.759,1.695 -1.695,1.695 -0.936,0 -1.695,-0.759 -1.695,-1.695 0,-0.936 0.759,-1.695 1.695,-1.695 z m 63.477,0.504 c 3.343,0.035 7.752,1.712 7.76,4.296 -0.068,0.734 -7.003,-0.241 -10.206,-1.531 -1.136,-0.458 -2.521,-1.85 -2.519,-2.432 0.002,-0.346 0.678,-0.321 0.954,0.015 0.451,0.548 2.047,1.12 5.716,2.044 2.818,0.71 3.098,0.738 3.1,0.31 0.002,-0.389 -1.664,-0.926 -3.468,-1.225 -0.907,-0.148 -1.754,-0.422 -3.148,-0.542 -0.65,-0.002 -0.809,-0.41 -0.266,-0.688 0.591,-0.176 1.307,-0.255 2.078,-0.247 z m -5.905,1.337 c 0.843,0.396 1.148,1.183 1.613,1.598 -0.578,0.274 -0.837,0.55 -1.773,0.62 0.017,-0.619 -0.152,-1.357 0.16,-2.218 z m -101.617,0.465 c 0.936,0 1.695,0.759 1.695,1.695 0,0.936 -0.759,1.695 -1.695,1.695 -0.936,0 -1.695,-0.759 -1.695,-1.695 0,-0.936 0.759,-1.695 1.695,-1.695 z m -4.563,0.48 1.831,5.871 -6.558,2.853 -2.325,-5.817 c 2.267,-1.192 4.747,-2.058 7.053,-2.906 z m 30.327,0.959 c 0,0 5.225,0.007 7.028,0.029 l -0.421,6.626 -6.52,0.048 z m -6.98,0.363 0.363,6.617 -6.277,0.843 -1.24,-6.655 z m 39.69,0.058 c 0.936,0 1.695,0.759 1.695,1.695 0,0.936 -0.759,1.695 -1.695,1.695 -0.936,0 -1.695,-0.759 -1.695,-1.695 0,-0.936 0.759,-1.695 1.695,-1.695 z m 45.42,0.155 c 3.822,0.016 7.468,4.414 3.691,9.019 6.195,4.766 -0.54,12.777 -6.016,8.108 -7.83,7.691 -12.206,-2.752 -8.966,-5.522 -4.785,-7.863 1.094,-12.832 7.159,-9.363 1.117,-1.584 2.636,-2.249 4.132,-2.243 z m -63.981,0.189 6.888,1.531 -1.385,6.544 -6.728,-1.366 z m 22.795,0.16 6.297,3.129 -4.883,4.698 -3.628,-1.807 z m -40.373,0.741 c 0.936,0 1.695,0.759 1.695,1.695 0,0.936 -0.759,1.695 -1.695,1.695 -0.936,0 -1.695,-0.759 -1.695,-1.695 0,-0.936 0.759,-1.695 1.695,-1.695 z m 13.606,0.213 c 0.936,0 1.695,0.759 1.695,1.695 0,0.936 -0.759,1.695 -1.695,1.695 -2.495,-0.391 -1.824,-3.335 0,-3.391 z m -31.363,0.954 1.535,6.544 -6.379,2.155 -2.281,-6.374 z m 4.384,0.465 c 0.936,0 1.695,0.759 1.695,1.695 0,0.936 -0.759,1.695 -1.695,1.695 -0.936,0 -1.695,-0.759 -1.695,-1.695 0,-0.936 0.759,-1.695 1.695,-1.695 z m 94.429,3.018 c -0.48,0.596 -1.11,1.299 -1.11,1.299 -1.587,-0.654 -3.125,-0.393 -4.155,0.313 0,0 -1.094,-0.872 -2.092,-1.68 -1.731,-1.399 -2.308,-1.718 -2.31,-1.133 0,0.121 0.588,0.72 1.303,1.332 1.952,1.67 2.351,2.272 2.351,2.272 -0.469,1.516 -0.464,2.703 0.432,3.977 0,0 0.037,0.166 -0.648,0.889 -1.244,1.312 -2.526,3.337 -2.231,3.635 0.367,0.37 1.406,-0.517 2.711,-2.279 0.929,-1.256 1.209,-1.283 1.209,-1.283 1.585,0.428 2.464,0.815 4.049,-0.493 0,0 0.598,0.181 1.793,1.167 1.861,1.536 2.53,1.867 2.732,1.347 0.165,-0.425 -0.08,-0.709 -1.657,-1.908 -1.027,-0.781 -2.168,-1.696 -2.168,-1.696 0.335,-0.551 0.573,-2.507 -0.574,-3.846 0,0 0.045,0.088 1.742,-2.111 1.129,-1.463 1.325,-1.648 0.951,-1.962 -0.499,-0.653 -2.157,1.952 -2.325,2.16 z m -49.198,-1.875 6.215,2.611 -2.223,6.495 -6.001,-2.451 z m -68.379,0.436 c 0.936,0 1.695,0.759 1.695,1.695 0,0.936 -0.759,1.695 -1.695,1.695 -0.936,0 -1.695,-0.759 -1.695,-1.695 0,-0.936 0.759,-1.695 1.695,-1.695 z m 63.574,0.174 c 0.936,0 1.695,0.759 1.695,1.695 0,0.936 -0.759,1.695 -1.695,1.695 -0.936,0 -1.695,-0.759 -1.695,-1.695 0,-0.936 0.759,-1.695 1.695,-1.695 z m -67.914,0.465 2.034,5.037 -4.626,-3.449 z m 51,1.298 6.19,0.731 -0.978,5.9 -5.338,-0.484 z m -6.757,0.015 -0.063,6.064 -5.88,0.252 -0.499,-6.055 z m -30.254,1.104 c 0.936,0 1.695,0.759 1.695,1.695 0,0.936 -0.759,1.695 -1.695,1.695 -0.936,0 -1.695,-0.759 -1.695,-1.695 0,-0.936 0.759,-1.695 1.695,-1.695 z m -4.689,0.121 2.393,6.093 -3.71,1.792 -4.975,-4.708 z m 22.131,0.077 0.959,5.798 -6.132,1.516 -1.487,-5.9 z m 87.648,0.058 c 1.335,0 2.417,1.082 2.417,2.417 0,1.335 -1.082,2.417 -2.417,2.417 -1.335,0 -2.417,-1.082 -2.417,-2.417 0,-1.335 1.082,-2.417 2.417,-2.417 z m -71.75,0.184 c 0.936,0 1.695,0.759 1.695,1.695 0,0.936 -0.759,1.695 -1.695,1.695 -0.936,0 -1.695,-0.759 -1.695,-1.695 0,-0.936 0.759,-1.695 1.695,-1.695 z m 16.701,0.625 6.539,2.117 -2.199,5.236 -5.648,-1.531 z m -28.98,0.218 c 0.936,0 1.695,0.759 1.695,1.695 0,0.936 -0.759,1.695 -1.695,1.695 -0.936,0 -1.695,-0.759 -1.695,-1.695 0,-0.936 0.759,-1.695 1.695,-1.695 z m 24.863,0.625 c 0.936,0 1.695,0.759 1.695,1.695 0,0.936 -0.759,1.695 -1.695,1.695 -0.936,0 -1.695,-0.759 -1.695,-1.695 0,-0.936 0.759,-1.695 1.695,-1.695 z m -41.521,1.986 2.252,5.183 -6.152,2.659 -2.679,-5.285 z m 4.359,0.31 c 0.936,0 1.695,0.759 1.695,1.695 0,0.937 -0.759,1.695 -1.695,1.695 -0.936,0 -1.695,-0.759 -1.695,-1.695 0,-0.936 0.759,-1.695 1.695,-1.695 z m 22.664,1.565 c 10.099,-0.021 19.216,2.09 26.534,5.12 l -2.18,2.044 c -23.737,-8.157 -39.261,-4.482 -55.18,2.499 l -1.608,-1.986 c 11.252,-5.504 22.335,-7.656 32.434,-7.677 z m 26.854,0.063 c 0.936,0 1.695,0.759 1.695,1.695 0,0.936 -0.759,1.695 -1.695,1.695 -0.936,0 -1.695,-0.759 -1.695,-1.695 0,-0.936 0.759,-1.695 1.695,-1.695 z m -61.86,3.72 c 1.362,0.08 1.492,2.622 0.857,1.889 l -1.516,-1.753 c 0.246,-0.106 0.464,-0.147 0.659,-0.136 z m 63.458,1.051 c -0.05,1.927 -1.876,14.844 -8.036,23.725 -0.374,-4.492 -1.458,-9.862 -2.669,-13.446 0,0 6.629,-6.125 10.705,-10.278 z m -78.803,19.574 32.056,43.226 -3.366,-0.024 c -0.703,-3.174 -1.721,-6.422 -3.72,-8.85 -1.623,-1.971 -3.076,-3.456 -5.987,-4.781 -1.751,-0.796 -1.977,-0.627 -2.088,-1.971 -0.529,-7.56 -6.651,-12.315 -11.339,-14.124 -0.452,-4.57 -2.515,-9.065 -7.687,-12.85 z m -3.121,1.035 c 2.929,2.013 6.139,3.759 7.868,11.695 0.13,1.659 0.232,1.483 1.535,1.971 5.109,1.497 9.553,7.638 9.949,13.005 -0.004,1.619 0.524,1.763 2.519,2.601 2.45,1.029 4.993,3.205 6.433,5.348 2.141,3.08 2.897,7.744 2.712,7.522 l -1.763,0.01 c -1.258,-7.908 -6.233,-11.062 -11.495,-12.54 0.41,-11.164 -8.27,-14.648 -11.302,-15.172 0.178,-8.041 -5.025,-11.358 -8.382,-14.056 0.626,-0.246 1.926,-0.384 1.926,-0.384 z m -5.185,1.109 c 2.622,0.857 4.609,4.51 4.407,6.192 3.458,0.436 7.092,3.779 6.295,7.261 -0.256,0.148 -0.66,0.177 -1.06,-0.222 0.927,-6.756 -9.158,-3.411 -5.128,1.476 l -1.802,1.177 c -1.449,-6.761 -3.234,-10.591 -5.17,-15.475 0.706,-0.187 2.458,-0.409 2.458,-0.409 z m 8.35,14.165 c 0.896,0 1.618,0.727 1.618,1.623 0,0.896 -0.722,1.623 -1.618,1.623 -0.896,0 -1.623,-0.727 -1.623,-1.623 0,-0.896 0.727,-1.623 1.623,-1.623 z m 8.658,7.292 c 3.851,1.089 5.097,4.988 4.971,6.406 l -0.842,-0.019 c -1.354,-6.176 -8.394,-2.816 -5.455,2.109 -3.763,1.391 -3.466,4.864 -2.358,6.238 1.529,1.896 5.429,1.836 6.617,-1.081 3.659,4.733 8.706,-0.578 4.253,-4.989 3.647,1.343 4.232,6.23 3.684,7.756 1.693,0.577 3.644,3.264 3.383,3.249 l -27.328,0.005 c 0,0 1.323,-11.028 -0.082,-19.351 1.818,0.437 3.038,0.877 5.13,-1.579 3.385,2.803 5.819,0.688 5.643,-1.734 -0.26,-1.694 -1.135,-2.535 -2.587,-3.429 2.963,-0.728 5.204,4.397 4.972,6.42 z m 3.049,7.769 c 0.923,0 1.671,0.748 1.671,1.671 0,0.923 -0.748,1.671 -1.671,1.671 -0.923,0 -1.671,-0.748 -1.671,-1.671 0,-0.923 0.748,-1.671 1.671,-1.671 z"
         inkscape:connector-curvature="0" /></g></g></svg>