<?xml version="1.0" encoding="UTF-8" standalone="no"?>
<!-- http://code.google.com/p/vector-playing-cards/ -->

<svg
   xmlns:dc="http://purl.org/dc/elements/1.1/"
   xmlns:cc="http://creativecommons.org/ns#"
   xmlns:rdf="http://www.w3.org/1999/02/22-rdf-syntax-ns#"
   xmlns:svg="http://www.w3.org/2000/svg"
   xmlns="http://www.w3.org/2000/svg"
   xmlns:xlink="http://www.w3.org/1999/xlink"
   xmlns:sodipodi="http://sodipodi.sourceforge.net/DTD/sodipodi-0.dtd"
   xmlns:inkscape="http://www.inkscape.org/namespaces/inkscape"
   width="167.0869141pt"
   height="242.6669922pt"
   viewBox="0 0 167.0869141 242.6669922"
   xml:space="preserve"
   id="svg2"
   version="1.1"
   inkscape:version="0.91 r13725"
   sodipodi:docname="queen_of_hearts.svg"
   inkscape:export-filename="/home/byron/art/cards/final/PNGs/queen_of_hearts2.png"
   inkscape:export-xdpi="215.44792"
   inkscape:export-ydpi="215.44792"><metadata
     id="metadata43"><rdf:RDF><cc:Work
         rdf:about=""><dc:format>image/svg+xml</dc:format><dc:type
           rdf:resource="http://purl.org/dc/dcmitype/StillImage" /><dc:title /></cc:Work></rdf:RDF></metadata><defs
     id="defs41"><radialGradient
       inkscape:collect="always"
       xlink:href="#linearGradient3773"
       id="radialGradient3781"
       cx="-0.15782039"
       cy="-8.8345356"
       fx="-0.15782039"
       fy="-8.8345356"
       r="7.9997029"
       gradientTransform="matrix(-1.5842693,-0.02349808,0.03071979,-2.4775745,-0.24856378,-26.713507)"
       gradientUnits="userSpaceOnUse" /><linearGradient
       id="linearGradient3773"><stop
         style="stop-color:#000000;stop-opacity:1;"
         offset="0"
         id="stop3775" /><stop
         style="stop-color:#000000;stop-opacity:0.64885497;"
         offset="1"
         id="stop3777" /></linearGradient><radialGradient
       inkscape:collect="always"
       xlink:href="#linearGradient3773"
       id="radialGradient3957"
       cx="-0.15782039"
       cy="-8.8345356"
       fx="-0.15782039"
       fy="-8.8345356"
       r="7.9997029"
       gradientTransform="matrix(-1.5842693,-0.02349808,0.03071979,-2.4775745,-0.24856378,-26.713507)"
       gradientUnits="userSpaceOnUse" /><linearGradient
       id="linearGradient3959"><stop
         style="stop-color:#000000;stop-opacity:1;"
         offset="0"
         id="stop3961" /><stop
         style="stop-color:#000000;stop-opacity:0.64885497;"
         offset="1"
         id="stop3963" /></linearGradient><radialGradient
       r="81.902771"
       fy="509.47577"
       fx="168.02475"
       cy="509.47577"
       cx="168.02475"
       gradientTransform="matrix(1.2565605,-0.77740644,0.33663816,0.5361257,-221.20213,359.24256)"
       gradientUnits="userSpaceOnUse"
       id="radialGradient3975"
       xlink:href="#linearGradient3784-4"
       inkscape:collect="always" /><linearGradient
       id="linearGradient3784-4"><stop
         style="stop-color:#ffffff;stop-opacity:0.4351145;"
         offset="0"
         id="stop3786-8" /><stop
         style="stop-color:#000000;stop-opacity:0;"
         offset="1"
         id="stop3788-6" /></linearGradient><radialGradient
       inkscape:collect="always"
       xlink:href="#linearGradient3784-4-5"
       id="radialGradient3929"
       gradientUnits="userSpaceOnUse"
       gradientTransform="matrix(1.2565605,-0.77740644,0.33663816,0.5361257,-221.20213,359.24256)"
       cx="168.02475"
       cy="509.47577"
       fx="168.02475"
       fy="509.47577"
       r="81.902771" /><linearGradient
       id="linearGradient3784-4-5"><stop
         style="stop-color:#ffffff;stop-opacity:0.48854962;"
         offset="0"
         id="stop3786-8-0" /><stop
         style="stop-color:#000000;stop-opacity:0;"
         offset="1"
         id="stop3788-6-3" /></linearGradient><radialGradient
       inkscape:collect="always"
       xlink:href="#linearGradient3784-4-1"
       id="radialGradient3927"
       gradientUnits="userSpaceOnUse"
       gradientTransform="matrix(1.2565605,-0.77740644,0.33663816,0.5361257,-221.20213,359.24256)"
       cx="168.02475"
       cy="509.47577"
       fx="168.02475"
       fy="509.47577"
       r="81.902771" /><linearGradient
       id="linearGradient3784-4-1"><stop
         style="stop-color:#ffffff;stop-opacity:0.23664123;"
         offset="0"
         id="stop3786-8-03" /><stop
         style="stop-color:#000000;stop-opacity:0;"
         offset="1"
         id="stop3788-6-6" /></linearGradient><linearGradient
       id="linearGradient3768"><stop
         style="stop-color:#df0000;stop-opacity:1;"
         offset="0"
         id="stop3770" /><stop
         style="stop-color:#df0000;stop-opacity:0.67175573;"
         offset="1"
         id="stop3772" /></linearGradient><linearGradient
       id="linearGradient3784-4-6"><stop
         style="stop-color:#ffffff;stop-opacity:0.31297711;"
         offset="0"
         id="stop3786-8-8" /><stop
         style="stop-color:#000000;stop-opacity:0;"
         offset="1"
         id="stop3788-6-8" /></linearGradient><radialGradient
       r="81.902771"
       fy="492.63205"
       fx="159.35434"
       cy="492.63205"
       cx="159.35434"
       gradientTransform="matrix(1.0894779,-0.71513803,0.44645273,0.65626582,-244.93331,290.9185)"
       gradientUnits="userSpaceOnUse"
       id="radialGradient4013-8"
       xlink:href="#linearGradient3784-4-2"
       inkscape:collect="always" /><linearGradient
       id="linearGradient3784-4-2"><stop
         style="stop-color:#ffffff;stop-opacity:0.29007635;"
         offset="0"
         id="stop3786-8-1" /><stop
         style="stop-color:#000000;stop-opacity:0;"
         offset="1"
         id="stop3788-6-5" /></linearGradient></defs><sodipodi:namedview
     pagecolor="#ffffff"
     bordercolor="#666666"
     borderopacity="1"
     objecttolerance="10"
     gridtolerance="10"
     guidetolerance="10"
     inkscape:pageopacity="0"
     inkscape:pageshadow="2"
     inkscape:window-width="1440"
     inkscape:window-height="811"
     id="namedview39"
     showgrid="false"
     inkscape:zoom="2"
     inkscape:cx="0.014708861"
     inkscape:cy="138.25091"
     inkscape:window-x="0"
     inkscape:window-y="0"
     inkscape:window-maximized="1"
     inkscape:current-layer="svg2" /><g
     id="Layer_x0020_1"
     style="fill-rule:nonzero;clip-rule:nonzero;stroke:#000000;stroke-miterlimit:4;"><path
       style="fill:#FFFFFF;stroke-width:0.5;"
       d="M166.8369141,235.5478516c0,3.7773438-3.0869141,6.8691406-6.8710938,6.8691406H7.1108398c-3.7749023,0-6.8608398-3.0917969-6.8608398-6.8691406V7.1201172C0.25,3.3427734,3.3359375,0.25,7.1108398,0.25h152.8549805    c3.7841797,0,6.8710938,3.0927734,6.8710938,6.8701172v228.4277344z"
       id="path5" /><g
       style="stroke:none;"
       id="g7"><g
         id="g9" /></g><g
       id="g15" /><g
       id="g19" /><g
       style="stroke:none;"
       id="g23"><g
         id="g25" /></g><g
       style="stroke:none;"
       id="g31"><g
         id="g33" /></g></g><text
     xml:space="preserve"
     style="font-size:28.70453262px;font-style:normal;font-weight:normal;line-height:125%;letter-spacing:0px;word-spacing:0px;fill:#df0000;fill-opacity:1;stroke:none;font-family:Bitstream Vera Sans"
     x="0.20024458"
     y="24.898649"
     id="text3788"
     sodipodi:linespacing="125%"><tspan
       sodipodi:role="line"
       id="tspan3790"
       x="0.20024458"
       y="24.898649"
       style="font-style:normal;font-variant:normal;font-weight:normal;font-stretch:normal;fill:#df0000;fill-opacity:1;font-family:Arial;-inkscape-font-specification:Arial">Q</tspan></text>
<g
     transform="matrix(2.4604243,0,0,2.302723,48.047185,46.693226)"
     id="layer1-9-6"
     style="fill:#df0000;fill-opacity:1"><path
       style="fill:#df0000;fill-opacity:1"
       inkscape:connector-curvature="0"
       id="hl-8"
       d="M 3.676,-9 C 0.433,-9 0,-5.523 0,-5.523 0,-5.523 -0.433,-9 -3.676,-9 -5.946,-9 -8,-7.441 -8,-4.5 -8,-0.614 -1.4208493,3.2938141 0,9 1.35201,3.2985969 8,-0.614 8,-4.5 8,-7.441 5.946,-9 3.676,-9 Z"
       sodipodi:nodetypes="scsscss" /></g><g
     transform="matrix(1.1121828,0,0,1.0408972,11.308902,37.479724)"
     id="layer1-9-6-9"
     style="fill:#df0000;fill-opacity:1"><path
       style="fill:#df0000;fill-opacity:1"
       inkscape:connector-curvature="0"
       id="hl-8-17"
       d="M 3.676,-9 C 0.433,-9 0,-5.523 0,-5.523 0,-5.523 -0.433,-9 -3.676,-9 -5.946,-9 -8,-7.441 -8,-4.5 -8,-0.614 -1.4208493,3.2938141 0,9 1.35201,3.2985969 8,-0.614 8,-4.5 8,-7.441 5.946,-9 3.676,-9 z"
       sodipodi:nodetypes="scsscss" /></g><text
     xml:space="preserve"
     style="font-size:28.70453262px;font-style:normal;font-weight:normal;line-height:125%;letter-spacing:0px;word-spacing:0px;fill:#df0000;fill-opacity:1;stroke:none;font-family:Bitstream Vera Sans"
     x="-166.86617"
     y="-217.58284"
     id="text3788-8"
     sodipodi:linespacing="125%"
     transform="scale(-1,-1)"><tspan
       sodipodi:role="line"
       id="tspan3790-8"
       x="-166.86617"
       y="-217.58284"
       style="font-style:normal;font-variant:normal;font-weight:normal;font-stretch:normal;fill:#df0000;fill-opacity:1;font-family:Arial;-inkscape-font-specification:Arial">Q</tspan></text>
<g
     transform="matrix(-2.4604243,0,0,-2.302723,119.13638,198.18827)"
     id="layer1-9-6-4"
     style="fill:#df0000;fill-opacity:1"><path
       style="fill:#df0000;fill-opacity:1"
       inkscape:connector-curvature="0"
       id="hl-8-3"
       d="M 3.676,-9 C 0.433,-9 0,-5.523 0,-5.523 0,-5.523 -0.433,-9 -3.676,-9 -5.946,-9 -8,-7.441 -8,-4.5 -8,-0.614 -1.4208493,3.2938141 0,9 1.35201,3.2985969 8,-0.614 8,-4.5 8,-7.441 5.946,-9 3.676,-9 Z"
       sodipodi:nodetypes="scsscss" /></g><g
     transform="matrix(-1.1121828,0,0,-1.0408972,155.75752,205.00177)"
     id="layer1-9-6-9-1"
     style="fill:#df0000;fill-opacity:1"><path
       style="fill:#df0000;fill-opacity:1"
       inkscape:connector-curvature="0"
       id="hl-8-17-4"
       d="M 3.676,-9 C 0.433,-9 0,-5.523 0,-5.523 0,-5.523 -0.433,-9 -3.676,-9 -5.946,-9 -8,-7.441 -8,-4.5 -8,-0.614 -1.4208493,3.2938141 0,9 1.35201,3.2985969 8,-0.614 8,-4.5 8,-7.441 5.946,-9 3.676,-9 z"
       sodipodi:nodetypes="scsscss" /></g><g
     id="g4277"
     transform="matrix(0.71982994,0,0,0.77403797,3.0957483,1.833145)"><g
       id="g4279"><g
         id="g4283"><path
           id="path4285"
           d="M 192.703,24.81 29.617,24.892 30.599,286.73 194.267,286.388 C 193,199.088 192.88,111.954 192.703,24.809 Z m -19.24,2.204 17.2,0.087 0,100.754 c 0,0 -1.072,-0.031 -0.972,-0.736 0.133,-0.945 -0.012,-2.712 -0.674,-3.455 -0.279,-0.313 -0.735,-0.806 -0.914,-1.165 -0.452,-0.901 -1.195,-1.833 -1.79,-2.084 -0.296,-0.125 -0.639,-0.195 -0.683,-0.399 -0.042,-0.19 -0.138,-0.818 -0.265,-1.396 -0.316,-1.446 -0.598,-1.401 0.322,-2.839 3.188,-4.985 4.415,-9.572 4.013,-14.119 -0.126,-1.42 -0.482,-3.26 -0.65,-3.513 -3.081,3.088 -5.312,6.903 -7.408,9.722 -0.467,-4.028 -0.4,-7.067 -0.468,-10.296 1.645,-0.469 2.641,-1.345 3.349,-3.585 0,0 1.764,1.381 2.844,1.184 l -0.711,-2.602 c 4.718,-1.448 5.363,-7.605 -0.209,-8.906 l 0.502,-3.242 c 0,0 -1.681,0.563 -2.421,0.924 -0.368,0.155 -0.459,0.032 -0.717,-0.5 -2.598,-4.042 -6.633,-3.182 -8.412,0.804 l -2.175,-0.924 c 0.236,1.103 0.517,2.221 0.318,3.325 -4.566,2.033 -3.438,7.596 0.207,8.326 l -0.318,2.599 2.743,-0.885 c 0.4,1.221 0.195,1.927 2.387,3.301 -0.054,5.447 -0.142,8.852 0.029,13.692 -2.857,-2.926 -5.615,-4.958 -10.448,-6.449 0,0 -0.045,1.173 0.236,2.955 0.093,0.588 0.075,0.502 -0.202,0.5 -0.628,-0.014 -3.46,-4.567 -3.46,-4.567 0,0 -0.329,0.004 -0.616,0.289 -0.337,0.335 0.433,0.953 1.516,2.56 1.267,1.882 1.145,1.802 0.149,2.647 -5.659,4.802 -13.833,23.079 -12.46,24.857 -3.577,0.214 -17.522,7.051 -20.054,21.146 -0.15,0.635 -0.448,1.458 -0.448,1.458 l -4.033,-1.001 c 2.432,-11.545 7.921,-35.021 7.921,-35.021 0,0 3.859,-1.096 6.117,-1.338 l -0.024,-0.91 -5.313,1.237 0.255,-2.012 5.015,-0.987 -0.014,-0.476 -5.308,0.712 0.866,-3.349 c 0,0 -11.916,1.75 -16.184,1.622 0.27,13.025 -0.758,23.845 -0.204,37.882 l -5.826,-3.53 c -0.518,-9.773 -0.674,-34.457 -0.674,-34.457 l -16.086,-2.527 0.534,3.878 C 86.51,110.92 73.132,106.057 63.282,95.724 69.346,91.07 79.466,86.455 79.466,86.455 L 79.134,85.714 C 54.25,98.542 45.008,107.454 32.506,118.511 l -0.337,-91.409 67.914,-0.034 -0.226,16.671 c 0,0 -0.088,0.432 -0.217,0.582 -0.83,4.038 1.553,11.207 1.073,14.697 0.222,1.077 0.144,3.08 0.144,3.08 -4.055,5.554 -6.203,10.826 -8.008,17.282 -0.698,0.277 -1.727,0.848 -2.454,1.044 l -0.207,0.881 c 1.591,-0.874 6.102,-2.3 6.102,-2.3 20.097,9.797 34.865,7.399 50.671,0.12 -2.52,8.846 2.959,20.095 11.973,22.46 1.031,0.27 2.797,0.501 3.807,0.236 1.009,-0.291 -2.272,-7.799 -3.725,-8.08 -4.355,-1.886 -6.148,-6.318 -5.684,-11.401 l -0.722,-1.213 c -1.484,6.175 2.087,12.444 6.993,13.976 l 1.319,2.878 c -8.89,-2.667 -12.676,-10.991 -9.716,-19.221 0.052,-5.136 -3.276,-7.407 -4.803,-9.62 -7.731,-2.949 -9.168,-10.109 -7.816,-15.896 3.599,1.531 -2.425,-5.082 -2.425,-5.082 -2.651,5.742 -3.758,13 2.305,20.357 -3.923,5.197 -8.98,9.309 -14.635,12.82 -8.264,4.312 -14.464,1.407 -18.456,-8.143 -2.397,-5.734 -3.256,-11.449 -3.244,-17.436 0.014,-3.706 0.055,-3.819 1.444,-3.191 1.304,0.59 4.134,0.674 5.823,-0.197 2.302,-1.187 2.193,-0.465 -0.313,2.113 -0.682,0.701 -1.41,1.334 -1.41,1.468 -0.003,0.761 1.07,0.12 2.599,-1.396 0.558,-0.553 0.971,-1.086 1.145,-1.078 0.2,0.009 0.182,0.722 -0.048,1.492 -0.088,0.296 -0.369,1.545 -0.626,2.772 -0.257,1.227 -0.608,2.669 -0.78,3.205 -0.68,2.128 -0.495,3.115 1.546,4.098 1.076,0.518 2.917,2.283 2.901,2.283 0,0 -0.44,-1.935 -0.277,-2.557 0.196,-0.748 1.085,-0.219 1.991,0.214 2.003,0.957 3.168,0.984 4.243,0.087 1.483,-1.238 1.058,-4.02 -0.775,-4.745 -1.345,-0.532 -1.58,-0.04 -0.238,0.896 2.014,1.405 -0.257,3.576 -1.968,2.23 -1.338,-1.053 -3.661,-1.171 -3.921,-0.294 -0.245,0.829 -0.498,0.678 -1.425,0.137 -1.44,-0.841 -1.452,-0.988 -0.245,-5.631 2.284,-8.79 2.061,-12.017 -0.967,-14.688 -2.241,-1.977 -5.943,-2.895 -9.784,-0.698 l 0,-2.993 c 5.638,-2.253 9.739,-5.98 13.047,-12.219 l 0.645,0 c 3.293,7.13 8.616,12.251 18.629,16.006 3.912,3.863 -4.959,-11.095 -2.127,-4.971 -5.313,-2.058 -10.05,-6.046 -12.657,-11.035 l 1.449,0 c 1.526,2.205 4.619,6.229 10.126,9.009 0.5,0.418 0.982,-0.014 0.982,-0.014 0,0 -4.62,-7.238 -5.376,-8.961 l 46.156,-0.327 c -1.465,11.241 -3.527,23.457 4.59,45.351 -3.807,-1.999 -19.071,2.259 -16.384,3.101 1.349,-1.557 11.076,-3.854 18.273,-2.156 -0.595,-0.514 -10.976,-24.6 -4.938,-46.056 z m 4.938,46.056 0.029,0.005 -0.029,-0.005 z m -35.661,43.38 0.043,1.761 0.366,-0.087 -0.212,-1.713 z m -41.671,-89.383 2.026,0 c -0.445,0.915 -1.094,1.601 -2.084,2.166 z m 3.484,0 2.18,0 c -1.698,2.703 -3.504,4.34 -5.684,5.621 l 0.038,-2.118 c 1.26,-1.104 2.462,-2.245 3.465,-3.503 z m 3.605,0 2.012,0 c -2.73,4.194 -5.532,7.01 -9.12,8.792 l 0,-1.713 c 2.216,-1.723 5.358,-4.256 7.108,-7.079 z m 3.07,0 1.627,0 c -2.797,5.328 -6.697,9.008 -11.805,11.054 l 0,-1.28 c 5.594,-2.981 8.042,-6.309 10.178,-9.774 z m 4.447,0 1.954,0 c 2.681,5.327 8.25,10.366 14.365,12.575 l 0.934,2.161 c -8.061,-2.894 -13.401,-7.116 -17.253,-14.736 z m 5.655,0 1.396,0 c 1.467,2.045 3.245,3.706 5.323,5.087 l 1.266,2.45 c -2.804,-1.886 -5.934,-4.177 -7.984,-7.536 z m 2.546,0 1.559,0.082 2.065,3.441 c -1.376,-0.773 -2.417,-2.344 -3.624,-3.523 z m -1.79,13.831 c -2.138,-0.01 -4.083,0.58 -5.491,1.728 -1.488,1.213 -0.393,2.534 1.747,1.54 3.645,-1.693 7.833,-0.93 12.354,1.545 3.806,2.083 2.473,-0.088 -1.078,-2.406 -2.434,-1.61 -5.109,-2.395 -7.532,-2.406 z m -17.19,2.729 c 3.067,0.024 6.58,1.382 6.665,3.181 -2.034,-1.701 -6.122,-2.527 -10.044,-0.78 -0.3,-0.064 -0.342,-1.13 -0.164,-1.521 0.844,-0.623 2.148,-0.892 3.542,-0.881 z m 18.571,1.16 c -1.939,0 -3.714,0.507 -4.533,1.598 -0.419,0.517 -0.529,0.572 -0.991,0.496 -0.902,-0.15 -0.852,0.372 0.178,1.8 0.499,0.693 0.417,1.481 -0.25,2.421 -0.767,1.079 -0.617,1.12 1.665,2.214 1.745,0.849 3.146,2.054 4.731,3.046 1.132,0.639 1.358,0.077 0.313,-0.765 -0.359,-0.289 -1.422,-1.048 -2.377,-1.67 -1.619,-1.054 -2.808,-2.119 -1.521,-1.646 0.59,0.186 0.742,0.264 1.391,0.375 1.668,0.36 3.316,0.562 4.716,0.279 1.004,-0.201 2.312,-0.865 3.388,-1.795 0.275,-0.127 0.546,0.008 1.213,0.034 2.55,0.099 1.987,-0.649 -1.675,-2.647 -3.623,-1.976 -6.465,-2.337 -8.783,-1.251 -0.981,0.46 -1.543,0.574 -1.4,0.284 0.149,-0.303 0.421,-0.654 0.861,-0.91 3.746,-2.241 6.756,-0.383 10.058,1.299 1.417,0.844 1.8,1.064 1.968,0.794 0.216,-0.346 -1.58,-1.622 -3.99,-2.83 -1.413,-0.732 -3.251,-1.126 -4.962,-1.126 z m -11.976,2.595 c 0.634,0.248 0.35,0.973 -0.229,0.744 -3.459,-1.553 -4.153,-2.31 -8.277,-0.872 -1.362,0.475 -1.902,0.055 -0.23,-0.662 3.642,-1.524 6.286,-0.496 8.736,0.79 z m -2.371,1.827 c -0.937,4.759 -5.675,3.292 -5.14,0.024 l 0.871,0.005 c 0.068,2.874 2.948,2.855 3.441,0.029 z m 27.552,0.01 1.275,2.729 c -2.79,6.871 0.998,16.123 9.235,18.34 0,0 1.329,2.042 1.068,2.3 -15.465,-3.422 -14.275,-18.165 -11.579,-23.369 z m -14.649,0.178 0.433,0.024 c 1.336,3.317 3.275,1.411 3.653,0.01 l 0.987,0.024 c -0.301,3.435 -5.513,4.019 -5.072,-0.058 z m -11.921,0.096 c 0.626,-0.073 0.839,0.866 0.664,1.04 -0.048,0.048 -1.193,1.16 -1.333,0.505 -0.205,-0.958 0.409,-1.498 0.669,-1.545 z m -7.214,0.096 0.164,0.01 c 0.388,0.296 0.535,1.18 0.332,1.636 -0.23,0.238 -1.158,-0.087 -1.338,-0.443 -0.276,-0.52 0.048,-1.208 0.842,-1.203 z m 25.083,0.318 c 0.305,0.012 1.145,0.375 1.064,0.78 -0.021,0.103 -1.19,0.963 -1.453,0.823 -0.507,-0.27 0.194,-1.506 0.294,-1.583 l 0.096,-0.019 z m -6.834,0.149 0.019,0 c 0.09,0.067 0.837,0.532 0.202,1.391 -0.044,0.059 -0.891,-0.242 -0.905,-0.342 -0.069,-0.5 0.567,-1.014 0.683,-1.049 z m 18.74,6.025 c -0.189,3.949 0.841,7.784 5.154,10.246 l -0.929,-1.694 c -1.106,-0.881 -3.422,-3.394 -3.133,-6.386 z m -38.731,7.06 0.486,2.599 c -2.373,3.943 -4.175,7.819 -5.669,12.349 l -2.243,0.818 c 1.781,-5.713 3.427,-10.24 7.426,-15.766 z m 0.943,4.047 0.635,2.233 c -1.165,2.148 -2.411,4.573 -3.162,7.397 l -2.478,0.914 c 1.115,-3.741 2.746,-7.375 5.005,-10.544 z m 7.859,0.924 -0.111,0.014 c -0.026,0.44 -0.021,1.657 0.072,3.662 0.018,0.38 0.391,0.22 1.444,-0.318 0.918,-0.469 0.823,-0.543 1.713,-0.245 2.464,0.844 3.585,0.477 4.548,0.229 1.468,-0.378 2.068,-0.225 2.921,0.285 0.469,0.281 1.11,0.488 1.237,0.534 0.676,0.246 0.418,-0.051 -0.043,-1.877 -0.519,-2.053 -0.297,-2.278 -1.12,-1.743 -0.181,0.117 -0.703,0.406 -0.988,0.44 -0.717,0.084 -1.914,-0.795 -2.628,-0.516 -1.729,0.676 -1.713,0.498 -3.319,0.105 -0.803,-0.197 -1.571,0.292 -2.268,0.43 -0.398,0.05 -0.903,-1.005 -1.458,-1.001 z m 29.414,1.064 c 2.921,2.679 5.924,3.596 9.182,4.61 -0.393,1.332 -1.179,2.831 -1.545,4.572 -16.955,8.962 -33.993,8.68 -50.064,0.544 l 8.34,-3.186 c 4.556,7.891 10.397,9.998 16.964,7.416 7.338,-3.413 12.771,-8.162 17.123,-13.956 z m -36.228,1.579 0.722,1.935 -1.073,2.916 -2.045,0.828 c 0.392,-1.987 1.148,-3.619 2.397,-5.679 z m 15.323,2.243 c -0.507,0.024 -1.274,0.366 -3.022,0.375 -0.947,0.005 -1.688,-0.079 -2.055,-0.005 -0.762,0.154 0.128,0.494 1.834,0.982 1.705,0.485 3.788,-0.247 4.047,-0.987 0.063,-0.181 -0.162,-0.397 -0.804,-0.366 z m -14.125,0.953 0.448,0.982 -0.765,0.274 z m 45.079,0.553 1.266,2.883 c -2.193,4.746 -3.649,17.754 10.992,21.801 l 0.64,1.862 c -9.965,0.195 -19.951,-12.471 -12.897,-26.546 z m -33.524,0.982 c -1.431,-0.014 -2.929,0.341 -3.893,1.107 -0.872,0.69 0.194,1.125 1.328,0.573 1.469,-0.715 3.922,-0.656 5.361,0.245 1.101,0.75 1.675,0.618 0.938,-0.525 -0.578,-0.897 -2.113,-1.384 -3.735,-1.4 z m 63.924,3.239 c 3.827,-0.063 4.224,5.415 3.479,5.886 0.215,-0.073 0.869,-0.265 1.8,-0.241 2.804,0.073 4.266,1.624 4.428,3.879 0.163,2.272 -1.564,3.538 -4.081,3.412 -0.934,-0.047 -1.578,-0.141 -1.535,0.024 0.468,1.816 -0.097,4.553 -2.502,5.236 -0.276,0.079 -0.67,0.464 -0.679,0.602 -0.18,2.88 0.64,12.772 0.64,12.772 0,0 4.51,-7.58 5.525,-8.73 1.985,-2.71 2.344,-2.468 2.349,2.036 -0.329,6.247 -1.331,7.679 -5.01,12.922 -1.575,2.258 -5.304,1.072 -4.966,2.599 0.075,0.337 0.68,0.942 1.285,1.516 0.387,0.367 0.788,0.598 1.694,0.568 1.591,-0.053 2.21,-0.375 1.26,1.007 -0.752,1.094 -3.395,1.321 -3.693,1.89 -0.693,1.324 -0.219,1.031 -1.403,2.195 -0.906,0.993 -0.591,0.487 -0.178,1.304 0.648,1.054 0.378,3.159 -0.265,4.577 -0.524,1.155 -0.465,1.979 -0.465,1.979 0.01,0.096 1.472,-1.51 1.914,-3.365 0.367,-1.544 0.797,-2.318 0.794,-1.453 -0.004,1.09 0.186,2.572 1.169,3.138 0.778,0.447 0.89,0.894 0.76,1.444 -0.134,0.568 0.474,1.069 1.073,1.545 0.141,0.14 0.614,0.325 0.563,0.626 -0.16,0.949 0.225,2.065 0.917,2.246 0.308,0.153 2.272,-0.014 2.596,-1.12 -0.031,-0.352 -0.003,-1.803 -0.784,-1.887 -0.552,-0.254 -0.495,-0.406 0.342,-0.905 1.251,-0.746 2.159,-1.281 2.777,-1.396 0.827,-0.112 1.622,-1.011 1.622,-1.011 l 0.159,59.627 c -7.421,7.595 -15.555,15.155 -26.281,22.585 -6.233,-5.194 -13.044,-10.453 -20.275,-14.389 l -2.498,-1.477 0.895,-1.145 -4.336,-5.717 4.88,-3.927 1.237,1.564 -2.31,2.243 3.465,3.831 7.787,-7.594 -5.13,-4.909 2.671,-5 1.708,0.837 -1.29,3.171 3.903,2.469 4.885,-9.702 -6.194,-2.82 1.569,-6.516 1.911,0.202 -0.635,4.692 4.827,0.958 1.964,-11.064 -7.084,-1.266 0.602,-6.309 1.978,0.024 -0.289,3.489 5.005,0.712 0.943,-9.644 -6.944,-1.15 0.895,-7.445 1.588,0.226 -0.308,4.591 5.096,0.871 c 0.56,-3.114 1.017,-7.023 1.848,-10.077 l -6.564,-2.445 2.324,-6.251 1.477,0.515 -1.29,3.388 4.846,2.06 4.086,-8.061 -5.708,-4.038 c 1.279,-2.122 2.556,-4.138 4.384,-5.857 l 1.121,0.977 c 0,0 -0.411,0.371 -1.044,1.246 -0.769,1.063 -1.01,1.6 -0.905,1.877 0.104,0.273 3.63,2.877 3.898,2.878 0.311,0.001 1.481,-1.065 2.084,-1.781 0.645,-0.766 0.984,-0.84 1.651,-0.361 0.133,0.095 0.325,0.285 0.462,0.448 0.16,0.193 0.225,0.354 0.241,0.476 0.016,0.12 -0.018,0.201 -0.048,0.25 0.057,-0.054 0.18,-0.147 0.443,-0.294 0.479,-0.267 -0.928,-1.504 -2.079,-2.146 -3.442,-1.932 -7.491,-5.571 -8.427,-10.126 -0.343,-2.045 4.944,0.415 8.585,4.042 0.552,0.549 2.604,2.536 2.604,2.536 -0.299,-5.264 -0.728,-10.611 -0.496,-15.939 l -0.804,-0.558 c -1.125,-0.784 -1.558,-2.07 -1.66,-3.359 -0.071,-0.889 0.692,-1.343 -1.049,-1.285 -3.624,0.032 -5.721,-3.379 -3.523,-6.295 0.786,-1.091 4.128,-1.624 4.124,-1.598 -0.854,-3.487 1.711,-5.358 3.6,-5.534 z m -1.319,40.555 z m 4.798,-34.669 -0.101,0.034 0.101,-0.034 z M 62.631,96.002 c 10.121,8.52 16.578,14.253 37.177,20.67 l 0.51,3.051 C 88.473,116.989 75.552,111.453 60.191,97.691 Z m -3.046,1.968 c 6.408,5.982 12.977,10.539 19.625,14.361 l 2.334,1.405 -1.203,1.232 3.913,5.64 -5.034,4.105 -1.198,-1.194 2.628,-2.575 -3.739,-3.677 -7.618,7.71 5.222,4.63 -3.027,4.654 -1.097,-0.496 1.607,-3.244 -4.851,-2.647 -5.424,9.967 6.906,3.143 -1.559,6.117 -1.612,-0.082 0.544,-4.793 -5.193,-0.919 -1.747,11.199 6.68,1.049 -0.159,6.449 -1.781,-0.029 0.125,-3.643 -5.274,-0.245 -0.472,9.399 6.492,0.842 -0.645,7.628 -1.598,-0.409 0.178,-4.952 -4.947,-0.486 -1.704,10.53 6.675,1.906 -2.358,6.564 -1.449,-0.794 0.948,-3.388 c -1.217,-0.531 -4.639,-1.954 -4.639,-1.954 l -4.36,8.176 5.655,3.85 -3.479,6.112 -1.343,-0.9 2.401,-3.566 -4.697,-2.95 -2.676,3.653 c -1.136,-0.987 -3.177,-2.355 -3.956,-3.272 -0.832,-0.758 -1.465,-0.873 -2.536,-0.621 -0.845,0.199 -1.659,0.352 -1.473,0.053 0.092,-0.147 1.697,-1.227 4.148,-2.782 0.686,-0.435 1.226,-0.814 1.218,-1.203 -0.006,-0.29 0.371,-0.75 0.866,-1.049 0.548,-0.331 0.425,-0.639 0.337,-0.982 -0.474,-1.839 -0.175,-4.706 0.751,-6.636 0.62,-1.292 0.814,-1.524 0.409,-1.526 -1.193,0.153 -2.648,4.475 -2.926,5.693 -0.094,-0.097 -0.223,-1.236 -0.308,-1.675 -0.153,-0.792 -0.264,-1.283 -0.9,-1.434 -0.76,-0.181 -0.519,-0.545 -0.597,-1.117 -0.126,-0.927 -0.564,-1.515 -1.357,-1.843 -0.764,-0.316 -0.847,-0.443 -0.813,-1.203 -0.003,-0.597 -0.625,-1.608 -1.088,-1.93 l -2.647,0.934 c -0.208,0.699 0.069,1.605 0.505,1.935 1.33,1.252 -0.616,1.269 -1.949,2.084 -0.36,0.233 -0.791,0.74 -1.083,0.573 l -1.612,1.935 0.202,-60.652 c 7.092,-7.343 27.758,-22.657 27.758,-22.657 z m 107.194,10.727 1.02,1.131 c -3.164,3.561 -5.459,7.227 -7.989,11.704 -2.158,3.82 -4.023,9.168 -5,15.001 -0.754,3.57 -0.871,7.204 -1.338,10.857 -0.476,3.931 -0.566,9.223 -1.319,13.374 -1.389,11.383 -4.586,17.441 -11.536,23.899 -3.054,2.838 -12.557,8.199 -12.816,8.148 l -2.252,-0.558 c 19.484,-9.974 24.355,-16.853 26.464,-40.463 0.412,-29.622 13.886,-41.096 14.765,-43.091 z m 1.915,1.983 1.044,1.006 -5.688,8.032 5.607,3.951 -2.223,5.193 -1.699,-0.63 1.208,-3.542 -4.716,-1.988 -3.812,10.318 6.718,2.118 -1.107,6.723 -1.357,-0.366 0.005,-4.582 -4.986,-1.015 -1.449,11.526 7.344,1.02 -0.539,5.948 -1.737,-0.12 -0.067,-3.542 -5.096,-0.27 -1.165,9.991 7.233,1.227 -1.309,7.098 -1.54,-0.366 0.346,-4.683 -4.851,-0.64 -2.806,9.586 6.093,3.07 -2.998,6.146 -1.285,-0.895 1.66,-3.633 -4.74,-2.339 -4.577,7.931 4.966,4.885 -4.851,5.082 -1.083,-1.386 2.502,-2.695 -3.739,-3.701 -7.777,6.184 3.97,5.231 -0.467,0.659 -4.1,-1.646 -1.964,-2.594 -2.349,1.03 -1.853,-0.707 c 11.486,-6.023 18.96,-13.006 22.046,-23.538 1.695,-5.823 2.198,-12.177 2.748,-18.581 0.285,-3.326 0.582,-6.666 1.064,-9.952 0.566,-5.367 1.388,-9.872 3.566,-15.049 2.642,-6.279 5.852,-10.704 9.808,-15.496 z m -61.812,3.97 7.888,4.158 -0.115,2.762 -7.291,-3.653 z m 2.219,0.077 5.621,0.77 0.024,2.267 z m -25.338,0.072 3.282,1.477 2.782,3.21 2.084,-1.367 2.262,0.847 c -7.147,3.673 -13.488,8.068 -18.427,15.65 -5.503,8.449 -6.115,19.512 -6.819,30.189 -1.174,14.728 -3.7,25.074 -13.489,37.013 l -1.444,-0.91 5.284,-8.393 -5.958,-3.85 2.714,-4.962 1.372,0.472 -1.064,2.96 4.928,2.599 3.778,-10.578 -6.949,-2.166 1.165,-6.617 1.747,0.154 -0.462,4.74 4.966,0.784 1.424,-11.184 -6.694,-1.025 0.149,-5.91 1.641,0.159 -0.01,3.595 5.279,0.284 0.409,-10.203 -6.564,-0.727 0.808,-7.204 1.838,0.188 -0.423,4.322 5.053,0.722 2.397,-9.327 -6.564,-2.965 3.542,-6.3 1.593,0.732 -1.627,3.489 4.553,2.219 4.774,-7.296 -5.072,-4.87 4.981,-5.212 1.222,1.198 -2.705,3.109 3.749,3.465 7.421,-6.227 -3.624,-5.448 z m 47.206,0.346 -0.231,2.613 -7.907,4.49 -0.005,-2.56 z m 42.437,0.091 1.747,1.083 -1.266,1.502 -1.526,-0.963 z m -45.762,0.371 -4.736,2.733 0,-2.719 z m 55.844,2.551 c 0.247,0.006 0.474,0.059 0.65,0.173 0.476,0.311 0.408,1.077 -0.13,1.453 -0.701,0.49 -2.62,0.457 -2.81,-0.048 -0.274,-0.729 1.219,-1.603 2.291,-1.579 z m -75.58,1.078 6.795,3.667 -0.024,2.584 -6.54,-3.595 z m 22.137,0.082 -0.399,3.369 -6.997,3.71 -0.058,-2.921 z m -33.87,0.063 2.786,0.707 c -10.315,4.602 -20.51,11.277 -24.476,22.922 -1.238,3.485 -2.073,7.364 -2.617,12.33 -0.256,5.237 -0.931,10.392 -1.179,14.759 -0.504,8.893 -3.432,20.937 -13.544,33.732 l -0.967,-0.76 c 6.204,-7.644 9.428,-14.575 11.42,-21.897 3.156,-11.651 1.592,-24.51 4.957,-36.238 2.053,-7.135 6.315,-13.515 12.7,-19.033 4.443,-3.452 10.92,-6.521 10.92,-6.521 z m 4.683,0.977 0.048,0.01 c 2.504,8.431 5.597,23.798 5.597,23.798 -6.624,-3.204 -17.652,-2.618 -17.652,-2.618 0,0 -6.204,-8.004 -7.406,-8.662 4.962,-6.693 18.467,-12.48 19.414,-12.527 z m 85.297,1.328 c 1.526,-0.049 1.416,2.269 -0.515,3.845 -0.986,0.805 -1.443,0.692 -2.17,0.048 -0.214,-0.287 -0.835,-0.492 -1.29,-0.438 -1.082,-0.004 1.056,-2.242 2.96,-3.167 0.393,-0.191 0.733,-0.28 1.015,-0.289 z m -77.448,1.887 6.059,3.109 0.058,2.56 -5.607,-3.042 z m 20.54,0.346 -0.327,2.815 -6.309,3.282 0.034,-2.594 z m 59.04,1.049 c 0.21,-0.019 0.372,0.062 0.525,0.231 0.86,0.958 -0.774,3.86 -2.628,4.731 -0.711,0.334 -1.15,0.279 -1.742,-0.231 -0.288,-0.248 -0.714,-0.574 -0.958,-0.549 -1.061,0.109 -0.476,-1.081 0.38,-1.15 0.236,-0.019 1.721,-1.13 2.844,-2.065 0.753,-0.626 1.229,-0.935 1.579,-0.967 z m -6.41,1.131 c 1.339,-0.032 1.827,1.082 0.241,1.569 -1.129,0.346 -1.759,0.1 -1.757,-0.659 0.237,-0.78 0.92,-0.871 1.516,-0.91 z m -72.337,1.506 5.376,2.695 0.024,2.762 -4.938,-2.575 z m 19.236,0.38 -0.375,2.613 -5.789,2.974 0.014,-2.161 z m 60.681,1.097 c 0.366,0.023 0.474,0.431 0.472,1.155 -0.005,1.199 -0.799,2.307 -1.992,2.849 -0.874,0.397 -1.49,0.366 -1.925,-0.101 -0.198,-0.213 -0.474,-0.384 -0.616,-0.39 -1.87,-0.074 -1.569,-0.556 0.221,-1.304 0.63,-0.263 1.868,-1.121 2.454,-1.54 0.66,-0.471 1.101,-0.687 1.386,-0.669 z m -6.863,0.852 c 0.917,0.004 1.725,0.651 1.218,1.068 -0.394,0.325 -1.874,0.482 -2.166,0.188 -0.554,-0.558 -0.061,-1.26 0.948,-1.256 z m -72.163,1.858 4.582,2.469 -0.024,2.628 -4.375,-2.474 z m 17.575,0.202 -0.106,2.69 -5.26,2.594 -0.034,-2.565 z m 56.595,1.116 c 0.89,0.064 0.778,0.926 0.058,1.343 -0.537,0.373 -1.232,0.177 -1.516,-0.26 -0.64,-1.215 0.814,-1.069 1.458,-1.084 z m 1.785,2.761 c 0.148,0.297 0.066,0.829 -0.226,0.997 -0.39,0.165 -1.403,-0.007 -1.559,-0.302 -0.128,-0.242 -0.099,-0.37 0.149,-0.616 0.414,-0.329 1.345,-0.574 1.636,-0.079 z m -75.291,0.05 3.913,2.137 -0.024,2.579 -3.595,-2.089 z m 16.271,0.067 -0.193,2.483 -4.553,2.257 0.063,-2.421 z m -47.663,1.564 c 0.976,0.011 1.729,0.662 1.155,1.771 -0.359,0.693 -0.629,0.949 -2.19,2.05 -0.637,0.449 -1.189,0.861 -1.232,0.914 -0.043,0.054 -0.449,0.334 -0.717,0.52 -1.399,0.968 -0.913,-1.053 0.833,-4.033 0.5,-0.854 1.392,-1.231 2.151,-1.222 z m 47.316,2.214 -0.361,2.733 -4.071,2.079 0,-2.632 z m -15.309,0.255 3.292,1.631 0.048,2.661 -2.989,-1.569 z m 39.544,0.207 c 0.106,-0.004 0.198,0.032 0.265,0.125 0.27,0.378 0.313,2.008 0.048,2.931 -0.461,1.086 -1.357,-1.653 -1.256,-2.349 0.191,-0.315 0.626,-0.695 0.943,-0.707 z m -69.199,0.496 c 1.331,-0.024 2.294,0.885 1.843,2.233 -0.519,1.301 -3.524,2.12 -4.88,3.017 -0.887,0.44 -1.101,-0.037 -0.828,-0.804 0.127,-0.354 0.224,-0.632 -0.452,-0.732 -1.642,-0.242 -0.641,-1.04 2.368,-3.056 0.659,-0.442 1.344,-0.648 1.949,-0.659 z m 66.018,0.852 c 0.472,-0.005 1.054,0.271 1.655,0.924 1.034,1.122 1.781,3.486 1.218,4.1 -0.432,-0.048 -0.646,0.589 -0.669,0.847 -0.066,0.744 -1.424,-0.615 -2.709,-2.758 -1.035,-1.726 -0.533,-3.102 0.505,-3.114 z m -55.445,0.399 c 4.058,-0.028 11.807,0.811 22.532,7.522 1.368,0.857 2.736,1.802 4.283,2.565 4.069,2.194 7.427,3.681 12.671,4.659 l -0.149,2.714 c -0.047,0.856 1.365,5.816 0.717,8.605 -0.962,-0.019 0.929,0.823 0.929,0.823 l 1.232,2.522 c 0,0 -6.438,-0.055 -9.365,-0.63 -4.715,-0.767 -13.32,-4.763 -17.479,-7.907 -4.32,-3.169 -10.845,-5.803 -16.439,-6.824 l -0.077,-2.334 c 0,0 -0.555,-7.992 -1.001,-9.086 l -1.03,-2.527 c 0.253,0.101 1.332,-0.088 3.176,-0.101 z m 33.856,1.752 -0.313,2.681 -3.571,1.675 0,-2.296 z m 17.797,0.12 c 0.999,0.002 2.513,1.172 4.24,3.508 0.389,0.526 0.689,0.983 0.746,1.299 0.052,0.292 -0.128,0.459 -0.414,0.423 -0.681,-0.123 -0.931,-0.369 -1.121,0.476 -0.047,0.209 0.074,0.588 -0.159,0.52 -1.212,-0.356 -4.679,-3.853 -4.466,-4.971 0.16,-0.84 0.575,-1.257 1.174,-1.256 z m -31.801,0.178 2.604,1.386 0.115,2.642 -2.315,-0.996 z m -27.98,0.804 c 0.799,-0.026 1.296,0.289 1.55,0.91 0.612,1.495 -0.472,2.395 -3.691,3.07 -2.797,0.665 -2.739,0.706 -2.349,-0.332 0.259,-0.689 -0.605,-0.765 -1.088,-0.948 -0.816,-0.309 -0.148,-0.404 2.199,-1.574 1.475,-0.735 2.579,-1.1 3.378,-1.126 z m -9.307,0.707 c 0.079,-0.007 0.175,0.068 0.313,0.241 4.067,4.926 3.021,12.106 -2.127,15.65 -0.585,0.387 -0.605,0.028 -0.539,-0.741 l 0.101,-1.463 c 0.026,-0.291 5.913,-3.904 1.559,-11.945 l 0.366,-1.136 c 0.116,-0.362 0.195,-0.595 0.327,-0.606 z m 66.437,1.53 c 1.605,0.006 6.111,4.094 4.192,4.24 -0.225,0.017 -0.148,0.31 -0.149,0.496 0,0.186 -0.011,0.54 -0.063,0.674 -0.139,0.357 -0.664,0.286 -1.473,-0.193 -2.05,-1.214 -2.515,-1.601 -3.224,-2.272 -1.395,-1.32 -0.999,-2.952 0.717,-2.945 z m -15.867,0.703 -0.029,2.204 -3.21,1.554 0.019,-1.992 z m -40.68,1.583 c 2.16,-0.075 3.376,2.078 1.218,3.21 -0.863,0.452 -3.703,0.135 -5.024,0.019 -1.491,-0.131 -0.611,-0.574 -0.529,-0.707 0.205,-0.337 0.364,-0.389 -0.414,-0.852 -0.618,-0.65 -0.972,-0.81 0.573,-1.011 0.75,-0.098 2.57,-0.275 3.2,-0.481 0.34,-0.111 0.668,-0.167 0.977,-0.178 z m 65.763,0.525 c 0.159,-0.007 0.142,0.257 0.077,0.943 l -0.106,1.473 c -0.984,0.157 -5.872,6.234 -1.901,13.302 l -0.332,1.256 c -0.153,0.621 -0.202,0.712 -0.717,0.327 -2.976,-2.057 -3.942,-12.528 2.223,-16.858 0.401,-0.266 0.632,-0.437 0.756,-0.443 z m -11.608,1.227 c 0.575,0.01 1.278,0.172 2.084,0.539 1.878,0.855 3.126,1.546 3.417,2.002 0.18,0.282 -0.102,0.517 -0.481,0.626 -0.458,0.132 -0.514,0.324 -0.39,0.861 -0.002,0.312 0.079,0.658 -0.313,0.679 -0.724,0.039 -2.343,-0.471 -3.98,-1.352 -2.764,-1.487 -2.389,-3.391 -0.337,-3.354 z m -14.043,0.034 0,2.681 -2.637,-1.218 z m -44.208,2.305 c 0.279,0.007 0.65,0.057 1.136,0.135 0.594,0.095 1.517,0.186 1.992,0.178 3.006,-0.052 4.25,2.04 1.771,3.104 -0.678,0.291 -0.96,0.259 -2.815,-0.279 -0.888,-0.258 -1.976,-0.528 -2.421,-0.654 -0.893,-0.253 -1.202,-0.535 -0.611,-0.736 0.551,-0.188 0.598,-0.568 0.255,-1.073 -0.083,-0.506 0.078,-0.69 0.693,-0.674 z m 69.844,0 c -0.426,4.151 -0.773,7.386 -1.4,11.449 -0.458,-0.18 -3.701,-7.836 1.4,-11.449 z m -12.647,1.988 c 0.978,0.018 2.629,0.394 4.235,1.025 1.404,0.517 1.581,0.655 0.611,1.068 -0.586,0.25 -0.514,0.474 -0.342,0.857 0.267,0.287 0.773,0.862 -0.024,0.746 -0.944,0.071 -3.425,-0.069 -4.182,-0.202 -2.265,-0.398 -2.882,-2.44 -1.025,-3.388 0.15,-0.076 0.401,-0.112 0.727,-0.106 z m -58.198,1.049 c 0.209,0 0.593,0.112 1.29,0.332 4.068,1.283 5.717,2.838 3.725,4.346 -0.578,0.437 -1.475,0.252 -3.167,-0.693 -1.73,-0.966 -2.599,-1.495 -2.921,-1.838 -0.32,-0.34 -0.146,-0.73 0.346,-0.698 0.675,0.045 0.574,-0.294 0.52,-0.861 -0.038,-0.397 -0.062,-0.586 0.207,-0.587 z m 10.973,0.375 3.119,0.707 -7.787,34.053 c -2.658,0.767 -4.191,1.097 -6.059,2.103 l 5.385,-0.929 -0.467,2.435 -4.889,0.919 -0.111,0.727 5.602,-1.011 c 0,0 -0.2,2.324 -0.395,3.224 5.346,-0.43 10.626,-1.917 16.002,-1.959 0,0 0.13,-26.875 0.111,-29.804 -0.021,-3.165 0.005,-6.949 0.005,-6.949 l 5.39,3.042 0.89,33.87 16.882,2.743 c -0.118,-0.571 -0.577,-3.189 -0.577,-3.189 12.516,3.69 25.207,9.146 36.44,20.421 -5.227,2.829 -10.167,5.634 -15.246,8.352 l -0.736,1.059 c 12.878,-6.016 32.454,-18.522 46.59,-32.345 l 0.313,89.561 -67.659,0.27 c 0,0 -0.004,-4.313 -0.005,-8.379 l 0.038,-7.488 c -0.275,-4.802 0.561,-10.091 -0.91,-14.12 l -0.289,-4.221 c 4.17,-4.85 6.423,-10.965 8.412,-17.214 0,0 2.007,-0.777 2.984,-1.121 l 0.337,-1.227 c -1.94,0.99 -6.391,2.652 -6.391,2.652 0.479,-0.375 -9.465,-4.561 -15.607,-5.544 -10.134,-1.622 -23.767,0.049 -34.636,5.438 -0.532,0.375 -0.759,0.366 -0.626,-0.12 2.524,-9.177 -2.793,-18.39 -12.123,-21.059 -1.979,-0.566 -3.6,-0.563 -3.6,-0.563 l 0.168,0.804 c 15.247,1.718 18.824,17.829 12.954,25.314 -1.539,2.469 -1.773,3.19 1.457,3.108 13.055,-0.107 17.593,14.48 11.643,22.552 0.015,-0.063 0.482,0.939 0.482,0.939 3.71,-4.897 4.698,-14.202 -1.877,-20.742 4.861,-5.42 14.192,-14.093 22.263,-13.586 2.937,0.185 5.837,3.74 7.767,6.579 4.088,6.01 5.139,14.401 5.428,19.187 0.071,1.254 0.238,2.165 0.241,2.825 0.006,1.916 -0.36,1.686 -1.598,1.367 -1.554,-0.401 -3.685,-0.417 -5.26,0.063 -2.531,0.771 -2.122,0.331 0.13,-2.459 1.329,-1.646 1.507,-2.154 0.958,-2.262 -0.168,-0.033 -0.731,0.531 -1.468,1.665 -2.222,3.418 -2.049,2.015 -0.443,-3.316 1.044,-3.466 0.938,-3.708 -1.906,-5.862 -0.941,-0.713 -2.097,-1.405 -2.199,-1.622 -0.536,-1.137 -0.759,0.29 -0.279,1.227 0.469,0.916 -0.525,1.335 -2.272,0.39 -4.112,-2.277 -6.788,2.333 -3.119,4.331 0.865,0.471 1.348,0.085 0.679,-0.534 -2.258,-2.087 -0.687,-3.846 2.368,-1.997 1.766,1.069 2.437,0.727 3.027,-0.611 0.327,-0.545 3.069,1.418 3.066,2.18 -0.002,0.5 -0.319,2.1 -0.63,3.171 -0.878,3.024 -1.116,3.964 -1.497,5.924 -0.689,3.555 -0.671,5.377 0.067,6.94 1.655,3.501 5.82,5.153 9.432,3.744 0.525,-0.205 1.53,-0.375 1.53,-0.375 l 0.043,2.57 c -7.124,2.698 -12.27,11.118 -12.036,11.406 l -2.541,0.005 c -3.373,-6.696 -9.307,-11.737 -16.849,-14.524 0,0 -0.907,-1.51 -0.096,1.246 0.05,1.106 1.215,2.665 2.156,3.21 3.583,1.821 8.323,5.05 10.939,10.063 l -1.8,0.029 c -2.195,-3.345 -5.037,-5.604 -7.734,-7.575 -0.634,-0.133 0.462,6.066 3.051,7.979 L 51.15,285.35 c 3.169,-12.399 3.778,-26.158 -3.648,-44.193 6.157,0.378 11.618,-0.943 16.622,-3.128 l -0.452,-1.285 c -5.702,2.722 -11.958,3.258 -18.22,2.618 4.75,8.795 8.907,27.224 4.861,44.949 l -17.046,0.091 -0.236,-96.625 c 0,0 0.666,0.608 0.876,0.818 0.535,0.537 0.897,1.339 1.049,1.92 0.195,0.743 0.401,0.788 1.463,1.583 0.51,0.382 0.804,0.717 0.804,0.914 -0.03,0.219 -0.037,0.897 0.308,1.314 0.936,1.132 0.77,1.858 0.067,2.589 -3.268,3.4 -5.315,10.544 -3.662,18.081 3.876,-2.609 7.867,-9.431 7.994,-9.442 l 0.375,9.317 c -0.344,-0.077 -2.71,1.325 -2.738,3.157 -1.071,0.319 -2.379,-0.214 -3.465,-0.534 l 0.783,2.744 c -3.978,1.587 -4.192,7.028 0.418,8.581 0,0 -0.421,2.128 -0.782,3.271 l 2.993,-0.456 c 1.739,5.193 8.414,3.53 8.382,-0.093 0,0 2.031,0.763 2.802,1.102 l -0.751,-3.54 c 7.591,-3.787 1.913,-8.746 0.179,-8.675 0.024,-0.989 0.477,-1.301 0.894,-2.454 l -3.066,0.193 c -0.562,-1.828 -2.623,-3.324 -2.7,-3.123 l -0.423,-13.335 c 2.318,2.021 4.598,4.094 7.671,5.703 2.836,1.485 3.125,1.153 2.705,-1.41 -0.19,-1.156 -0.173,-1.915 -0.173,-1.915 1.064,0.25 3.748,3.737 3.619,5.457 0.98,1.279 1.869,-2.162 -0.659,-5.092 6.731,-7.049 11.861,-18.732 12.955,-26.695 l 8.951,-3.561 0.101,-1.165 c 6.098,-4.08 9.279,-9.756 10.953,-16.175 z m 7.45,2.084 2.06,0.919 -2.339,1.16 z m -19.847,0.563 c 0.397,0.183 0.998,0.578 1.824,1.184 1.751,1.284 2.772,2.167 2.806,2.945 0.017,0.385 -0.266,0.882 -0.707,1.117 -1.057,0.561 -2.069,0.102 -4.355,-2.238 -0.739,-0.756 -1.233,-1.161 -1.458,-1.497 -0.262,-0.392 -0.069,-0.761 0.366,-0.602 1.856,0.838 0.249,-1.489 1.526,-0.91 z m 63.077,0.481 c 0.381,0.002 0.682,0.01 0.871,0.048 0.496,0.1 0.639,0.381 0.332,0.654 -0.476,0.424 -0.34,0.854 0.14,1.083 0.329,0.157 0.196,0.489 -0.202,0.717 -0.233,0.133 -0.588,0.277 -1.073,0.428 -2.81,0.879 -4.881,0.616 -5.424,-0.693 -0.623,-1.505 0.569,-2.236 4.004,-2.233 l 1.352,-0.005 z m -40.921,0.895 -0.024,2.016 -2.916,1.4 0.318,-2.045 z m -24.789,0.63 c 0.256,0.015 0.675,0.408 1.285,1.155 2.813,3.446 3.193,4.11 2.272,5.024 -1.092,1.083 -2.624,0.036 -4.274,-2.984 -0.222,-0.406 -0.493,-0.927 -0.654,-1.117 -0.605,-0.708 -0.339,-0.93 0.428,-0.871 0.42,0.032 0.62,-0.116 0.63,-0.549 0.012,-0.457 0.114,-0.671 0.313,-0.659 z m 67.413,1.742 c 0.512,0 0.474,0.175 0.245,0.77 -0.176,0.527 -0.464,0.698 0.279,1.03 0.123,0.06 0.397,0.398 0.149,0.544 -0.587,0.397 -3.209,1.591 -4.158,1.906 -1.844,0.612 -2.979,-0.89 -1.896,-2.382 0.454,-0.625 3.572,-1.757 5.125,-1.858 l 0.255,-0.01 z m -68.886,1.997 c 1.869,2.788 2.103,4.091 0.871,4.904 -0.78,0.593 -2.441,-0.259 -2.82,-2.06 -0.291,-1.379 -0.424,-2.82 0.025,-3.965 0.68,-1.734 1.73,0.832 1.924,1.121 z m 26.247,-1.155 0.014,2.18 -3.547,1.781 0.327,-2.401 z m 7.228,0.087 3.335,2.161 0.193,1.858 -3.446,-1.896 z m 37.205,2.146 c 0.088,0.001 0.135,0.041 0.135,0.144 -0.002,0.256 -0.066,1.168 0.433,1.251 0.981,0.163 0.758,0.469 -0.101,1.208 -0.93,0.823 -1.78,1.801 -2.902,2.401 -2.892,1.069 -3.8,-1.987 -1.064,-3.576 0.945,-0.548 1.801,-0.927 2.44,-1.107 0.48,-0.135 0.866,-0.325 1.059,-0.322 z m -37.114,1.121 3.864,2.276 0.135,2.291 -3.84,-1.954 z m -7.455,0.212 0.014,1.992 -3.773,2.161 0.313,-2.228 z m 15.617,1.627 c 1.068,0.498 14.782,4.308 19.322,3.008 0,0 3.886,5.602 6.762,7.609 -4.451,6.532 -19.524,12.936 -19.524,12.936 z m 30.867,0.14 c 0.25,-0.009 0.31,0.24 0.308,0.707 -0.061,1.355 -2.288,6.344 -4.062,3.787 -0.488,-0.952 0.008,-1.938 1.564,-3.114 1.234,-0.932 1.869,-1.37 2.19,-1.381 z m -74.665,0.787 c 0.339,0.369 0.185,1.505 -0.544,1.429 -0.211,-0.022 -0.239,-1.175 -0.101,-1.8 0.21,-0.103 0.527,0.249 0.645,0.371 z m 28.229,0.633 -0.024,2.531 -4.476,2.435 0.481,-2.815 z m 7.402,0.356 4.432,2.363 0.52,2.796 -4.914,-2.546 z m -7.411,3.441 0,2.551 -5.029,2.579 0.342,-2.517 z m 7.498,0.221 4.957,2.82 0.65,2.656 -5.534,-2.859 z m -70.263,0.082 c 0.813,-0.011 1.105,0.854 0.491,1.405 -0.405,0.377 -1.554,0.301 -1.655,0 -0.519,-0.501 0.193,-1.392 1.165,-1.405 z m 1.516,2.7 c 0.12,-0.008 0.234,-0.001 0.332,0.024 0.586,0.149 0.95,0.995 0.592,1.477 -0.662,0.89 -2.406,0.273 -2.151,-0.852 0.067,-0.298 0.707,-0.614 1.227,-0.65 z m 61.162,0.852 0,2.281 -5.472,2.887 0.346,-2.551 z m 7.739,0.318 5.645,3.032 0.433,2.555 -6.069,-3.157 z m -71.581,0.067 c 0.272,-0.015 0.489,0.061 0.606,0.265 0.105,0.182 0.229,0.648 0.621,0.876 0.731,0.424 0.807,0.513 -0.582,1.121 -0.585,0.256 -1.735,1.039 -2.137,1.309 -1.229,0.827 -1.729,0.55 -1.819,-0.428 -0.114,-1.233 2.13,-3.077 3.311,-3.143 z m 4.235,1.867 c 0.285,-0.016 0.562,0.037 0.76,0.168 0.47,0.31 0.494,0.933 0.043,1.246 -1.034,0.661 -2.651,-0.245 -1.79,-1.035 0.242,-0.222 0.621,-0.359 0.987,-0.38 z m 59.598,1.237 0.029,2.96 -6.102,3.22 0.404,-3.003 z m -62.615,0.346 c 0.4,-0.023 0.783,0.071 1.117,0.318 0.362,0.461 0.797,0.597 1.049,0.606 1.047,0.04 0.713,0.423 -0.385,0.924 -1.514,0.691 -2.577,1.568 -3.667,2.579 -1.134,1.052 -1.216,1.278 -1.588,0.847 -1.385,-1.604 1.315,-5.152 3.475,-5.274 z m 70.455,0.034 6.396,3.499 0.549,2.955 -6.944,-3.864 z m -66.254,2.084 c 0.259,-0.006 0.502,0.056 0.693,0.212 0.454,0.371 0.192,1.087 -0.438,1.41 -0.536,0.274 -1.418,0.158 -1.67,-0.096 -0.604,-0.609 0.491,-1.504 1.415,-1.526 z m -3.09,1.487 c 0.389,-0.038 0.743,0.459 1.059,0.996 0.11,0.134 0.548,0.074 0.861,0.077 1.197,0.01 1.364,0.516 0.202,1.16 -0.34,0.188 -1.454,1.041 -2.199,1.675 -2.008,1.918 -3.096,1.468 -2.839,-0.496 0.246,-1.878 1.876,-3.312 2.916,-3.412 z m 69.343,0.183 7.055,3.869 0.688,3.181 -7.743,-4.172 z m -7.787,0.058 -0.029,2.931 -6.641,3.513 0.515,-2.974 z m 7.893,3.73 7.902,4.784 0.289,3.114 -8.191,-4.716 z m -7.897,0.52 0.014,2.873 -7.344,3.725 0.371,-2.714 z m -59.617,1.901 c 0.188,-0.004 0.364,0.024 0.51,0.091 0.86,0.396 0.635,1.081 -0.659,1.785 -1.32,0.719 -1.772,0.595 -2.055,-0.212 -0.238,-0.679 1.191,-1.641 2.204,-1.665 z m 82.51,0.39 c 13.74,3.145 27.192,9.946 40.252,21.82 l -2.729,1.93 c 0,0 -11.445,-13.052 -36.878,-20.703 z m -14.914,1.367 3.812,2.247 0.01,0.573 -3.821,-0.313 z m -64.935,0.024 c 0.289,0.015 0.543,0.184 1.906,0.833 5.47,3.949 7.66,6.33 9.019,10.66 0.814,2.594 0.798,2.488 -1.877,1.078 -2.516,-1.336 -5.965,-3.553 -8.191,-6.42 -0.369,6.745 0.419,15.13 0.419,15.13 3.417,1.684 2.311,6.067 2.301,6.041 8.793,-2.4 6.866,9.204 0.314,6.701 1.562,8.705 -8.406,7.997 -7.385,0.535 -7.934,-0.307 -6.531,-8.954 0.055,-7.759 -0.685,-2.668 0.259,-4.475 2.688,-5.62 L 42.48,203.893 c 0,0 -6.466,9.28 -7.546,9.134 -0.634,-0.086 -1.589,-1.151 0.019,-9.288 0.837,-4.237 5.329,-9.396 7.844,-9.562 l 0.804,-0.067 z m 6.324,0.087 1.16,0.794 -1.092,1.949 -1.208,-0.876 z m 50.594,0.558 -0.038,1.708 -3.561,0.212 z m -39.049,19.288 c -0.534,0.014 0.902,0.35 1.809,1.165 8.38,1.298 13.507,11.549 9.63,18.971 -0.469,0.334 0.255,1.95 0.727,1.343 4.088,-5.794 1.045,-20.035 -10.881,-21.392 -0.708,-0.06 -1.107,-0.091 -1.285,-0.087 z m 3.167,3.893 c -0.674,1.847 -0.851,2.289 0.876,1.535 3.051,1.129 6.342,6.095 5.289,11.083 -0.339,0.582 0.253,-0.38 0.654,1.261 1.506,-3.652 0.004,-11.526 -6.819,-13.879 z m 38.736,9.293 c 8.578,-0.025 17.068,1.85 23.822,5.732 -2.295,1.276 -9.62,3.056 -9.62,3.056 -4.117,-4.619 -6.215,-9.238 -13.658,-6.877 -7.795,2.012 -14.815,8.759 -18.766,13.236 -3.961,-2.358 -6.107,-2.934 -9.618,-3.129 -0.203,-0.006 -0.505,0.888 -0.255,-0.553 1.005,-1.548 1.697,-3.302 2.368,-5.072 7.362,-4.186 16.596,-6.364 25.728,-6.391 z m 26.666,5.929 c -1.708,5.527 -3.914,10.971 -7.657,15.766 l -0.462,-2.397 c 3.519,-5.403 5.187,-10.316 5.939,-12.469 z m -3.321,1.434 c 0.22,0.351 -3.411,9.004 -5.202,10.578 l -0.703,-2.233 c 1.461,-2.208 3.624,-7.529 3.561,-7.58 z m -22.147,0.01 c -0.113,0.01 -0.153,0.11 -0.154,0.327 -0.003,0.794 0.825,1.419 2.334,1.761 2.038,0.462 4.895,-0.243 4.899,-1.208 0.002,-0.557 -0.396,-0.598 -1.564,-0.058 -1.464,0.678 -2.757,0.545 -4.668,-0.467 -0.438,-0.232 -0.702,-0.369 -0.847,-0.356 z m 18.158,1.381 c -0.567,2.096 -1.409,3.64 -2.483,5.241 l -0.346,-1.102 c 0.743,-1.201 1.234,-2.574 1.862,-3.908 z m -2.132,0.679 c -0.275,0.729 -0.578,1.573 -1.208,2.223 l -0.818,-1.732 z m -12.906,1.606 c -1.381,0.027 -2.749,0.471 -2.868,1.205 -0.057,0.352 0.473,0.216 3.043,-0.097 1.356,-0.165 2.003,0.638 3.245,0.554 0.633,-0.075 0.041,-0.66 -0.156,-0.829 -0.691,-0.588 -2.046,-0.856 -3.265,-0.833 z m -5.897,1.599 c -0.139,0.028 0.016,0.381 0.534,1.28 0.28,0.487 0.35,1.479 0.404,2.093 -0.067,1.53 -0.062,1.482 0.693,0.597 0.475,-0.472 1.399,-0.367 2.863,0.029 0.944,0.255 1.17,0.347 1.825,-0.064 0.759,-0.476 0.938,-0.236 1.592,-0.105 0.631,0.127 1.204,-0.126 1.896,-0.318 0.845,-0.233 1.007,-0.179 1.742,0 1.124,0.532 0.96,0.485 1.054,-1.42 0.094,-1.875 -0.007,-2.008 -1.092,-1.376 -1.051,0.612 -1.775,0.889 -3.388,0.327 -1.758,-0.612 -2.006,-0.457 -3.253,-0.082 -1.507,0.454 -2.192,0.608 -3.393,-0.125 -0.79,-0.483 -1.32,-0.869 -1.477,-0.837 z m -24.558,2.83 0.674,1.097 c 6.076,2.174 10.192,7.14 7.763,15.511 l 0.578,0.924 c 3.041,-8.435 -0.43,-15.408 -9.014,-17.532 z m 1.882,3.571 0.828,1.699 c 4.572,2.208 4.299,8.291 4.042,8.051 l 0.717,1.583 c 1.144,-3.936 -0.94,-9.747 -5.587,-11.333 z m 19.096,9.072 c -0.18,0.002 -0.298,0.063 -0.346,0.188 -0.118,0.303 0.236,0.485 2.324,1.93 1.794,1.241 3.181,2.162 3.075,2.339 -0.071,0.118 -1.186,-0.153 -1.983,-0.39 -2.087,-0.621 -5.165,0.127 -6.891,1.343 -0.438,0.294 -1.167,-0.027 -1.8,-0.193 -0.253,-0.072 -0.812,-0.14 -1.088,-0.067 -1.305,0.342 -0.042,1.588 3.152,3.205 3.92,1.984 6.041,2.166 8.422,0.963 1.581,-0.818 2.148,-0.211 0.419,0.722 -3.02,1.629 -5.912,1.125 -10.684,-2.156 -2.21,-1.52 -3.093,-1.266 -1.194,0.183 3.334,2.607 9.752,5.786 13.692,1.901 0.154,-0.056 0.511,-0.03 0.683,-0.029 0.819,0.003 0.854,-0.255 0,-1.607 -0.515,-0.815 -1.556,-1.673 -0.289,-2.671 0.961,-0.757 0.891,-1.116 -0.27,-1.463 -0.306,-0.085 -0.276,0.117 -0.736,-0.255 -2.788,-2.248 -5.516,-3.946 -6.487,-3.941 z m 1.208,4.442 c 1.171,0.032 2.35,0.934 2.719,2.555 l 0.082,0.448 -0.997,0.037 c -0.827,-3.304 -3.318,-2.209 -3.566,-0.274 l -0.899,-0.12 c 0.331,-1.842 1.49,-2.679 2.661,-2.647 z m 20.66,2.82 -0.664,0.098 c -0.435,-1.217 -2.402,-2.851 -3.34,0.114 l -0.837,-0.034 c 0.583,-4.017 4.23,-3.393 4.841,-0.178 z m -5.092,-1.669 c 0.272,0.385 -0.205,1.035 -0.482,1.333 -0.265,0.284 -0.854,0.044 -1.1,-0.236 -0.216,-0.277 -0.056,-0.828 0.303,-1.011 0.373,-0.19 1.006,-0.362 1.28,-0.086 z m -11.675,0.12 c 0.279,0.623 -0.501,1.089 -0.599,0.878 -0.167,-0.058 -0.374,-1.086 -0.278,-1.154 0.258,-0.008 0.771,0.076 0.877,0.276 z m 17.551,-0.101 c 0.421,0.034 0.879,0.233 0.963,0.707 0.004,0.314 -0.359,0.656 -0.775,0.674 -0.183,0.008 -0.883,-0.506 -0.752,-1.24 0.148,-0.26 0.32,-0.162 0.564,-0.142 z m -24.399,0.197 c 0.148,0.226 -0.129,0.9 -0.193,0.991 -0.033,0.047 -0.929,0.009 -0.91,-0.058 0.019,-0.066 -0.083,-0.574 0.135,-0.943 0.248,-0.158 0.788,-0.242 0.967,0.01 z m 16.276,2.175 c 0.116,0.003 0.264,0.05 0.438,0.159 2.506,1.631 5.729,2.358 8.051,1.194 0.519,-0.26 0.858,-0.246 0.857,0.005 -0.002,0.275 -0.575,0.838 -1.646,1.16 -2.392,0.718 -6.34,-0.23 -7.705,-1.694 -0.401,-0.431 -0.343,-0.832 0.005,-0.823 z m -21.979,1.708 c -0.239,-0.007 -0.317,0.135 -0.27,0.423 0.159,0.972 6.861,4.818 9.663,5.337 2.301,0.426 4.089,0.235 5.496,-0.582 3.418,-1.985 2.541,-4.67 -0.804,-2.647 -2.247,1.359 -7.942,0.733 -11.329,-1.222 -1.506,-0.87 -2.359,-1.298 -2.758,-1.309 z m 30.197,1.406 c 0.847,-0.355 1.211,-0.479 1.397,-0.324 0.861,0.721 -0.55,1.844 -3.124,2.283 -2.059,0.338 -3.297,0.405 -5.647,-1.334 -1.82,-1.346 -0.962,-1.998 0.083,-1.387 2.78,1.625 4.845,1.676 7.293,0.762 z m -29.6,4.205 c 5.929,2.123 12.675,7.245 15.669,13.465 l -1.829,-0.014 c -2.036,-3.551 -6.064,-8.062 -12.705,-11.232 -0.588,-0.484 -0.894,-1.347 -1.136,-2.219 z m 31.142,2.912 0,1.944 c -3.664,1.847 -6.736,4.689 -9.052,8.61 l -2.074,-0.029 c 2.376,-4.206 5.936,-8.145 11.127,-10.525 z m 0,2.965 0,2.387 c -2.317,1.358 -4.251,3.149 -5.607,5.202 l -2.454,0 c 1.967,-3.325 4.666,-5.976 8.061,-7.589 z m -27.147,1.834 c 1.765,1.015 4.689,3.721 5.751,5.804 l -0.943,0.043 c -0.961,-1.224 -2.498,-2.631 -3.749,-3.739 -0.8,-0.94 -1.059,-2.108 -1.059,-2.108 z m 27.147,1.53 0,1.954 c 0,0.05 -1.76,1.199 -2.507,2.272 l -1.992,0 c 1.368,-2.475 4.214,-4.23 4.5,-4.225 z m 0.005,3.152 -0.005,1.073 -1.251,0.005 c 0.083,-0.121 0.78,-0.887 1.256,-1.078 z m -24.419,0.27 c 0.375,0.197 0.663,0.901 0.663,0.901 l -0.336,0.036 z"
           inkscape:connector-curvature="0"
           style="fill:#131f67" /><path
           id="path4287"
           d="m 46.849,242.395 c 4.124,0.123 12.832,-1.395 12.692,-1.238 0,0 26.886,44.937 25.789,44.49 -0.353,0.556 -34.595,0.446 -34.595,0.446 -0.742,0.007 7.308,-16.606 -3.887,-43.698 z m 12.327,-31.576 c 13.186,-10.868 26.97,-10.913 41.775,-12.374 l 0.436,-37.052 5.349,3.22 0.024,33.95 c 19.534,1.515 36.371,8.714 50.819,21.276 0.181,0.272 -20.981,11.516 -30.244,14.482 -7.172,-5.293 -26.12,-8.667 -38.702,-4.645 -3.456,1.105 -7.7,2.876 -11.828,4.182 3.034,-17.879 -10.926,-20.556 -15.837,-21.395 -0.616,-0.105 -1.347,-1.431 -1.792,-1.644 z m -16.905,5.739 c 0.241,-3.81 10e-4,-7.626 -0.273,-11.524 -0.073,-0.89 -7.725,11.574 -8.143,8.545 -1.047,-7.583 2.744,-17.212 8.66,-18.378 0.592,-0.796 12.289,6.486 11.737,12.751 -0.18,2.041 -10.434,-6.922 -10.477,-6.389 -0.244,1.044 0.264,15.03 0.582,15.003 2.955,1.673 2.305,3.81 2.624,5.583 7.933,-1.149 7.477,7.646 -0.007,7.352 0.435,10.393 -9.204,5.672 -7.288,0.142 -9.718,-0.483 -4.908,-9.549 -0.074,-7.541 -0.286,-2.292 0.287,-4.68 2.659,-5.544 z m 11.266,-44.06 c -0.559,-0.223 -20.731,-1.309 -20.731,-1.309 l 1.184,-49.121 c 10.362,-23.619 49.095,-12.46 42.915,-7.444 -18.555,12.084 -21.432,34.203 -23.368,57.874 z m 37.262,-20.082 -0.601,-5.456 c -1.574,-3.394 41.204,16.495 41.686,16.919 l 1.231,5.824 C 133.356,172.261 105.9,159.271 90.8,152.416 Z m 77.935,-9.43 c -0.688,22.042 -4.127,36.96 -16.983,54.94 -0.357,0.591 -3.982,2.081 -4.265,2.589 1.824,2.899 12.263,7.172 17.084,9.467 l 25.152,-14.887 C 190.013,195.117 189,142.709 189,142.709 Z m 9.567,-23.913 c -3.372,-0.523 -11.202,-8.684 -9.568,-11.14 0.055,-1.848 9.754,5.249 10.759,7.157 -0.497,-0.568 -0.523,-17.274 -0.682,-16.61 -0.371,0.195 -2.964,-1.672 -2.278,-5.152 -7.454,1.627 -7.02,-8.049 -0.51,-7.637 -0.818,-8.807 9.93,-5.545 7.053,0.344 9.21,-1.671 7.594,8.657 0.641,6.957 0.58,3.92 -1.039,4.999 -3.302,5.775 0.14,1.643 0.728,12.6 0.728,12.6 0,0 6.834,-10.409 7.32,-9.509 1.354,3.166 -1.172,19.882 -10.162,17.215 z M 146.86,80.539 c -3.099,10.575 5.285,22.688 13.235,22.676 1.599,-0.248 4.66,0.624 3.601,1.477 -12.569,10.126 -41.844,12.158 -41.85,11.718 0.274,12.471 -0.318,25.066 -0.649,37.532 l -5.355,-3.243 c -0.142,-11.373 -0.393,-23.006 -0.623,-34.378 -18.747,-2.495 -35.586,-8.586 -48.871,-21.484 8.86,-6.529 19.437,-10.594 29.597,-14.703 12.761,6.669 30.542,10.549 50.915,0.405 z m -9.124,-50.308 c -0.587,-0.261 2.027,-2.191 2.027,-2.191 0,0 21.788,0.343 32.596,0.225 -3.98,16.148 -1.232,30.633 3.817,44.549 -1.348,-0.319 -10.299,0.384 -12.487,1.355 -0.352,0.351 -25.678,-43.543 -25.953,-43.938 z"
           inkscape:connector-curvature="0"
           style="fill:#e2cf00" /><path
           id="path4289"
           d="m 86.039,285.585 -26.227,-44.536 3.957,-1.707 27.038,46.319 z m -46.72,-59.574 3.816,-3.905 3.806,3.875 -4,3.695 z m 84.585,-24.717 -0.527,-3.18 c 15.169,3.755 27.571,11.587 36.482,20.105 l -2.131,1.551 c 0.664,-0.179 -21.518,-16.902 -33.824,-18.476 z m -44.073,-3.247 4.813,-0.685 -0.144,2.672 -4.576,1.027 z m 88.847,-1.88 -2.617,-2.119 1.893,-2.232 2.543,2.014 z M 79.59,174.388 c 6.524,-3.066 11.642,-15.493 11.006,-16.325 l 3.548,0.851 -8.291,34.063 -6.178,1.1 c -0.011,-6.521 -0.105,-13.17 -0.086,-19.689 z m 42.829,19.397 c -2.19,-7.181 -6.497,-23.422 -6.497,-23.422 0.158,0.53 14.121,4.539 19.109,3.105 2.121,2.918 4.454,5.484 6.916,7.836 -5.188,5.046 -11.623,9.256 -19.528,12.48 z m 58.641,-25.967 -2.456,-2.139 2.215,-2.697 2.698,2.066 z m -32.155,-1.51 c -1.996,-3.608 -2.125,-7.681 1.606,-11.688 z M 72.46,159.125 c -0.158,-0.372 0.867,-8.907 1.103,-9.285 0.416,-0.664 1.22,1.734 1.599,3.565 0.474,2.295 -2.123,7.084 -2.702,5.72 z m 56.241,-2.505 c 0,0 5.477,-25.056 7.847,-34.874 l 6.607,-1.648 -0.945,20.582 c -5.438,4.836 -9.98,16.381 -9.98,16.381 z m -86.959,-4.396 -2.606,-2.446 2.217,-2.412 2.299,2.363 z m 46.829,-9.651 -7.156,-8.414 c 4.463,-6.171 11.853,-9.732 19.681,-12.52 l 5.234,23.572 c -5.981,-1.819 -12.43,-3.79 -17.759,-2.638 z m -36.628,-21.093 1.847,-2.284 2.405,1.904 -1.839,2.527 z m 86.429,-6.852 4.621,-0.648 -0.357,3.169 -4.892,0.765 z M 63.185,96.619 66.033,94.858 c 9.96,8.987 20.97,15.197 32.986,18.745 l 0.798,3.873 C 86.269,113.261 73.474,106.894 63.185,96.62 Z m 116.664,-3.27 -3.688,-3.655 3.339,-3.692 3.945,3.426 c -1.31,1.965 -3.595,3.921 -3.595,3.921 z M 159.41,75.557 131.858,28.281 l 3.998,-0.023 27.115,45.54 z"
           inkscape:connector-curvature="0"
           style="fill:#d40000"
           sodipodi:nodetypes="ccccccccccccccccccccccccccccccccccccccccccccccccccccccccccccccccccccccccccccccccccccccccccccc" /><path
           id="path4291"
           d="m 131.593,26.186 -6.612,0.024 37.533,75.479 c 0,0 -1.017,0.171 -3.008,-0.351 -9.015,-2.365 -14.57,-11.887 -12.532,-21.228 0.207,-0.726 0.26,-1.347 0.26,-1.347 -23.238,10.517 -37.625,6.643 -51.041,-0.053 l -5.722,2.195 c 0.38,-3.455 4.655,-16.432 11.05,-22.542 l -0.01,-6.545 -0.154,-3.09 -0.505,-5.607 c -9.513,8.957 -20.614,23.055 -22.003,43.077 0,0 -8.662,4.449 -16.055,9.37 0.41,-0.055 11.516,13.581 38.197,21.238 l -1.174,-4.351 c 3.968,1.113 9.608,1.994 15.217,2.705 l 0.751,34.174 6.372,3.773 0.217,-37.836 c 0.196,0.156 10.162,-0.351 15.53,-1.631 l -0.756,3.648 5.303,-1.044 0,2.661 -5.814,1.372 -8.277,35.367 4.822,1.073 c 1.411,-7.124 4.975,-12.886 10.14,-16.42 l -0.053,-1.357 c 3.312,-2.376 10.197,-4.265 10.241,-4.221 2.348,-11.47 7.814,-19.418 13.624,-26.979 l -2.767,-3.759 10.612,-3.893 -14.731,-25.059 c 5.668,-3.911 16.906,-2.454 16.906,-2.454 -4.817,-13.003 -9.051,-26.416 -4.293,-46.099 l -40.974,0.034 z m 13.442,0.815 c -0.01,3.288 -4.305,2.95 -4.83,-0.016 z m 26.324,-0.103 c -2.607,15.071 -1.743,29.752 4.302,43.702 0,0 -0.881,0.051 -0.991,0.029 -0.083,-0.016 0.103,-0.752 0.058,-0.948 -0.12,-0.524 -0.989,-0.279 -1.718,0.212 -0.317,0.214 -0.683,0.457 -0.914,0.573 -0.749,0.374 -4.546,0.345 -4.546,0.345 1.239,-0.839 2.981,-3.2 1.97,-4.577 -0.229,-0.294 -0.368,-0.164 -0.591,0.232 -1.079,1.917 -1.614,2.217 -3.056,2.199 -2.261,-0.028 -3.879,-1.429 -3.696,-3.542 0.177,-2.053 3.199,-3.137 2.753,-1.145 -0.122,1.774 1.638,2.119 1.964,0.351 l 0.168,-1.131 c 3.521,-1.868 1.577,-5.671 -1.708,-4.875 -0.773,0.204 -0.87,0.276 -1.415,-0.005 -1.013,-0.522 -1.855,-0.358 -2.238,0.375 -0.337,0.646 0.176,1.162 0.929,1.165 0.78,0.003 0.931,0.379 0.929,0.847 -0.005,1.088 -1.883,1.612 -3.128,0.977 -3.287,-1.677 -2.069,-6.035 1.747,-6.02 1.16,0.004 1.645,0.077 1.694,-0.173 0.139,-0.704 -1.632,-1.921 -2.632,-1.742 -0.848,0.166 -1.363,0.387 -0.914,-0.741 0.275,-1.163 0.267,-1.69 0.034,-2.565 -0.61,-1.249 -0.595,-0.609 -0.972,0.404 -1.257,2.084 -3.151,2.546 -4.784,1.405 -1.514,-1.058 -1.469,-3.067 -0.029,-4.5 1,-0.995 2.073,-0.318 1.473,0.794 -0.249,0.46 -0.053,1.031 0.395,1.145 0.903,0.23 1.463,-0.301 1.468,-1.396 -0.019,-0.603 -0.186,-0.737 0.9,-1.357 2.811,-1.605 0.708,-5.991 -2.464,-4.582 -0.696,0.309 -0.859,0.612 -1.174,0.467 -1.326,-1.253 -3.228,0.331 -2.103,1.169 0.486,0.237 1.081,0.327 1.237,0.342 0.274,0.156 0.183,0.546 -0.217,1.035 -1.313,1.549 -4.296,0.784 -5,-1.4 -0.815,-2.53 1.771,-5.19 3.754,-3.715 0.586,0.436 1.095,0.482 1.097,-0.164 0.003,-1.005 -1.263,-2.159 -2.878,-2.045 -1.64,0.115 -1.461,0.327 -0.568,-1.155 0.659,-1.32 0.57,-2.608 -0.005,-3.383 -0.443,-0.598 -0.898,-0.724 -0.852,-0.091 0.359,1.961 -1.932,3.826 -3.816,3.003 -1.811,-0.809 -2.708,-2.837 -1.819,-4.596 0.82,-1.623 2.81,-1.791 2.478,-0.058 -0.156,1.105 0.685,1.687 1.497,1.035 0.295,-0.237 0.364,-0.447 0.385,-1.16 0.023,-0.794 -0.3,-1.027 0.212,-1.492 1.343,-0.178 1.426,-3.03 1.222,-3.147 l 21.565,-0.101 z m -24.038,0.096 c 0.852,0 1.559,0.289 1.559,1.141 0,0.852 -0.688,1.54 -1.54,1.54 -0.852,0 -1.545,-0.688 -1.545,-1.54 0,-0.852 0.674,-1.141 1.526,-1.141 z m -15.112,0.111 3.428,0 27.072,45.117 -3.206,1.559 z m 5.63,1.577 c 1.641,0.938 3.155,1.708 5.212,1.909 -0.602,1.223 -1.152,2.558 -1.251,4.842 z m 5.514,9.086 c 1.67,0.598 3.12,1.505 5.872,0.589 -1.467,1.298 -2.298,2.851 -2.92,4.488 z m 14.084,5.45 c 0.789,0 1.429,0.64 1.429,1.429 0,0.789 -0.64,1.424 -1.429,1.424 -0.789,0 -1.429,-0.635 -1.429,-1.424 0,-0.789 0.64,-1.429 1.429,-1.429 z m -8.77,3.562 c 1.207,0.444 2.472,0.739 3.876,0.675 -0.694,0.955 -0.931,2.408 -0.976,4.069 z m 4.144,7.111 c 1.117,0.545 2.44,1.339 4.786,1.084 -1.554,2.636 -1.221,3.364 -1.38,4.517 z m 13.567,5.237 c 0.826,0 1.497,0.67 1.497,1.497 0,0.826 -0.67,1.497 -1.497,1.497 -0.827,0 -1.497,-0.67 -1.497,-1.497 0,-0.826 0.67,-1.497 1.497,-1.497 z m -8.409,3.361 c 1.023,0.578 3.044,0.908 3.067,0.752 -0.13,-0.097 -0.582,1.949 -0.661,3.234 z m 4.712,7.685 c 1.454,0.858 3.064,0.776 4.01,0.877 -1.012,0.202 -1.965,0.456 -3.051,0.882 z m 17.155,8.437 c -3.504,0.226 -4.317,2.913 -3.902,5.636 -2.672,-0.427 -5.662,2.106 -4.826,5.203 0.793,2.937 3.524,3.04 5.409,2.844 -0.145,0.714 -0.542,3.113 2.357,5.143 l 0.386,15.248 c 0,0 -1.278,-1.174 -2.112,-2.005 -3.642,-3.628 -9.122,-6.256 -8.778,-4.211 0.051,0.301 0.167,1.063 0.255,1.694 0.579,3.452 5.217,7.184 8.379,9.062 1.13,0.63 1.829,1.304 1.829,1.304 -5.914,6.323 -9.093,13.069 -9.885,19.765 -0.735,6.221 -1.33,11.825 -1.915,17.537 -2.413,28.654 -14.71,35.861 -15.294,37.263 l -0.231,3.821 -3.431,-0.255 -3.956,3.422 c 12.958,6.695 20.515,14.775 20.41,14.928 10.346,-6.775 19.276,-14.3 27.706,-22.089 l -0.164,-63.799 c 0,0 -0.699,0.256 -0.881,0.255 -0.64,-0.002 -0.721,0.286 -0.943,1.506 -0.119,0.653 -0.508,1.255 -0.813,1.684 -0.579,0.815 -0.373,0.403 0.356,0.698 1.66,0.672 -0.495,3.714 -2.854,4.086 -1.699,0.267 -2.647,0.58 -2.936,0.972 -3.575,3.128 -7.138,3.623 -9.832,2.474 -1.325,-0.566 -2.766,-1.393 -3.253,-2.772 -1.106,-3.132 1.199,-7.644 2.551,-10.251 2.479,-4.78 6.598,-8.369 6.598,-8.369 l -0.674,-0.732 c 0,0 0.809,0.012 0.963,-0.043 3.554,-1.292 3.774,-1.311 4.428,-2.252 0.654,-0.942 2.302,-3.629 2.642,-4.514 1.827,-4.751 2.072,-5.06 2.069,-8.176 -0.003,-2.525 -0.171,-4.212 -0.659,-4.346 -2.8,2.147 -5.628,7.161 -7.281,10.116 -0.572,-4.378 -0.741,-12.021 -0.741,-12.021 0.593,-0.655 3.955,-0.289 3.21,-5.771 2.96,1.335 6.079,-0.707 5.948,-3.558 -0.203,-4.438 -3.623,-4.307 -6.406,-3.747 1.326,-2.681 -1.194,-5.913 -3.727,-5.75 z m -0.054,0.373 c 3.657,0.113 4.383,4.155 2.141,6.443 0,0 -1.452,-1.118 -2.222,-1.754 -0.732,0.575 -0.943,1.072 -1.748,1.664 -0.952,-0.704 -1.527,-1.95 -1.536,-3.149 0.045,-1.874 1.936,-3.247 3.364,-3.203 z m -83.556,0.125 c 14.8,8.271 33.357,8.862 50.344,0.433 l -0.207,1.4 -1.862,1.049 1.054,1.93 0.582,-0.279 0.014,1.275 c -14.002,7.564 -37.458,9.129 -55.82,-3.431 l 1.598,-0.741 c 0,0 0.36,0.252 0.707,0.467 0.669,0.414 1.774,1.079 2.502,1.405 l 1.112,-1.603 c 0,0 -1.697,-1.034 -1.53,-1.102 l 1.506,-0.804 z m 1.304,2.536 -0.847,1.925 2.122,1.131 0.808,-1.939 z m -8.051,0.217 c 22.79,14.305 44.004,10.047 56.744,4.197 l 0.164,1.526 c -16.443,6.995 -38.065,8.873 -58.645,-4.962 z m 53.645,0.919 -2.026,0.808 0.804,1.858 2.084,-0.89 z m -56.369,0.346 c 18.52,11.942 38.383,14.279 59.791,5.53 l 0.818,2.286 c -20.849,8.372 -42.851,7.408 -62.952,-6.824 z m 14.231,0.067 -0.828,2.002 2.296,0.871 0.669,-1.964 z m 38.948,0.828 -2.007,0.65 0.626,1.915 2.079,-0.707 z m -35.439,0.549 -0.496,2.012 2.344,0.659 0.409,-2.021 z m 84.817,3.312 c 0.316,3.421 -4.757,5.072 -6.655,1.879 l 1.673,-2.031 -1.496,-1.395 c 2.03,-3.21 6.182,-1.665 6.479,1.547 z m -105.41,-3.201 5.525,3.797 -4.014,6.237 -5.948,-3.994 z m 95.754,0.173 3.508,3.042 -3.22,3.768 -3.292,-3.321 z m -2.181,1.032 -1.973,2.293 2.135,2.27 c -2.532,2.691 -6.31,1.03 -6.273,-2.264 0.029,-2.514 3.877,-4.962 6.11,-2.299 z m -40.901,-0.882 -2.108,0.63 0.481,1.848 2.18,-0.568 z m -28.432,0.582 -0.39,1.988 2.421,0.52 0.409,-1.978 z m 24.953,0.337 -2.243,0.486 0.385,1.978 2.247,-0.472 z m 46.797,0.467 -1.848,1.814 1.848,1.915 1.862,-1.915 z m -67.866,0.058 -0.284,2.002 2.536,0.342 0.197,-2.026 z m 17.08,0.274 -2.281,0.26 0.231,1.964 2.368,-0.298 z m -13.465,0.231 -0.029,2.055 2.223,0.178 0.005,-2.036 z m 9.808,0.193 -2.233,0.082 0.014,1.988 2.281,-0.144 -0.063,-1.925 z m -40.743,0.019 c -1.314,0 -2.378,1.064 -2.377,2.377 0,1.314 1.064,2.377 2.377,2.377 1.314,0 2.378,-1.064 2.377,-2.377 0,-1.314 -1.064,-2.377 -2.377,-2.377 z m 36.998,0.067 -2.195,0.019 0.01,2.012 2.262,0.01 -0.077,-2.04 z m 58.188,0.01 0.963,0.963 -0.963,0.948 -0.987,-0.948 z m -95.191,0.76 c 0.862,0 1.559,0.697 1.559,1.559 0,0.862 -0.697,1.564 -1.559,1.564 -0.862,0 -1.564,-0.702 -1.564,-1.564 0,-0.862 0.702,-1.559 1.564,-1.559 z m -8.456,0.115 3.162,2.575 c -1.006,1.926 -4.192,5.992 -4.192,5.992 l -5.842,-4.683 3.056,-1.728 c -0.166,0.321 -0.26,0.682 -0.26,1.068 0,1.291 1.048,2.334 2.339,2.334 1.291,0 2.339,-1.043 2.339,-2.334 0,-1.238 -0.967,-2.248 -2.185,-2.329 z m -1.766,1.655 c 0.866,0 1.569,0.703 1.569,1.569 0,0.866 -0.703,1.564 -1.569,1.564 -0.866,0 -1.569,-0.698 -1.569,-1.564 0,-0.866 0.703,-1.569 1.569,-1.569 z m 107.464,0.741 c 0,0 0.861,0.327 1.072,0.65 1.696,2.603 -0.071,5.698 -2.913,5.637 -3.32,-0.071 -4.195,-4.233 -1.911,-5.931 l 1.856,1.753 z m -86.323,1.059 6.545,2.512 -2.483,7.113 -7.156,-2.936 z m -26.902,0.741 c 26.702,24.058 64.636,25.788 92.207,9.817 l 1.68,-0.034 0.89,0.914 c -31.411,18.575 -70.457,14.533 -96.818,-9.375 z m 73.525,1.434 2.108,7.031 -7.238,1.906 -1.617,-7.122 z m -76.264,0.255 c 8.104,7.809 19.562,14.652 33.019,18.533 l 0.332,2.883 C 85.045,111.129 74.256,105.401 63.746,95.457 Z m 31.373,0.111 c -1.291,0 -2.339,1.048 -2.339,2.339 0,1.291 1.048,2.334 2.339,2.334 1.291,0 2.339,-1.043 2.339,-2.334 0,-1.291 -1.048,-2.339 -2.339,-2.339 z m -11.641,0.525 6.752,3.571 -3.364,6.733 -7.171,-3.845 z m 11.613,0.245 c 0.866,0 1.569,0.703 1.569,1.569 0,0.866 -0.703,1.564 -1.569,1.564 -0.866,0 -1.569,-0.698 -1.569,-1.564 0,-0.866 0.703,-1.569 1.569,-1.569 z m 11.179,0.958 6.487,0.943 -0.298,7.19 -7.57,-0.91 c 0.29,-2.531 1.381,-7.224 1.381,-7.224 z m 31.334,0.178 c -1.291,0 -2.339,1.048 -2.339,2.339 0,1.291 1.048,2.334 2.339,2.334 1.291,0 2.339,-1.043 2.339,-2.334 0,-1.291 -1.048,-2.339 -2.339,-2.339 z m -0.029,0.77 c 0.866,0 1.569,0.703 1.569,1.569 0,0.866 -0.703,1.564 -1.569,1.564 -0.866,0 -1.569,-0.698 -1.569,-1.564 0,-0.866 0.703,-1.569 1.569,-1.569 z m -52.745,0.101 c -1.291,0 -2.338,1.048 -2.339,2.339 0,1.291 1.048,2.334 2.339,2.334 1.291,0 2.338,-1.043 2.339,-2.334 0,-1.291 -1.048,-2.339 -2.339,-2.339 z m 41.474,0.01 0.929,7.224 -7.084,0.351 -0.419,-7.204 z m 50.772,0.645 1.006,0 c 0.093,6.217 0.585,13.413 1.304,18.735 0.108,0.793 0.158,1.027 0.077,1.169 -0.696,1.232 -1.504,-0.319 -1.819,-3.855 -0.087,-0.974 -0.198,-2.393 -0.318,-3.325 -0.364,-2.819 -0.25,-12.724 -0.25,-12.724 z m -119.73,0.111 c -10.652,6.645 -28.369,22.518 -28.264,22.888 l 0.072,60.994 1.386,0.067 1.145,-2.243 c -1.772,-0.444 -1.276,-3.774 2.118,-4.442 0.579,-0.114 2.348,-0.709 2.782,-1.04 2.576,-1.964 6.761,-3.123 9.697,-2.349 4.282,1.095 5.16,4.243 3.099,9.716 -1.624,4.315 -4.842,9.832 -7.864,11.406 l -0.78,0.39 c 0,0 0.702,0.639 0.958,0.804 8.324,-4.81 12.526,-22.063 12.301,-32.797 0.335,-10.995 2.232,-22.029 6.67,-30.054 7.335,-13.263 17.037,-18.595 16.988,-18.644 0,0 -13.079,-7.94 -20.309,-14.697 z m 27.455,0.005 c 0.866,0 1.569,0.703 1.569,1.569 0,0.866 -0.703,1.564 -1.569,1.564 -0.866,0 -1.569,-0.698 -1.569,-1.564 0,-0.866 0.703,-1.569 1.569,-1.569 z m 64.704,0.25 2.527,6.713 -7.021,2.873 -2.531,-7.055 z m -40.386,0.034 c -1.291,0 -2.339,1.048 -2.339,2.339 0,1.291 1.048,2.334 2.339,2.334 1.292,0 2.339,-1.043 2.339,-2.334 0,-1.291 -1.047,-2.339 -2.339,-2.339 z m 14.274,0.582 c -1.291,0 -2.338,1.048 -2.339,2.339 0,1.291 1.048,2.334 2.339,2.334 1.291,0 2.338,-1.043 2.339,-2.334 0,-1.291 -1.048,-2.339 -2.339,-2.339 z m -14.303,0.188 c 0.866,0 1.569,0.703 1.569,1.569 0,0.866 -0.703,1.564 -1.569,1.564 -0.866,0 -1.569,-0.698 -1.569,-1.564 0,-0.866 0.703,-1.569 1.569,-1.569 z m 14.274,0.582 c 0.866,0 1.569,0.703 1.569,1.569 0,0.866 -0.703,1.564 -1.569,1.564 -0.866,0 -1.569,-0.698 -1.569,-1.564 0,-0.866 0.703,-1.569 1.569,-1.569 z m 23.88,0.799 c -1.291,0 -2.339,1.048 -2.339,2.339 0,1.291 1.048,2.334 2.339,2.334 1.291,0 2.339,-1.043 2.339,-2.334 0,-1.291 -1.047,-2.339 -2.339,-2.339 z m -0.029,0.77 c 0.866,0 1.569,0.703 1.569,1.569 0,0.866 -0.703,1.564 -1.569,1.564 -0.866,0 -1.569,-0.698 -1.569,-1.564 0,-0.866 0.703,-1.569 1.569,-1.569 z m -49.593,0.12 7.017,1.795 -1.631,7.358 -7.917,-2.103 z m 88.763,-0.19 c 1.148,3.594 -0.958,8.205 -1.064,8.506 -1.275,3.616 -2.81,6.571 -3.369,6.742 -0.475,0.18 -0.685,0.065 -0.683,-0.38 0.003,-0.683 1.568,-5.313 2.801,-8.292 0.302,-0.729 1,-2.935 1.002,-3.305 0.002,-0.558 -0.539,0.351 -1.122,1.741 -1.129,2.781 -2.776,5.759 -3.133,8.456 -0.256,2.204 -0.675,1.892 -0.982,-0.732 -0.426,-3.642 0.371,-5.515 4.466,-10.588 0.98,-1.214 1.985,-2.46 2.085,-2.149 z m -51.548,1.869 2.031,7.204 -8.282,1.415 -1.29,-7.305 z m -34.679,0.727 c -1.291,0 -2.339,1.048 -2.339,2.339 0,1.291 1.048,2.334 2.339,2.334 1.291,0 2.339,-1.043 2.339,-2.334 0,-1.291 -1.048,-2.339 -2.339,-2.339 z m 12.383,0.467 7.503,0.428 0.067,7.488 -8.143,-0.351 z m -12.411,0.303 c 0.866,0 1.569,0.703 1.569,1.569 0,0.866 -0.703,1.564 -1.569,1.564 -0.866,0 -1.569,-0.698 -1.569,-1.564 0,-0.866 0.703,-1.569 1.569,-1.569 z m 31.488,0.664 c -1.291,0 -2.339,1.048 -2.339,2.339 0,1.291 1.048,2.334 2.339,2.334 1.291,0 2.339,-1.043 2.339,-2.334 0,-1.291 -1.048,-2.339 -2.339,-2.339 z m -15.554,0.602 c -1.291,0 -2.339,1.048 -2.339,2.339 0,1.291 1.048,2.334 2.339,2.334 1.291,0 2.339,-1.043 2.339,-2.334 0,-1.291 -1.048,-2.339 -2.339,-2.339 z m 15.525,0.168 c 0.866,0 1.569,0.703 1.569,1.569 0,0.866 -0.703,1.564 -1.569,1.564 -0.866,0 -1.569,-0.698 -1.569,-1.564 0,-0.866 0.703,-1.569 1.569,-1.569 z m -15.554,0.602 c 0.866,0 1.569,0.703 1.569,1.569 0,0.866 -0.703,1.564 -1.569,1.564 -0.866,0 -1.569,-0.698 -1.569,-1.564 0,-0.866 0.703,-1.569 1.569,-1.569 z m 51.162,0.448 0.395,0.019 c 1.675,-0.019 7.326,4.039 8.773,6.497 1.201,2.17 0.579,3.031 -0.804,1.092 -1.908,-2.124 -5.432,-5.278 -5.881,-5.279 -0.481,-0.002 0.182,0.685 2.425,2.873 2.226,2.169 4.574,4.997 4.572,5.501 0,0.332 -0.443,0.29 -1.078,-0.101 -1.388,-0.856 -2.593,-1.72 -3.21,-2.3 -0.371,-0.35 -1.08,-0.993 -1.583,-1.434 -2.075,-1.819 -4.44,-6.014 -3.773,-6.819 0.03,-0.036 0.09,-0.046 0.164,-0.048 z m -104.681,0.597 c 1.446,-0.042 3.077,0.877 3.143,2.56 0.047,1.189 0.128,1.28 1.203,1.299 1.026,0.018 3.99,0.371 3.99,0.371 l 0.019,3.33 c 0,0 -1.431,-0.009 -3.08,-0.087 -2.808,-0.133 -2.795,-0.137 -3.152,1.097 -0.144,0.499 -0.345,0.744 -0.905,1.112 -2.522,1.656 -4.953,-1.349 -3.388,-4.187 0.537,-0.974 0.569,-1.307 0.197,-1.891 -0.754,-1.694 0.25,-3.52 1.973,-3.605 z m 0.616,1.704 c -0.311,0 -0.651,0.134 -0.963,0.443 -0.416,0.412 -0.419,1.588 -0.005,2.272 0.395,0.654 0.385,0.83 -0.077,1.261 -0.815,0.759 -0.838,2.266 -0.043,2.832 0.724,0.517 1.493,-0.166 1.497,-1.21 0.005,-1.145 0.805,-1.124 0.805,-1.124 l 5.276,0.091 0.017,-0.86 -3.828,-0.192 c -0.532,-0.002 -1.089,-0.053 -1.5,-0.331 -0.435,-0.301 -0.932,-0.824 -0.458,-1.46 0.664,-0.891 0.073,-1.729 -0.722,-1.723 z m -11.434,1.968 2.502,4.254 2.916,0.106 0.255,2.589 3.545,2.283 -3.632,2.125 -0.179,2.605 -2.752,0.346 -2.555,3.2 -2.45,-3.196 -2.7,0.014 -0.038,-2.671 -3.715,-2.392 4.067,-2.286 -0.043,-3.051 2.883,-0.193 1.896,-3.735 z m 88.396,1.935 0.12,2.57 -4.095,0.727 0.534,-2.618 z m -26.247,2.589 5.52,0.168 -0.318,36.07 -1.295,-0.01 -0.024,-1.405 -1.766,0.058 -1.795,-1.088 z m -62.149,0.914 -3.239,4.1 3.922,3.426 3.455,-4.009 z m 63.804,0.549 0,1.66 2.315,0 0,-1.66 z m -63.732,1.42 2.281,1.67 -1.737,2.296 -2.199,-1.906 z m 88.439,0.943 -0.072,19.741 c -7.585,5.952 -9.948,16.43 -9.947,16.43 l -3.085,-0.183 7.84,-34.775 z m -41.113,0.438 c -6.825,3.247 -13.703,5.706 -20.472,13.451 2.621,2.359 5.391,4.764 7.854,8.783 5.636,-0.839 11.906,0.169 18.745,2.859 z m 16.406,0.443 0,1.718 2.315,0 0,-1.718 z m -76.716,2.478 c 0.168,0.525 0.221,1.088 0.221,1.088 5.005,-0.42 3.728,5.388 0.539,5.587 -0.374,0.048 0.309,1.03 1.054,1.343 1.895,0.796 3.257,0.285 4.5,-1.372 0.953,-1.27 1.011,-1.453 1.011,-1.453 l 3.09,1.636 c 0,0 0.088,-0.045 -0.457,1.372 -0.993,2.578 0.456,5.741 1.574,3.436 0.596,-1.228 2.348,-1.928 3.561,-1.42 1.418,0.594 1.909,3.126 0.914,4.721 -0.301,0.482 -0.31,0.583 -0.125,1.03 0.278,0.672 0.45,2.402 0.159,2.96 -0.378,0.724 -0.814,0.889 -1.665,0.298 -1.166,-0.808 -1.818,-1.144 -3.845,-1.708 -3.561,-0.67 -4.258,-1.923 -5.674,-4.851 -4.218,1.263 -10.529,-1.381 -9.688,-7.642 0.383,-1.382 0.488,-4.034 -0.217,-4.577 -1.38,-1.063 0.134,-2.598 2.209,-2.844 1.705,-0.169 2.525,1.445 2.839,2.397 z m 59.665,-1.814 5.486,22.975 c -6.022,-2.205 -11.932,-3.926 -17.161,-2.647 -2.395,-3.822 -4.437,-5.703 -7.094,-8.186 5.176,-6.24 11.757,-9.732 18.769,-12.142 z m -62.072,1.126 c -0.355,-0.004 -0.756,0.15 -1.174,0.52 0,0 0.371,0.31 0.573,0.732 0.323,0.673 0.326,0.673 -0.038,2.166 -1.673,5.985 2.296,9.944 7.941,8.215 1.386,-0.429 1.333,-0.382 1.732,1.246 0.658,2.68 2.553,4.064 6.319,4.572 0.231,0.031 0.618,0.107 0.924,0.294 1.657,1.057 0.977,-0.349 0.525,-0.895 -0.323,-0.427 -0.914,-0.852 -0.914,-0.852 0,0 0.505,-0.327 0.741,-0.452 1.063,-0.564 1.459,-2.77 0.582,-3.244 -0.8,-0.432 -2.162,0.22 -2.166,1.04 -0.006,1.497 -1.895,1.656 -3.548,0.412 -2.121,-1.597 -0.242,-5.622 -0.229,-5.616 l -1.196,-0.526 c 0.159,0.141 -2.519,3.945 -5.814,2.619 -2.301,-0.927 -3.923,-3.591 -2.856,-4.352 0.777,-0.208 1.71,0.219 2.3,-0.236 1.177,-0.923 0.227,-2.542 -1.453,-2.483 -0.353,0.012 -1.155,0.168 -1.155,0.168 0.088,-0.754 0.282,-1.284 0.188,-2.012 -0.099,-0.728 -0.603,-1.307 -1.28,-1.314 z m 79.146,1.747 0,1.415 2.291,0.014 0,-1.415 z m -0.024,2.916 0,1.458 2.315,0 0,-1.458 z m 0,3.143 0,1.492 2.315,0 0,-1.492 z m 0,2.931 0,1.579 2.315,0 0,-1.579 z m 0,2.94 0,1.473 2.315,0 0,-1.473 z m 0,2.998 0,1.487 2.315,0 0,-1.487 z m -75.258,1.453 1.949,3.292 2.315,0.101 0.091,2.262 3.937,3.008 -3.441,2.459 -0.25,2.44 -2.729,0.087 -2.209,3.725 -2.719,-3.268 -2.185,-0.351 -0.25,-2.974 -3.364,-2.517 3.162,-2.527 0.255,-2.642 2.575,0.226 z m 128.094,1.574 c 0.211,0.004 0.44,0.062 0.688,0.188 0.818,0.412 1.076,0.461 3.2,0.568 2.464,0.124 3.335,0.344 4.557,1.16 0.737,0.492 0.78,0.489 1.569,-0.034 3.46,-2.293 7.413,-0.208 7.7,4.062 0.076,1.123 0.188,1.575 0.63,2.517 0.302,0.653 0.615,1.167 0.433,1.583 -0.555,1.272 -3.221,1.353 -4.673,-0.534 -0.26,-0.285 -0.524,-0.408 -0.885,-0.409 -0.721,0.268 -2.567,-1.184 -2.546,-1.246 -0.171,1.011 -0.257,1.814 -0.438,3.282 l -3.229,-0.048 c 0,0 -0.072,-0.592 -0.221,-2.656 -0.172,-2.374 -0.762,-3.068 -1.521,-1.785 -1.305,2.208 -4.775,1.237 -4.976,-1.391 -0.068,-0.891 -0.119,-1.007 -0.606,-1.381 -1.634,-1.256 -1.158,-3.904 0.318,-3.874 z m -52.836,0.13 0,1.319 2.315,0 0,-1.319 z m 53.207,1.41 c -0.642,0.046 -0.276,1.184 0.784,1.785 0.602,0.341 0.604,0.339 0.525,1.386 -0.143,1.897 1.685,2.826 2.498,1.27 0.141,-0.269 0.201,-0.612 0.144,-0.842 -0.341,-1.378 2.642,-1.002 3.359,0.423 0.165,0.328 0.349,1.199 0.438,2.079 0.084,0.834 0.106,1.8 0.106,1.8 l 0.953,0 c 0,0 -0.011,-0.576 0.043,-1.126 0.236,-2.356 1.279,-3.846 2.685,-3.84 0.6,0.002 0.622,0.109 0.202,0.885 -0.711,1.313 -0.026,2.265 1.631,2.276 1.051,0.007 1.047,0.009 1.439,0.756 0.43,0.82 0.755,1.08 1.155,0.929 0.283,-0.107 0.288,0.051 -0.082,-2.748 -0.551,-4.171 -2.978,-5.294 -6.328,-2.931 -0.948,0.669 -1.156,0.649 -1.997,-0.164 -1.261,-1.217 -2.059,-1.496 -4.524,-1.588 -1.174,-0.044 -2.332,-0.159 -2.57,-0.255 -0.19,-0.077 -0.343,-0.105 -0.462,-0.096 z m -79.527,1.194 c -0.548,0.009 -1.184,0.125 -1.736,0.172 0.613,3.223 0.898,6.447 1.178,9.67 2.822,-0.49 6.477,-0.033 11.299,2.214 2.959,1.379 6.573,3.736 10.361,6.396 4.101,2.879 8.908,4.58 13.002,5.468 4.986,1.082 8.99,0.989 8.881,0.754 -0.221,0.037 -1.797,-7.907 -1.591,-9.605 -6.897,-0.633 -13.556,-3.187 -18.646,-6.647 -6.738,-4.58 -14.527,-8.562 -22.749,-8.422 z m 26.32,0.27 0,1.338 2.315,0 0,-1.338 z m -75.96,0.265 -3.662,3.816 3.985,3.773 3.383,-3.845 z m -0.101,1.732 2.074,1.988 -1.675,2.122 -2.334,-2.012 z m 51.638,0.313 c 0.488,0.004 0.965,0.347 2.579,1.251 1.354,0.934 2.435,1.517 2.04,0.053 0.309,-0.422 1.808,0.95 3.576,1.814 2.131,1.707 2.139,1.296 2.416,0.448 0.286,-0.62 0.679,-0.201 2.382,1.376 2.237,2.072 2.036,2.075 2.483,1.559 0.51,-0.968 0.68,-0.958 2.502,1.136 1.895,2.114 2.296,2.565 2.7,1.66 0.624,-0.468 0.946,-0.014 3.518,2.401 1.265,1.261 1.562,1.066 1.8,0.217 0.245,-0.875 0.314,-0.678 2.45,1.015 2.473,1.979 2.717,2.124 2.82,1.439 0.163,-1.089 0.929,-0.702 3.475,1.126 1.542,1.102 2.125,1.409 2.454,1.136 0.336,-0.594 -0.837,-1.736 1.651,-0.659 l 0.683,3.609 -0.861,-0.245 c -0.529,-0.15 -1.688,-0.543 -1.251,0.582 0.252,0.65 -0.374,0.573 -2.305,-0.578 -2.767,-1.648 -3.277,-2.026 -3.484,-1.689 -0.365,1.234 -0.319,1.313 -2.185,-0.149 -2.172,-1.647 -2.608,-2.102 -2.912,-1.54 -0.04,1.243 -0.646,0.991 -2.671,-0.756 -1.712,-1.497 -2.077,-2.279 -2.844,-1.134 -0.211,0.398 -0.422,0.298 -0.705,0.091 -0.996,-0.736 -2.998,-2.849 -3.564,-3.456 -0.445,-0.485 -0.698,-0.329 -1.064,0.072 -0.341,0.374 -0.368,0.258 -1.473,-0.756 -2.64,-2.421 -3.13,-3.026 -3.499,-2.695 -0.301,0.568 -0.013,1.339 -2.04,-0.26 -2.543,-1.831 -3.647,-2.644 -3.475,-1.444 -0.436,0.537 -0.131,0.643 -2.676,-0.765 -2.419,-1.338 -2.726,-1.74 -3.075,-1.28 -0.237,0.727 -1.049,0.466 -1.049,0.423 l -0.491,-3.672 0.871,0.01 c 0,0 0.838,-0.341 1.222,-0.342 z m -19.409,0.308 c -0.194,0.568 -1.528,3.843 -1.545,12.18 0.16,0.197 3.307,-3.011 3.46,-6.001 0.145,-2.833 -1.909,-6.187 -1.915,-6.179 z m 43.827,0.231 0,1.521 2.315,0 0,-1.521 z m -43.662,1.206 c 2.942,4.665 -0.301,9.063 -1.108,9.374 0,-3.506 0.516,-6.801 1.108,-9.374 z m 77.22,3.919 c -4.837,3.048 -4.052,11.297 -1.678,13.41 0.175,0 1.698,-8.91 1.678,-13.41 z m -0.662,1.015 -1.302,10.616 c -1.691,-1.873 -1.991,-7.456 1.302,-10.616 z m 30.505,1.792 2.555,3.215 2.272,0.168 0.505,2.32 3.316,2.7 -3.321,2.252 -0.294,2.57 -2.469,0.25 -2.445,3.845 -2.392,-3.768 -2.291,-0.245 -0.072,-2.474 -3.6,-2.656 3.436,-2.065 0.067,-2.796 2.69,0.01 z m -90.499,1.006 c -1.624,7.72 -5.502,13.003 -10.973,16.555 l 0.029,0.78 -9.216,3.696 c -2.018,9.418 -5.649,18.605 -13.258,27.224 l 2.122,4.312 -10.294,3.537 14.736,25.27 c 1.015,0 -7.14,3.859 -16.983,2.854 6.23,15.252 7.514,31.043 4.067,44.872 l 48.236,-0.202 -36.864,-72.337 -0.602,-1.179 c -0.512,-0.945 19.597,2.827 15.328,21.478 -0.06,0.432 0.09,0.486 0.332,0.308 3.909,-3.358 29.871,-12.669 50.603,-0.375 l 6.16,-2.551 c -2.932,10.262 -6.264,17.322 -11.882,23.509 l 0.953,14.606 c 9.941,-8.141 20.728,-23.086 22.176,-42.947 4.477,-2.181 8.37,-4.658 12.541,-6.993 l 0.553,0.178 2.7,-1.622 c -8.659,-9.472 -26.338,-18.526 -37.667,-20.905 l 0.669,3.21 c -6.251,-1.678 -10.926,-2.043 -15.79,-2.565 l -0.746,-33.986 -6.295,-3.71 -0.197,37.489 c -4.707,0.058 -15.53,1.915 -15.53,1.915 l 0.486,-3.205 -4.957,1.02 -0.087,-3.123 5.602,-1.607 8.123,-34.438 z m 0.679,0.765 2.589,0.525 -8.042,33.764 c 0,0 -4.511,1.246 -4.788,1.073 -0.359,-6.332 -0.496,-19.236 -0.496,-19.236 7.937,-6.616 9.179,-11.3 10.737,-16.127 z m -55.195,2.478 c 1.212,-0.015 2.516,0.866 2.599,1.66 0.208,0.489 0.381,0.701 0.707,0.746 2.029,0.28 2.093,0.818 2.151,1.988 -0.286,2.243 1.216,0.36 1.641,-1.867 0.044,-0.232 0.019,-1.935 0.019,-1.935 l 2.483,-0.024 c 0,0 0.084,1.777 0.12,2.06 0.219,1.722 0.953,3.119 1.463,2.204 1.747,-3.137 5.748,-1.538 5.116,1.487 -0.156,0.715 -0.146,0.761 0.342,1.304 0.795,0.887 1.09,1.825 0.828,2.642 -0.256,0.798 -0.814,0.919 -2.016,0.438 -0.565,-0.226 -1.249,-0.307 -3.08,-0.361 -2.589,-0.076 -2.751,-0.125 -3.759,-1.102 l -0.635,-0.616 -1.097,0.645 c -1.827,1.074 -3.488,1.115 -5.419,0.125 -1.257,-0.644 -1.989,-2.188 -2.185,-4.596 -0.037,-1.279 -0.396,-2.206 -1.189,-2.512 -0.428,-0.403 0.049,-1.204 0.78,-1.935 0.335,-0.241 0.727,-0.346 1.131,-0.351 z m 144.803,0.366 -3.412,4.254 4.057,3.629 3.778,-4.442 z m -79.036,0.611 4.726,2.705 0.606,33.505 -5.342,-0.149 0.01,-36.06 z m -65.638,0.467 c -0.359,0.035 -0.134,0.612 0.13,1.492 0.236,0.787 0.296,1.277 0.221,1.824 -0.502,3.671 3.708,5.538 6.747,2.993 0.808,-0.926 0.94,-0.866 1.617,0.125 0.834,1.045 2.047,1.385 4.591,1.232 1.161,-0.07 1.931,0.55 2.435,0.14 0.364,-0.264 0.011,-0.964 -0.693,-1.372 -0.431,-0.249 -0.446,-0.288 -0.361,-1.15 0.216,-2.173 -1.576,-2.749 -2.849,-0.914 -1.051,1.515 -2.636,0.514 -3.147,-1.988 -0.304,-1.925 -0.546,-1.895 -0.775,-0.217 -0.248,2.041 -2.936,4.253 -4.009,3.248 -0.294,-0.296 -0.291,-0.222 0.01,-1.246 0.388,-1.315 0.077,-1.805 -1.357,-2.146 -0.235,-0.056 -0.505,-0.252 -0.597,-0.433 -0.76,-1.176 -0.726,-1.588 -1.964,-1.588 z m 145.015,0.78 2.166,1.867 -1.887,2.228 -2.305,-1.771 z m -77.895,1.194 0,1.583 2.021,0 0,-1.583 z m 0,3.191 0,1.665 2.021,0 0,-1.665 z m 12.176,1.915 c 2.265,8.412 4.549,16.817 6.824,25.227 2.156,-0.861 14.602,-6.385 20.472,-13.456 -0.223,0.018 -5.337,-4.982 -7.127,-8.225 -5.871,0.968 -12.614,-0.263 -20.169,-3.547 z m -12.176,1.001 0,1.554 2.021,0 0,-1.554 z m 13.451,0.423 c 5.35,1.596 12.203,3.796 18.514,2.676 1.628,2.924 3.983,5.331 6.641,7.551 -4.776,5.195 -11.682,9.158 -18.826,12.209 z m 50.782,0.606 c 0.269,0.002 0.542,0.104 0.804,0.337 0.846,0.753 1.499,1.013 3.229,1.295 2.787,0.454 4.912,2.194 5.515,4.514 0.253,0.975 0.393,1.028 1.781,0.679 5.258,-1.323 9.312,3.036 8.061,8.855 -0.437,2.032 -0.571,2.275 0.038,3.08 1.337,1.441 1.627,1.46 0.164,2.729 -1.332,1.197 -3.977,0.618 -4.538,-1.323 -0.537,-1.064 -0.528,-1.144 -1.41,-1.285 -3.432,-0.547 -3.29,-5.293 -0.058,-5.842 0.27,-0.046 0.47,0.009 0.606,-0.053 0.918,-0.415 -1,-2.585 -2.584,-2.252 -1.944,0.408 -2.912,1.655 -3.677,3.609 l -3.061,-1.747 c 0.768,-1.588 1.331,-3.634 0.664,-4.899 -0.539,-1.067 -1.221,-1.108 -1.429,-0.087 -0.49,2.403 -3.478,3.121 -5.438,1.165 -1.096,-1.093 -1.224,-2.267 -0.419,-3.85 0.521,-1.024 0.535,-1.098 0.313,-1.53 -0.771,-1.505 0.273,-3.4 1.439,-3.393 z m -64.232,1.954 0,1.622 2.026,-0.01 -0.005,-1.612 -2.021,0 z m 64.608,0.135 c -0.622,0.004 -0.618,0.611 -0.043,1.347 0.511,0.518 0.611,0.756 -0.096,1.203 -0.886,0.821 -1.079,2.057 -0.467,2.998 0.918,1.414 3.039,0.626 2.796,-1.04 -0.17,-1.169 0.748,-1.691 2.209,-1.251 2.124,0.64 3.136,3.013 2.3,5.404 -0.157,0.451 -0.471,1.502 -0.471,1.502 l 0.628,0.38 c 0,0 0.744,-1.189 1.035,-1.549 2.413,-2.966 8.116,-1.463 7.48,2.246 -0.098,1.165 -0.093,1.323 -1.362,0.958 -0.843,-0.434 -1.657,0.467 -1.631,1.593 0.042,1.014 0.922,1.828 2.142,1.665 0.967,-0.181 1.21,-0.148 1.141,1.155 0.099,0.906 0.437,1.507 1.03,1.814 1.44,0.595 2.181,-0.225 1.03,-1.429 -0.697,-0.73 -0.655,-1.858 -0.217,-2.916 0.524,-1.265 0.251,-4.047 -0.553,-5.616 -1.158,-2.261 -4.399,-3.208 -7.113,-2.079 -1.24,0.663 -1.376,0.816 -1.497,-0.346 -0.68,-2.883 -2.85,-5.062 -5.554,-5.255 -1.04,-0.074 -2.123,-0.642 -2.786,-0.784 z m -64.608,2.945 0,1.497 2.026,0 0,-1.497 z m 0,2.926 0,1.651 2.021,0 0,-1.651 z m 0,3.22 0,1.651 c 0,0 1.106,-0.031 2.021,0 l 0,-1.651 z m 66.008,2.647 2.214,3.272 2.45,0.164 0.289,2.642 3.715,2.315 -3.22,2.016 -0.024,2.555 -3.07,0.26 -2.714,3.6 -2.31,-3.176 -2.31,0.01 -0.544,-2.835 -4.091,-2.074 4.197,-2.392 -0.115,-2.979 2.854,-0.019 2.681,-3.359 z m -66.008,0.39 0,1.694 2.021,0 0,-1.694 z m 0,3.104 0,1.675 2.021,0 0,-1.675 z m 64.767,1.246 -3.171,4.221 4.274,3.532 3.398,-4.269 z m -64.767,1.689 0,1.834 2.021,0 0,-1.834 z m 65.094,0.221 2.204,1.704 -1.574,1.997 -2.19,-1.67 z m -65.094,3.167 0,1.535 2.021,0 0,-1.535 z m -60.156,0.197 c -3.896,0.018 -7.582,6.329 -8.465,9.317 -1.044,3.828 -1.199,10.754 -0.207,10.948 3.493,-2.513 5.148,-6.773 7.772,-9.962 0.407,3.688 0.343,10.801 0.343,10.801 0,0 -1.553,0.817 -2.39,2.108 -0.604,1.074 -0.797,2.356 -0.282,3.55 -1.942,-0.631 -5.46,0.082 -5.659,3.667 0.126,5.049 5.639,4.337 5.659,4.269 -0.117,-0.031 -1.085,5.371 3.807,5.943 1.756,0.206 4.844,-1.074 3.927,-5.987 3.088,0.51 5.751,-1.191 5.785,-4.163 0.039,-2.036 -1.507,-3.787 -4.172,-3.797 -0.555,-0.002 -1.728,0.25 -1.728,0.25 0.038,-0.294 1.067,-3.453 -2.517,-5.746 L 44.519,200.65 c 0,0 1.237,1.348 1.79,1.858 2.382,2.192 3.937,3.297 6.685,4.745 2.675,1.41 2.345,1.062 1.882,-1.617 -1.264,-4.024 -3.906,-7.065 -9.495,-10.867 -0.719,-0.489 -1.449,-0.706 -2.17,-0.703 z m 0.385,0.313 0.784,20.671 -1.16,-0.002 -0.996,-20.65 z m 114.672,0.683 0.318,0.01 c 2.521,0.212 3.169,3.031 2.036,4.283 -0.448,0.495 -0.603,0.602 -0.371,0.905 1.082,1.371 0.478,3.536 -0.592,3.869 -3.402,1.058 -3.918,-0.803 -3.908,-2.993 l -5.255,-0.197 0.034,-3.061 5.794,0.115 c -0.437,-1.39 0.4,-2.872 1.944,-2.931 z m -117.107,0.034 0.063,0 c 0.545,0.046 -0.016,1.502 -1.535,3.72 -1.027,1.5 -2.455,4.145 -2.883,5.212 -0.935,2.336 -1.565,6.525 -0.938,5.756 0.566,-1.751 0.621,-2.481 1.107,-3.739 0.64,-1.642 3.629,-7.039 4.221,-7.57 0.506,-0.455 0.637,-0.175 0.626,1.343 -0.026,3.419 -1.646,7.016 -5.51,11.228 -0.644,0.702 -1.503,1.468 -1.564,1.468 -0.372,-0.002 -0.362,-0.775 -0.356,-2.401 0.025,-6.459 2.423,-12.226 6.112,-14.707 0.288,-0.194 0.507,-0.295 0.659,-0.308 z m 3.913,0.298 c 1.695,0.496 4.738,3.217 5.992,4.615 1.452,1.567 3.398,5.907 3.056,6.574 -0.114,0.293 -0.359,0.247 -1.208,-0.231 -5.394,-3.036 -9.256,-6.779 -8.244,-7.989 0.283,-0.338 1.442,0.359 2.993,1.8 1.055,0.936 2.135,1.885 3.099,2.835 1.516,1.492 1.857,1.712 0.943,0.053 -0.82,-1.49 -3.146,-3.989 -5.958,-6.112 -1.143,-0.863 -1.403,-1.558 -0.674,-1.545 z m 113.527,0.871 -0.188,0.034 c -1.061,0.447 -0.629,1.822 -0.732,2.878 l -5.833,-0.202 -0.034,0.808 5.472,0.298 c 0.096,0.825 -0.334,2.606 0.371,2.907 1.531,0.637 2.368,-1.337 1.068,-2.522 -0.463,-0.411 -0.964,-0.593 0.322,-1.174 0.848,-0.724 0.98,-2.139 0.255,-2.767 -0.201,-0.174 -0.487,-0.263 -0.703,-0.26 z m -73.795,0.241 -0.294,2.161 -3.383,0.852 -0.087,-2.31 z m 39.9,0.765 c 12.49,3.364 26.375,11.003 35.391,19.63 l -1.805,1.184 c -9.369,-8.653 -21.727,-15.222 -33.081,-18.485 z m -21.521,0.332 c 20.568,-0.057 39.318,7.939 54.449,20.853 l -2.474,1.559 C 141.357,208.608 126.066,201 105.493,200.093 92.046,199.5 76.701,202.948 61.579,211.268 l -1.126,-2.045 c 14.688,-8.009 29.107,-11.58 42.73,-11.617 z m -1.617,3.099 8.09,0.236 -0.5,7.512 -7.353,-0.241 z m -8.701,0.534 1.141,7.248 -7.041,1.314 -1.997,-7.267 z m 25.607,0.958 8.037,2.142 -2.652,7.387 -7.055,-2.012 z m -12.873,0.106 c -1.276,0 -2.31,1.034 -2.31,2.31 0,1.276 1.034,2.31 2.31,2.31 1.276,0 2.31,-1.034 2.31,-2.31 0,-1.276 -1.034,-2.31 -2.31,-2.31 z m 0,0.799 c 0.851,0 1.54,0.675 1.54,1.511 0,0.836 -0.689,1.516 -1.54,1.516 -0.851,0 -1.54,-0.68 -1.54,-1.516 0,-0.836 0.689,-1.511 1.54,-1.511 z m -15.958,0.014 c -1.276,0 -2.31,1.034 -2.31,2.31 0,1.276 1.034,2.31 2.31,2.31 1.276,0 2.31,-1.034 2.31,-2.31 0,-1.276 -1.034,-2.31 -2.31,-2.31 z m 0,0.799 c 0.851,0 1.54,0.675 1.54,1.511 0,0.836 -0.689,1.516 -1.54,1.516 -0.851,0 -1.54,-0.68 -1.54,-1.516 0,-0.836 0.689,-1.511 1.54,-1.511 z m 31.815,0.929 c -1.276,0 -2.31,1.034 -2.31,2.31 0,1.276 1.034,2.31 2.31,2.31 1.276,0 2.31,-1.034 2.31,-2.31 0,-1.276 -1.034,-2.31 -2.31,-2.31 z m -44.785,0.27 2.382,7.07 -6.819,2.762 -2.555,-6.983 z m 44.785,0.529 c 0.851,0 1.54,0.675 1.54,1.511 0,0.836 -0.689,1.516 -1.54,1.516 -0.851,0 -1.54,-0.68 -1.54,-1.516 0,-0.836 0.69,-1.511 1.54,-1.511 z m 13.36,1.694 7.233,3.821 -3.739,6.757 -6.742,-3.513 z m -60.56,0.611 c -1.276,0 -2.31,1.034 -2.31,2.31 0,1.276 1.034,2.31 2.31,2.31 1.276,0 2.31,-1.034 2.31,-2.31 0,-1.276 -1.034,-2.31 -2.31,-2.31 z m 27.325,0.221 0.337,7.137 -6.405,0.452 -1.165,-7.094 z m 7.686,0.375 7.301,1.011 -1.718,6.872 -6.608,-1.064 1.025,-6.819 z m -35.011,0.202 c 0.851,0 1.54,0.675 1.54,1.511 0,0.836 -0.689,1.516 -1.54,1.516 -0.851,0 -1.54,-0.68 -1.54,-1.516 0,-0.836 0.689,-1.511 1.54,-1.511 z m 23.918,0.924 c -1.276,0 -2.31,1.034 -2.31,2.31 0,1.276 1.034,2.31 2.31,2.31 1.276,0 2.31,-1.034 2.31,-2.31 0,-1.276 -1.034,-2.31 -2.31,-2.31 z m -11.665,0.289 1.891,6.944 -7.041,2.016 -2.161,-6.68 z m 25.559,0.111 c -1.276,0 -2.31,1.034 -2.31,2.31 0,1.276 1.034,2.31 2.31,2.31 1.276,0 2.31,-1.034 2.31,-2.31 0,-1.276 -1.034,-2.31 -2.31,-2.31 z m -13.894,0.399 c 0.851,0 1.54,0.675 1.54,1.511 0,0.836 -0.689,1.516 -1.54,1.516 -0.851,0 -1.54,-0.68 -1.54,-1.516 0,-0.836 0.689,-1.511 1.54,-1.511 z m 13.894,0.399 c 0.851,0 1.54,0.675 1.54,1.511 0,0.836 -0.689,1.516 -1.54,1.516 -0.851,0 -1.54,-0.68 -1.54,-1.516 0,-0.836 0.689,-1.511 1.54,-1.511 z m 24.707,0.014 c -1.276,0 -2.31,1.034 -2.31,2.31 0,1.276 1.034,2.31 2.31,2.31 1.276,0 2.31,-1.034 2.31,-2.31 0,-1.276 -1.034,-2.31 -2.31,-2.31 z m -12.498,0.674 7.055,2.411 -2.815,6.593 -6.752,-2.57 z m 12.498,0.125 c 0.851,0 1.54,0.675 1.54,1.511 0,0.836 -0.689,1.516 -1.54,1.516 -0.851,0 -1.54,-0.68 -1.54,-1.516 0,-0.836 0.689,-1.511 1.54,-1.511 z m -53.072,0.245 c -1.276,0 -2.31,1.034 -2.31,2.31 0,1.276 1.034,2.31 2.31,2.31 1.276,0 2.31,-1.034 2.31,-2.31 0,-1.276 -1.034,-2.31 -2.31,-2.31 z m 0,0.799 c 0.851,0 1.54,0.675 1.54,1.511 0,0.836 -0.689,1.516 -1.54,1.516 -0.851,0 -1.54,-0.68 -1.54,-1.516 0,-0.836 0.69,-1.511 1.54,-1.511 z m 42.745,1.347 c -1.276,0 -2.31,1.034 -2.31,2.31 0,1.276 1.034,2.31 2.31,2.31 1.276,0 2.31,-1.034 2.31,-2.31 0,-1.276 -1.034,-2.31 -2.31,-2.31 z m 0,0.799 c 0.851,0 1.54,0.675 1.54,1.511 0,0.836 -0.689,1.516 -1.54,1.516 -0.851,0 -1.54,-0.68 -1.54,-1.516 0,-0.836 0.689,-1.511 1.54,-1.511 z m -82.64,0.804 c 1.846,0.078 3.231,1.736 3.315,3.461 0.064,1.311 -1.609,3.028 -1.609,3.028 l -1.947,-1.802 -1.869,1.722 c -0.315,0.105 -1.768,-2.364 -1.324,-3.641 0.578,-1.664 1.767,-2.838 3.435,-2.768 z m 104.893,0 5.587,4.572 c 0,0 -2.453,1.491 -2.907,1.757 0.056,-0.199 0.082,-0.409 0.082,-0.626 0,-1.276 -1.034,-2.31 -2.31,-2.31 -1.276,0 -2.31,1.034 -2.31,2.31 0,1.094 0.764,2.013 1.785,2.252 -0.574,0.33 -1.338,0.756 -1.338,0.756 l -2.95,-2.474 z m -8.845,12.219 -2.472,1.014 c -15.214,-9.993 -36.028,-15.462 -59.82,-5.399 l -0.819,-1.972 c 17.663,-7.355 39.948,-9.645 63.111,6.357 z m -1.352,-9.986 5.987,3.672 -3.802,5.838 -5.847,-3.739 z m -1.809,11.319 -2.512,0.943 C 115.612,218.237 95.818,218.873 78.132,226.025 l -0.273,-1.676 c 20.825,-9.016 41.726,-6.147 58.836,4.876 z m 12.46,-9.36 c 0.851,0 1.54,0.675 1.54,1.511 0,0.836 -0.689,1.516 -1.54,1.516 -0.851,0 -1.54,-0.68 -1.54,-1.516 0,-0.836 0.689,-1.511 1.54,-1.511 z m -108.056,2.737 -2.065,2.083 1.885,2.119 c 0,0 -0.598,0.506 -1.032,0.742 -2.471,1.345 -5.175,-0.779 -5.046,-3.074 0.188,-3.343 4.216,-4.936 6.257,-1.87 z m 98.268,-1.596 c -1.276,0 -2.31,1.034 -2.31,2.31 0,1.276 1.034,2.31 2.31,2.31 1.276,0 2.31,-1.034 2.31,-2.31 0,-1.276 -1.034,-2.31 -2.31,-2.31 z m -89.908,0.094 c 1.838,0.014 3.266,1.425 3.442,3.049 0.141,1.295 -0.533,2.538 -1.984,3.418 -1.969,1.194 -4.257,-0.739 -4.218,-0.858 l 1.66,-1.641 -1.997,-2.042 c -0.058,-0.039 1.317,-1.939 3.095,-1.925 z m -5.75,0.397 3.402,3.393 -3.6,3.354 -3.335,-3.349 z m 89.729,9.028 -1.911,0.876 -2.604,-1.569 -0.77,1.477 1.449,0.919 -1.506,0.565 c -17.352,-9.748 -36.958,-6.924 -49.991,-0.455 0,0 0.113,-1.003 0.12,-1.003 l 1.419,-0.724 -0.529,-1.795 -0.76,0.221 -0.058,-1.988 c 18.609,-8.379 39.724,-6.46 55.142,3.475 z m 5.929,-8.72 c 0.851,0 1.54,0.675 1.54,1.511 0,0.836 -0.689,1.516 -1.54,1.516 -0.851,0 -1.54,-0.68 -1.54,-1.516 0,-0.836 0.689,-1.511 1.54,-1.511 z m -95.73,1.213 -1.814,1.805 1.805,1.925 1.761,-1.862 z m 56.797,0.399 -2.377,0.106 0.125,1.939 2.32,-0.058 z m 1.622,0.01 0.043,1.939 2.156,-0.01 -0.01,-1.915 -2.19,-0.014 z m 3.826,0.034 -0.106,1.93 2.142,0.096 0.154,-1.92 z m -9.24,0.245 -2.435,0.265 0.27,1.949 2.305,-0.27 z m 13.23,0.029 -0.173,1.992 2.199,0.25 0.298,-1.906 z m -66.225,0.01 1.059,1.126 -1.054,1.049 -1.121,-1.097 z m 48.89,0.592 -2.349,0.371 0.25,2.007 2.291,-0.452 z m 21.305,0 -0.39,1.858 2.185,0.525 0.356,-1.896 z m -25.155,0.813 -1.973,0.525 0.428,1.954 2.084,-0.51 z m 28.904,0.077 -0.414,1.887 2.228,0.606 0.448,-1.809 z m -32.162,0.938 -2.065,0.732 0.534,1.809 2.098,-0.707 z m 35.998,0.207 -0.688,1.814 1.93,0.775 0.852,-1.646 z m -39.405,1.064 -1.959,0.804 0.808,1.795 1.858,-0.847 z m -40.372,0.056 1.983,1.98 2.356,-2.125 c 2.056,1.817 2.023,6.068 -1.616,6.778 -3.178,0.62 -6.085,-4.137 -2.723,-6.633 z m 83.314,0.382 -0.756,1.665 2.132,0.938 0.736,-1.603 z m -60.811,10.684 26.902,45.724 -4.254,-0.082 -26.036,-44.184 z m -4.416,1.742 1.488,2.311 c -2.913,-2.319 -7.195,-0.368 -7.014,2.555 0.142,1.305 1.246,2.099 1.251,0.842 -0.132,-1.313 1.729,-2.458 3.08,-2.397 2.493,0.032 4.016,3.236 2.296,4.832 -1.132,1.042 -2.663,0.996 -2.146,-0.433 0.081,-0.493 0.041,-0.673 -0.193,-0.885 -0.715,-0.653 -2.035,0.197 -1.713,1.131 0.211,0.614 0.273,0.765 -0.462,1.27 -2.852,2.003 -0.865,5.952 2.589,4.153 0.706,-0.254 0.993,-0.292 1.314,-0.168 1.437,0.553 2.417,-0.695 1.054,-1.343 -0.792,-0.377 -0.812,-1.02 -0.048,-1.53 1.631,-1.089 4.171,0.613 4.163,2.791 -0.006,1.541 -2.04,2.681 -3.99,2.233 -1.159,-0.266 -1.298,0.519 -0.236,1.333 2.058,1.578 5.139,0.27 6.059,-2.57 0.289,-0.893 0.247,-1.08 0.247,-1.08 l 2.745,4.533 c 0,0 -0.851,-0.403 -1.366,-0.56 -2.584,-0.789 -5.482,0.887 -5.491,3.176 -0.005,1.079 0.634,1.496 0.991,0.65 0.832,-1.97 2.642,-2.736 4.5,-1.906 1.719,0.768 2.505,2.509 1.834,4.062 -0.703,1.626 -3.062,2.105 -2.796,0.568 0.127,-0.733 -0.32,-1.18 -1.107,-1.107 -0.298,0.028 -0.68,0.893 -0.578,1.309 0.096,0.389 0.027,0.483 -0.982,1.27 -2.398,1.87 -0.554,4.922 2.44,4.038 0.503,-0.149 0.69,-0.135 1.141,0.082 1.083,0.522 2.22,0.197 2.223,-0.635 0.002,-0.572 -0.256,-0.791 -0.934,-0.794 -1.026,-0.004 -0.804,-1.165 0.332,-1.732 2.849,-1.423 5.758,2.171 4.023,4.971 -0.745,1.203 -1.216,1.327 -3.879,1.035 -0.429,-0.047 -0.623,0.247 -0.368,0.596 0.788,1.117 3.131,1.47 4.496,0.852 1.473,-0.667 2.371,-2.35 2.475,-4.145 l 3.01,5.256 c -2.341,-2.448 -6.38,-1.512 -7.029,1.994 -0.003,0.889 0.807,1.351 1.088,0.621 1.217,-3.164 5.846,-2.194 5.833,1.222 -0.002,0.55 -0.11,0.861 -0.462,1.343 -0.85,1.638 -3.021,2.043 -2.628,0.573 0.175,-0.455 -0.173,-0.949 -0.77,-1.092 -0.588,-0.141 -0.963,0.352 -0.948,1.246 l 0.016,0.875 c -1.083,0.457 -1.774,1.35 -2.015,2.673 l -21.072,0.047 c 2.506,-14.605 1.917,-27.794 -2.873,-40.266 -0.414,-1.082 -1.008,-2.654 -1.008,-2.654 l 3.719,0.099 c 0.897,0.778 4.288,0.476 5.613,-0.727 z m 3.577,5.735 2.176,3.909 c -0.901,-0.516 -1.818,-0.858 -3.22,-0.977 0.732,-1.085 0.79,-2.058 1.043,-2.933 z m -5.721,4.155 c 0.793,0 1.434,0.641 1.434,1.434 0,0.793 -0.641,1.434 -1.434,1.434 -0.793,0 -1.439,-0.641 -1.439,-1.434 0,-0.793 0.646,-1.434 1.439,-1.434 z m 15.005,11.679 2.096,3.731 c -1.02,-0.434 -1.881,-0.859 -3.475,-0.9 0.58,-0.678 1.081,-1.815 1.379,-2.831 z m -6.045,3.996 c 0.752,0 1.362,0.61 1.362,1.362 0,0.752 -0.61,1.357 -1.362,1.357 -0.752,0 -1.357,-0.605 -1.357,-1.357 0,-0.752 0.605,-1.362 1.357,-1.362 z m 15.187,11.628 3.095,5.489 c -1.217,-0.697 -2.527,-1.58 -4.171,-1.411 0.782,-1.672 1.209,-2.583 1.077,-4.079 z m -4.117,6.849 -3.319,0.011 c 0.664,-2.902 3.347,-2.147 3.319,-0.011 z m 3.141,-1.399 c 1.129,0.057 2.102,0.443 2.712,1.427 l -4.177,0.011 c 0,0 0.029,-1.444 1.465,-1.438 z"
           inkscape:connector-curvature="0" /></g></g></g></svg>